<svg width="22" height="19" viewBox="0 0 22 19" fill="none" xmlns="http://www.w3.org/2000/svg">
<path d="M9.54617 1.83333H9.4875L7.447 0.201666C7.28474 0.0714874 7.08303 0.000370597 6.875 0H3.66667C2.69421 0 1.76157 0.386308 1.07394 1.07394C0.386308 1.76157 0 2.69421 0 3.66667V4.58333H6.52117L9.54617 1.83333ZM12.2705 1.83333L7.491 6.17833C7.32242 6.33156 7.10282 6.41653 6.875 6.41667H0V14.6667C0 15.6391 0.386308 16.5718 1.07394 17.2594C1.76157 17.947 2.69421 18.3333 3.66667 18.3333H18.3333C19.3058 18.3333 20.2384 17.947 20.9261 17.2594C21.6137 16.5718 22 15.6391 22 14.6667V5.5C22 4.52754 21.6137 3.59491 20.9261 2.90727C20.2384 2.21964 19.3058 1.83333 18.3333 1.83333H12.2705Z" fill="#B9E2FF"/>
</svg>
