<svg width="27" height="29" viewBox="0 0 27 29" fill="none" xmlns="http://www.w3.org/2000/svg">
<g filter="url(#filter0_d)">
<path d="M20.5234 0.851807H5.78825C4.80063 0.851807 4 1.71174 4 2.77253V18.5992C4 19.66 4.80063 20.52 5.78825 20.52H20.5234C21.5111 20.52 22.3117 19.66 22.3117 18.5992V2.77253C22.3117 1.71174 21.5111 0.851807 20.5234 0.851807Z" fill="#3178C6"/>
</g>
<g filter="url(#filter1_d)">
<path fill-rule="evenodd" clip-rule="evenodd" d="M15.4971 15.6336V17.5759C15.7787 17.739 16.123 17.8595 16.5054 17.941C16.8879 18.0226 17.3052 18.0615 17.7224 18.0615C18.1396 18.0615 18.5221 18.0187 18.9046 17.9294C19.287 17.84 19.6 17.6924 19.8781 17.5021C20.1598 17.2962 20.3997 17.0359 20.5388 16.6863C20.6779 16.3367 20.7856 15.9482 20.7856 15.4432C20.7856 15.0897 20.737 14.7829 20.6431 14.5109C20.5492 14.239 20.4136 14.0059 20.2258 13.8117C20.0485 13.6058 19.8434 13.4233 19.6 13.2679C19.3566 13.1125 19.0784 12.9493 18.7655 12.8017C18.536 12.6968 18.3483 12.5958 18.1396 12.4948C17.9588 12.3938 17.8024 12.2928 17.6876 12.1918C17.559 12.087 17.4616 11.9782 17.3921 11.8655C17.3225 11.749 17.2878 11.6208 17.2878 11.4771C17.2878 11.345 17.3187 11.2246 17.3816 11.1158C17.4446 11.007 17.5312 10.9177 17.6424 10.84C17.7537 10.7623 17.8928 10.704 18.0597 10.6613C18.2231 10.6186 18.4039 10.5992 18.616 10.5992C18.762 10.5992 18.915 10.6112 19.068 10.6357C19.2279 10.6601 19.3914 10.6978 19.5548 10.7483C19.7182 10.7988 19.8781 10.861 20.0416 10.9387C20.1945 11.0164 20.3371 11.1057 20.4588 11.2067V9.38095C20.1945 9.2683 19.9025 9.18284 19.5895 9.12845C19.2766 9.07407 18.9289 9.04688 18.5117 9.04688C18.0944 9.04688 17.712 9.09737 17.3295 9.19449C16.947 9.2916 16.6341 9.44699 16.3559 9.66064C16.0743 9.87041 15.8691 10.1268 15.6953 10.4764C15.5319 10.8027 15.4519 11.1756 15.4519 11.6418C15.4519 12.2245 15.6014 12.7295 15.9039 13.1179C16.2029 13.5452 16.6689 13.856 17.2599 14.1668C17.4999 14.2755 17.712 14.3843 17.9206 14.4892C18.1292 14.5941 18.3031 14.7028 18.4421 14.8155C18.5916 14.9281 18.7099 15.0524 18.7898 15.1845C18.8768 15.3166 18.922 15.472 18.922 15.6507C18.922 15.775 18.8948 15.8915 18.842 16.0003C18.7891 16.1091 18.7064 16.2023 18.5951 16.28C18.4839 16.3577 18.3483 16.4198 18.1779 16.4664C18.0145 16.5092 17.8302 16.5325 17.5868 16.5325C17.2043 16.5325 16.8218 16.4587 16.4741 16.3111C16.0917 16.1634 15.744 15.942 15.431 15.6507L15.4971 15.6336ZM12.5764 10.8555H14.8017V9.26286H8.57785V10.8555H10.8031V17.9643H12.5764V10.8555Z" fill="white"/>
</g>
<defs>
<filter id="filter0_d" x="0" y="0.851807" width="26.3117" height="27.6682" filterUnits="userSpaceOnUse" color-interpolation-filters="sRGB">
<feFlood flood-opacity="0" result="BackgroundImageFix"/>
<feColorMatrix in="SourceAlpha" type="matrix" values="0 0 0 0 0 0 0 0 0 0 0 0 0 0 0 0 0 0 127 0" result="hardAlpha"/>
<feOffset dy="4"/>
<feGaussianBlur stdDeviation="2"/>
<feComposite in2="hardAlpha" operator="out"/>
<feColorMatrix type="matrix" values="0 0 0 0 0 0 0 0 0 0 0 0 0 0 0 0 0 0 0.25 0"/>
<feBlend mode="normal" in2="BackgroundImageFix" result="effect1_dropShadow"/>
<feBlend mode="normal" in="SourceGraphic" in2="effect1_dropShadow" result="shape"/>
</filter>
<filter id="filter1_d" x="4.57785" y="9.04688" width="20.2078" height="17.0146" filterUnits="userSpaceOnUse" color-interpolation-filters="sRGB">
<feFlood flood-opacity="0" result="BackgroundImageFix"/>
<feColorMatrix in="SourceAlpha" type="matrix" values="0 0 0 0 0 0 0 0 0 0 0 0 0 0 0 0 0 0 127 0" result="hardAlpha"/>
<feOffset dy="4"/>
<feGaussianBlur stdDeviation="2"/>
<feComposite in2="hardAlpha" operator="out"/>
<feColorMatrix type="matrix" values="0 0 0 0 0 0 0 0 0 0 0 0 0 0 0 0 0 0 0.25 0"/>
<feBlend mode="normal" in2="BackgroundImageFix" result="effect1_dropShadow"/>
<feBlend mode="normal" in="SourceGraphic" in2="effect1_dropShadow" result="shape"/>
</filter>
</defs>
</svg>
