<svg xmlns="http://www.w3.org/2000/svg" width="24" height="24" xmlns:v="https://vecta.io/nano"><path d="M13.295 11.033V7.65l2.126-2.136c.773-.764.918-1.981.377-2.929-.435-.764-1.228-1.218-2.068-1.218-.203 0-.435.029-.619.087-1.044.28-1.749 1.247-1.749 2.329v3.132L8.327 9.98c-1.604 1.633-2.088 4.079-1.208 6.215.744 1.836 2.368 3.103 4.243 3.431v.59a.5.5 0 0 1-.483.483h-1.45v1.933h1.45a2.43 2.43 0 0 0 2.416-2.416v-.483c1.962 0 4.021-1.856 4.021-4.591 0-2.223-1.856-4.108-4.021-4.108m0-7.249c0-.222.106-.396.309-.454a.47.47 0 0 1 .541.222c.116.193.077.435-.077.59l-.773.831V3.784m-1.933 7.732c-.938.619-1.643 1.682-1.894 2.668l1.894.503v2.948a3.73 3.73 0 0 1-2.484-2.184 3.8 3.8 0 0 1 .802-4.098l1.682-1.769v1.933m1.933 6.283v-4.891c1.131 0 2.107 1.063 2.107 2.233 0 1.691-1.227 2.658-2.107 2.658z" fill="#ff5722"/></svg>