<svg xmlns="http://www.w3.org/2000/svg" viewBox="0 0 24 24" xmlns:v="https://vecta.io/nano"><path d="M4.744 2.031c-1.157 0-1.994.31-2.51.93-.515.612-.771 1.678-.771 3.197v2.467c0 1.408-.402 2.111-1.201 2.111v2.035c.8 0 1.201.678 1.201 2.035v2.654c0 1.512.259 2.562.779 3.152s1.355.885 2.502.885V19.43c-.447 0-.771-.151-.971-.453-.195-.302-.291-.814-.291-1.537v-2.268c0-1.807-.405-2.937-1.215-3.394v-.045c.81-.465 1.215-1.582 1.215-3.352V6.025c0-1.283.42-1.926 1.262-1.926V2.031zm14.66 0V4.1c.842 0 1.262.643 1.262 1.926v2.268c0 1.843.402 2.996 1.207 3.461v.045c-.805.442-1.207 1.544-1.207 3.307v2.356c0 .715-.099 1.221-.299 1.516-.2.302-.521.453-.963.453v2.068c1.152 0 1.984-.295 2.494-.885.515-.59.771-1.663.771-3.219V14.84c0-1.379.404-2.068 1.209-2.068v-2.035c-.805 0-1.209-.696-1.209-2.09V6.113c0-1.49-.256-2.54-.771-3.152-.515-.619-1.347-.93-2.494-.93zM16.349 6.49c-.455 0-.886.058-1.293.174s-.767.286-1.078.527-.551.548-.73.924-.27.817-.27 1.336c0 .663.165 1.227.492 1.695s.832.863 1.502 1.188l.736.369a3.82 3.82 0 0 1 .586.375c.168.13.299.271.395.424s.145.327.145.521c0 .144-.03.279-.09.404a.9.9 0 0 1-.275.318 1.39 1.39 0 0 1-.455.209 2.34 2.34 0 0 1-.635.076c-.415 0-.825-.083-1.232-.25s-.784-.425-1.131-.764v2.223a3.68 3.68 0 0 0 1.102.418c.427.093.875.139 1.346.139.459 0 .894-.05 1.305-.152a3 3 0 0 0 1.09-.5c.311-.236.557-.543.736-.918s.275-.848.275-1.404c0-.403-.052-.755-.156-1.057s-.254-.576-.449-.812-.43-.447-.705-.633-.579-.368-.922-.535l-.676-.348c-.2-.116-.37-.232-.51-.348s-.246-.245-.322-.375a.91.91 0 0 1-.115-.453c0-.153.034-.288.102-.408a.95.95 0 0 1 .289-.32c.124-.088.276-.155.455-.201a2.18 2.18 0 0 1 .598-.078c.16 0 .326.015.502.043a3.26 3.26 0 0 1 .539.131c.18.056.354.129.521.217s.329.189.473.305V6.871a4.04 4.04 0 0 0-.957-.285c-.343-.065-.739-.096-1.186-.096zm-8.773.166l-3.123 9.967h2.094l.605-2.217h3.053l.609 2.217h2.107L9.869 6.656H7.576zm1.072 1.779h.047a4.99 4.99 0 0 0 .145.896l.922 3.35H7.564l.934-3.377a4.35 4.35 0 0 0 .15-.869z" fill="#f44336"/></svg>