<svg xmlns="http://www.w3.org/2000/svg" viewBox="0 0 16 16" xmlns:v="https://vecta.io/nano"><path d="M6.753 1.158c-4.518.801-7.024 5.784-4.994 9.932 2.537 5.185 10.047 5.142 12.512-.071C16.691 5.901 12.323.171 6.753 1.158m.587 2.335c2.576.517 5.233 1.323 5.327 1.615.259.808.255 4.849-.005 5.341-.065.124-1.208-.012-2.081-.248l-.35-.094-.001-.436c-.004-1.309-.137-2.548-.29-2.701-.175-.176-1.311-.544-3.051-.99l-1.107-.284-.015-.267c-.033-.599.117-1.95.232-2.093.063-.079.315-.049 1.341.157M4.028 5.391c.501.066 1.083.178 1.492.289l.179.048.03.984c.057 1.844.116 2.129.474 2.289.448.2 2.083.68 3.621 1.062l.339.084-.01.653c-.011.735-.082 1.394-.175 1.618l-.062.15-.261-.03c-.976-.114-4.175-.897-5.567-1.363-.611-.205-.759-.284-.811-.434-.23-.661-.229-4.906.001-5.337.053-.1.08-.1.75-.012" fill-rule="evenodd" fill="#7986cb"/></svg>