<svg xmlns="http://www.w3.org/2000/svg" viewBox="0 0 24 24" xmlns:v="https://vecta.io/nano"><path d="M14.847 5.357h-.949v-.949h.949m-4.746.949h-.949v-.949h.949m5.249-1.746l1.243-1.243c.18-.18.18-.484 0-.674-.19-.18-.494-.18-.674 0l-1.405 1.405c-.759-.37-1.614-.588-2.515-.588a5.62 5.62 0 0 0-2.525.598L8.061.744c-.18-.18-.484-.18-.664 0a.47.47 0 0 0 0 .674L8.64 2.662C7.225 3.706 6.305 5.357 6.305 7.255h11.39c0-1.898-.949-3.559-2.344-4.594m4.717 5.543a1.424 1.424 0 0 0-1.424 1.424v6.644a1.424 1.424 0 1 0 2.847 0V9.628a1.424 1.424 0 0 0-1.424-1.424m-16.136 0a1.424 1.424 0 0 0-1.424 1.424v6.644a1.424 1.424 0 1 0 2.847 0V9.628a1.424 1.424 0 0 0-1.424-1.424m2.373 9.492a.949.949 0 0 0 .949.949h.949v3.322a1.424 1.424 0 1 0 2.847 0v-3.322h1.898v3.322a1.424 1.424 0 1 0 2.847 0v-3.322h.949a.949.949 0 0 0 .949-.949V8.205H6.304z" fill="#8bc34a"/></svg>