<svg xmlns="http://www.w3.org/2000/svg" viewBox="0 0 100 100" xmlns:v="https://vecta.io/nano"><path d="M50.001 8.217a16.998 16.998 0 0 0-12.053 28.971L24.729 58.094a16.998 16.998 0 0 0-3.176-.309 16.998 16.998 0 1 0 0 33.996 16.998 16.998 0 0 0 9.936-30.771l12.576-19.889a16.998 16.998 0 0 0 5.935 1.092 16.998 16.998 0 0 0 6.154-1.154l12.537 19.83a16.998 16.998 0 0 0 9.754 30.895 16.998 16.998 0 1 0 0-33.998 16.998 16.998 0 0 0-2.949.262L62.204 37.022a16.998 16.998 0 0 0 4.795-11.807A16.998 16.998 0 0 0 50 8.217z" fill="#42a5f5"/></svg>