<svg xmlns="http://www.w3.org/2000/svg" viewBox="0 0 24 24" xmlns:v="https://vecta.io/nano"><path d="M12 1.594A10.41 10.41 0 0 0 1.594 12 10.41 10.41 0 0 0 12 22.406 10.41 10.41 0 0 0 22.406 12c0-.972-.133-1.913-.382-2.806h-.002a.52.52 0 0 0-.025-.093c-.003-.01-.014-.031-.014-.031a.52.52 0 0 0-.84-.151.52.52 0 0 0-.124.535l-.002.002c.231.828.348 1.684.347 2.544 0 2.502-.973 4.855-2.742 6.623S14.501 21.365 12 21.365s-4.855-.973-6.623-2.742S2.633 14.501 2.633 12s.975-4.855 2.744-6.623S9.498 2.635 12 2.635a9.29 9.29 0 0 1 6.034 2.203 1.27 1.27 0 0 0 1.185 1.737 1.27 1.27 0 1 0 0-2.544 1.27 1.27 0 0 0-.436.078c-1.822-1.567-4.191-2.515-6.783-2.515zm-1.315 4.851l-3.833 9.949h2.402l.626-1.685h3.622l-.655-1.865h-2.385l1.551-4.279 2.759 7.829h2.4L13.34 6.445z" fill="#7e57c2"/></svg>