<svg xmlns="http://www.w3.org/2000/svg" xmlns:xlink="http://www.w3.org/1999/xlink" width="720" height="720" xmlns:v="https://vecta.io/nano"><defs><symbol id="A" preserveAspectRatio="xMinYMin meet"><g stroke="#00979c"><path fill="none" stroke-opacity="NaN" stroke-width="60" d="M174 30a10.5 10.1 0 0 0 0 280C364 320 344 30 544 30a10.5 10.1 0 0 1 0 280C354 320 374 30 174 30"/><g fill="#00979c"><path d="M528 205v-32.8h-32.5v-13.7H528V126h13.9v32.5h32.5v13.7h-32.5V205H528z" stroke-width="20"/><path stroke-width="23.6" transform="matrix(1.56 0 0 .64 -366 .528)" d="M321 266v-17.4h53.3V266H321z"/></g></g></symbol></defs><use x="20.063" y="360.85" transform="matrix(.997 0 0 .997 -18.596 -159.19)" xlink:href="#A"/></svg>