<svg xmlns="http://www.w3.org/2000/svg" viewBox="0 0 24 24" xmlns:v="https://vecta.io/nano"><path d="M13.158 2.24c-.125-.001-.253.023-.376.074a.96.96 0 0 0-.444.372c-.043.059-.079.124-.108.195l-3.633 8.78H5.092a.96.96 0 1 0 0 1.928h2.705v.001h2.087v-.001h2.089a.96.96 0 1 0 0-1.928h-1.291l2.461-5.949 6.375 15.406a.96.96 0 0 0 1.782-.737l-7.26-17.545a.96.96 0 0 0-.883-.596zM3.589 15.298a.96.96 0 1 0 0 1.929h2.704l-1.324 3.2a.96.96 0 1 0 1.782.737l1.629-3.937h2.09a.96.96 0 1 0 0-1.929z" fill="#f44336" paint-order="fill markers stroke"/></svg>