<svg xmlns="http://www.w3.org/2000/svg" viewBox="0 0 24 24" fill="#ff6e40" xmlns:v="https://vecta.io/nano"><path d="M1.699 1.547v20.904h3.383v-2.088H3.391V3.636h1.691v-2.09zm17.219 0v2.09h1.693v16.727h-1.693v2.09h3.383V1.548zm-3.753 2.461c-.5 0-.93.076-1.289.225a2.07 2.07 0 0 0-.878.671c-.226.302-.39.672-.494 1.108s-.155.949-.155 1.54c0 .573.049 1.082.15 1.527s.265.811.49 1.11a2.07 2.07 0 0 0 .872.677c.36.152.795.23 1.304.23.518 0 .954-.076 1.308-.225a2.13 2.13 0 0 0 .869-.671c.219-.29.381-.661.485-1.112s.155-.967.155-1.54-.051-1.078-.152-1.514-.262-.808-.485-1.107a2.09 2.09 0 0 0-.869-.686c-.354-.155-.79-.234-1.311-.234zm-6.814.121a.94.94 0 0 1-.137.457.85.85 0 0 1-.357.296 1.71 1.71 0 0 1-.503.137c-.201.024-.412.037-.631.037v1.11h1.436v3.599H6.723v1.189h4.545V9.765H9.863V4.128zm6.814 1.138c.375 0 .643.176.805.527s.241.933.241 1.756c0 .814-.082 1.399-.247 1.756s-.43.534-.799.534-.636-.177-.801-.534-.247-.941-.247-1.748c0-.829.082-1.416.243-1.763a.83.83 0 0 1 .805-.527zm-6.33 7.639c-.5 0-.93.074-1.289.223s-.652.374-.878.673-.39.671-.494 1.107-.155.949-.155 1.54c0 .573.049 1.082.15 1.527s.265.813.49 1.112a2.1 2.1 0 0 0 .874.677c.359.153.793.229 1.302.229.518 0 .954-.076 1.308-.225a2.13 2.13 0 0 0 .869-.671c.219-.29.381-.661.485-1.112s.155-.967.155-1.54-.049-1.078-.15-1.514-.264-.808-.486-1.107a2.09 2.09 0 0 0-.867-.686c-.354-.153-.792-.232-1.313-.232zm5.845.119a.94.94 0 0 1-.137.457.85.85 0 0 1-.357.296 1.71 1.71 0 0 1-.503.137c-.201.024-.412.037-.631.037v1.112h1.436v3.598h-1.436v1.189h4.545v-1.189h-1.405v-5.637H14.68zm-5.845 1.138c.375 0 .643.176.805.527s.241.933.241 1.756c0 .814-.08 1.399-.245 1.756s-.432.534-.801.534-.636-.177-.801-.534-.245-.939-.245-1.747c0-.829.08-1.417.241-1.765a.83.83 0 0 1 .805-.527z"/></svg>