<svg xmlns="http://www.w3.org/2000/svg" fill="none" viewBox="0 0 24 24" xmlns:v="https://vecta.io/nano"><path d="M4.428 14.135c-.312.997-.467 1.495-.429 1.968.035.417.177.818.413 1.165.266.392.701.682 1.569 1.261l3.839 2.56c.775.517 1.163.775 1.582.876.371.09.757.09 1.128.003.42-.1.809-.357 1.588-.871l3.88-2.563c.878-.581 1.318-.871 1.588-1.266a2.43 2.43 0 0 0 .414-1.173c.039-.476-.121-.978-.439-1.981L16.161 3.412c-.164-.518-.247-.778-.404-.971a1.296 1.296 0 0 0-.523-.382c-.23-.092-.502-.092-1.047-.092H9.754c-.547 0-.822 0-1.053.093a1.29 1.29 0 0 0-.524.384c-.158.194-.239.455-.402.977L4.428 14.136zm9.93-9.897c.131.163.198.383.332.821l2.918 9.587a12.146 12.146 0 0 0-3.489-1.181l-1.9-6.422a.248.248 0 0 0-.475.001l-1.878 6.418a12.13 12.13 0 0 0-3.505 1.184l2.933-9.588c.134-.439.201-.658.332-.82.116-.143.266-.254.437-.323.193-.078.422-.078.881-.078h2.094c.459 0 .688 0 .882.078a1.09 1.09 0 0 1 .437.324zm-2.262 11.557c1.106 0 2.066-.28 2.547-.692a2.1 2.1 0 0 1-.154 1.637c-.308.569-.756.853-1.158 1.108-.506.321-.942.598-.942 1.34 0 .246.056.479.158.687a1.868 1.868 0 0 1-1.152-1.725v-.046c.001-.512.002-1.143-.722-1.143a.765.765 0 0 0-.765.764c-.813-.813-.742-1.983-.742-1.983 0-.238.024-.611.132-.936.302.568 1.44.99 2.798.99z" fill="#ff6d00" fill-rule="evenodd"/></svg>