<svg xmlns="http://www.w3.org/2000/svg" width="25.6" height="25.6" viewBox="0 0 24 24" xmlns:v="https://vecta.io/nano"><path d="M12.002 2c-5.522 0-9.999 4.477-9.999 9.999s4.477 9.999 9.999 9.999A10 10 0 0 0 22.003 12 10 10 0 0 0 12.002 2zm.139 4.418c.428 0 .784.099 1.071.295a2.79 2.79 0 0 1 .731.731l5.709 8.262H9.026l1.707-2.349h3.149a9.43 9.43 0 0 1 .771.027 11.19 11.19 0 0 1-.443-.621l-.485-.703-1.639-2.417-4.29 6.063H4.45l5.859-8.262c.191-.264.432-.501.723-.71s.662-.315 1.108-.315z" fill="#1976d2"/></svg>