<svg xmlns="http://www.w3.org/2000/svg" viewBox="0 0 24 24" xmlns:v="https://vecta.io/nano"><path d="M5 3c-1.11 0-2 .89-2 2v14a2 2 0 0 0 2 2h14a2 2 0 0 0 2-2V5a2 2 0 0 0-2-2H5zm3.668 3.447a.9.9 0 0 1 .652.256.84.84 0 0 1 .262.625l-.041 1.537-.033 1.529a8.04 8.04 0 0 1-.047.645l-.033.68 2.578-.484c1.007-.179 1.874-.282 2.604-.309l.088-2.416c.009-.345.115-.742.316-1.189.251-.551.534-.826.852-.826.237 0 .447.08.631.236.197.17.295.382.295.637 0 .067-.007.134-.025.201-.09.327-.135.612-.135.854a6.48 6.48 0 0 1-.041.584l-.033.578-.066 1.893-.068 1.893c0 .327.025.816.074 1.465l.074 1.463a.84.84 0 0 1-.262.625c-.175.17-.391.254-.65.254a1 1 0 0 1-.686-.254c-.192-.166-.289-.37-.289-.611l-.047-1.471-.041-1.471.014-.678c-.703.031-1.57.142-2.604.33l-2.578.477-.096 1.523-.066 1.537a.84.84 0 0 1-.262.625c-.175.17-.391.254-.65.254s-.478-.084-.652-.254a.84.84 0 0 1-.262-.625c0-.452.037-1.128.113-2.027l.121-2.027.041-2.586.041-2.59a.84.84 0 0 1 .262-.625c.175-.17.391-.256.65-.256z" fill="#4caf50"/></svg>