<svg xmlns="http://www.w3.org/2000/svg" xmlns:xlink="http://www.w3.org/1999/xlink" viewBox="0 0 40 40" xmlns:v="https://vecta.io/nano"><path d="M4.974 27.514h2.254v5.259h5.259v2.254H4.974z" fill="#64b5f6"/><path d="M4.974 13.74v6.887l4.382 4.513 1.878-2.008 5.635 5.635-1.878 1.878 4.383 4.382h6.887a1.25 1.25 0 0 0 1.252-1.252V23.757l-11.27-11.27H6.227a1.25 1.25 0 0 0-1.252 1.252z" fill="#1565c0"/><path d="M10.396 23.05c-.422-.422-.488-1.084-.156-1.581L20.508 6.088c.464-.696 1.246-1.114 2.083-1.114h11.182a1.25 1.25 0 0 1 1.252 1.252v11.182a2.5 2.5 0 0 1-1.114 2.083L18.531 29.76c-.497.331-1.159.266-1.581-.156z" fill="#1e88e5"/><path d="M11.22 26.929l9.561-9.561 1.851 1.851-9.561 9.561z" fill="#0a44c2"/><path d="M11.219 26.929l9.56-9.56 1.851 1.851-9.56 9.56z" fill="#64b5f6"/><path d="M14.599 27.252l-1.851-1.851 8.032-8.032 1.851 1.851z" fill="#42a5f5"/><use xlink:href="#B" fill="#0a44c2"/><use xlink:href="#B" x="0.001" fill="#90caf9"/><defs ><path id="B" d="M27.513 16.244a3.76 3.76 0 0 0 3.757-3.757 3.76 3.76 0 0 0-3.757-3.757 3.76 3.76 0 0 0-3.757 3.757 3.76 3.76 0 0 0 3.757 3.757z"/></defs></svg>