<svg xmlns="http://www.w3.org/2000/svg" width="300" height="300" preserveAspectRatio="xMinYMin meet" viewBox="0 0 681.571 842.229" xmlns:v="https://vecta.io/nano"><defs><linearGradient id="A" x1="64.01" x2="32.99" y1="65.26" y2="89.48" gradientUnits="userSpaceOnUse"><stop stop-color="#1565c0" offset=".18"/><stop stop-color="#1e88e5" offset="1"/></linearGradient></defs><path d="M104.682 116.864c-6.404-.083-12.516 2.671-16.697 7.521s-6.004 11.302-4.979 17.623l92.016 558.6c2.367 14.11 14.523 24.484 28.83 24.603h441.439a21.68 21.68 0 0 0 21.676-18.208L759.2 142.225c1.025-6.322-.797-12.773-4.979-17.623s-10.294-7.604-16.697-7.521zm387.465 403.722H351.251L313.1 321.38h213.187z" fill="#1e88e5"/><path d="M59.67 60.12H40.9L37.75 78.5h-13L9.4 96.73a2.71 2.71 0 0 0 1.75.66h40.74a2 2 0 0 0 2-1.68z" fill="url(#A)" transform="matrix(10.83818 0 0 10.83818 83.005847 -330.211103)"/></svg>