<svg xmlns="http://www.w3.org/2000/svg" viewBox="0 0 256 256" xmlns:v="https://vecta.io/nano"><circle cx="128" cy="128" r="97.4" fill="#37474f"/><path d="M130.974 23.383c57.809 1.623 103.262 49.782 101.638 107.591s-49.782 103.262-107.59 101.639C67.304 230.99 21.85 183.011 23.384 125.293c1.532-57.809 49.601-103.443 107.41-101.91h.18zm-.541 10.822c-51.766-1.353-94.875 39.591-96.137 91.448-1.353 51.766 39.591 94.875 91.357 96.137 51.766 1.353 94.875-39.591 96.137-91.357 1.443-51.856-39.501-94.875-91.357-96.227h0zm7.467 59.198c-4.149 3.968-2.525 12.806 3.878 19.57s15.241 8.838 19.209 4.78 2.706-12.987-3.788-19.751-15.422-8.748-19.57-4.78zm52.217-25.162c8.207 8.568 14.43 18.758 18.398 29.851 0 0 2.706 7.395-5.862 7.395H181.73s-6.674-.541-6.944 5.141c-.451 7.034-.271 12.987-.271 12.987.271 4.058 1.804 8.027 4.329 11.183l21.554 22.727c3.517 3.247 3.968 8.568 1.082 12.355-10.912 18.578-28.408 32.286-49.061 38.509-6.313 1.894-6.944-3.247-6.764-6.764 0-2.255 2.615-52.397 2.615-52.397.721-5.411-.992-10.912-4.78-14.881l-11.003-11.814-11.634-11.904c-3.788-3.878-9.019-5.862-14.43-5.501H54.027c-3.427 0-8.658-.812-6.403-7.034 7.305-20.292 21.915-37.066 41.124-46.896 3.878-2.706 9.199-1.984 12.265 1.714l21.554 22.727c3.066 2.706 6.944 4.329 11.003 4.78 0 0 5.862.451 12.987.361 5.591 0 5.501-6.764 5.501-6.764l1.172-20.923c-.271-2.976 1.894-5.591 4.78-5.862.992-.09 1.894.09 2.796.451a87.82 87.82 0 0 1 29.22 20.292z" fill="#f9a825"/></svg>