<svg xmlns="http://www.w3.org/2000/svg" width="400" height="400" xmlns:v="https://vecta.io/nano"><g transform="matrix(.81733 0 0 .81733 10.989 32.73)"><path d="M447.61 200.08c-23.139-22.234-138.85-36.114-175.36-40.154 1.768-4.177 3.274-8.496 4.517-12.944 4.977-2.18 10.35-4.208 15.905-5.901.677 1.997 3.865 9.648 5.682 13.279 73.415 2.025 77.184-54.557 80.17-70.058 2.92-15.157 2.771-29.802 27.953-56.575-37.516-10.933-91.467 16.945-109.54 58.437-6.791-2.544-13.597-4.424-20.328-5.586-4.824-19.459-29.944-73.672-95.863-73.672-83.461 0-174.43 68.853-174.43 185.41 0 97.976 66.891 183.84 104.68 183.84 16.505 0 30.703-12.36 34.036-23.439l14.184 37.224c4.162 8.89 23.41 16.583 31.833 7.357 10.83 6.017 30.703 9.641 41.534-6.405 20.859 4.412 39.299-8.026 39.702-22.868 10.235-.547 15.256-14.918 13.021-26.363-1.648-8.426-19.248-38.661-26.113-49.098 13.59 11.054 48.013 14.183 52.194.007 21.911 17.198 56.057 8.171 58.765-5.815 26.624 6.918 57.16-8.275 52.146-26.676 42.771-2.958 37.296-48.464 25.296-59.996z" fill="#543729"/><path d="M328.514 103.025c9.212-18.277 20.787-38.234 35.408-50.581-16.092 6.486-31.981 25.873-41.375 46.596-4.788-3.043-9.65-5.758-14.552-8.132 13.105-27.971 43.554-51.332 77.112-53.156-22.477 20.385-14.498 62.753-32.979 85.183-5.288-5.312-17.431-15.562-23.615-19.909zm-14.529 29.762c.01-.699.271-6.095.763-8.557-1.289-.303-9.3-1.87-13.476-1.772-.304 5.246 2.204 14.17 4.683 19.542 17.075-.358 29.408-5.471 36.667-10.172-6.18-2.881-16.726-5.442-24.744-6.974-.895 1.851-3.097 6.567-3.893 7.934z" fill="#00acee"/><path d="M250.54 277.39l.018.082c-2.164-4.657-4.463-10.314-7.207-17.708 10.688 15.557 44.184 7.533 42.427-6.407 16.395 12.336 50.143-2.055 42.471-19.353 16.423 7.653 35.168-7.745 30.964-14.455l63.256 12.938c-5.596 9.124-18.339 15.566-37.549 11.089 10.38 14.14-9.773 31.105-37.844 21.761 6.179 13.882-18.814 26.379-47.22 11.91.361 13.888-35.24 15.487-49.315.142zm55.543-70.194c32.497 2.495 86.238 7.341 119.51 11.997-2.102-10.828-7.844-13.921-25.905-18.772-19.425 2.072-68.706 6.913-93.604 6.775z" fill="#2baf2b"/><path d="M285.78 253.36c16.395 12.336 50.143-2.055 42.471-19.353 16.423 7.653 35.168-7.745 30.964-14.455l-75.719-13.908c4.78.254 12.702.797 22.59 1.556 24.899.137 74.18-4.704 93.604-6.775-31.452-7.975-95.666-19.613-140.01-22.48-2.055 3.004-5.833 8.097-12.413 13.51-19.403 41.053-54.557 68.341-93.454 68.341-11.335 0-24.018-1.912-38.233-6.457-8.865 9.497-46.661 16.694-77.329 1.641 24.326 56.961 80.74 94.984 143.19 94.984 52.591 0 75.912-53.704 70.808-67.914-1.238-3.45-6.145-14.889-8.891-22.283 10.689 15.556 44.185 7.532 42.429-6.408z" fill="#ffcc2f"/><path d="M253.91 145.27c4.643-2.526 20.69-12.253 35.981-15.908-.241-1.693-.423-3.401-.536-5.119-10.032 2.403-28.945 10.509-39.784-.662 22.866 6.9 34.283-6.148 51.09-6.148 10.014 0 24.305 2.797 35.569 7.22-9.06-8.37-38.771-33.63-75.557-33.717-8.213 9.957-17.091 31.526-6.764 54.334z" fill="#cecece"/><path d="M115.58 253.33c14.215 4.544 26.898 6.456 38.233 6.456 38.896 0 74.05-27.289 93.454-68.341-14.351 11.979-39.291 22.229-78.241 22.229 34.694-7.867 64.56-25.156 79.753-50.427-10.68-16.998-22.263-54.603 7.07-84.331-4.512-14.496-26.475-52.765-75.095-52.765-84.851 0-155.17 71.001-155.17 166.15 0 22.525 4.547 43.65 12.669 62.664 30.667 15.054 68.463 7.857 77.328-1.64z" fill="#ef5734"/><path d="M141.03 108.45c0 21.644 17.546 39.191 39.19 39.191s39.192-17.548 39.192-39.191-17.548-39.191-39.192-39.191-39.19 17.547-39.19 39.191z" fill="#ffcc2f"/><path d="M156.76 108.45c0 12.958 10.507 23.463 23.463 23.463s23.464-10.506 23.464-23.463-10.504-23.464-23.464-23.464-23.463 10.506-23.463 23.464z" fill="#543729"/><ellipse cx="180.22" cy="98.044" rx="13.673" ry="8.501" fill="#fff"/></g></svg>