<svg xmlns="http://www.w3.org/2000/svg" viewBox="0 0 24 24" xmlns:v="https://vecta.io/nano"><path d="M21.085 13.343a4.35 4.35 0 0 1-1.812 3.788l.738 1.429a1.64 1.64 0 0 1 .058 1.39c-.182.451-.556.806-1.017.959l-.758.24c-.163.058-.345.086-.518.086-.489 0-.949-.221-1.266-.614l-2.033-2.397c-.853-.144-1.659-.508-2.34-1.055a4.99 4.99 0 0 1-1.438.221 4.18 4.18 0 0 1-2.397-.758c-.508.153-1.026.221-1.553.211-.758.01-1.505-.144-2.206-.432-1.371-.614-2.282-1.956-2.33-3.462-.077-.69.038-1.39.336-2.023-.278-.719-.307-1.505-.067-2.234.355-.911 1.026-1.669 1.86-2.148.556-1.621 2.119-2.704 3.836-2.589 1.534-1.438 3.884-1.592 5.591-.355a4.94 4.94 0 0 1 1.247-.163c1.304-.029 2.541.547 3.356 1.573 1.956.508 3.356 2.254 3.433 4.286.048 1.064-.24 2.11-.825 3.002.067.345.105.69.105 1.045m-4.795-1.352c.547.067.978.479.978 1.026a.959.959 0 0 1-.959.959h-.604c-.307.863-.844 1.621-1.553 2.196.24.086.489.134.738.201 4.919-.067 4.344-3.069 4.344-3.117-.058-1.371-1.208-2.445-2.58-2.388a.959.959 0 1 1 0-1.918c1.18.029 2.311.47 3.193 1.247.048-.278.077-.566.077-.853-.058-1.189-.595-2.225-2.752-2.426-1.199-2.838-4.219-1.266-4.219-.384-.029.221.201.69.24.719a.959.959 0 0 1 .959.959.96.96 0 0 1-.959.959c-.508-.019-.988-.211-1.371-.537-.46.297-.988.479-1.534.537-.547.048-.997-.336-1.026-.863-.077-.537.316-1.007.844-1.055.153-.019.901-.134.901-.738 0-.633.24-1.237.652-1.716-.882-.24-1.832.077-2.79 1.237-1.764-.278-2.484-.038-3.011 1.832-.911.451-1.391.767-1.601 1.726 1.036-.211 2.1-.125 3.088.24a.97.97 0 0 1 .566 1.237c-.182.499-.738.748-1.237.566-.7-.307-1.486-.326-2.206-.058-.307.259-.307.796-.307 1.218a2.07 2.07 0 0 0 .959 1.755c.508.259 1.074.393 1.64.384-.144-.249-.269-.508-.374-.777-.182-.518.096-1.084.614-1.266s1.084.096 1.266.614c.384 1.093 1.362 1.841 2.512 1.966a3.59 3.59 0 0 0 3.059-2.043c.221-1.323 1.285-1.438 2.455-1.438m1.918 7.163l-.595-1.247-.681.153.959 1.199.316-.105m-4.459-8.256a.96.96 0 0 0-.873-.988c-.681-.038-1.342.192-1.851.642-.547.556-.834 1.323-.806 2.1a.959.959 0 0 0 .959.959.95.95 0 0 0 .959-.959c0-.259.067-.518.221-.729.115-.096.259-.144.412-.144.527.029.978-.364.978-.882z" fill="#ff4081"/></svg>