<svg xmlns="http://www.w3.org/2000/svg" viewBox="0 0 140 140" xmlns:v="https://vecta.io/nano"><path d="M70 10.172A59.83 59.83 0 0 0 10.172 70 59.83 59.83 0 0 0 70 129.828 59.83 59.83 0 0 0 129.828 70 59.83 59.83 0 0 0 70 10.172zm-4.836 8.785c.496 4.043 1.352 7.322 2.572 10.223 4.779-4.287 10.265-7.546 16.041-9.019-.982 3.938-1.357 7.294-1.262 10.43 6.026-2.315 12.349-3.405 18.301-2.707-3.182 2.413-5.483 4.717-7.129 7.016-2.201 12.074 6.858 20.429 14.779 24.551a5.13 5.13 0 0 1 9.664-.825 5.13 5.13 0 0 1-.781 5.371v.002c-.486 1.055-2.002 2.343-3.496 3.219-4.075 2.39-11.172 5.736-20.914 7.391a100.55 100.55 0 0 1 .076 3.746c0 4.818-.485 8.292-1.385 10.699-3.3 13.313-12.648 26.761-24.695 31.951.357-4.083.197-7.485-.402-10.592-5.582 3.219-11.646 5.279-17.623 5.519h-.002c1.786-3.661 2.855-6.877 3.412-9.975-6.347.995-12.727.741-18.377-1.17 2.931-2.733 5.054-5.314 6.674-7.961-6.292-1.344-12.169-3.87-16.766-7.686 3.821-1.544 6.794-3.239 9.299-5.197-5.425-3.516-10.033-7.998-12.971-13.23 4.012-.07 7.321-.568 10.299-1.453-3.785-5.215-6.468-11.032-7.332-16.951 3.861 1.405 7.196 2.133 10.359 2.355-1.661-6.22-2.081-12.605-.768-18.436 3.03 2.634 5.824 4.479 8.631 5.815.677-6.406 2.575-12.52 5.893-17.496 1.926 3.622 3.913 6.392 6.111 8.672 2.929-5.753 6.9-10.798 11.791-14.262zm26.465 19.557c-2.395 5.514-1.665 11.297-.555 18.732a2.14 2.14 0 0 0 .279-4.178 3.42 3.42 0 0 1 3.586 5.204 3.42 3.42 0 0 1-3.494 1.499c.575 3.882 1.157 8.18 1.422 13.125 1.096-.19 2.179-.408 3.25-.648 6.615-1.487 12.258-3.802 16.871-6.506.45-.264.884-.564 1.275-.867.366-.557.333-.957.035-1.285-4.831-1.245-10.891-4.53-15.258-8.795-4.764-4.653-7.427-10.164-7.412-16.281z" fill="#ffca28"/></svg>