<svg xmlns="http://www.w3.org/2000/svg" viewBox="0 0 140 140" xmlns:v="https://vecta.io/nano"><circle cx="70" cy="70" r="59.828" fill="#ffca28"/><path d="M65.164 18.957c-4.891 3.464-8.862 8.508-11.791 14.262-2.198-2.28-4.185-5.05-6.111-8.672-3.317 4.976-5.216 11.09-5.893 17.496-2.807-1.335-5.6-3.181-8.631-5.815-1.313 5.831-.894 12.216.768 18.436-3.163-.223-6.498-.95-10.359-2.356.864 5.919 3.547 11.737 7.332 16.951-2.978.885-6.287 1.383-10.299 1.453 2.938 5.232 7.546 9.714 12.971 13.23-2.505 1.959-5.478 3.653-9.299 5.197 4.596 3.815 10.474 6.341 16.766 7.686-1.62 2.647-3.743 5.228-6.674 7.961 5.65 1.911 12.03 2.165 18.377 1.17-.557 3.098-1.626 6.313-3.412 9.975h.002c5.977-.241 12.042-2.301 17.623-5.519.6 3.107.759 6.509.402 10.592 12.047-5.19 21.395-18.638 24.695-31.951.9-2.407 1.385-5.881 1.385-10.699a100.55 100.55 0 0 0-.076-3.746c9.742-1.655 16.839-5.001 20.914-7.391 1.494-.876 3.01-2.164 3.496-3.219a5.13 5.13 0 0 0-3.699-8.438 5.13 5.13 0 0 0-5.184 3.889c-7.921-4.122-16.98-12.477-14.779-24.551 1.646-2.298 3.947-4.602 7.129-7.016-5.952-.698-12.275.392-18.301 2.707-.096-3.136.28-6.492 1.262-10.43-5.776 1.473-11.262 4.733-16.041 9.02-1.221-2.901-2.076-6.18-2.572-10.223zm26.465 19.557c-.015 6.117 2.648 11.628 7.412 16.281 4.366 4.265 10.426 7.551 15.258 8.795.298.328.331.728-.035 1.285-.392.304-.825.603-1.275.867-4.613 2.704-10.256 5.019-16.871 6.506-1.071.241-2.154.458-3.25.648-.265-4.945-.847-9.243-1.422-13.125a3.42 3.42 0 0 0 3.442-5.3 3.42 3.42 0 0 0-3.534-1.403 2.14 2.14 0 0 1-.279 4.178c-1.111-7.436-1.84-13.218.555-18.732z" fill="#37474f"/></svg>