<svg xmlns="http://www.w3.org/2000/svg" viewBox="0 0 24 24" fill="#0277bd" xmlns:v="https://vecta.io/nano"><path d="M7.488 2.939h-1.51v4.272L7.82 9.054H5.61L3.197 6.641V2.939H1.595v4.383L4.873 10.6h4.42l1.584 1.584H6.641l3.573 3.683-5.23 5.193h2.063l5.23-5.267-1.989-1.989h10.571v.663l-4.567 2.725-3.83 3.867h2.173l2.615-2.652 5.157-3.094v-3.131h-4.862l-1.657-1.657 1.878-1.878V4.45H16.2v3.499l-1.528 1.51-1.363-1.427V4.449h-1.473v4.273l3.445 3.462h-2.102L7.488 6.549v-3.61m7.992 11.823h-2.062l.994 1.068 1.068-1.068"/></svg>