<svg xmlns="http://www.w3.org/2000/svg" viewBox="0 0 24 24" xmlns:v="https://vecta.io/nano"><path d="M3 3v18.001h18.001V3zm14.101 8.859a5.5 5.5 0 0 1 1.26.145c.417.094.778.213 1.082.357v1.723h-.179c-.261-.241-.58-.442-.959-.602s-.762-.247-1.155-.247c-.139 0-.277.011-.416.035a1.4 1.4 0 0 0-.396.121c-.113.05-.21.127-.291.231a.54.54 0 0 0-.123.348c0 .198.066.349.196.456s.376.2.738.287l.683.165a6.34 6.34 0 0 1 .707.222c.495.188.86.444 1.095.769s.357.739.357 1.254c0 .737-.272 1.336-.813 1.798s-1.271.688-2.197.688c-.536 0-1.003-.054-1.403-.161s-.769-.248-1.117-.416v-1.794h.183c.345.318.73.563 1.155.734s.839.256 1.232.256a3.52 3.52 0 0 0 .401-.031c.165-.02.299-.054.403-.101a.97.97 0 0 0 .313-.225c.084-.09.126-.224.126-.401 0-.164-.061-.306-.183-.423s-.294-.213-.526-.276l-.773-.185c-.269-.06-.522-.137-.76-.227-.544-.204-.937-.479-1.177-.828s-.357-.787-.357-1.306c0-.696.271-1.264.809-1.703s1.235-.663 2.084-.663zm-8.981.136h2.51c.521 0 .902.02 1.143.06a2.13 2.13 0 0 1 .721.265c.246.144.429.338.547.582s.181.518.181.829c0 .362-.082.682-.247.959s-.398.489-.699.643v.04c.423.097.757.298 1.003.602s.374.706.374 1.205c0 .362-.063.686-.19.97s-.296.519-.516.707a2.31 2.31 0 0 1-.844.472c-.304.094-.69.141-1.159.141H8.119zm1.659 1.371v1.582h.262l.672-.016c.185-.01.332-.044.439-.101.151-.077.248-.174.295-.295s.07-.266.07-.427a.91.91 0 0 0-.082-.372c-.052-.124-.146-.216-.282-.276-.122-.054-.274-.083-.456-.086l-.76-.009zm0 2.873V18.1h.123l1.007-.006c.203-.003.389-.046.56-.13s.293-.194.357-.331a1.11 1.11 0 0 0 .099-.482c0-.238-.04-.42-.121-.547s-.214-.228-.405-.291c-.13-.044-.31-.068-.538-.071l-.716-.004z" fill="#26a69a"/></svg>