<svg xmlns="http://www.w3.org/2000/svg" width="300" height="300" fill-rule="evenodd" xmlns:v="https://vecta.io/nano"><rect transform="matrix(-.98339 .18149 .60192 .79856 0 -822.52)" x="405.55" y="967.22" width="107.25" height="156.59" rx="12.306" ry="12.31" fill="#2d9bbd"/><rect transform="matrix(-.98528 .17093 -.59175 .80612 0 -822.52)" x="-1156.5" y="1461.9" width="108.34" height="123.15" rx="10.69" ry="12.31" fill="#4a4bcd"/><path d="M52.112 142.638c-1.342 3.515-26.291 23.248-25.743 27.277s29.811 16.023 32.04 19.027 10.545 41.667 13.603 42.5 18.828-31.275 21.548-32.933 32.808 2.503 34.151-1.01-18.174-35.351-18.722-39.38 9.732-40.12 7.503-43.125-30.061 9.427-33.119 8.594-26.793-27.3-29.514-25.643-.404 41.178-1.747 44.693z" fill="#2e5bc1"/></svg>