<svg xmlns="http://www.w3.org/2000/svg" viewBox="0 0 24 24" xmlns:v="https://vecta.io/nano"><path d="M12 7.175a1.81 1.81 0 0 0 1.808-1.808 1.72 1.72 0 0 0-.262-.931L12 1.751l-1.546 2.685a1.72 1.72 0 0 0-.262.931A1.808 1.808 0 0 0 12 7.175m4.158 9.04l-.967-.976-.976.976c-1.175 1.166-3.236 1.175-4.42 0l-.958-.976-.994.976c-.588.579-1.374.904-2.206.904a3.14 3.14 0 0 1-1.772-.551v4.167a.904.904 0 0 0 .904.904h14.463a.904.904 0 0 0 .904-.904v-4.167a3.14 3.14 0 0 1-1.772.551c-.832 0-1.618-.325-2.206-.904m1.265-6.328h-4.52V8.079h-1.808v1.808h-4.52a2.712 2.712 0 0 0-2.712 2.712v1.392c0 .976.795 1.772 1.772 1.772.488 0 .94-.181 1.247-.515l1.953-1.925 1.907 1.925c.669.669 1.835.669 2.504 0l1.916-1.925 1.944 1.925c.316.334.768.515 1.247.515.976 0 1.781-.795 1.781-1.772v-1.392a2.712 2.712 0 0 0-2.712-2.712z" fill="#ff7043"/></svg>