<svg xmlns="http://www.w3.org/2000/svg" width="300" height="300" fill="#fafafa" xmlns:v="https://vecta.io/nano"><circle cx="150" cy="150" r="30.221"/><path d="M148.1 23.078c-59.135 0-108.82 40.456-122.92 95.193-.121.481-.213.987-.213 1.509 0 3.337 2.707 6.044 6.044 6.044h51.172c2.439 0 4.52-1.448 5.475-3.532 0 0 .078-.144.103-.213 10.55-22.766 33.591-38.562 60.328-38.562 36.717 0 66.483 29.762 66.483 66.483s-29.758 66.483-66.475 66.483c-26.738 0-49.775-15.801-60.328-38.562-.028-.073-.103-.213-.103-.213a6.023 6.023 0 0 0-5.475-3.532h-51.18c-3.341 0-6.044 2.707-6.044 6.044 0 .522.088 1.028.213 1.509 14.097 54.738 63.782 95.193 122.92 95.193 70.097 0 126.92-56.829 126.92-126.92S218.195 23.082 148.1 23.082z"/></svg>