<svg xmlns="http://www.w3.org/2000/svg" viewBox="0 0 256 256" xmlns:v="https://vecta.io/nano"><path d="M123.456 129.975l-3.54 7.845c-4.405 9.981-9.284 22.127-11.066 29.908-.64 2.771-1.037 6.206-1.029 10.014 0 1.506.081 3.089.209 4.701a58.09 58.09 0 0 0 19.981 3.559 58.21 58.21 0 0 0 18.29-2.981c-1.352-1.236-2.641-2.553-3.816-4.037-7.796-9.941-12.146-24.511-19.027-49.009M94.672 80.586c-14.889 10.493-24.633 27.8-24.67 47.414.037 19.32 9.487 36.404 24.002 46.941 3.56-14.831 12.485-28.41 25.868-55.63-.795-2.183-1.701-4.573-2.714-7.084-3.707-9.3-9.058-20.101-13.834-24.992-2.435-2.555-5.389-4.763-8.653-6.648" fill="#64dd17"/><path d="M178.532 194.535c-7.682-.963-14.023-2.124-19.569-4.081-9.329 4.632-19.835 7.249-30.959 7.249-38.491 0-69.693-31.198-69.698-69.7 0-20.891 9.204-39.619 23.764-52.391-3.894-.941-7.955-1.49-12.104-1.482-20.45.193-42.037 11.51-51.025 42.075-.84 4.449-.64 7.813-.64 11.8 0 60.59 49.12 109.714 109.705 109.714 37.104 0 69.882-18.437 89.732-46.633-10.736 2.676-21.061 3.955-29.902 3.982-3.314 0-6.425-.177-9.305-.529" fill="#7cb342"/><path d="M157.922 173.271c.677.336 2.213.884 4.349 1.49 14.375-10.553 23.717-27.552 23.754-46.764h-.006c-.054-32.029-25.974-57.945-58.011-58.009a58.15 58.15 0 0 0-18.213 2.961c11.779 13.426 17.443 32.613 22.922 53.601.003.009.008.017.009.025.01.017 1.753 5.828 4.744 13.538 2.97 7.699 7.202 17.231 11.817 24.177 3.03 4.655 6.363 8 8.633 8.982" fill="#29b6f6"/><path d="M128.009 18.289c-36.746 0-69.251 18.089-89.16 45.826 10.362-6.489 20.941-8.83 30.174-8.746 12.753.037 22.778 3.991 27.589 6.696 1.162.67 2.265 1.39 3.345 2.131a69.41 69.41 0 0 1 28.049-5.894c38.496.005 69.703 31.202 69.709 69.698h-.006c0 19.409-7.938 36.957-20.736 49.594 3.141.352 6.491.571 9.912.554 12.15.006 25.283-2.676 35.129-10.956 6.42-5.408 11.798-13.326 14.781-25.199.583-4.586.919-9.247.919-13.991 0-60.588-49.115-109.714-109.705-109.714" fill="#1e88e5"/></svg>