<svg xmlns="http://www.w3.org/2000/svg" width="800" height="800" xmlns:v="https://vecta.io/nano"><defs><linearGradient id="A" x1="321.22" x2="203.18" y1="2.64" y2="828.94" gradientUnits="userSpaceOnUse"><stop stop-color="#3b5cad" stop-opacity="0" offset="0"/><stop stop-color="#3b5cad" stop-opacity="0" offset=".13"/><stop stop-color="#3b5cad" offset="1"/></linearGradient></defs><path d="M478.325 330.014c22.208-18.082 35.946-43.703 35.691-72.076-.466-54.037-51.521-97.577-114.039-97.577s-113.567 43.535-114.048 97.577c-.246 28.364 13.483 53.993 35.691 72.076 27.476 22.375 49.991 67.625 51.311 117.039 1.469 54.837-2.278 118.303-4.582 150.587-29.376 4.178-50.009 13.984-50.009 25.427 0 15.225 36.544 32.78 81.619 32.78s81.619-17.59 81.619-32.78c0-11.434-20.633-21.249-50.009-25.427-2.304-32.296-6.042-95.756-4.582-150.587 1.346-49.411 23.861-94.661 51.337-117.039z" fill="#0288d1"/><path d="M616.458 649.083c4.361-1.768 8.89-3.089 13.518-3.94a85.61 85.61 0 0 1 15.628-1.891l-.598-4.398c-.158-2.586-1.381-6.016-2.551-9.42l-1.759-4.881c-.695-1.548-1.574-2.964-2.208-4.186l-2.19-3.975a138.83 138.83 0 0 1-16.13-3.659 126.34 126.34 0 0 1-14.556-5.013c-8.25-3.624-16.007-7.687-20.096-12.226-4.943-4.318-5.858-8.628-5.699-12.542a10.73 10.73 0 0 1 2.639-5.514 17.23 17.23 0 0 1 5.858-4.565l-4.881-2.744c-1.478-.792-3.087-1.759-4.978-2.709s-4.063-1.952-6.157-2.929c-4.099-1.952-8.188-3.905-11.627-5.198l-5.453-2.208a107.54 107.54 0 0 1-12.665.88c-4.538.097-9.165 0-13.667-.378-8.857-.756-17.862-1.988-25.647-4.283-3.584-.903-7.083-2.116-10.458-3.624a48.48 48.48 0 0 1-7.819-4.125c-4.09-2.99-6.895-6.016-6.869-9.077l-6.148-1.003c-3.843-.598-12.031-1.697-17.229-2.392-.097.88-.66 1.697-.88 3.149l-1.319 6.368c-2.709 12.727 4.661 25.647 17.168 29.27 30.625 8.918 53.773 23.597 60.457 41.618 13.518 36.447-43.254 72.12-129.577 72.12S257.497 649.9 270.95 613.453c6.526-17.59 28.76-31.979 58.286-40.959a26.45 26.45 0 0 0 18.021-30.782l-1.812-8.654-11.53 1.416c-5.136.563-10.018 1.478-13.764 2.076l-6.271 1.038c.255 2.964-1.856 6.297-5.893 9.165-2.313 1.638-4.758 3.083-7.309 4.318-3.28 1.464-6.646 2.727-10.079 3.782a100.69 100.69 0 0 1-12.313 2.832 121.29 121.29 0 0 1-13.263 1.759c-9.165.721-18.364.88-26.719-.123l-1.513.598c-.88.413-2.392.941-3.879 1.671l-11.337 5.418c-4.151 1.988-7.748 4.257-10.712 5.893l-3.518 1.988-1.231.818c5.761 2.639 8.98 6.297 9.604 10.141 1.451 4.063-.536 8.285-4.283 12.885-2.481 2.478-5.194 4.714-8.1 6.675a72.91 72.91 0 0 1-11.592 6.157 125.55 125.55 0 0 1-30.651 9.481 19.54 19.54 0 0 0-1.759 4.099l-3.245 9.296-1.354 9.577a15.19 15.19 0 0 0-.255 4.477c11.935.123 22.56 2.146 30.493 5.321 9.235 3.052 14.811 7.625 19.121 13.193 3.404 6.016 4.758 12.313 1.759 19.596-2.111 7.089-7.916 14.995-17.362 22.181l1.451 1.258 4.398 3.122c3.747 2.586 8.47 6.236 14.019 9.543l16.315 8.945c2.234 1.258 4.503 2.049 5.919 2.709s2.331 1.011 2.331 1.011c13.325-5.699 27.626-8.628 41.935-10.141 6.936-.76 13.924-.928 20.888-.501 6.834.343 13.799.88 20.316 2.427 6.456 1.697 12.761 3.307 18.277 5.77a105.06 105.06 0 0 1 15.312 8.663c9.42 6.429 16.667 15.497 19.78 25.048l12.128.475c7.309.193 17.045.88 26.746.343l26.649-.941 11.874-1.135a36.71 36.71 0 0 1 6.236-13.923 44.66 44.66 0 0 1 5.075-5.919c5.689-6.212 12.636-11.142 20.379-14.46 5.589-2.74 11.465-4.852 17.52-6.297 6.675-1.319 12.946-2.639 19.754-3.122s14.019-.22 20.792.062A147.2 147.2 0 0 1 579 730.728l7.37-4.099c4.222-2.524 10.299-5.514 14.952-9.235 4.758-3.518 9.762-6.869 12.788-9.675l4.881-4.6c-9.921-6.834-15.628-14.178-19.279-21.425a23.5 23.5 0 0 1-2.269-10.018 14.39 14.39 0 0 1 2.269-9.165c2.586-5.796 9.2-10.079 16.711-13.483M324.71 469.949s12.823-48.567-42.867-111.218l-1.847-1.935c-23.466-27.804-36.353-63.005-36.385-99.388 0-85.137 69.34-154.398 154.577-154.398h3.553c85.233 0 154.587 69.271 154.587 154.398a154.29 154.29 0 0 1-36.367 99.322c-.273.317-.88.967-1.856 1.917-49.446 49.508-42.894 111.256-42.894 111.256 90.282-31.126 151.275-116.02 151.794-211.248.686-119.02-95.416-220.503-214.182-226.201-1.478-.07-2.946-.097-4.398-.097a826.45 826.45 0 0 0-8.443.132c-.193 0-6.631-.132-8.417-.132-1.469 0-2.938 0-4.398.097-118.794 5.699-214.889 107.18-214.238 226.238.501 95.237 61.504 180.125 151.785 211.248z" fill="#78909c"/><path d="M362.32 307.75c23.54-19.167 38.102-46.325 37.832-76.4-.494-57.279-54.612-103.43-120.88-103.43s-120.38 46.147-120.89 103.43c-.261 30.066 14.292 57.232 37.832 76.4 29.124 23.717 52.99 71.682 54.389 124.06 1.557 58.127-2.415 125.4-4.857 159.62-31.138 4.428-53.009 14.823-53.009 26.952 0 16.138 38.736 34.746 86.515 34.746s86.515-18.645 86.515-34.746c0-12.12-21.871-22.524-53.009-26.952-2.443-34.233-6.405-101.5-4.857-159.62 1.426-52.375 25.292-100.34 54.417-124.06z" fill="url(#A)" fill-opacity="0" transform="matrix(.943407 0 0 .943407 136.509512 39.680112)"/></svg>