<svg xmlns="http://www.w3.org/2000/svg" viewBox="0 0 24 24" xmlns:v="https://vecta.io/nano"><path d="M22 8.95c0-2.59-1.74-3.63-3.89-3.63a6.14 6.14 0 0 0-2.6.57c-1-.69-2.17-1.09-3.51-1.09s-2.51.41-3.51 1.09c-.78-.38-1.7-.57-2.6-.57C3.74 5.32 2 6.35 2 8.95c0 2.14 1.18 3.56 2.8 4l-.04.89c0 3.18 2.51 4.26 4.77 4.63.61.45 1.49.73 2.47.73s1.86-.28 2.47-.73c2.26-.36 4.77-1.44 4.77-4.63l-.04-.89c1.62-.44 2.8-1.87 2.8-4" fill="#90a4ae"/><path d="M7.31 6.9a4.71 4.71 0 0 0-.53-.03c-1.72 0-3.11.83-3.11 2.9 0 1.2.47 2.12 1.19 2.68.26-2.11 1.11-4.12 2.45-5.55m9.91-.03a4.71 4.71 0 0 0-.53.03c1.34 1.43 2.19 3.44 2.45 5.55.72-.56 1.19-1.48 1.19-2.68 0-2.07-1.39-2.9-3.11-2.9" fill="#f8bbd0"/><path d="M14.07 15.21c0 1.86-.96 2.33-2.07 2.33s-2.07-.47-2.07-2.33.96-3.36 2.07-3.36 2.07 1.51 2.07 3.36M9.5 11.75a1.25 1.25 0 1 1-2.5 0 1.25 1.25 0 1 1 2.5 0m7.5 0a1.25 1.25 0 1 1-2.5 0 1.25 1.25 0 1 1 2.5 0" fill="#263238"/></svg>