<svg xmlns="http://www.w3.org/2000/svg" viewBox="0 0 24 24" fill-rule="evenodd" stroke-linejoin="round" stroke-miterlimit="2" fill="#0288d1" xmlns:v="https://vecta.io/nano"><path d="M13.506 1.71a10.34 10.34 0 0 0-3.012 0l-.659 1.72a8.87 8.87 0 0 0-2.365.979l-1.682-.75c-.809.602-1.527 1.32-2.129 2.129l.75 1.682c-.44.737-.77 1.534-.979 2.365l-1.72.659a10.34 10.34 0 0 0 0 3.012l1.72.659a8.87 8.87 0 0 0 .979 2.365l-.75 1.682c.602.809 1.32 1.527 2.129 2.129l1.682-.75c.737.44 1.534.77 2.365.979l.659 1.72a10.34 10.34 0 0 0 3.012 0l.659-1.72a8.87 8.87 0 0 0 2.365-.979l1.682.75c.809-.602 1.527-1.32 2.129-2.129l-.75-1.682c.44-.737.77-1.534.979-2.365l1.72-.659a10.34 10.34 0 0 0 0-3.012l-1.72-.659a8.87 8.87 0 0 0-.979-2.365l.75-1.682c-.602-.809-1.32-1.527-2.129-2.129l-1.682.75c-.737-.44-1.534-.77-2.365-.979zM12 5.336A6.67 6.67 0 0 1 18.665 12 6.67 6.67 0 0 1 12 18.665 6.67 6.67 0 0 1 5.336 12 6.67 6.67 0 0 1 12 5.336zm2.676 9.335A3.77 3.77 0 0 1 12 15.782c-2.088 0-3.782-1.694-3.782-3.782S9.912 8.218 12 8.218a3.77 3.77 0 0 1 2.676 1.111l-1.337 1.336c-.342-.343-.816-.556-1.339-.556a1.891 1.891 0 1 0 0 3.782c.523 0 .997-.213 1.339-.556z"/></svg>