<svg xmlns="http://www.w3.org/2000/svg" viewBox="0 0 24 24" xmlns:v="https://vecta.io/nano"><path d="M8.042 3.036l-.737.237a5.4 5.4 0 0 0-1.385.824l-.275.21c-.127.055-.701.654-1.007 1.052-1.732 2.247-2.442 5.513-1.86 8.565.075.396.338 1.362.464 1.706.765 2.085 2.137 3.719 3.928 4.673 1.412.753 3.084 1.06 4.822.887.348-.035.524-.063 1.084-.166.233-.043 1.382-.385 1.659-.494 2.392-.947 4.366-2.582 5.572-4.619.507-.855.796-1.668 1.029-2.881.37-1.924-.502-4.262-2.324-6.229-2.643-2.854-6.788-4.458-10.181-3.942-.207.032-.504.099-.792.177zm.421 1.507c.28-.076.575-.139.813-.167.652-.077 1.304-.069 1.994.024 3.131.421 6.308 2.488 7.805 5.077.498.861.788 1.79.803 2.579.012.634-.129 1.179-.432 1.678-.155.255-.305.433-.548.647-.613.538-1.455.877-2.502 1.005-.548.067-.919.206-1.229.46-.068.056-.643.588-1.279 1.182-1.248 1.166-1.237 1.156-1.42 1.103a.44.44 0 0 1-.151-.086c-.13-.123-.125-.161.08-1.224.105-.544.189-1.053.188-1.132-.003-.271-.113-.547-.298-.751-.113-.125-.299-.244-.547-.349-2.359-1.007-4.343-2.776-5.296-4.722a5.24 5.24 0 0 1-.412-1.088c-.29-1.061-.22-1.913.219-2.683.322-.565.778-.964 1.488-1.302.178-.085.443-.176.723-.252z" fill="#8d6e63"/></svg>