<svg xmlns="http://www.w3.org/2000/svg" viewBox="0 0 24 24" xmlns:v="https://vecta.io/nano"><path d="M12.006 2.375c-5.528.004-10.028 4.471-10.032 9.959v.025l1.706.995.023-.016a4.908 4.908 0 0 1 3.641-.773 4.75 4.75 0 0 1 2.398 1.193l.293.273.166-.363a6.58 6.58 0 0 1 .551-.98 6.5 6.5 0 0 1 .278-.373l.171-.215-.211-.176a6.999 6.999 0 0 0-3.249-1.516 7.16 7.16 0 0 0-3.359.197c.811-3.557 3.938-6.036 7.631-6.039a7.78 7.78 0 0 1 5.515 2.267 7.68 7.68 0 0 1 2.095 3.759 7.182 7.182 0 0 0-2.089-.317h-.128a7.258 7.258 0 0 0-.829.061l-.035.005c-.122.016-.229.032-.326.051-.048.008-.095.018-.142.027a7.34 7.34 0 0 0-.327.074l-.116.029a7.49 7.49 0 0 0-.403.12l-.024.008a7 7 0 0 0-.878.367l-.023.012a6.56 6.56 0 0 0-.392.214l-.03.018a6.806 6.806 0 0 0-1.77 1.516l-.063.077a6.78 6.78 0 0 0-.316.42 8.07 8.07 0 0 0-.241.378l-.051.087a6.8 6.8 0 0 0-.195.361l-.013.024a7.06 7.06 0 0 0-.368.888l-.014.045a6.87 6.87 0 0 0-.343 2.264l.001.094a9.451 9.451 0 0 0 .017.33c.004.052.009.104.014.156a6.9 6.9 0 0 0 .021.189l.004.035.011.086c.015.106.032.211.052.316.202 1.058.706 2.115 1.458 3.058l.034.043.035-.042c.3-.355 1.044-1.479 1.107-2.153l.001-.012-.006-.011a4.707 4.707 0 0 1-.535-2.168c0-2.52 1.981-4.613 4.509-4.765l.166-.006c1.027-.023 2.031.27 2.9.857l.023.016 1.683-.979.022-.013v-.025c.002-2.66-1.04-5.16-2.933-7.039s-4.408-2.91-7.087-2.91" fill-rule="evenodd" fill="#ec407a"/></svg>