<svg xmlns="http://www.w3.org/2000/svg" viewBox="0 0 24 24" xmlns:v="https://vecta.io/nano"><path transform="rotate(90)" fill="#0d3858" stroke="#4dd0e1" stroke-width=".7" d="M2.257-21.744h19.487v19.487H2.257z"/><path d="M12.565 16.073q-.826.436-2.056.436-1.589 0-2.544-1.023-.955-1.023-.955-2.684 0-1.786 1.075-2.887 1.075-1.101 2.726-1.101 1.059 0 1.755.306v.929q-.8-.447-1.765-.447-1.283 0-2.082.857-.794.857-.794 2.29 0 1.36.743 2.17.748.805 1.957.805 1.122 0 1.942-.498zm4.426-7.623q-.278-.156-.63-.156-.995 0-.995 1.255v.914h1.388v.81h-1.388v5.112h-.943v-5.112h-1.012v-.81h1.012v-.96q0-.931.538-1.469.538-.544 1.342-.544.434 0 .688.104z" fill="#4dd0e1"/></svg>