<svg xmlns="http://www.w3.org/2000/svg" width="24" height="24" xmlns:v="https://vecta.io/nano"><path d="M6.61 3.017a3.593 3.593 0 0 1 3.593 3.593v1.797h3.593V6.61a3.593 3.593 0 0 1 7.187 0 3.593 3.593 0 0 1-3.593 3.593h-1.797v3.593h1.797a3.593 3.593 0 0 1 0 7.187 3.593 3.593 0 0 1-3.593-3.593v-1.797h-3.593v1.797a3.593 3.593 0 1 1-7.187 0 3.593 3.593 0 0 1 3.593-3.593h1.797v-3.593H6.61a3.593 3.593 0 1 1 0-7.187m8.984 14.374a1.797 1.797 0 1 0 3.593 0 1.797 1.797 0 0 0-1.797-1.797h-1.797v1.797m-1.797-7.187h-3.593v3.593h3.593v-3.593m-7.187 5.39a1.797 1.797 0 1 0 0 3.593 1.797 1.797 0 0 0 1.797-1.797v-1.797H6.61M8.407 6.61a1.797 1.797 0 0 0-3.593 0A1.797 1.797 0 0 0 6.61 8.407h1.797V6.61m8.984 1.797a1.797 1.797 0 1 0 0-3.593 1.797 1.797 0 0 0-1.797 1.797v1.797z" fill="#90a4ae"/></svg>