<svg xmlns="http://www.w3.org/2000/svg" viewBox="0 0 24 24" xmlns:v="https://vecta.io/nano"><path d="M2.468 2.922v5.447h1.815V2.922zm12.709 1.816c-3.268 0-6.029 2.159-6.946 5.127L6.099 12l2.133 2.133c.917 2.969 3.677 5.129 6.946 5.129a7.26 7.26 0 1 0 0-14.524zm2.942 3.703l1.342 1.629-5.49 5.488-3.178-3.467 1.34-1.34 1.838 1.838 4.149-4.149zM3.377 10.184c-.999 0-1.816.818-1.816 1.816 0 1.008.818 1.816 1.816 1.816A1.81 1.81 0 0 0 5.191 12c0-.999-.807-1.816-1.815-1.816zm-.908 5.447v5.447h1.815v-5.447z" fill="#009688"/></svg>