<svg xmlns="http://www.w3.org/2000/svg" width="200" height="200" xmlns:v="https://vecta.io/nano"><path d="M179.363 121.669l-57.623 57.508c-.23.23-.576.346-.807.23l-78.713-21.09c-.346-.115-.576-.346-.576-.576L20.439 79.144c-.115-.346 0-.576.23-.807L78.293 20.83c.23-.23.576-.346.807-.23l78.713 21.09c.346.115.576.346.576.576l21.09 78.597c.23.346.115.576-.115.807zm-77.215-62.578L24.818 79.72c-.115 0-.23.23-.115.346l56.586 56.47c.115.115.346.115.346-.115l20.744-77.215c.115 0-.115-.23-.23-.115z" fill="#37474f"/></svg>