<svg xmlns="http://www.w3.org/2000/svg" viewBox="0 0 33 33" xmlns:v="https://vecta.io/nano"><path d="M16.633 2.088A12.71 12.71 0 0 0 3.919 14.802c0 6.186 4.435 11.327 10.288 12.471v3.64c7.609-1.148 14.346-7.187 14.848-15.117.303-4.772-2.076-9.644-6.089-12.01a10.575 10.575 0 0 0-1.456-.728l-.243-.097c-.223-.082-.448-.175-.679-.242a12.614 12.614 0 0 0-3.954-.631zm2.62 4.707a1.388 1.388 0 0 0-1.213.485c-.233.311-.379.611-.534.922-.466 1.087-.311 2.252.388 3.106 1.087-.233 2.009-.927 2.475-2.014a2.45 2.45 0 0 0 .243-1.019c.048-.825-.634-1.405-1.359-1.48zm-5.654.073c-.709.068-1.383.63-1.383 1.407a2.45 2.45 0 0 0 .243 1.019c.466 1.087 1.46 1.78 2.547 2.014.621-.854.782-2.019.316-3.106-.155-.311-.3-.616-.534-.849a1.364 1.364 0 0 0-1.188-.485zM9.79 10.603c-1.224.063-1.771 1.602-.752 2.402.311.233.612.403.922.558 1.087.466 2.344.306 3.275-.315-.233-1.009-1.023-1.936-2.11-2.402-.388-.155-.703-.243-1.092-.243-.088-.009-.161-.004-.243 0zm11.961 4.707a3.551 3.551 0 0 0-2.013.582c.233 1.009 1.023 1.936 2.11 2.402.388.155.704.243 1.092.243 1.398.078 2.081-1.65.994-2.426-.311-.233-.611-.379-.922-.534a3.354 3.354 0 0 0-1.262-.266zm-10.603.072c-.427.009-.854.093-1.262.267-.388.155-.689.325-.922.558-1.009.854-.33 2.48 1.068 2.402.388 0 .782-.088 1.092-.243 1.087-.466 1.859-1.392 2.014-2.401a3.475 3.475 0 0 0-1.99-.582zm3.931 2.378c-1.087.233-2.009.927-2.475 2.014-.155.311-.243.684-.243.995-.078 1.32 1.724 2.029 2.5 1.019.233-.311.378-.612.533-.922.466-1.009.306-2.174-.315-3.106zm2.887.073c-.621.854-.781 2.019-.315 3.106.155.311.3.616.534.849.854.932 2.649.243 2.572-.922a2.45 2.45 0 0 0-.243-1.019c-.466-1.087-1.46-1.78-2.547-2.013z" fill="#4caf50" fill-rule="evenodd"/></svg>