<svg xmlns="http://www.w3.org/2000/svg" width="200" height="200" xmlns:v="https://vecta.io/nano"><path d="M76.362 75.199V64.116l3.284-.137c30.377-.958 50.286 26.135 50.286 26.135s-21.483 29.829-44.539 29.829c-3.079 0-6.089-.479-8.963-1.437V84.845c11.836 1.437 14.23 6.636 21.277 18.472l15.804-13.273s-11.562-15.12-30.992-15.12c-2.052-.068-4.105.068-6.157.274m0-36.671v16.557l3.284-.205c42.213-1.437 69.784 34.618 69.784 34.618s-31.608 38.45-64.516 38.45c-2.873 0-5.678-.274-8.484-.753v10.262c2.326.274 4.721.479 7.047.479 30.65 0 52.817-15.667 74.3-34.139 3.558 2.874 18.13 9.784 21.14 12.794-20.388 17.104-67.937 30.856-94.893 30.856-2.6 0-5.063-.137-7.526-.41v14.436h116.44V38.532zm0 79.978v8.757C48.038 122.2 40.17 92.712 40.17 92.712s13.615-15.051 36.192-17.514v9.578h-.068c-11.836-1.437-21.14 9.647-21.14 9.647s5.268 18.678 21.209 24.082M26.077 91.481s16.762-24.767 50.354-27.366v-9.031C39.213 58.095 7.057 89.566 7.057 89.566s18.199 52.68 69.305 57.469v-9.578c-37.492-4.652-50.286-45.975-50.286-45.975z" fill="#76b900"/></svg>