<svg xmlns="http://www.w3.org/2000/svg" width="300" height="300" viewBox="0 0 300 702.632" xmlns:v="https://vecta.io/nano"><g transform="matrix(.93181 0 0 .97555 101.2325 596.413)" fill="#f44336"><ellipse cx="232.63" cy="-345.75" rx="110.59" ry="103.55"/><ellipse cx="384.64" cy="-459.86" rx="39.614" ry="37.967"/><path d="M-216.87-484.86c-7.976 1.11-14.226 8.274-14.252 16.944l.504 442.73c0 6.705 1.612 20.532 18.373 20.532l150.67-.676c43.068-.086 71.913-.915 89.092-3.359h.408c16.44-2.57 33.854-7.305 52.789-14.223 32.917-11.582 62.105-28.693 87.203-51.549 24.573-22.141 43.614-48.355 56.998-77.844s20.129-60.667 20.079-92.991c-.071-44.993-12.166-87.123-36.433-125.03s-57.397-66.932-98.165-86.156c-41.445-19.773-95.485-28.783-162.53-28.648l-162.7.268c-.699.004-1.363-.091-2.039.003zm87.569 91.1l70.135-.115c32.777-.065 56.096 1.055 69.323 3.099 13.409 2.073 28.094 6.447 43.646 13.208 15.414 6.609 28.851 14.704 40.397 24.779 31.765 27.792 46.739 60.684 46.807 104.23.07 44.591-14.401 79.324-45.342 108.45-9.518 8.841-20.102 16.337-31.78 22.542-11.037 5.784-25.434 10.77-43.613 15.065-17.145 3.859-43.175 6.056-77.06 6.124l-72.174.119z"/></g></svg>