<svg xmlns="http://www.w3.org/2000/svg" viewBox="0 0 24 24" xmlns:v="https://vecta.io/nano"><path d="M12.618 1.566c-.246 0-.492.096-.682.281L5.538 5.546l6.372 6.372v.005l7.659 7.659 1.46-2.63-5.265-12.64-2.457-2.457c-.191-.191-.44-.288-.689-.288z" fill="#66c3fa"/><path d="M5.554 5.531l-3.691 6.382a1 1 0 0 0-.289.694c0 .249.097.496.288.687l3.059 3.062 11.963 4.706 2.704-1.503-.073-.073-.019.002-7.5-7.513h-.009L5.554 5.532z" fill="#215896"/><path d="M5.537 5.535l6.518 6.525h.009l7.502 7.51 2.855-.545.004-8.449-3.015-2.955c-.66-.647-1.675-1.064-2.695-1.202l.002-.033-11.181-.852z" fill="#235997"/><path d="M5.546 5.542l6.522 6.522v.009l7.506 7.506-.546 2.855h-8.449l-2.954-3.017c-.647-.661-1.064-1.676-1.2-2.696l-.033.002-.846-11.182z" fill="#58b6f0"/></svg>