<svg xmlns="http://www.w3.org/2000/svg" width="300" height="300" overflow="visible" fill="#43a047" xmlns:v="https://vecta.io/nano"><path d="M141.109 25.001h40.879V214.22c-20.971 3.981-36.366 5.574-53.089 5.574-49.905-.002-75.918-22.561-75.918-65.831 0-41.676 27.608-68.748 70.342-68.748 6.636 0 11.679.529 17.785 2.122zm0 95.245c-4.778-1.591-8.759-2.122-13.802-2.122-20.705 0-32.65 12.742-32.65 35.037 0 21.768 11.415 33.713 32.385 33.713 4.51 0 8.228-.265 14.068-1.06zm105.913-32.115v94.762c0 32.65-2.389 48.311-9.555 61.849-6.637 13.01-15.398 21.236-33.447 30.262l-37.96-18.05c18.05-8.494 26.81-15.924 32.384-27.342 5.841-11.679 7.701-25.217 7.701-60.786V88.132zM206.145 25.22h40.877v41.94h-40.877z"/></svg>