<svg xmlns="http://www.w3.org/2000/svg" width="24" height="24" xmlns:v="https://vecta.io/nano"><path d="M22.593 10.11c-.065-.043-.605-.464-1.771-.464a5.16 5.16 0 0 0-.907.086c-.227-1.512-1.49-2.278-1.544-2.311l-.313-.184-.194.292c-.259.389-.464.831-.551 1.285-.216.864-.086 1.685.356 2.387-.529.302-1.393.378-1.577.378H1.87c-.367 0-.669.302-.669.68 0 1.242.194 2.484.626 3.65.486 1.285 1.22 2.235 2.16 2.818 1.058.648 2.797 1.015 4.773 1.015a14.43 14.43 0 0 0 2.613-.238c1.209-.216 2.376-.637 3.445-1.253a8.96 8.96 0 0 0 2.343-1.933c1.134-1.263 1.803-2.7 2.289-3.941h.205c1.231 0 1.998-.497 2.419-.918a2.59 2.59 0 0 0 .637-.939l.086-.259-.205-.151M3.199 11.179h1.901c.086 0 .173-.076.173-.173V9.3c0-.086-.076-.173-.173-.173h-1.9a.17.17 0 0 0-.173.173v1.706c.011.097.076.173.173.173m2.624 0h1.901c.086 0 .173-.076.173-.173V9.3c0-.086-.076-.173-.173-.173h-1.9a.17.17 0 0 0-.173.173v1.706c.011.097.076.173.173.173m2.667 0h1.89c.108 0 .184-.076.184-.173V9.3c0-.086-.065-.173-.184-.173H8.49c-.086 0-.162.076-.162.173v1.706c0 .097.065.173.162.173m2.635 0h1.911c.086 0 .162-.076.162-.173V9.3c0-.086-.065-.173-.162-.173h-1.911c-.086 0-.162.076-.162.173v1.706c0 .097.076.173.162.173M5.823 8.76h1.901c.086 0 .173-.097.173-.194V6.87a.17.17 0 0 0-.173-.173h-1.9c-.097 0-.173.065-.173.173v1.695c.011.097.076.194.173.194m2.667 0h1.89c.108 0 .184-.097.184-.194V6.87c0-.097-.065-.173-.184-.173H8.49c-.086 0-.162.065-.162.173v1.695c0 .097.065.194.162.194m2.635 0h1.911c.086 0 .162-.097.162-.194V6.87c0-.097-.076-.173-.162-.173h-1.911c-.086 0-.162.065-.162.173v1.695c0 .097.076.194.162.194m0-2.462h1.911c.086 0 .162-.076.162-.173V4.441c0-.108-.076-.184-.162-.184h-1.911c-.086 0-.162.065-.162.184v1.685c0 .086.076.173.162.173m2.656 4.881h1.901a.17.17 0 0 0 .173-.173V9.3c0-.086-.076-.173-.173-.173h-1.901c-.086 0-.162.076-.162.173v1.706c0 .097.076.173.162.173" fill="#0087c9"/></svg>