<svg xmlns="http://www.w3.org/2000/svg" viewBox="0 0 30 30" xmlns:v="https://vecta.io/nano"><path d="M5.207 4.33l-.144.153C2.688 7.145 1.5 10.76 1.5 15.329c0 4.418 1.156 7.862 3.459 10.339h19.415c2.553-1.151 4.127-3.43 4.127-3.43l-3.147-2.52L23.9 21.1c-.867.772-.845.931-2.315 1.78-1.496.674-3.041.966-4.634.966-2.516 0-4.423-.908-5.723-2.059-1.286-1.15-1.985-4.511-2.097-6.68l17.458.067-.183-1.472s-.847-7.128-2.541-9.372zm8.759.846c1.566 0 3.221.535 3.961 1.471s.931 1.667.973 3.524H9.11c.112-1.955.436-2.81 1.373-3.698s2.031-1.298 3.484-1.298z" fill="#f44336"/></svg>