<svg xmlns="http://www.w3.org/2000/svg" width="300" height="300" xmlns:v="https://vecta.io/nano"><path d="M97.478 120.86l50.098-28.924a4.05 4.05 0 0 1 4.053 0l50.099 28.924c1.253.724 2.026 2.062 2.026 3.51v57.848a4.06 4.06 0 0 1-2.026 3.511l-50.099 28.924a4.05 4.05 0 0 1-4.053 0l-50.098-28.924c-1.254-.724-2.026-2.063-2.026-3.511V124.37c.001-1.448.774-2.786 2.026-3.51" fill="#7986cb"/><path d="M279.863 147.21L220.005 43.077c-2.174-3.765-6.191-6.543-10.538-6.543H89.745c-4.349 0-8.366 2.777-10.541 6.543L19.347 146.983c-2.174 3.766-2.174 8.519 0 12.286L79.205 262.55c2.174 3.765 6.192 5.69 10.541 5.69h119.721c4.348 0 8.365-1.867 10.538-5.633l59.858-103.45a11.74 11.74 0 0 0 .001-11.944m-49.565 50.075c0 1.531-.922 2.947-2.249 3.713l-76.246 43.99a4.34 4.34 0 0 1-4.313 0l-76.305-43.99c-1.326-.766-2.254-2.182-2.254-3.713v-87.981c0-1.532.914-2.947 2.242-3.713l76.243-43.99a4.33 4.33 0 0 1 4.311 0l76.31 43.99c1.327.766 2.261 2.182 2.261 3.713z" fill="#3f51b5"/></svg>