<svg xmlns="http://www.w3.org/2000/svg" preserveAspectRatio="xMidYMid" viewBox="0 0 300 300" xmlns:v="https://vecta.io/nano"><path d="M242.745 89.48c-11.223 0-21.398 4.463-28.867 11.7l-47.366-33.917c.296-1.239.469-2.524.469-3.854 0-9.168-7.432-16.6-16.6-16.6s-16.6 7.433-16.6 16.6 7.433 16.6 16.6 16.6c3.21 0 6.197-.927 8.738-2.505L217.1 119.7c4.52-9.429 14.49-16.77 25.645-16.77 15.492 0 28.051 12.558 28.051 28.05 0 12.38-8.02 22.887-19.148 26.608l3.806 12.91c16.703-5.368 28.791-21.031 28.791-39.518 0-22.919-18.579-41.5-41.5-41.5" fill="#0a7bff"/><path d="M109.689 49.166c-3.389 10.668-2.219 21.689 2.405 30.976l-46.546 34.785c-1.089-.654-2.259-1.207-3.523-1.609a16.56 16.56 0 0 0-20.794 10.768 16.56 16.56 0 0 0 10.767 20.794 16.56 16.56 0 0 0 20.795-10.767c.969-3.052.99-6.171.257-9.062l57.623-42.379c-7.599-7.144-11.567-18.84-8.2-29.444 4.679-14.727 20.411-22.874 35.138-18.196 11.769 3.738 19.335 14.535 19.513 26.238l13.421.28c-.059-17.499-11.299-33.721-28.873-39.304-21.788-6.921-45.063 5.131-51.984 26.92" fill="#eb3d00"/><path d="M32.811 161.347c9.03 6.59 19.816 9.002 30.042 7.612l18.362 54.877c-.959.815-1.846 1.74-2.621 2.8-5.338 7.316-3.685 17.611 3.692 22.994s17.685 3.816 23.023-3.501 3.687-17.61-3.691-22.994c-2.583-1.885-5.526-2.899-8.488-3.131l-22.087-67.718c-9.128 4.871-21.425 4.876-30.402-1.674-12.465-9.096-15.258-26.492-6.237-38.855 7.209-9.88 19.78-13.556 30.901-9.993l4.455-12.536c-16.566-5.524-35.414-.121-46.179 14.632-13.346 18.291-9.215 44.029 9.228 57.486" fill="#00bcd4"/><path d="M245.283 225.838c-3.419-10.582-10.749-18.811-19.884-23.639l17.721-55.052a16.59 16.59 0 0 0 3.796-.738c8.69-2.808 13.471-12.093 10.679-20.737s-12.102-13.378-20.792-10.571-13.472 12.092-10.679 20.737c.979 3.027 2.767 5.56 5.035 7.472l-22.333 67.599c10.315 1.375 20.311 8.528 23.709 19.047 4.72 14.609-3.359 30.298-18.044 35.041-11.735 3.791-24.138-.554-31.055-9.908l-11.078 7.543c10.177 14.106 28.707 20.71 46.23 15.048 21.726-7.019 33.678-30.23 26.696-51.843" fill="#86c351"/><path d="M116.724 270.244c9.003-6.588 14.547-16.139 16.291-26.33l57.906-.59c.491 1.166 1.106 2.3 1.887 3.367 5.381 7.355 15.706 8.955 23.061 3.574s8.955-15.706 3.574-23.061-15.706-8.956-23.061-3.574c-2.575 1.885-4.428 4.38-5.54 7.137l-71.283.181c1.908 10.217-1.781 21.959-10.73 28.506-12.428 9.093-29.875 6.389-38.968-6.039-7.266-9.932-6.999-23.068-.257-32.585l-10.631-8.123c-10.249 14.11-10.752 33.77.098 48.601 13.453 18.389 39.265 22.389 57.653 8.936" fill="#9032e9"/></svg>