<svg xmlns="http://www.w3.org/2000/svg" fill-rule="evenodd" stroke-linejoin="round" stroke-miterlimit="1.4142" viewBox="0 0 24 24" xmlns:v="https://vecta.io/nano"><path d="M10 4H4c-1.11 0-2 .89-2 2v12a2.01 2.01 0 0 0 2 2h16a2.01 2.01 0 0 0 2-2V8a2 2 0 0 0-2-2h-8l-2-2z" fill="#5c6bc0" fill-rule="nonzero"/><path d="M21.981 19.546H13.36v-6.774h8.622m0-3.079h-.616V8.461h-1.232v1.232h-4.927V8.461h-1.232v1.232h-.616a1.23 1.23 0 0 0-1.232 1.232v8.622a1.232 1.232 0 0 0 1.232 1.232h8.621a1.232 1.232 0 0 0 1.232-1.232v-8.621a1.232 1.232 0 0 0-1.232-1.232m-1.521 4.964l-.653-.653-3.005 3.005-1.306-1.306-.653.653 1.958 1.958z" fill="#c5cae9"/></svg>