<svg xmlns="http://www.w3.org/2000/svg" stroke-linejoin="round" stroke-miterlimit="1.4142" viewBox="0 0 24 24" xmlns:v="https://vecta.io/nano"><path d="M19 20H4a2 2 0 0 1-2-2V6c0-1.11.89-2 2-2h6l2 2h7a2.01 2.01 0 0 1 2 2H4v10l2.14-8h17.07l-2.28 8.5c-.23.87-1.01 1.5-1.93 1.5z" fill="#ff5252"/><path d="M10.337 9.759h10.435A1.228 1.228 0 0 1 22 10.986v1.228h-2.455v-1.228h-7.98v7.366h5.525v1.228h-6.752a1.228 1.228 0 0 1-1.228-1.228v-7.366a1.228 1.228 0 0 1 1.228-1.228m8.594 3.683h3.683a.614.614 0 0 1 .614.614v6.139a.614.614 0 0 1-.614.614H18.93a.614.614 0 0 1-.614-.614v-6.139a.614.614 0 0 1 .614-.614m.614 1.228v4.297H22v-4.297z" fill="#ffcdd2"/></svg>