<svg xmlns="http://www.w3.org/2000/svg" stroke-linejoin="round" stroke-miterlimit="1.4142" viewBox="0 0 24 24" xmlns:v="https://vecta.io/nano"><path d="M19 20H4a2 2 0 0 1-2-2V6c0-1.11.89-2 2-2h6l2 2h7a2.01 2.01 0 0 1 2 2H4v10l2.14-8h17.07l-2.28 8.5c-.23.87-1.01 1.5-1.93 1.5z" fill="#0288d1"/><path d="M23.288 18.015c0 .247-.137.462-.345.573l-5.14 2.889c-.104.078-.234.117-.371.117s-.267-.039-.371-.117l-5.139-2.889c-.208-.111-.345-.325-.345-.573V12.16c0-.247.137-.462.345-.572l5.14-2.889c.104-.078.234-.117.371-.117s.267.039.371.117l5.139 2.889c.208.111.345.325.345.572v5.855m-5.855-8.034l-3.877 2.179 3.877 2.179 3.877-2.179-3.877-2.179m-4.554 7.651l3.903 2.199v-4.365l-3.903-2.192v4.359m9.108 0v-4.359l-3.903 2.192v4.365z" fill="#b3e5fc"/></svg>