<svg xmlns="http://www.w3.org/2000/svg" stroke-linejoin="round" stroke-miterlimit="1.4142" viewBox="0 0 24 24" xmlns:v="https://vecta.io/nano"><path d="M19 20H4a2 2 0 0 1-2-2V6c0-1.11.89-2 2-2h6l2 2h7a2.01 2.01 0 0 1 2 2H4v10l2.14-8h17.07l-2.28 8.5c-.23.87-1.01 1.5-1.93 1.5z" fill="#ff5252"/><path d="M14.27 17.241l-.37-3.835c.002-.032-.173-.059-.389-.059h-.391V11.86h3.052V8.974l1.44-.865c.877-.527 1.522-.865 1.649-.865.308 0 .667.389.667.723a.81.81 0 0 1-.098.398c-.054.073-.556.408-1.115.743l-1.017.61-.022 1.072-.022 1.072h3.057v1.487h-.754l-.762 7.67h-4.553l-.373-3.776z" fill="#ffcdd2"/></svg>