<svg xmlns="http://www.w3.org/2000/svg" stroke-linejoin="round" stroke-miterlimit="1.4142" viewBox="0 0 24 24" xmlns:v="https://vecta.io/nano"><path d="M19 20H4a2 2 0 0 1-2-2V6c0-1.11.89-2 2-2h6l2 2h7a2.01 2.01 0 0 1 2 2H4v10l2.14-8h17.07l-2.28 8.5c-.23.87-1.01 1.5-1.93 1.5z" fill="#ff9800"/><path d="M15.12 23.509a.63.63 0 0 1-.63-.63V20.99h-2.519a1.259 1.259 0 0 1-1.259-1.259v-7.556a1.26 1.26 0 0 1 1.259-1.259h10.075a1.259 1.259 0 0 1 1.259 1.259v7.556a1.259 1.259 0 0 1-1.259 1.259h-3.841l-2.33 2.336a.64.64 0 0 1-.441.183h-.315m-2.519-10.704v1.259h8.816v-1.259h-8.816m0 2.519v1.259h5.038v-1.259h-5.038m0 2.519v1.259h6.297v-1.259z" fill="#fff9c4"/></svg>