<svg xmlns="http://www.w3.org/2000/svg" fill-rule="evenodd" stroke-linejoin="round" stroke-miterlimit="1.4142" viewBox="0 0 24 24" xmlns:v="https://vecta.io/nano"><path d="M10 4H4c-1.11 0-2 .89-2 2v12a2.01 2.01 0 0 0 2 2h16a2.01 2.01 0 0 0 2-2V8a2 2 0 0 0-2-2h-8l-2-2z" fill="#00acc1" fill-rule="nonzero"/><path d="M17.293 17.786a2.308 2.308 0 1 1 0-4.615 2.308 2.308 0 1 1 0 4.615m4.899-1.668c.026-.211.046-.422.046-.64a5.64 5.64 0 0 0-.046-.659l1.391-1.075c.125-.099.158-.277.079-.422l-1.319-2.281c-.079-.145-.257-.204-.402-.145l-1.642.659c-.343-.257-.699-.481-1.114-.646l-.244-1.747c-.026-.158-.165-.277-.33-.277h-2.637c-.165 0-.303.119-.33.277l-.244 1.747a4.78 4.78 0 0 0-1.114.646l-1.642-.659c-.145-.059-.323 0-.402.145l-1.319 2.281c-.086.145-.046.323.079.422l1.391 1.075-.046.659c0 .218.02.429.046.64l-1.391 1.095c-.125.099-.165.277-.079.422l1.319 2.281c.079.145.257.198.402.145l1.642-.666c.343.264.699.488 1.114.653l.244 1.747c.026.158.165.277.33.277h2.637c.165 0 .303-.119.33-.277l.244-1.747c.415-.171.771-.389 1.114-.653l1.642.666c.145.053.323 0 .402-.145l1.319-2.281c.079-.145.046-.323-.079-.422z" fill="#80deea"/></svg>