<svg xmlns="http://www.w3.org/2000/svg" fill-rule="evenodd" stroke-linejoin="round" stroke-miterlimit="1.4142" viewBox="0 0 24 24" xmlns:v="https://vecta.io/nano"><path d="M10 4H4c-1.11 0-2 .89-2 2v12a2.01 2.01 0 0 0 2 2h16a2.01 2.01 0 0 0 2-2V8a2 2 0 0 0-2-2h-8l-2-2z" fill="#fbc02d" fill-rule="nonzero"/><path d="M23.724 18.322l-4.204 2.333c-.288.15-.576.15-.864 0l-4.147-2.333 7.516-7.574.202-.058c.173 0 .271.075.288.23l1.209 7.401m-6.134-7.459l-2.62 4.348 1.094-6.882c.017-.155.115-.23.288-.23.115 0 .19.035.23.144l1.238 2.275-.23.346m2.592.726l-5.5 5.523 4.176-7.084a.27.27 0 0 1 .259-.167c.115 0 .19.052.23.167z" fill="#fff9c4"/></svg>