<svg xmlns="http://www.w3.org/2000/svg" fill-rule="evenodd" stroke-linejoin="round" stroke-miterlimit="1.414" viewBox="0 0 24 24" xmlns:v="https://vecta.io/nano"><path d="M10 4H4c-1.11 0-2 .89-2 2v12c0 1.097.903 2 2 2h16c1.097 0 2-.903 2-2V8a2 2 0 0 0-2-2h-8l-2-2z" fill="#ef5350" fill-rule="nonzero"/><path d="M17.726 17.072h1.184l-2.894-7.361h-1.053l-2.894 7.361h1.184l.634-1.698h3.194zm-3.408-2.832l1.172-3.125 1.172 3.125zm8.584.335l-4.581 4.58-2.078-2.084-.8.798 2.883 2.882 5.373-5.379z" fill="#ffcdd2"/></svg>