<svg xmlns="http://www.w3.org/2000/svg" fill-rule="evenodd" stroke-linejoin="round" stroke-miterlimit="1.4142" viewBox="0 0 24 24" xmlns:v="https://vecta.io/nano"><path d="M10 4H4c-1.11 0-2 .89-2 2v12a2.01 2.01 0 0 0 2 2h16a2.01 2.01 0 0 0 2-2V8a2 2 0 0 0-2-2h-8l-2-2z" fill="#43a047" fill-rule="nonzero"/><path d="M17.871 8.199l-5.593 2.486v3.729c0 3.449 2.386 6.675 5.593 7.458 3.207-.783 5.593-4.009 5.593-7.458v-3.729l-5.593-2.486m0 3.729c.87 0 1.74.684 1.74 1.554v.932c.373 0 .746.373.746.808v2.175c0 .373-.373.746-.808.746h-3.418c-.373 0-.746-.373-.746-.808v-2.175c0-.373.373-.746.746-.746v-.932c0-.87.87-1.554 1.74-1.554m0 .746c-.497 0-.932.311-.932.808v.932h1.864v-.932c0-.497-.435-.808-.932-.808z" fill="#c8e6c9"/></svg>