<svg xmlns="http://www.w3.org/2000/svg" xmlns:xlink="http://www.w3.org/1999/xlink" fill-rule="evenodd" stroke-linejoin="round" stroke-miterlimit="1.4142" viewBox="0 0 24 24" xmlns:v="https://vecta.io/nano"><defs><linearGradient id="A" x1="-30.493" x2="18.859" y1="-12.253" y2="37.098" xlink:href="#I"><stop stop-color="#c06fbb" offset="0"/><stop stop-color="#6e4d9b" offset="1"/></linearGradient><linearGradient id="B" x1="11.568" x2="-15.123" y1="14.468" y2="-24.891" xlink:href="#I"><stop stop-color="#6e4d9b" offset="0"/><stop stop-color="#77327a" offset=".14"/><stop stop-color="#b31777" offset=".29"/><stop stop-color="#cd0f7e" offset=".84"/><stop stop-color="#ed2c89" offset="1"/></linearGradient><linearGradient id="C" x1="-24.393" x2="24.958" y1="-54.931" y2="8.22" xlink:href="#I"><stop stop-color="#c06fbb" offset="0"/><stop stop-color="#6e4d9b" offset="1"/></linearGradient><linearGradient id="D" x1="-53.277" x2="6.764" y1="-30.548" y2="18.804" xlink:href="#I"><stop stop-color="#c06fbb" offset="0"/><stop stop-color="#6e4d9b" offset="1"/></linearGradient><linearGradient id="E" x1="-14.033" x2="42.011" y1="-23.103" y2="26.25" xlink:href="#I"><stop stop-color="#c06fbb" offset="0"/><stop stop-color="#6e4d9b" offset="1"/></linearGradient><linearGradient id="F" x1="30.009" x2="3.244" y1="43.054" y2="3.534" xlink:href="#I"><stop stop-color="#6e4d9b" offset="0"/><stop stop-color="#77327a" offset=".14"/><stop stop-color="#b31777" offset=".29"/><stop stop-color="#cd0f7e" offset=".84"/><stop stop-color="#ed2c89" offset="1"/></linearGradient><linearGradient id="G" x1="-30.572" x2="18.78" y1="-14.88" y2="44.632" xlink:href="#I"><stop stop-color="#c06fbb" offset="0"/><stop stop-color="#6e4d9b" offset="1"/></linearGradient><linearGradient id="H" x1="4.309" x2="34.603" y1="34.34" y2="4.505" xlink:href="#I"><stop stop-color="#6e4d9b" offset="0"/><stop stop-color="#77327a" offset=".14"/><stop stop-color="#b31777" offset=".53"/><stop stop-color="#cd0f7e" offset=".79"/><stop stop-color="#ed2c89" offset="1"/></linearGradient><linearGradient id="I" gradientUnits="userSpaceOnUse"/></defs><path d="M10 4H4c-1.11 0-2 .89-2 2v12a2.01 2.01 0 0 0 2 2h16a2.01 2.01 0 0 0 2-2V8a2 2 0 0 0-2-2h-8l-2-2z" fill="#f06292" fill-rule="nonzero"/><g transform="matrix(.31022 .061897 -.061897 .31022 11.807 7.546)"><path d="M8.002 6.127L4.117 8.719.116 2.723 4 .13z" fill="url(#A)" transform="rotate(348.716 17.839 -78.732)"/><path d="M9.179 1.888l6.637 9.945-7.906 5.276-6.637-9.945L.115 5.429 8.021.153z" fill="url(#B)" transform="rotate(348.716 129.49 -99.884)"/><path d="M7.3 1.879l1.461 2.19-6.018 4.016L.125 4.16l1.315-.877L6.143.144z" fill="url(#C)" transform="rotate(348.716 167.2 -62.32)"/><path d="M2.328 1.146L4.016.02l2.619 3.925L2.75 6.537l-1.461-2.19 2.197-1.466zM1.289 4.347L.131 2.612l2.197-1.466 1.158 1.735z" fill="url(#D)" transform="rotate(348.716 104.37 -149.22)"/><path d="M5.346 9.155l-1.314.877L.03 4.035 6.047.019l2.805 4.204-4.703 3.138 4.703-3.139 1.197 1.793z" fill="url(#E)" transform="rotate(348.716 81.819 7.645)"/><path d="M14.533 9.934l1.197 1.793-7.906 5.276-1.197-1.793L.052 5.358 7.958.082z" fill="url(#F)" transform="rotate(348.716 17.141 -7.825)"/><path d="M6.235 7.177L4.038 8.643 2.841 6.849.036 2.646 3.921.053 7.923 6.05z" fill="url(#G)" transform="rotate(348.716 18.188 -79.174)"/><path d="M18.955 35.925L17.48 34.45l3.998-3.998 1.475 1.475z" fill="#714896"/><path d="M33.33 21.551l-1.475-1.475 1.868-1.868 1.475 1.475z" fill="#6f4795"/><path d="M7.12 24.09l-1.524-1.524 3.998-3.998 1.525 1.525z" fill="#88519f"/><path d="M21.495 9.714L19.97 8.19l1.868-1.868 1.524 1.525z" fill="#85509e"/><path d="M31.418 23.462l-6.721 6.721-1.475-1.475 6.721-6.721z" fill="#8d166a"/><path d="M18.058 10.101l1.524 1.525-6.721 6.721-1.524-1.525z" fill="#a70d6f"/><path d="M2.375 11.769l1.901 1.901-1.901 1.901L.474 13.67z" fill="#9e61ad"/><path d="M15.523 36.482l1.901 1.901-1.901 1.901-1.901-1.901z" fill="#8053a3"/><path d="M8.372 38.294L.017 29.876 29.749.081l8.637 8.201z" fill="url(#H)" transform="translate(1.823 1.548)"/></g></svg>