<svg xmlns="http://www.w3.org/2000/svg" fill-rule="evenodd" stroke-linejoin="round" stroke-miterlimit="1.4142" viewBox="0 0 24 24" xmlns:v="https://vecta.io/nano"><path d="M10 4H4c-1.11 0-2 .89-2 2v12a2.01 2.01 0 0 0 2 2h16a2.01 2.01 0 0 0 2-2V8a2 2 0 0 0-2-2h-8l-2-2z" fill="#0288d1" fill-rule="nonzero"/><path d="M18.28 9.126c-.611-.09-1.233-.09-1.845 0l-.404 1.053a5.41 5.41 0 0 0-1.448.6l-1.03-.459c-.496.369-.935.808-1.304 1.304l.459 1.03a5.41 5.41 0 0 0-.6 1.448l-1.053.404c-.09.611-.09 1.233 0 1.845l1.053.404a5.41 5.41 0 0 0 .6 1.448l-.459 1.03c.369.496.808.935 1.304 1.304l1.03-.459a5.41 5.41 0 0 0 1.448.6l.404 1.053c.611.09 1.233.09 1.845 0l.404-1.053a5.41 5.41 0 0 0 1.448-.6l1.03.459c.496-.369.935-.808 1.304-1.304l-.459-1.03a5.41 5.41 0 0 0 .6-1.448l1.053-.404c.09-.611.09-1.233 0-1.845l-1.053-.404a5.41 5.41 0 0 0-.6-1.448l.459-1.03c-.369-.496-.808-.935-1.304-1.304l-1.03.459a5.41 5.41 0 0 0-1.448-.6zm-.922 2.221c2.253 0 4.082 1.829 4.082 4.082s-1.829 4.082-4.082 4.082-4.082-1.829-4.082-4.082 1.829-4.082 4.082-4.082zm1.638 5.718a2.31 2.31 0 0 1-1.639.68 2.32 2.32 0 0 1-2.316-2.316 2.32 2.32 0 0 1 2.316-2.316 2.31 2.31 0 0 1 1.639.68l-.819.818c-.21-.21-.5-.34-.82-.34a1.16 1.16 0 0 0-1.158 1.158 1.16 1.16 0 0 0 1.158 1.158c.32 0 .61-.13.82-.34z" fill="#b3e5fc"/></svg>