<svg xmlns="http://www.w3.org/2000/svg" fill-rule="evenodd" stroke-linejoin="round" stroke-miterlimit="1.414" viewBox="0 0 24 24" xmlns:v="https://vecta.io/nano"><path d="M10 4H4c-1.11 0-2 .89-2 2v12a2.01 2.01 0 0 0 2 2h16a2.01 2.01 0 0 0 2-2V8a2 2 0 0 0-2-2h-8l-2-2z" fill="#00bfa5"/><path d="M21.592 18.979l-6.134 1.768c-.187.054-.367-.104-.328-.288l2.191-10.225c.041-.191.312-.222.398-.045l4.058 8.395c.076.158-.011.344-.185.395zm1.051-.417l-4.698-9.72c-.118-.243-.364-.403-.642-.418-.286-.016-.542.118-.687.347l-5.095 8.041c-.158.251-.155.56.009.807l2.491 3.759c.148.224.406.354.673.354.076 0 .152-.01.227-.032l7.23-2.083c.221-.064.403-.216.497-.419s.093-.435-.005-.636z" fill="#a7ffeb"/></svg>