<svg xmlns="http://www.w3.org/2000/svg" fill-rule="evenodd" stroke-linejoin="round" stroke-miterlimit="1.4142" viewBox="0 0 24 24" xmlns:v="https://vecta.io/nano"><path d="M10 4H4c-1.11 0-2 .89-2 2v12a2.01 2.01 0 0 0 2 2h16a2.01 2.01 0 0 0 2-2V8a2 2 0 0 0-2-2h-8l-2-2z" fill="#ffca28" fill-rule="nonzero"/><path d="M17.761 8.859c-3.156 0-5.712 1.278-5.712 2.856s2.556 2.856 5.712 2.856 5.712-1.278 5.712-2.856-2.556-2.856-5.712-2.856m-5.712 4.284v2.142c0 1.578 2.556 2.856 5.712 2.856s5.712-1.278 5.712-2.856v-2.142c0 1.578-2.556 2.856-5.712 2.856s-5.712-1.278-5.712-2.856m0 3.57v2.142c0 1.578 2.556 2.856 5.712 2.856s5.712-1.278 5.712-2.856v-2.142c0 1.578-2.556 2.856-5.712 2.856s-5.712-1.278-5.712-2.856z" fill="#ffecb3"/></svg>