<svg xmlns="http://www.w3.org/2000/svg" fill-rule="evenodd" stroke-linejoin="round" stroke-miterlimit="1.4142" viewBox="0 0 24 24" xmlns:v="https://vecta.io/nano"><path d="M10 4H4c-1.11 0-2 .89-2 2v12a2.01 2.01 0 0 0 2 2h16a2.01 2.01 0 0 0 2-2V8a2 2 0 0 0-2-2h-8l-2-2z" fill="#ff5722" fill-rule="nonzero"/><path d="M12.352 8.996c-.825 0-1.496.669-1.496 1.494a1.5 1.5 0 0 0 1.496 1.496h5.91c.825 0 1.494-.671 1.494-1.496s-.669-1.494-1.494-1.494h-5.91zm9.768 0a1.527 1.496 0 0 0-1.527 1.494 1.527 1.496 0 0 0 1.527 1.496 1.527 1.496 0 0 0 1.525-1.496 1.527 1.496 0 0 0-1.525-1.494zm-9.738 4.434c-.846 0-1.525.682-1.525 1.527 0 .835.68 1.517 1.525 1.527.846 0 1.527-.682 1.527-1.527s-.682-1.527-1.527-1.527zm3.693.031c-.825.062-1.454.774-1.393 1.6s.774 1.455 1.6 1.393h5.898.145c.825-.062 1.454-.774 1.393-1.6a1.5 1.5 0 0 0-1.598-1.393h-5.838-.062-.145zm-3.723 4.303c-.825 0-1.496.669-1.496 1.494a1.5 1.5 0 0 0 1.496 1.496h5.91c.825 0 1.494-.671 1.494-1.496s-.669-1.494-1.494-1.494h-5.91zm9.768 0a1.527 1.496 0 0 0-1.527 1.494 1.527 1.496 0 0 0 1.527 1.496 1.527 1.496 0 0 0 1.525-1.496 1.527 1.496 0 0 0-1.525-1.494z" fill="#ffccbc"/></svg>