<svg xmlns="http://www.w3.org/2000/svg" stroke-linejoin="round" stroke-miterlimit="1.4142" viewBox="0 0 24 24" xmlns:v="https://vecta.io/nano"><path d="M19 20H4a2 2 0 0 1-2-2V6c0-1.11.89-2 2-2h6l2 2h7a2.01 2.01 0 0 1 2 2H4v10l2.14-8h17.07l-2.28 8.5c-.23.87-1.01 1.5-1.93 1.5z" fill="#f9a825"/><path d="M11.81 9.306h1.274v1.274H11.81v3.185a1.274 1.274 0 0 1-1.274 1.274 1.274 1.274 0 0 1 1.274 1.274v3.185h1.274v1.274H11.81c-.682-.172-1.274-.573-1.274-1.274v-2.548a1.274 1.274 0 0 0-1.274-1.274h-.637v-1.274h.637a1.274 1.274 0 0 0 1.274-1.274V10.58a1.274 1.274 0 0 1 1.274-1.274m8.917 0a1.274 1.274 0 0 1 1.274 1.274v2.548a1.274 1.274 0 0 0 1.274 1.274h.637v1.274h-.637a1.274 1.274 0 0 0-1.274 1.274v2.548a1.274 1.274 0 0 1-1.274 1.274h-1.274v-1.274h1.274v-3.185a1.274 1.274 0 0 1 1.274-1.274 1.274 1.274 0 0 1-1.274-1.274V10.58h-1.274V9.306h1.274m-4.459 7.643a.637.637 0 1 1 0 1.274.637.637 0 0 1 0-1.274m-2.548 0a.637.637 0 1 1 0 1.274.637.637 0 0 1 0-1.274m5.095 0a.637.637 0 1 1 0 1.274.637.637 0 0 1 0-1.274z" fill="#fff8e1"/></svg>