<svg xmlns="http://www.w3.org/2000/svg" stroke-linejoin="round" stroke-miterlimit="1.4142" viewBox="0 0 24 24" xmlns:v="https://vecta.io/nano"><path d="M10 4H4c-1.11 0-2 .89-2 2v12a2.01 2.01 0 0 0 2 2h16a2.01 2.01 0 0 0 2-2V8a2 2 0 0 0-2-2h-8l-2-2z" fill="#757575"/><g fill-rule="evenodd"><path d="M23.898 16.015l-.756-2.325-1.497-4.609c-.077-.237-.412-.237-.49 0l-1.497 4.609h-4.973l-1.498-4.609c-.077-.237-.412-.237-.49 0l-1.497 4.609-.756 2.325c-.069.212.007.444.187.576l6.539 4.751 6.539-4.751c.18-.131.256-.363.187-.576" fill="#fc6d26"/><path d="M17.172 21.342l2.486-7.652h-4.973z" fill="#e24329"/><path d="M17.172 21.342l-2.486-7.652h-3.484z" fill="#fc6d26"/><path d="M11.201 13.69l-.756 2.325c-.069.212.007.444.187.576l6.539 4.751z" fill="#fca326"/><path d="M11.201 13.69h3.484l-1.497-4.609c-.077-.237-.413-.237-.49 0z" fill="#e24329"/><path d="M17.172 21.342l2.486-7.652h3.484z" fill="#fc6d26"/><path d="M23.143 13.69l.756 2.325c.069.212-.007.444-.187.576l-6.539 4.751z" fill="#fca326"/><path d="M23.143 13.69h-3.484l1.497-4.609c.077-.237.413-.237.49 0z" fill="#e24329"/></g></svg>