<svg xmlns="http://www.w3.org/2000/svg" stroke-linejoin="round" stroke-miterlimit="1.4142" viewBox="0 0 24 24" xmlns:v="https://vecta.io/nano"><path d="M19 20H4a2 2 0 0 1-2-2V6c0-1.11.89-2 2-2h6l2 2h7a2.01 2.01 0 0 1 2 2H4v10l2.14-8h17.07l-2.28 8.5c-.23.87-1.01 1.5-1.93 1.5z" fill="#5c6bc0"/><path d="M17.293 17.786l-1.53-1.512.018-.018c1.048-1.169 1.795-2.512 2.235-3.934h1.765v-1.205h-4.217V9.912h-1.205v1.205h-4.217v1.205h6.73a9.5 9.5 0 0 1-1.91 3.223c-.56-.621-1.024-1.301-1.392-2.018h-1.205a10.58 10.58 0 0 0 1.795 2.747l-3.066 3.024.855.855 3.012-3.012 1.874 1.874.458-1.229m3.392-3.055H19.48l-2.711 7.23h1.205l.675-1.807h2.862l.681 1.807h1.205l-2.711-7.23m-1.578 4.217l.976-2.609.976 2.609z" fill="#c5cae9"/></svg>