<svg xmlns="http://www.w3.org/2000/svg" fill-rule="evenodd" stroke-linejoin="round" stroke-miterlimit="1.4142" viewBox="0 0 24 24" xmlns:v="https://vecta.io/nano"><path d="M10 4H4c-1.11 0-2 .89-2 2v12a2.01 2.01 0 0 0 2 2h16a2.01 2.01 0 0 0 2-2V8a2 2 0 0 0-2-2h-8l-2-2z" fill="#ff9800" fill-rule="nonzero"/><path d="M21.159 10.275l1.303 2.606h-1.955l-1.303-2.606h-1.303l1.303 2.606H17.25l-1.303-2.606h-1.303l1.303 2.606h-1.955l-1.303-2.606h-.652a1.303 1.303 0 0 0-1.303 1.303v7.819a1.303 1.303 0 0 0 1.303 1.303h10.425a1.303 1.303 0 0 0 1.303-1.303v-9.122z" fill="#ffe0b2"/></svg>