<svg xmlns="http://www.w3.org/2000/svg" fill-rule="evenodd" stroke-linejoin="round" stroke-miterlimit="1.4142" viewBox="0 0 24 24" xmlns:v="https://vecta.io/nano"><path d="M10 4H4c-1.11 0-2 .89-2 2v12a2.01 2.01 0 0 0 2 2h16a2.01 2.01 0 0 0 2-2V8a2 2 0 0 0-2-2h-8l-2-2z" fill="#ff5252" fill-rule="nonzero"/><path d="M14.27 17.241l-.37-3.835c.002-.032-.173-.059-.389-.059h-.391v-1.487h3.052V8.974l1.44-.865c.877-.527 1.522-.865 1.649-.865.308 0 .667.389.667.723a.81.81 0 0 1-.098.398c-.054.073-.556.408-1.115.743l-1.017.61-.022 1.072-.022 1.072h3.057v1.487h-.754l-.381 3.835-.381 3.835h-4.552l-.373-3.776z" fill="#ffcdd2"/></svg>