<svg xmlns="http://www.w3.org/2000/svg" stroke-linejoin="round" stroke-miterlimit="1.4142" viewBox="0 0 24 24" xmlns:v="https://vecta.io/nano"><path d="M19 20H4a2 2 0 0 1-2-2V6c0-1.11.89-2 2-2h6l2 2h7a2.01 2.01 0 0 1 2 2H4v10l2.14-8h17.07l-2.28 8.5c-.23.87-1.01 1.5-1.93 1.5z" fill="#fbc02d"/><path d="M23.724 18.322l-4.204 2.333c-.288.15-.576.15-.864 0l-4.147-2.333 7.516-7.574.202-.058c.173 0 .271.075.288.23l1.209 7.401m-6.134-7.459l-2.62 4.348 1.094-6.882c.017-.155.115-.23.288-.23.115 0 .19.035.23.144l1.238 2.275-.23.346m2.592.726l-5.5 5.523 4.176-7.084a.27.27 0 0 1 .259-.167c.115 0 .19.052.23.167z" fill="#fff9c4"/></svg>