<svg xmlns="http://www.w3.org/2000/svg" fill-rule="evenodd" stroke-linejoin="round" stroke-miterlimit="1.4142" viewBox="0 0 24 24" xmlns:v="https://vecta.io/nano"><path d="M10 4H4c-1.11 0-2 .89-2 2v12a2.01 2.01 0 0 0 2 2h16a2.01 2.01 0 0 0 2-2V8a2 2 0 0 0-2-2h-8l-2-2z" fill="#42a5f5" fill-rule="nonzero"/><path d="M15.906 8.537c-1.02 0-1.845.826-1.845 1.845v1.084h2.768c.252 0 .459.368.459.62h-4.608c-1.02 0-1.845.826-1.845 1.845v2.44c0 1.02.826 1.845 1.845 1.845h.761v-1.729a1.84 1.84 0 0 1 1.84-1.845h3.388a1.84 1.84 0 0 0 1.845-1.84v-2.42c0-1.02-.826-1.845-1.845-1.845zm-.464 1.039c.258 0 .464.078.464.459s-.206.575-.464.575c-.252 0-.459-.194-.459-.575s.207-.459.459-.459z" fill="#3c78aa"/><path d="M21.132 11.763v1.729a1.84 1.84 0 0 1-1.839 1.845h-3.388a1.84 1.84 0 0 0-1.845 1.839v2.42c0 .49.194.959.54 1.305s.816.541 1.305.541h2.763c.49 0 .959-.195 1.305-.541s.54-.816.54-1.305v-1.084h-2.769c-.252 0-.458-.367-.458-.619h4.608c.49 0 .959-.195 1.305-.541s.54-.816.54-1.305v-2.439c0-1.019-.826-1.845-1.845-1.845zm-6.22 2.913l-.003.003c.008-.002.016-.001.024-.003zm4.22 4.695c.252 0 .459.194.459.575a.46.46 0 0 1-.459.458c-.258 0-.464-.077-.464-.458s.206-.575.464-.575z" fill="#fdd835"/></svg>