<svg xmlns="http://www.w3.org/2000/svg" fill-rule="evenodd" stroke-linejoin="round" stroke-miterlimit="1.4142" viewBox="0 0 24 24" xmlns:v="https://vecta.io/nano"><path d="M10 4H4c-1.11 0-2 .89-2 2v12a2.01 2.01 0 0 0 2 2h16a2.01 2.01 0 0 0 2-2V8a2 2 0 0 0-2-2h-8l-2-2z" fill="#9e9d24" fill-rule="nonzero"/><path d="M17.655 8.39l-6.152 2.192.932 8.143 5.219 2.888 5.219-2.888.933-8.143zm-1.278 2.067c.234-.004.487.071.769.223.124.067.498.161.83.21 1.182.171 2.585 1.074 3.029 1.95.305.603.243.927-.225 1.17-.404.209-1.23.108-2.43-.297l-1.012-.342-.36.138a2.42 2.42 0 0 0-1.257 1.191c-.154.358-.177.526-.149 1.116s.071.761.28 1.132c.238.422.786.96.88.866.025-.025-.031-.197-.124-.38s-.148-.368-.122-.41.272.114.547.347c.612.517 1.326.848 1.982.917.538.056.661-.044.258-.211a1.24 1.24 0 0 1-.375-.25c-.157-.173-.166-.168.504-.318.417-.093 1.241-.531 1.29-.685.016-.049-.118-.07-.338-.052-.2.016-.363-.005-.363-.046s.163-.244.363-.452c.748-.781 1.003-1.365 1.083-2.474l.055-.766.175.364c.194.402.23.981.092 1.479-.115.416-.038.462.173.103.261-.443.344-.372.299.251-.05.678-.283 1.187-.808 1.761-.428.469-.377.553.141.233.5-.308.566-.259.309.224-.487.914-1.516 1.689-2.584 1.949-.648.157-1.107.187-1.7.109a5.01 5.01 0 0 1-3.718-2.647c-.182-.364-.439-.808-.572-.989-.274-.373-.298-.541-.113-.824.092-.141.114-.286.076-.502-.176-.999-.171-1.03.231-1.437.349-.354.371-.401.371-.813 0-.358.036-.475.198-.637.109-.109.282-.199.384-.2.296-.003.807-.277 1.109-.595.253-.265.521-.4.822-.405z" fill="#f0f4c3"/></svg>