<svg xmlns="http://www.w3.org/2000/svg" fill-rule="evenodd" stroke-linejoin="round" stroke-miterlimit="1.4142" viewBox="0 0 24 24" xmlns:v="https://vecta.io/nano"><path d="M10 4H4c-1.11 0-2 .89-2 2v12a2.01 2.01 0 0 0 2 2h16a2.01 2.01 0 0 0 2-2V8a2 2 0 0 0-2-2h-8l-2-2z" fill="#ef5350" fill-rule="nonzero"/><path d="M17.813 11.575v1.951l2.602-2.602-2.602-2.602v1.951a5.203 5.203 0 0 0-5.203 5.203 5.16 5.16 0 0 0 .807 2.771l.95-.95c-.293-.54-.455-1.171-.455-1.821a3.903 3.903 0 0 1 3.903-3.903m4.397 1.132l-.95.95c.286.546.455 1.171.455 1.821a3.903 3.903 0 0 1-3.903 3.903v-1.951l-2.602 2.602 2.602 2.602v-1.951a5.203 5.203 0 0 0 5.203-5.203 5.16 5.16 0 0 0-.807-2.771z" fill="#ffcdd2" stroke="#ffcdd2" stroke-width=".29"/></svg>