<svg xmlns="http://www.w3.org/2000/svg" fill-rule="evenodd" stroke-linejoin="round" stroke-miterlimit="1.4142" viewBox="0 0 24 24" xmlns:v="https://vecta.io/nano"><path d="M10 4H4c-1.11 0-2 .89-2 2v12a2.01 2.01 0 0 0 2 2h16a2.01 2.01 0 0 0 2-2V8a2 2 0 0 0-2-2h-8l-2-2z" fill="#8bc34a" fill-rule="nonzero"/><path d="M19.589 11.113h-.598v-.598h.598m-2.992.598h-.598v-.598h.598m3.309-1.101l.784-.784c.114-.114.114-.305 0-.425-.12-.114-.311-.114-.425 0l-.885.885c-.479-.233-1.017-.371-1.586-.371-.574 0-1.113.138-1.591.377l-.891-.891a.3.3 0 0 0-.419 0c-.12.12-.12.311 0 .425l.784.784a3.58 3.58 0 0 0-1.472 2.896h7.18c0-1.197-.598-2.244-1.478-2.896m2.974 3.494a.897.897 0 0 0-.897.897v4.188a.897.897 0 0 0 1.795 0v-4.188a.897.897 0 0 0-.897-.897m-10.172 0a.897.897 0 0 0-.897.897v4.188a.897.897 0 0 0 1.795 0v-4.188a.897.897 0 0 0-.897-.897m1.496 5.983a.598.598 0 0 0 .598.598h.598v2.094a.897.897 0 0 0 1.795 0v-2.094h1.197v2.094a.897.897 0 0 0 1.795 0v-2.094h.598a.598.598 0 0 0 .598-.598v-5.983h-7.18z" fill="#dcedc8"/></svg>