<svg xmlns="http://www.w3.org/2000/svg" fill-rule="evenodd" stroke-linejoin="round" stroke-miterlimit="1.4142" viewBox="0 0 24 24" xmlns:v="https://vecta.io/nano"><path d="M10 4H4c-1.11 0-2 .89-2 2v12a2.01 2.01 0 0 0 2 2h16a2.01 2.01 0 0 0 2-2V8a2 2 0 0 0-2-2h-8l-2-2z" fill="#fbc02d" fill-rule="nonzero"/><path d="M21.598 12.059h-6.084v-1.217h6.085m-2.434 6.085h-3.651V15.71h3.651m2.434-1.217h-6.084v-1.217h6.085m.608-4.259h-7.302a1.217 1.217 0 0 0-1.217 1.217v7.302a1.217 1.217 0 0 0 1.217 1.217h7.302a1.217 1.217 0 0 0 1.217-1.217v-7.302a1.217 1.217 0 0 0-1.217-1.217m-9.735 2.434h-1.217v8.518a1.217 1.217 0 0 0 1.217 1.217h8.518v-1.217h-8.518z" fill="#fff9c4"/></svg>