<svg xmlns="http://www.w3.org/2000/svg" fill-rule="evenodd" stroke-linejoin="round" stroke-miterlimit="1.4142" viewBox="0 0 24 24" xmlns:v="https://vecta.io/nano"><path d="M10 4H4c-1.11 0-2 .89-2 2v12a2.01 2.01 0 0 0 2 2h16a2.01 2.01 0 0 0 2-2V8a2 2 0 0 0-2-2h-8l-2-2z" fill="#039be5" fill-rule="nonzero"/><path d="M20.036 16.746c.049-.408.087-.817.087-1.237s-.037-.829-.087-1.237h2.091a5.1 5.1 0 0 1 .161 1.237 5.1 5.1 0 0 1-.161 1.237m-3.186 3.44a9.68 9.68 0 0 0 .854-2.202h1.825c-.594 1.021-1.54 1.813-2.679 2.202m-.155-3.44h-2.895c-.062-.408-.099-.817-.099-1.237s.037-.835.099-1.237h2.895c.056.402.099.817.099 1.237s-.043.829-.099 1.237m-1.448 3.687c-.513-.742-.928-1.565-1.182-2.45h2.363a8.39 8.39 0 0 1-1.182 2.45m-2.475-7.399h-1.806a4.9 4.9 0 0 1 2.672-2.202c-.371.687-.65 1.429-.866 2.202m-1.806 4.949h1.806c.217.773.495 1.516.866 2.202-1.132-.39-2.085-1.182-2.672-2.202m-.507-1.237a5.1 5.1 0 0 1-.161-1.237 5.1 5.1 0 0 1 .161-1.237h2.091c-.049.408-.087.817-.087 1.237s.037.829.087 1.237m2.697-6.168c.513.742.928 1.571 1.182 2.456h-2.363c.254-.885.668-1.714 1.182-2.456m4.281 2.456h-1.825a9.68 9.68 0 0 0-.854-2.202 4.94 4.94 0 0 1 2.679 2.202m-4.281-3.712c-3.421 0-6.186 2.784-6.186 6.186a6.186 6.186 0 0 0 12.373 0 6.186 6.186 0 0 0-6.186-6.186z" fill="#b3e5fc"/></svg>