<svg xmlns="http://www.w3.org/2000/svg" fill-rule="evenodd" stroke-linejoin="round" stroke-miterlimit="1.4142" viewBox="0 0 24 24" xmlns:v="https://vecta.io/nano"><path d="M10 4H4c-1.11 0-2 .89-2 2v12a2.01 2.01 0 0 0 2 2h16a2.01 2.01 0 0 0 2-2V8a2 2 0 0 0-2-2h-8l-2-2z" fill="#f9a825" fill-rule="nonzero"/><path d="M19.262 15.092h-3.063v-1.531h3.063m0 4.594h-3.063v-1.531h3.063m4.594-4.594h-2.152a4.58 4.58 0 0 0-1.394-1.501l1.248-1.248-1.08-1.08-1.662 1.662c-.352-.084-.704-.13-1.087-.13s-.735.046-1.08.13l-1.669-1.662-1.08 1.08 1.24 1.248a4.64 4.64 0 0 0-1.386 1.501h-2.152v1.531h1.6c-.038.253-.069.505-.069.766v.766h-1.531v1.531h1.531v.766a5.08 5.08 0 0 0 .069.766h-1.6v1.531h2.152c.796 1.371 2.274 2.297 3.974 2.297s3.178-.927 3.974-2.297h2.152v-1.531h-1.6c.038-.253.069-.505.069-.766v-.766h1.531v-1.531h-1.531v-.766c0-.26-.031-.513-.069-.766h1.6z" fill="#fff9c4"/></svg>