<svg xmlns="http://www.w3.org/2000/svg" stroke-linejoin="round" stroke-miterlimit="1.4142" viewBox="0 0 24 24" xmlns:v="https://vecta.io/nano"><path d="M19 20H4a2 2 0 0 1-2-2V6c0-1.11.89-2 2-2h6l2 2h7a2.01 2.01 0 0 1 2 2H4v10l2.14-8h17.07l-2.28 8.5c-.23.87-1.01 1.5-1.93 1.5z" fill="#8d6e63"/><path d="M17.651 19.894a4.761 4.761 0 0 0 0-9.522 4.761 4.761 0 0 0 0 9.522m0-10.713a5.952 5.952 0 1 1 0 11.903 5.96 5.96 0 0 1-5.951-5.951 5.952 5.952 0 0 1 5.951-5.951m.298 2.976v3.124l2.678 1.589-.446.732-3.125-1.875v-3.571z" stroke-miterlimit="4" fill="#d7ccc8" stroke-width=".271" stroke="#d7ccc8"/></svg>