<svg xmlns="http://www.w3.org/2000/svg" stroke-linejoin="round" stroke-miterlimit="1.4142" viewBox="0 0 24 24" xmlns:v="https://vecta.io/nano"><path d="M19 20H4a2 2 0 0 1-2-2V6c0-1.11.89-2 2-2h6l2 2h7a2.01 2.01 0 0 1 2 2H4v10l2.14-8h17.07l-2.28 8.5c-.23.87-1.01 1.5-1.93 1.5z" fill="#0277bd"/><path d="M15.625 8.867v.001h-.329c-.392-.003-.72.211-1.005.434-.311.245-.578.564-.662.991-.048.251-.038.47-.038.689v1.726c0 .609-.227 1.062-.534 1.358-.173.172-.543.328-.964.47v.78c.373.103.732.242.931.419a1.61 1.61 0 0 1 .567 1.243v2.015c0 .67.16 1.18.624 1.529s1.006.524 1.625.54l.414-.003v-1.005c-.323-.094-.502-.204-.632-.328-.233-.211-.365-.553-.365-1.028v-1.627c-.009-.553-.098-.986-.3-1.3s-.595-.587-1.18-.823c.646-.296 1.079-.682 1.3-1.158.13-.283.18-.665.18-1.145v-1.492c0-.493.114-.838.313-1.035.108-.107.299-.195.565-.267l.42.003v-.988h-.931 0zm4.557 0v.001h.329c.392-.003.72.211 1.005.434.311.245.578.564.662.991.048.251.038.47.038.689v1.726c0 .609.227 1.062.534 1.358.173.172.543.328.964.47v.78c-.373.103-.732.242-.931.419a1.61 1.61 0 0 0-.567 1.243v2.015c0 .67-.16 1.18-.624 1.529s-1.006.524-1.625.54l-.414-.003v-1.005c.323-.094.502-.204.632-.328.233-.211.365-.553.365-1.028v-1.627c.009-.553.098-.986.3-1.3s.595-.587 1.18-.823c-.646-.296-1.079-.682-1.3-1.158-.13-.283-.18-.665-.18-1.145v-1.492c0-.493-.114-.838-.313-1.035-.108-.107-.299-.195-.565-.267l-.42.003v-.988h.931 0z" fill="#b3e5fc"/></svg>