<svg xmlns="http://www.w3.org/2000/svg" fill-rule="evenodd" stroke-linejoin="round" stroke-miterlimit="1.4142" viewBox="0 0 24 24" xmlns:v="https://vecta.io/nano"><path d="M10 4H4c-1.11 0-2 .89-2 2v12a2.01 2.01 0 0 0 2 2h16a2.01 2.01 0 0 0 2-2V8a2 2 0 0 0-2-2h-8l-2-2z" fill="#1e88e5" fill-rule="nonzero"/><path d="M18.648 14.536l-7.217 7.21-.895-.895 7.21-7.217.901.901m2.864-1.847l.377-.377-.505-.505.409-.409-.908-.908-.409.409-.505-.505-.377.377a13.44 13.44 0 0 0-3.707-2.148l-.531 1.144a16.06 16.06 0 0 1 3.107 2.135l-.32.32 1.918 1.918.32-.32a16.06 16.06 0 0 1 2.135 3.107l1.144-.531a13.44 13.44 0 0 0-2.148-3.707z" fill="#bbdefb"/></svg>