<svg xmlns="http://www.w3.org/2000/svg" fill-rule="evenodd" stroke-linejoin="round" stroke-miterlimit="1.4142" viewBox="0 0 24 24" xmlns:v="https://vecta.io/nano"><path d="M10 4H4c-1.11 0-2 .89-2 2v12a2.01 2.01 0 0 0 2 2h16a2.01 2.01 0 0 0 2-2V8a2 2 0 0 0-2-2h-8l-2-2z" fill="#ef5350" fill-rule="nonzero"/><path d="M17.345 18.448l-2.32-2.32.818-.818 1.502 1.496 3.822-3.822.818.824m-3.48-3.48a.58.58 0 1 1 0 1.16.58.58 0 1 1 0-1.16m4.06 0H20.14c-.244-.673-.882-1.16-1.635-1.16s-1.392.487-1.635 1.16h-2.424a1.16 1.16 0 0 0-1.16 1.16v8.119a1.16 1.16 0 0 0 1.16 1.16h8.119a1.16 1.16 0 0 0 1.16-1.16v-8.119a1.16 1.16 0 0 0-1.16-1.16z" fill="#ffcdd2"/></svg>