<svg xmlns="http://www.w3.org/2000/svg" fill-rule="evenodd" stroke-linejoin="round" stroke-miterlimit="1.4142" viewBox="0 0 24 24" xmlns:v="https://vecta.io/nano"><path d="M10 4H4c-1.11 0-2 .89-2 2v12a2.01 2.01 0 0 0 2 2h16a2.01 2.01 0 0 0 2-2V8a2 2 0 0 0-2-2h-8l-2-2z" fill="#2196f3" fill-rule="nonzero"/><path d="M17.22 14.68a1.765 1.765 0 1 0 0 3.53 1.765 1.765 0 1 0 0-3.53m0 4.707a2.942 2.942 0 1 1 0-5.884 2.942 2.942 0 1 1 0 5.884m0-7.355c-2.942 0-5.454 1.83-6.472 4.413 1.018 2.583 3.53 4.413 6.472 4.413s5.454-1.83 6.472-4.413c-1.018-2.583-3.53-4.413-6.472-4.413z" fill="#bbdefb"/></svg>