<svg xmlns="http://www.w3.org/2000/svg" stroke-linejoin="round" stroke-miterlimit="1.4142" viewBox="0 0 24 24" xmlns:v="https://vecta.io/nano"><path d="M19 20H4a2 2 0 0 1-2-2V6c0-1.11.89-2 2-2h6l2 2h7a2.01 2.01 0 0 1 2 2H4v10l2.14-8h17.07l-2.28 8.5c-.23.87-1.01 1.5-1.93 1.5z" fill="#607d8b"/><path d="M18.311 8.601c.67.268.935 1.323.585 2.365-.347 1.037-1.166 1.668-1.839 1.406-.668-.26-.938-1.317-.593-2.363.342-1.04 1.171-1.665 1.847-1.408m3.748 2.164c.566.46.434 1.488-.285 2.31-.738.818-1.784 1.116-2.348.665-.569-.455-.432-1.48.298-2.296.728-.824 1.773-1.122 2.335-.679m-7.945-1.372c.746.088 1.289 1.024 1.245 2.082-.08 1.058-.719 1.85-1.459 1.765s-1.282-1.013-1.221-2.075.713-1.853 1.435-1.772m9.436 5.448c.431.585.073 1.545-.817 2.129s-1.963.579-2.407-.02-.078-1.548.799-2.146c.894-.567 1.976-.565 2.425.037m-4.138 5.146c-.264.505-.956.832-1.525.776-1.187-.112-1.783-1.645-2.827-2.247s-2.701-.322-3.354-1.321c-.376-.56-.344-1.45.051-1.977.545-.727 1.726-.604 2.611-.855 1.166-.312 2.492-1.399 3.546-.791 1.049.605.814 2.294 1.083 3.463.213.976.871 2.075.414 2.951z" fill="#cfd8dc"/></svg>