<svg xmlns="http://www.w3.org/2000/svg" fill-rule="evenodd" stroke-linejoin="round" stroke-miterlimit="1.414" viewBox="0 0 24 24" xmlns:v="https://vecta.io/nano"><path d="M10 4H4c-1.11 0-2 .89-2 2v12c0 1.097.903 2 2 2h16c1.097 0 2-.903 2-2V8a2 2 0 0 0-2-2h-8l-2-2z" fill="#7cb342" fill-rule="nonzero"/><path d="M13.313 11.766h-1.122v7.855c0 .617.505 1.122 1.122 1.122h7.855v-1.122h-7.855zm8.978-2.244h-6.733c-.617 0-1.122.505-1.122 1.122v6.733c0 .617.505 1.122 1.122 1.122h6.733c.617 0 1.122-.505 1.122-1.122v-6.733c0-.617-.505-1.122-1.122-1.122zm-.561 5.05h-5.611v-1.122h5.611zm-2.244 2.244h-3.367v-1.122h3.367zm2.244-4.489h-5.611v-1.122h5.611z" fill="#dcedc8"/></svg>