<svg xmlns="http://www.w3.org/2000/svg" fill-rule="evenodd" stroke-linejoin="round" stroke-miterlimit="1.4142" viewBox="0 0 24 24" xmlns:v="https://vecta.io/nano"><path d="M10 4H4c-1.11 0-2 .89-2 2v12a2.01 2.01 0 0 0 2 2h16a2.01 2.01 0 0 0 2-2V8a2 2 0 0 0-2-2h-8l-2-2z" fill="#5c6bc0" fill-rule="nonzero"/><path d="M12.276 14.245h.922v-2.459a1.23 1.23 0 0 1 1.229-1.229h2.459v-.922a1.537 1.537 0 0 1 3.074 0v.922h2.459a1.23 1.23 0 0 1 1.23 1.229v2.336h-.922c-.922 0-1.66.738-1.66 1.66s.738 1.66 1.66 1.66h.922v2.336a1.23 1.23 0 0 1-1.23 1.23h-2.336v-.922c0-.922-.738-1.66-1.66-1.66s-1.66.738-1.66 1.66v.922h-2.336a1.23 1.23 0 0 1-1.229-1.23v-2.459h-.922a1.537 1.537 0 1 1 0-3.074z" fill="#c5cae9"/></svg>