<svg xmlns="http://www.w3.org/2000/svg" stroke-linejoin="round" stroke-miterlimit="1.4142" viewBox="0 0 24 24" xmlns:v="https://vecta.io/nano"><path d="M19 20H4a2 2 0 0 1-2-2V6c0-1.11.89-2 2-2h6l2 2h7a2.01 2.01 0 0 1 2 2H4v10l2.14-8h17.07l-2.28 8.5c-.23.87-1.01 1.5-1.93 1.5z" fill="#5c6bc0"/><path d="M19.903 17.826l3.822-2.205v-4.417l-3.822 2.21m-4.242-2.209l3.822 2.21v4.412l-3.822-2.207m-4.242-2.465l3.822 2.207v-4.414l-3.822-2.207m4.242 11.777l3.822 2.207v-4.414l-3.822-2.207" fill="#c5cae9"/></svg>