<svg xmlns="http://www.w3.org/2000/svg" stroke-linejoin="round" stroke-miterlimit="1.4142" viewBox="0 0 24 24" xmlns:v="https://vecta.io/nano"><path d="M19 20H4a2 2 0 0 1-2-2V6c0-1.11.89-2 2-2h6l2 2h7a2.01 2.01 0 0 1 2 2H4v10l2.14-8h17.07l-2.28 8.5c-.23.87-1.01 1.5-1.93 1.5z" fill="#009688"/><path d="M21.275 18.517a1.22 1.22 0 0 0-1.222 1.222 1.222 1.222 0 1 0 2.444 0 1.22 1.22 0 0 0-1.222-1.222M11.5 8.742v1.222h1.222l2.199 4.637-.831 1.497c-.092.171-.147.373-.147.587a1.222 1.222 0 0 0 1.222 1.222h7.331v-1.222h-7.075a.153.153 0 0 1-.153-.153.13.13 0 0 1 .018-.073l.55-.996h4.551a1.23 1.23 0 0 0 1.069-.629l2.187-3.953c.043-.098.073-.202.073-.305a.611.611 0 0 0-.611-.611h-9.036l-.574-1.222m1.668 9.775a1.22 1.22 0 0 0-1.222 1.222 1.222 1.222 0 1 0 2.444 0 1.22 1.22 0 0 0-1.222-1.222z" fill="#b2dfdb"/></svg>