<svg xmlns="http://www.w3.org/2000/svg" fill-rule="evenodd" stroke-linejoin="round" stroke-miterlimit="1.4142" viewBox="0 0 24 24" xmlns:v="https://vecta.io/nano"><path d="M10 4H4c-1.11 0-2 .89-2 2v12a2.01 2.01 0 0 0 2 2h16a2.01 2.01 0 0 0 2-2V8a2 2 0 0 0-2-2h-8l-2-2z" fill="#0097a7" fill-rule="nonzero"/><path d="M23.441 10.229c-.522-.939-1.456-1.22-2.115-1.233-.809-.016-1.474.432-1.348.726.027.063.178.393.272.529.135.197.376.046.461.001.252-.134.522-.178.828-.142.292.034.681.214.941.715.613 1.179-1.28 3.604-3.65 1.925s-4.674-1.123-5.717-.784-1.523.679-1.111 1.466l.918 1.627c.863 1.406 2.752-.648 2.752-.648-1.407 2.074-2.613 1.573-3.076.848-.417-.653-.741-1.407-.741-1.407-3.564 1.257-2.6 6.805-2.6 6.805h1.77c.451-2.043 2.064-1.968 2.341 0h1.35c1.194-3.989 4.221 0 4.221 0h1.76c-.493-2.721.99-3.576 1.925-5.171s1.82-3.547.818-5.256zm-4.54 5.254c-.931-.304-.598-1.23-.598-1.23l1.912.621c-.063.287-.61.838-1.314.608z" fill="#b2ebf2"/></svg>