<svg xmlns="http://www.w3.org/2000/svg" fill-rule="evenodd" stroke-linejoin="round" stroke-miterlimit="1.414" viewBox="0 0 24 24" xmlns:v="https://vecta.io/nano"><path d="M10 4H4c-1.11 0-2 .89-2 2v12c0 1.097.903 2 2 2h16c1.097 0 2-.903 2-2V8a2 2 0 0 0-2-2h-8l-2-2z" fill="#7e57c2" fill-rule="nonzero"/><path d="M17.263 13.219c-3.537 0-6.407 1.435-6.407 3.203 0 1.435 1.884 2.646 4.485 3.056v2.069l2.563-2.563-2.563-2.563v1.749c-2.018-.359-3.203-1.217-3.203-1.749 0-.679 1.948-1.922 5.126-1.922s5.126 1.243 5.126 1.922c0 .468-.935 1.211-2.563 1.621v1.313c2.262-.493 3.844-1.621 3.844-2.934 0-1.768-2.87-3.203-6.407-3.203z" fill="#d1c4e9"/></svg>