<svg xmlns="http://www.w3.org/2000/svg" fill-rule="evenodd" stroke-linejoin="round" stroke-miterlimit="1.4142" viewBox="0 0 24 24" xmlns:v="https://vecta.io/nano"><path d="M10 4H4c-1.11 0-2 .89-2 2v12a2.01 2.01 0 0 0 2 2h16a2.01 2.01 0 0 0 2-2V8a2 2 0 0 0-2-2h-8l-2-2z" fill="#039be5" fill-rule="nonzero"/><path d="M21.985 18.967h-2.466v-4.316h2.466m.617-1.233h-3.699a.617.617 0 0 0-.617.617V20.2a.617.617 0 0 0 .617.617h3.699a.617.617 0 0 0 .617-.617v-6.165a.617.617 0 0 0-.617-.617m-11.714-1.233h11.097v-1.233H10.888a1.233 1.233 0 0 0-1.233 1.233v6.782H8.421v1.85h8.631v-1.85h-6.165z" fill="#b3e5fc"/></svg>