<svg xmlns="http://www.w3.org/2000/svg" fill-rule="evenodd" stroke-linejoin="round" stroke-miterlimit="1.4142" viewBox="0 0 24 24" xmlns:v="https://vecta.io/nano"><path d="M19 20H4a2 2 0 0 1-2-2V6c0-1.11.89-2 2-2h6l2 2h7a2.01 2.01 0 0 1 2 2H4v10l2.14-8h17.07l-2.28 8.5c-.23.87-1.011 1.5-1.93 1.5z" fill="#616161"/><path d="M18.32 16.95l-3.791-1.23c-.105-.034-.191-.152-.192-.262l-.037-2.914a.29.29 0 0 1 .188-.261l8.935-2.858c.106-.034.191.028.191.139v2.913c0 .111-.085.229-.19.264l-3.687 1.229 3.748 1.17a.29.29 0 0 1 .191.26v2.872c0 .11-.084.228-.189.264l-8.958 3.039c-.105.036-.19-.025-.191-.135l-.018-2.998a.29.29 0 0 1 .189-.261l3.811-1.231z" fill="#ffa726"/></svg>