<svg xmlns="http://www.w3.org/2000/svg" fill-rule="evenodd" stroke-linejoin="round" stroke-miterlimit="1.4142" viewBox="0 0 24 24" xmlns:v="https://vecta.io/nano"><path d="M10 4H4c-1.11 0-2 .89-2 2v12a2.01 2.01 0 0 0 2 2h16a2.01 2.01 0 0 0 2-2V8a2 2 0 0 0-2-2h-8l-2-2z" fill="#fbc02d" fill-rule="nonzero"/><path d="M23.626 20.068v.655H11.837v-.655l1.31-1.31v-3.93a4.58 4.58 0 0 1 3.275-4.395v-.19a1.31 1.31 0 0 1 2.62 0v.19a4.58 4.58 0 0 1 3.275 4.395v3.93l1.31 1.31m-4.585 1.31a1.31 1.31 0 0 1-2.62 0" fill="#fff9c4"/></svg>