<svg xmlns="http://www.w3.org/2000/svg" stroke-linejoin="round" stroke-miterlimit="1.4142" viewBox="0 0 24 24" xmlns:v="https://vecta.io/nano"><path d="M19 20H4a2 2 0 0 1-2-2V6c0-1.11.89-2 2-2h6l2 2h7a2.01 2.01 0 0 1 2 2H4v10l2.14-8h17.07l-2.28 8.5c-.23.87-1.01 1.5-1.93 1.5z" fill="#2196f3"/><path d="M17.22 14.679a1.765 1.765 0 0 0 0 3.53 1.765 1.765 0 1 0 0-3.53m0 4.707a2.942 2.942 0 1 1 0-5.884 2.942 2.942 0 1 1 0 5.884m0-7.355c-2.942 0-5.454 1.83-6.472 4.413 1.018 2.583 3.53 4.413 6.472 4.413s5.454-1.83 6.472-4.413c-1.018-2.583-3.53-4.413-6.472-4.413z" fill="#bbdefb"/></svg>