<svg xmlns="http://www.w3.org/2000/svg" fill-rule="evenodd" stroke-linejoin="round" stroke-miterlimit="1.414" viewBox="0 0 24 24" xmlns:v="https://vecta.io/nano"><path d="M19 20H4a2 2 0 0 1-2-2V6c0-1.11.89-2 2-2h6l2 2h7c1.097 0 2 .903 2 2H4v10l2.14-8h17.07l-2.28 8.5c-.23.87-1.01 1.5-1.93 1.5z" fill="#1e88e5"/><path d="M23.014 10.784l-.877-1.06a.953.952 0 0 0-.733-.341h-7.575a.92.92 0 0 0-.726.347l-.877 1.054a1.253 1.253 0 0 0-.29.808v7.891c0 .695.562 1.263 1.263 1.263h8.837c.695 0 1.263-.568 1.263-1.263v-7.891a1.29 1.29 0 0 0-.284-.808zm-5.398 2.701l3.472 3.472h-2.209v1.263h-2.526v-1.263h-2.209zm-4.342-2.841l.517-.63h7.576l.587.63z" fill="#bbdefb"/></svg>