<svg xmlns="http://www.w3.org/2000/svg" fill-rule="evenodd" stroke-linejoin="round" stroke-miterlimit="1.4142" viewBox="0 0 24 24" xmlns:v="https://vecta.io/nano"><path d="M10 4H4c-1.11 0-2 .89-2 2v12a2.01 2.01 0 0 0 2 2h16a2.01 2.01 0 0 0 2-2V8a2 2 0 0 0-2-2h-8z" fill="#616161" fill-rule="nonzero"/><path d="M9.031 21.532v-8.834-1.085l1.719-.01c2.814 0 4.151.603 4.2 3.024-.09 2.483-1.346 3.187-4.21 3.026v3.879H9.031zm1.699-5.246l-.01-3.377q2.814-.181 2.794 1.709-.02 1.889-2.784 1.668z" fill="#e8e8e8"/><path d="M15.815 21.542l.02-7.929 3.93 3.612 3.829-3.753.04 8.09-7.819-.02zm0-9.939l3.94 3.748 3.819-3.789-7.759.041z" fill="#ffd180"/></svg>