<svg xmlns="http://www.w3.org/2000/svg" fill-rule="evenodd" stroke-linejoin="round" stroke-miterlimit="1.4142" viewBox="0 0 24 24" xmlns:v="https://vecta.io/nano"><defs><clipPath id="A"><path d="M239.03 226.6l-42.13 24.317c-1.578.91-2.546 2.59-2.546 4.406v48.668c0 1.817.968 3.496 2.546 4.406l42.133 24.336a5.1 5.1 0 0 0 5.09 0l42.126-24.336c1.57-.91 2.54-2.59 2.54-4.406v-48.668c0-1.816-.97-3.496-2.55-4.406l-42.12-24.317c-.79-.453-1.67-.68-2.55-.68s-1.76.227-2.55.68"/></clipPath></defs><path d="M10 4H4c-1.11 0-2 .89-2 2v12a2.01 2.01 0 0 0 2 2h16a2.01 2.01 0 0 0 2-2V8a2 2 0 0 0-2-2h-8l-2-2z" fill="#8bc34a" fill-rule="nonzero"/><g transform="matrix(.130294 0 0 .130296 -14.227978 -21.037181)" clip-path="url(#A)" fill="#dcedc8"><path d="m331.36 246.79-118.72-58.19-60.87 124.17 118.71 58.193z"/></g></svg>