<svg xmlns="http://www.w3.org/2000/svg" stroke-linejoin="round" stroke-miterlimit="1.4142" viewBox="0 0 24 24" xmlns:v="https://vecta.io/nano"><path d="M19 20H4a2 2 0 0 1-2-2V6c0-1.11.89-2 2-2h6l2 2h7a2.01 2.01 0 0 1 2 2H4v10l2.14-8h17.07l-2.28 8.5c-.23.87-1.01 1.5-1.93 1.5z" fill="#64b5f6"/><path d="M22.844 11.356a.97.97 0 0 0-.479-.554l-4.57-2.188c-.12-.06-.255-.075-.375-.075s-.255 0-.375.03l-4.57 2.203c-.225.105-.39.3-.45.554l-1.139 4.93c-.045.255.015.509.165.719l3.161 3.911a1.09 1.09 0 0 0 .689.315h5.049c.27.03.524-.09.689-.315l3.162-3.911c.15-.21.21-.464.18-.719z" fill="#1976d2"/><path d="M22.121 16.061c-.015 0-.015 0-.015-.015s-.045-.015-.06-.015c-.06-.015-.12-.015-.18-.015-.03 0-.06 0-.09-.015h-.015c-.165-.015-.345-.045-.509-.09-.045-.015-.09-.06-.105-.105 0-.015-.015-.015-.015-.015l-.12-.03a3.91 3.91 0 0 0-.06-1.319 4.06 4.06 0 0 0-.524-1.229l.09-.09v-.015c0-.045.015-.105.045-.135.135-.105.27-.21.42-.285l.09-.045.165-.09c.015-.015.03-.015.045-.03l.015-.015c.135-.105.165-.285.06-.42-.045-.06-.135-.105-.21-.105s-.15.03-.21.075l-.015.015c-.015.015-.03.03-.045.03-.045.045-.09.09-.12.135-.015.03-.045.045-.06.06-.12.12-.24.24-.375.33-.03.015-.06.03-.09.03-.015 0-.045 0-.06-.015l-.12.09-.375-.36a3.84 3.84 0 0 0-1.948-.779l-.015-.12-.015-.015c-.045-.03-.06-.075-.075-.12 0-.165 0-.33.03-.509v-.015c0-.03.015-.06.015-.09.015-.06.015-.12.03-.18v-.09c.015-.15-.105-.3-.255-.3a.34.34 0 0 0-.24.09c-.06.06-.09.135-.09.21v.075c0 .06.015.12.03.18a.19.19 0 0 1 .015.09v.015c.03.165.03.33.03.509-.015.045-.03.09-.075.12l-.015.015-.015.12c-.165.015-.33.045-.509.075-.704.15-1.349.524-1.843 1.049l-.09-.06h-.015c-.015 0-.03.015-.06.015s-.075-.015-.09-.03c-.135-.105-.255-.225-.375-.345-.015-.03-.045-.045-.06-.06-.045-.045-.075-.09-.12-.135-.015-.015-.03-.015-.045-.03l-.015-.015c-.06-.045-.135-.075-.21-.075a.27.27 0 0 0-.225.105c-.09.135-.06.315.06.42.015 0 .015.015.015.015s.03.03.045.03c.045.03.105.06.165.09l.09.045a4.12 4.12 0 0 1 .42.285c.03.03.06.09.045.135v.015l.09.09c-.015.03-.03.045-.045.075a3.55 3.55 0 0 0-.509 2.457l-.12.03c0 .015-.015.015-.015.015-.015.045-.06.075-.105.105-.165.045-.33.075-.509.09h-.015c-.03 0-.06 0-.09.015-.06 0-.12.015-.18.015-.015 0-.03.015-.06.015-.015 0-.015 0-.03.015-.165.03-.27.18-.24.345.03.135.165.225.3.21.03 0 .045 0 .075-.015.015 0 .015 0 .015-.015s.03-.015.06-.015c.06-.015.12-.045.165-.06.03-.015.06-.03.09-.03h.015a2.52 2.52 0 0 1 .479-.135h.015a.17.17 0 0 1 .12.045c.015 0 .015.015.015.015l.135-.015c.225.689.644 1.304 1.229 1.753.135.105.255.195.405.27l-.06.12c0 .015.015.015.015.015.03.045.03.105.015.15-.06.15-.15.3-.24.435v.015c-.015.03-.03.045-.06.075s-.06.09-.105.15c-.015.015-.015.03-.03.045 0 0 0 .015-.015.015-.075.15-.015.33.12.405.03.015.075.03.12.03.12 0 .225-.075.285-.18 0 0 0-.015.015-.015 0-.015.015-.03.03-.045.015-.06.045-.105.06-.165l.03-.09c.045-.165.12-.315.195-.464.03-.045.075-.075.12-.09.015 0 .015 0 .015-.015l.06-.12c.42.165.854.24 1.304.24a3.72 3.72 0 0 0 .809-.09c.165-.03.33-.09.479-.135l.06.105a.01.01 0 0 1 .015.015c.045.015.09.045.12.09.075.15.135.3.195.45v.015l.03.09c.015.06.03.12.06.165.015.015.015.03.03.045 0 0 0 .015.015.015.06.105.165.18.285.18.045 0 .075-.015.12-.03.06-.03.12-.09.135-.165s.015-.165-.015-.24c0-.015-.015-.015-.015-.015 0-.015-.015-.03-.03-.045-.03-.06-.06-.105-.105-.15-.015-.03-.03-.045-.06-.075v-.015a1.77 1.77 0 0 1-.24-.435c-.015-.045-.015-.105.015-.15 0-.015.015-.015.015-.015l-.045-.12a3.73 3.73 0 0 0 1.633-2.038l.12.015c.015 0 .015-.015.015-.015a.17.17 0 0 1 .12-.045h.015a2.52 2.52 0 0 1 .479.135h.015c.03.015.06.03.09.03a.73.73 0 0 0 .165.06c.015 0 .03.015.06.015.015 0 .015 0 .03.015.03.015.045.015.075.015.135 0 .255-.09.3-.21-.045-.15-.15-.27-.3-.3zm-4.315-.464l-.405.195-.405-.195-.12-.435.285-.36h.464l.285.36zm2.442-.974a2.87 2.87 0 0 1 .06.944l-1.423-.405c-.135-.03-.21-.165-.18-.3.015-.045.03-.075.06-.105l1.124-1.019a3.05 3.05 0 0 1 .36.884zm-.809-1.438l-1.214.869c-.105.06-.255.045-.33-.06-.03-.03-.045-.06-.045-.105l-.09-1.513c.629.075 1.229.36 1.678.809zm-2.712-.764l.3-.06-.09 1.498c0 .135-.12.24-.255.24-.045 0-.075-.015-.12-.03l-1.214-.884a2.86 2.86 0 0 1 1.378-.764zm-1.828 1.319l1.109.989a.24.24 0 0 1 .03.345c-.03.045-.06.06-.12.075l-1.438.42c-.06-.629.09-1.274.42-1.828zm-.255 2.532l1.483-.255c.12 0 .24.075.255.195.015.045.015.105-.015.15l-.569 1.378a2.95 2.95 0 0 1-1.154-1.468zm3.401 1.858c-.21.045-.435.075-.659.075a3.36 3.36 0 0 1-.944-.15l.734-1.334c.075-.09.195-.12.3-.06.045.03.075.06.12.105l.719 1.304-.27.06zm1.828-1.304a2.86 2.86 0 0 1-.899.899l-.584-1.393c-.03-.12.015-.24.135-.3.045-.015.09-.03.135-.03l1.498.255a2.25 2.25 0 0 1-.285.569z" fill="#fff"/></svg>