<svg xmlns="http://www.w3.org/2000/svg" fill-rule="evenodd" stroke-linejoin="round" stroke-miterlimit="1.4142" viewBox="0 0 24 24" xmlns:v="https://vecta.io/nano"><path d="M10 4H4c-1.11 0-2 .89-2 2v12a2.01 2.01 0 0 0 2 2h16a2.01 2.01 0 0 0 2-2V8a2 2 0 0 0-2-2h-8z" fill="#41b883" fill-rule="nonzero"/><path d="M15.235 8.772a1.5 1.5 0 0 0-1.5 1.5v9a1.5 1.5 0 0 0 1.5 1.5h7.001a1.5 1.5 0 0 0 1.5-1.5v-9a1.5 1.5 0 0 0-1.5-1.5z" fill="#e8f5e9"/><path d="M15.258 11.771l3.477 6 3.477-5.971v-.029H20.86l-2.105 3.615-2.095-3.615z" fill="#41b883"/><path d="M16.66 11.771l2.095 3.616 2.105-3.616h-1.268l-.829 1.423-.825-1.423z" fill="#35495e"/></svg>