<svg xmlns="http://www.w3.org/2000/svg" fill-rule="evenodd" stroke-linejoin="round" stroke-miterlimit="1.4142" viewBox="0 0 24 24" xmlns:v="https://vecta.io/nano"><path d="M10 4H4c-1.11 0-2 .89-2 2v12a2.01 2.01 0 0 0 2 2h16a2.01 2.01 0 0 0 2-2V8a2 2 0 0 0-2-2h-8l-2-2z" fill="#1e88e5" fill-rule="nonzero"/><path d="M16.364 17.621a2.08 2.08 0 0 1-2.08-2.08c0-.777.423-1.456 1.04-1.81l6.733-3.897-3.835 6.643c-.347.68-1.047 1.144-1.858 1.144m0-9.014a7.06 7.06 0 0 1 3.446.915l-1.456.839c-.603-.236-1.297-.368-1.99-.368a5.547 5.547 0 0 0-5.547 5.547 5.5 5.5 0 0 0 1.623 3.918h.007a.69.69 0 0 1 0 .978c-.27.27-.714.27-.985.007a6.91 6.91 0 0 1-2.032-4.902 6.934 6.934 0 0 1 6.934-6.934m6.934 6.934c0 1.914-.777 3.647-2.032 4.902-.27.264-.707.264-.978-.007a.69.69 0 0 1 0-.978 5.51 5.51 0 0 0 1.623-3.918c0-.693-.132-1.387-.374-2.011l.839-1.456c.576 1.04.922 2.205.922 3.467z" fill="#bbdefb"/></svg>