<svg xmlns="http://www.w3.org/2000/svg" stroke-linejoin="round" stroke-miterlimit="1.414" viewBox="0 0 24 24" xmlns:v="https://vecta.io/nano"><path d="M19 20H4a2 2 0 0 1-2-2V6c0-1.11.89-2 2-2h6l2 2h7c1.097 0 2 .903 2 2H4v10l2.14-8h17.07l-2.28 8.5c-.23.87-1.01 1.5-1.93 1.5z" fill="#7e57c2"/><path d="M17.263 13.219c-3.537 0-6.407 1.435-6.407 3.204 0 1.435 1.884 2.646 4.485 3.056v2.069l2.563-2.563-2.563-2.563v1.749c-2.018-.359-3.203-1.217-3.203-1.749 0-.679 1.948-1.922 5.126-1.922s5.126 1.243 5.126 1.922c0 .468-.935 1.211-2.563 1.621v1.313c2.262-.493 3.844-1.621 3.844-2.934 0-1.768-2.87-3.203-6.407-3.203z" fill="#d1c4e9"/></svg>