<svg xmlns="http://www.w3.org/2000/svg" stroke-linejoin="round" stroke-miterlimit="1.4142" viewBox="0 0 24 24" xmlns:v="https://vecta.io/nano"><path d="M19 20H4a2 2 0 0 1-2-2V6c0-1.11.89-2 2-2h6l2 2h7a2.01 2.01 0 0 1 2 2H4v10l2.14-8h17.07l-2.28 8.5c-.23.87-1.01 1.5-1.93 1.5z" fill="#009688"/><g fill="#b2dfdb"><path d="M17.421 12.839l-.508.879-1.736-3.007-5.33 9.231h3.609a.88.88 0 0 0 .879.879H9.847a.88.88 0 0 1-.761-1.319l5.33-9.231a.88.88 0 0 1 1.523 0z"/><path d="M21.269 19.503l-3.34-5.784-.508-.879-.508.879-3.34 5.784a.88.88 0 0 0 .761 1.319h6.172a.88.88 0 0 0 .762-1.319zm-6.934.44l3.086-5.345 3.086 5.345z"/><path d="M23.657 20.382a.88.88 0 0 1-.761.44h-2.389a.88.88 0 0 0 .879-.879h1.508l-4.279-7.412-.686 1.188-.508-.879.432-.748a.88.88 0 0 1 1.523 0l4.281 7.412a.88.88 0 0 1 0 .879z"/></g></svg>