<svg xmlns="http://www.w3.org/2000/svg" fill-rule="evenodd" stroke-linejoin="round" stroke-miterlimit="1.4142" viewBox="0 0 24 24" xmlns:v="https://vecta.io/nano"><path d="M10 4H4c-1.11 0-2 .89-2 2v12a2.01 2.01 0 0 0 2 2h16a2.01 2.01 0 0 0 2-2V8a2 2 0 0 0-2-2h-8l-2-2z" fill="#009688" fill-rule="nonzero"/><path d="M9.725 9.25l7.104 12.256L23.93 9.309v-.059h-2.762l-4.299 7.385-4.279-7.385H9.725z" fill="#41b883"/><path d="M12.588 9.25l4.28 7.386 4.3-7.386h-2.59l-1.693 2.907-1.685-2.907z" fill="#35495e"/></svg>