<svg xmlns="http://www.w3.org/2000/svg" fill-rule="evenodd" stroke-linejoin="round" stroke-miterlimit="1.4142" viewBox="0 0 24 24" xmlns:v="https://vecta.io/nano"><path d="M10 4H4c-1.11 0-2 .89-2 2v12a2.01 2.01 0 0 0 2 2h16a2.01 2.01 0 0 0 2-2V8a2 2 0 0 0-2-2h-8l-2-2z" fill="#ff5252" fill-rule="nonzero"/><path d="M10.337 9.759h10.435A1.228 1.228 0 0 1 22 10.987v1.228h-2.455v-1.228h-7.98v7.366h5.525v1.228h-6.752a1.228 1.228 0 0 1-1.228-1.228v-7.366a1.228 1.228 0 0 1 1.228-1.228m8.594 3.683h3.683a.614.614 0 0 1 .614.614v6.139a.614.614 0 0 1-.614.614H18.93a.614.614 0 0 1-.614-.614v-6.139a.614.614 0 0 1 .614-.614m.614 1.228v4.297H22V14.67z" fill="#ffcdd2"/></svg>