<svg xmlns="http://www.w3.org/2000/svg" fill-rule="evenodd" stroke-linejoin="round" stroke-miterlimit="1.4142" viewBox="0 0 24 24" xmlns:v="https://vecta.io/nano"><path d="M10 4H4c-1.11 0-2 .89-2 2v12a2.01 2.01 0 0 0 2 2h16a2.01 2.01 0 0 0 2-2V8a2 2 0 0 0-2-2h-8l-2-2z" fill="#009688" fill-rule="nonzero"/><path d="M21.275 18.517a1.22 1.22 0 0 0-1.222 1.222 1.222 1.222 0 1 0 2.444 0 1.22 1.22 0 0 0-1.222-1.222M11.5 8.742v1.222h1.222l2.199 4.637-.831 1.497c-.092.171-.147.373-.147.587a1.222 1.222 0 0 0 1.222 1.222h7.331v-1.222h-7.075a.153.153 0 0 1-.153-.153.13.13 0 0 1 .018-.073l.55-.996h4.551a1.23 1.23 0 0 0 1.069-.629l2.187-3.953c.043-.098.073-.202.073-.305a.611.611 0 0 0-.611-.611h-9.036l-.574-1.222m1.668 9.775a1.22 1.22 0 0 0-1.222 1.222 1.222 1.222 0 1 0 2.444 0 1.22 1.22 0 0 0-1.222-1.222z" fill="#b2dfdb"/></svg>