<svg xmlns="http://www.w3.org/2000/svg" fill-rule="evenodd" stroke-linejoin="round" stroke-miterlimit="1.4142" viewBox="0 0 24 24" xmlns:v="https://vecta.io/nano"><path d="M19 20H4a2 2 0 0 1-2-2V6c0-1.11.89-2 2-2h6l2 2h7a2.01 2.01 0 0 1 2 2H4v10l2.14-8h17.07l-2.28 8.5c-.23.87-1.01 1.5-1.93 1.5z" fill="#42a5f5" fill-rule="nonzero"/><path d="M20.81 8.52l-5.988 5.506-3.346-2.522-1.383.805 3.299 3.031-3.299 3.031 1.383.807 3.346-2.522 5.988 5.503 2.921-1.419V9.939zm0 3.621v6.397l-4.244-3.198z" fill="#bbdefb"/></svg>