<svg xmlns="http://www.w3.org/2000/svg" fill-rule="evenodd" stroke-linejoin="round" stroke-miterlimit="1.4142" viewBox="0 0 24 24" xmlns:v="https://vecta.io/nano"><path d="M10 4H4c-1.11 0-2 .89-2 2v12a2.01 2.01 0 0 0 2 2h16a2.01 2.01 0 0 0 2-2V8a2 2 0 0 0-2-2h-8l-2-2z" fill="#c0ca33" fill-rule="nonzero"/><path d="M17.39 12.544a2.051 2.051 0 1 0 0-4.102 2.051 2.051 0 1 0 0 4.102m0 2.42a8.99 8.99 0 0 0-6.152-2.42v7.52a8.99 8.99 0 0 1 6.153 2.42 8.99 8.99 0 0 1 6.153-2.42v-7.52a8.99 8.99 0 0 0-6.152 2.42z" fill="#f0f4c3"/></svg>