<svg xmlns="http://www.w3.org/2000/svg" fill-rule="evenodd" stroke-linejoin="round" stroke-miterlimit="1.4142" viewBox="0 0 24 24" xmlns:v="https://vecta.io/nano"><path d="M10 4H4c-1.11 0-2 .89-2 2v12a2.01 2.01 0 0 0 2 2h16a2.01 2.01 0 0 0 2-2V8a2 2 0 0 0-2-2h-8l-2-2z" fill="#1e88e5" fill-rule="nonzero"/><path d="M20.283 15.319l3.45 3.425-2.034 2.01-3.425-3.425v-.564l1.446-1.446h.564m.558-1.55l-.594-.588-2.935 2.941v1.207l-3.45 3.45-2.01-2.034 3.425-3.425h1.207l.478-.478-2.353-2.359h-.797l-1.722-1.74 1.605-1.605 1.716 1.716v.803l2.383 2.353 1.63-1.63-.588-.619.797-.803h-1.63l-.398-.398 2.028-2.034.404.404v1.63l.803-.809 2.01 2.01c.668.674.668 1.771 0 2.439l-1.207-1.232z" fill="#bbdefb"/></svg>