<svg xmlns="http://www.w3.org/2000/svg" stroke-linejoin="round" stroke-miterlimit="1.4142" viewBox="0 0 24 24" xmlns:v="https://vecta.io/nano"><path d="M19 20H4a2 2 0 0 1-2-2V6c0-1.11.89-2 2-2h6l2 2h7a2.01 2.01 0 0 1 2 2H4v10l2.14-8h17.07l-2.28 8.5c-.23.87-1.01 1.5-1.93 1.5z" fill="#1e88e5"/><path d="M21.043 15.266a1.071 1.071 0 1 1 0-2.141 1.071 1.071 0 1 1 0 2.141m-2.141-2.855a1.071 1.071 0 1 1 0-2.141 1.071 1.071 0 1 1 0 2.141m-3.569 0a1.071 1.071 0 1 1 0-2.141 1.071 1.071 0 1 1 0 2.141m-2.141 2.855a1.071 1.071 0 1 1 0-2.141 1.071 1.071 0 1 1 0 2.141m3.926-6.424a6.424 6.424 0 1 0 0 12.847 1.071 1.071 0 0 0 1.071-1.071 1.05 1.05 0 0 0-.278-.714c-.164-.193-.271-.443-.271-.714a1.071 1.071 0 0 1 1.071-1.071h1.263a3.569 3.569 0 0 0 3.569-3.569c0-3.155-2.876-5.71-6.424-5.71z" fill="#bbdefb"/></svg>