<svg xmlns="http://www.w3.org/2000/svg" stroke-linejoin="round" stroke-miterlimit="1.4142" viewBox="0 0 24 24" xmlns:v="https://vecta.io/nano"><path d="M19 20H4a2 2 0 0 1-2-2V6c0-1.11.89-2 2-2h6l2 2h7a2.01 2.01 0 0 1 2 2H4v10l2.14-8h17.07l-2.28 8.5c-.23.87-1.01 1.5-1.93 1.5z" fill="#1976d2"/><path d="M13.814 8.71a1.354 1.275 0 0 0-1.355 1.276v10.201a1.354 1.275 0 0 0 1.355 1.278h8.126a1.354 1.275 0 0 0 1.355-1.278V9.986A1.354 1.275 0 0 0 21.94 8.71zm0 4.464h8.126v3.189h-8.126zm0 4.463h8.126v2.55h-8.126v-2.55z" fill="#bbdefb"/></svg>