<svg xmlns="http://www.w3.org/2000/svg" stroke-linejoin="round" stroke-miterlimit="1.4142" viewBox="0 0 24 24" xmlns:v="https://vecta.io/nano"><path d="M19 20H4a2 2 0 0 1-2-2V6c0-1.11.89-2 2-2h6l2 2h7a2.01 2.01 0 0 1 2 2H4v10l2.14-8h17.07l-2.28 8.5c-.23.87-1.01 1.5-1.93 1.5z" fill="#f9a825"/><path d="M19.017 17.773a1.196 1.196 0 0 0 1.195-1.195c0-.664-.538-1.195-1.195-1.195a1.196 1.196 0 0 0 0 2.391m3.587-5.38a1.196 1.196 0 0 1 1.195 1.195v5.978a1.196 1.196 0 0 1-1.195 1.195H15.43a1.196 1.196 0 0 1-1.196-1.195v-5.978c0-.664.538-1.195 1.195-1.195h.598v-1.195a2.989 2.989 0 1 1 5.978 0v1.195h.598m-3.587-2.989a1.793 1.793 0 0 0-1.793 1.793v1.195h3.587v-1.195a1.793 1.793 0 0 0-1.793-1.793z" fill="#fff9c4"/></svg>