<svg xmlns="http://www.w3.org/2000/svg" fill-rule="evenodd" stroke-linejoin="round" stroke-miterlimit="1.4142" viewBox="0 0 24 24" xmlns:v="https://vecta.io/nano"><path d="M10 4H4c-1.11 0-2 .89-2 2v12a2.01 2.01 0 0 0 2 2h16a2.01 2.01 0 0 0 2-2V8a2 2 0 0 0-2-2h-8l-2-2z" fill="#0288d1" fill-rule="nonzero"/><path d="M19.936 11.582a3.59 3.59 0 0 0-.327.011c-.673.058-1.301.352-1.731.81-.215.229-.411.557-.506.852-.105.324-.104.318-.104.825.001.648.034.809.254 1.24s.56.788 1.048 1.098c.214.136.761.409 1.208.602.973.421 1.281.616 1.423.899l.059.117v.245c0 .237-.001.249-.049.346-.11.226-.369.41-.701.5-.125.034-.183.038-.463.039-.274 0-.341-.006-.467-.037-.22-.055-.405-.132-.549-.228-.177-.117-.525-.469-.667-.673-.063-.09-.125-.164-.139-.164-.023 0-1.224.686-1.433.819-.071.045-.089.065-.089.101 0 .075.28.499.5.756.448.525 1.345.987 2.14 1.103.314.046.836.061 1.201.034a3.52 3.52 0 0 0 .74-.139c.939-.275 1.58-.861 1.817-1.66.097-.326.136-.727.104-1.065-.066-.694-.279-1.185-.7-1.61-.391-.395-.928-.713-1.988-1.177-.919-.403-1.159-.559-1.291-.842-.114-.244-.093-.581.051-.789.168-.245.512-.365.895-.315.356.047.587.188.812.498.117.161.199.244.238.244s.204-.102.719-.444l.7-.501c.017-.055-.065-.184-.305-.479-.482-.591-1.049-.905-1.776-.984-.179-.019-.416-.03-.625-.031zm-5.788.1c-.432 0-.925 0-1.474.001l-3.521.026c-.017.017-.022.192-.022.842v.82l1.293.005 1.293.005v3.66l.011 3.698.01.038h.94l.95-.027c.006-.015.01-1.679.01-3.698v-3.671l1.293-.005 1.293-.005v-.83l-.025-.846c-.012-.007-.755-.012-2.051-.013z" fill="#90caf9"/></svg>