<svg xmlns="http://www.w3.org/2000/svg" fill-rule="evenodd" stroke-linejoin="round" stroke-miterlimit="1.4142" viewBox="0 0 24 24" xmlns:v="https://vecta.io/nano"><path d="M10 4H4c-1.11 0-2 .89-2 2v12a2.01 2.01 0 0 0 2 2h16a2.01 2.01 0 0 0 2-2V8a2 2 0 0 0-2-2h-8l-2-2z" fill="#f06292" fill-rule="nonzero"/><path d="M22.875 10.056c-.375-1.473-2.818-1.957-5.129-1.136-1.376.489-2.865 1.256-3.935 2.257-1.273 1.191-1.476 2.227-1.392 2.66.295 1.528 2.389 2.527 3.25 3.268v.004c-.254.125-2.111 1.065-2.546 2.026-.459 1.014.073 1.741.425 1.84 1.091.304 2.21-.242 2.812-1.14.58-.866.532-1.984.28-2.54.348-.092.754-.133 1.269-.073 1.455.17 1.74 1.078 1.686 1.458s-.36.589-.462.652-.133.085-.125.132c.013.068.06.066.147.051.12-.02.764-.309.792-1.011.035-.891-.819-1.888-2.33-1.861-.622.011-1.014.07-1.297.175l-.064-.071c-.935-.997-2.662-1.702-2.589-3.043.027-.487.196-1.771 3.32-3.327 2.559-1.275 4.608-.924 4.962-.147.506 1.111-1.095 3.176-3.752 3.474-1.012.113-1.546-.279-1.678-.425-.14-.154-.16-.161-.213-.132-.085.047-.031.183 0 .264.08.207.405.573.96.755.488.16 1.677.248 3.115-.308 1.61-.624 2.867-2.356 2.498-3.804zm-6.85 7.506c.121.446.107.863-.017 1.239l-.046.124-.054.121a2.32 2.32 0 0 1-.383.558c-.482.526-1.155.725-1.444.557-.312-.181-.155-.922.403-1.512.601-.635 1.466-1.044 1.466-1.044l-.001-.002.076-.042z" fill="#fce4ec" stroke-miterlimit="4" stroke="#fce4ec" stroke-width=".501"/></svg>