<svg xmlns="http://www.w3.org/2000/svg" fill-rule="nonzero" stroke-linejoin="round" stroke-miterlimit="1.4142" viewBox="0 0 24 24" xmlns:v="https://vecta.io/nano"><path d="M10 4H4c-1.11 0-2 .89-2 2v12a2.01 2.01 0 0 0 2 2h16a2.01 2.01 0 0 0 2-2V8a2 2 0 0 0-2-2h-8l-2-2z" fill="#0277bd"/><path d="M18.575 12.859h3.712l-3.712-3.713v3.713M13.85 8.134h5.4l4.05 4.05v8.1c0 .74-.61 1.35-1.35 1.35h-8.1a1.35 1.35 0 0 1-1.35-1.35v-10.8c0-.749.601-1.35 1.35-1.35m6.075 10.8v-1.35H13.85v1.35h6.075m2.025-2.7v-1.35h-8.1v1.35h8.1z" fill="#b3e5fc"/></svg>