<svg xmlns="http://www.w3.org/2000/svg" stroke-linejoin="round" stroke-miterlimit="1.4142" viewBox="0 0 24 24" xmlns:v="https://vecta.io/nano"><path d="M19 20H4a2 2 0 0 1-2-2V6c0-1.11.89-2 2-2h6l2 2h7a2.01 2.01 0 0 1 2 2H4v10l2.14-8h17.07l-2.28 8.5c-.23.87-1.01 1.5-1.93 1.5z" fill="#ffca28"/><path d="M17.935 18.374a2.18 2.18 0 0 0 1.972 1.213c.829 0 1.354-.414 1.354-.986 0-.683-.543-.928-1.453-1.325l-.502-.216c-1.435-.613-2.404-1.377-2.404-3.005 0-1.5 1.167-2.637 2.917-2.637 1.18-.086 2.302.545 2.842 1.598l-1.552.999a1.36 1.36 0 0 0-1.289-.858l-.088-.005c-.444 0-.82.34-.864.782l-.005.081c0 .583.374.841 1.225 1.213l.502.216c1.698.733 2.655 1.471 2.655 3.139 0 1.798-1.412 2.783-3.308 2.783a3.84 3.84 0 0 1-3.618-2.046zm-7.048.175c.315.583.583 1.027 1.283 1.027s1.066-.256 1.066-1.255v-6.774h1.998v6.803c0 2.065-1.213 3.011-2.982 3.011-1.277.069-2.47-.66-2.993-1.826z" fill="#ffecb3"/></svg>