<svg xmlns="http://www.w3.org/2000/svg" stroke-linejoin="round" stroke-miterlimit="1.4142" viewBox="0 0 24 24" xmlns:v="https://vecta.io/nano"><path d="M19 20H4a2 2 0 0 1-2-2V6c0-1.11.89-2 2-2h6l2 2h7a2.01 2.01 0 0 1 2 2H4v10l2.14-8h17.07l-2.28 8.5c-.23.87-1.01 1.5-1.93 1.5z" fill="#0288d1"/><path d="M12.276 14.245h.922v-2.459a1.23 1.23 0 0 1 1.229-1.229h2.459v-.922a1.537 1.537 0 0 1 3.074 0v.922h2.459a1.23 1.23 0 0 1 1.23 1.229v2.336h-.922c-.922 0-1.66.738-1.66 1.66s.738 1.66 1.66 1.66h.922v2.336a1.23 1.23 0 0 1-1.23 1.23h-2.336v-.922c0-.922-.738-1.66-1.66-1.66s-1.66.738-1.66 1.66v.922h-2.336a1.23 1.23 0 0 1-1.229-1.23v-2.459h-.922a1.537 1.537 0 1 1 0-3.074z" fill="#b3e5fc"/></svg>