<svg xmlns="http://www.w3.org/2000/svg" fill-rule="evenodd" stroke-linejoin="round" stroke-miterlimit="1.4142" viewBox="0 0 24 24" xmlns:v="https://vecta.io/nano"><path d="M10 4H4c-1.11 0-2 .89-2 2v12a2.01 2.01 0 0 0 2 2h16a2.01 2.01 0 0 0 2-2V8a2 2 0 0 0-2-2h-8l-2-2z" fill="#7e57c2" fill-rule="nonzero"/><path d="M17.265 8.493c-3.553 0-6.433 2.88-6.433 6.433s2.88 6.433 6.433 6.433 6.433-2.88 6.433-6.433a6.44 6.44 0 0 0-.236-1.734h-.001a.321.321 0 0 0-.016-.058c-.002-.007-.008-.019-.008-.019a.321.321 0 0 0-.614.134.32.32 0 0 0 .018.103l-.001.001a5.813 5.813 0 0 1 .214 1.573 5.75 5.75 0 0 1-1.695 4.094 5.75 5.75 0 0 1-4.094 1.695 5.75 5.75 0 0 1-4.094-1.695 5.75 5.75 0 0 1-1.696-4.094c0-1.546.602-3.001 1.696-4.094a5.75 5.75 0 0 1 4.095-1.695c1.381 0 2.688.48 3.73 1.362a.786.786 0 0 0-.054.288c0 .434.352.786.786.786s.786-.352.786-.786-.352-.786-.786-.786c-.095 0-.186.017-.27.048a6.41 6.41 0 0 0-4.193-1.555zm-.813 2.999l-2.37 6.15h1.485l.387-1.042h2.239l-.405-1.153h-1.474l.959-2.645 1.706 4.84h1.484l-2.37-6.15z" fill="#d1c4e9"/></svg>