<svg xmlns="http://www.w3.org/2000/svg" fill-rule="evenodd" stroke-linejoin="round" stroke-miterlimit="1.414" viewBox="0 0 24 24" xmlns:v="https://vecta.io/nano"><path d="M19 20H4a2 2 0 0 1-2-2V6c0-1.11.89-2 2-2h6l2 2h7c1.097 0 2 .903 2 2H4v10l2.14-8h17.07l-2.28 8.5c-.23.87-1.01 1.5-1.93 1.5z" fill="#afb42b"/><path d="M21.589 10.926v8.279h-8.28v-8.279h8.28m.651-1.183h-9.581a.53.53 0 0 0-.532.532v9.581c0 .236.236.532.532.532h9.581c.236 0 .532-.296.532-.532v-9.581c0-.296-.296-.532-.532-.532zm-5.382 2.365h3.548v1.183h-3.548zm0 2.366h3.548v1.182h-3.548zm0 2.365h3.548v1.183h-3.548zm-2.365-4.732h1.183v1.183h-1.183zm0 2.366h1.183v1.182h-1.183zm0 2.365h1.183v1.183h-1.183z" fill="#f0f4c3"/></svg>