<svg xmlns="http://www.w3.org/2000/svg" stroke-linejoin="round" stroke-miterlimit="1.4142" viewBox="0 0 24 24" xmlns:v="https://vecta.io/nano"><path d="M19 20H4a2 2 0 0 1-2-2V6c0-1.11.89-2 2-2h6l2 2h7a2.01 2.01 0 0 1 2 2H4v10l2.14-8h17.07l-2.28 8.5c-.23.87-1.01 1.5-1.93 1.5z" fill="#43a047"/><path d="M23.286 13.991h-4.347l1.757-1.808c-1.75-1.731-4.585-1.795-6.335-.064-1.751 1.738-1.751 4.54 0 6.284 1.75 1.731 4.585 1.731 6.335 0 .872-.866 1.308-1.872 1.308-3.142h1.282c0 1.27-.564 2.918-1.693 4.033a5.81 5.81 0 0 1-8.156 0c-2.244-2.225-2.264-5.841-.013-8.066s5.861-2.225 8.111 0l1.75-1.802v4.566m-5.45-1.359v2.725l2.244 1.334-.462.776-2.744-1.629v-3.206z" fill="#c8e6c9"/></svg>