<svg xmlns="http://www.w3.org/2000/svg" stroke-linejoin="round" stroke-miterlimit="1.4142" viewBox="0 0 24 24" xmlns:v="https://vecta.io/nano"><path d="M19 20H4a2 2 0 0 1-2-2V6c0-1.11.89-2 2-2h6l2 2h7a2.01 2.01 0 0 1 2 2H4v10l2.14-8h17.07l-2.28 8.5c-.23.87-1.01 1.5-1.93 1.5z" fill="#ec407a"/><g fill="#f8bbd0" stroke="#f8bbd0" stroke-width=".336"><path d="M12.543 18.7l-.5-.288 5.566-9.64.5.288z"/><path d="M11.929 17.641h11.132v.577H11.929z"/><path d="M17.718 21.18l-5.568-3.215.288-.5 5.568 3.215zm4.837-8.379l-5.568-3.215.288-.5 5.568 3.215z"/><path d="M12.44 12.799l-.288-.5 5.568-3.215.288.5z"/><path d="M22.452 18.7l-5.566-9.64.5-.288 5.566 9.64zm-10.081-6.783h.577v6.43h-.577z"/><path d="M22.046 11.917h.577v6.43h-.577z"/><path d="M17.62 20.936l-.252-.436 4.843-2.796.252.436z"/><path d="M23.388 18.534c-.334.58-1.077.779-1.658.445s-.779-1.077-.445-1.658 1.077-.779 1.658-.445a1.21 1.21 0 0 1 .445 1.658m-9.683-5.592c-.334.58-1.077.779-1.658.445s-.779-1.077-.445-1.658 1.077-.779 1.658-.445.779 1.077.445 1.658m-2.099 5.592c-.334-.58-.136-1.321.445-1.658s1.321-.136 1.658.445.136 1.321-.445 1.658a1.21 1.21 0 0 1-1.658-.445m9.683-5.592c-.334-.58-.136-1.321.445-1.658s1.321-.136 1.658.445.136 1.321-.445 1.658a1.21 1.21 0 0 1-1.658-.445m-3.792 8.995a1.213 1.213 0 1 1 0-2.426 1.21 1.21 0 0 1 1.213 1.213c0 .667-.542 1.213-1.213 1.213m0-11.184a1.213 1.213 0 1 1 0-2.426 1.213 1.213 0 1 1 0 2.426"/></g></svg>