<svg xmlns="http://www.w3.org/2000/svg" stroke-linejoin="round" stroke-miterlimit="1.4142" viewBox="0 0 24 24" xmlns:v="https://vecta.io/nano"><path d="M19 20H4a2 2 0 0 1-2-2V6c0-1.11.89-2 2-2h6l2 2h7a2.01 2.01 0 0 1 2 2H4v10l2.14-8h17.07l-2.28 8.5c-.23.87-1.01 1.5-1.93 1.5z" fill="#546e7a"/><path d="M18.139 8.318l-5.326 2.367v3.551c0 3.284 2.272 6.356 5.326 7.101 3.053-.746 5.326-3.817 5.326-7.101v-3.551l-5.326-2.367m0 2.367a1.775 1.775 0 1 1 0 3.551 1.775 1.775 0 0 1 0-3.551m3.036 7.101c-.716 1.095-1.787 1.917-3.036 2.32-1.249-.402-2.32-1.225-3.036-2.32-.201-.296-.373-.592-.515-.905 0-.976 1.604-1.775 3.551-1.775s3.551.781 3.551 1.775c-.142.314-.314.61-.515.905z" fill="#cfd8dc"/></svg>