<svg xmlns="http://www.w3.org/2000/svg" stroke-linejoin="round" stroke-miterlimit="1.4142" viewBox="0 0 24 24" xmlns:v="https://vecta.io/nano"><path d="M19 20H4a2 2 0 0 1-2-2V6c0-1.11.89-2 2-2h6l2 2h7a2.01 2.01 0 0 1 2 2H4v10l2.14-8h17.07l-2.28 8.5c-.23.87-1.01 1.5-1.93 1.5z" fill="#1976d2"/><path d="M18.575 9.82c-.489-.745-.605-.844-1.601-.844h-.023c-.995 0-1.106.099-1.601.844-.46.699-5.024 9.058-5.024 9.291 0 .338.087.658.402 1.112.32.46.873.716 1.275.309.274-.274 3.202-5.321 4.616-7.23.169-.239.518-.239.693 0 1.415 1.909 4.343 6.957 4.616 7.23.402.407.955.151 1.275-.309.314-.454.402-.774.402-1.112-.006-.233-4.57-8.598-5.03-9.291z" fill="#bbdefb" fill-rule="evenodd"/></svg>