<svg xmlns="http://www.w3.org/2000/svg" stroke-linejoin="round" stroke-miterlimit="1.4142" viewBox="0 0 24 24" xmlns:v="https://vecta.io/nano"><path d="M19 20H4a2 2 0 0 1-2-2V6c0-1.11.89-2 2-2h6l2 2h7a2.01 2.01 0 0 1 2 2H4v10l2.14-8h17.07l-2.28 8.5c-.23.87-1.01 1.5-1.93 1.5z" fill="#ff5252"/><path d="M17.249 9.261c-3.28 0-5.943 2.662-5.943 5.943s2.662 5.943 5.943 5.943 5.943-2.663 5.943-5.943-2.663-5.943-5.943-5.943zm0 10.697c-2.627 0-4.754-2.128-4.754-4.754 0-1.099.374-2.11 1.004-2.912l6.662 6.662c-.802.63-1.813 1.004-2.912 1.004zm3.75-1.842l-6.662-6.662c.802-.63 1.813-1.004 2.912-1.004 2.627 0 4.754 2.128 4.754 4.755 0 1.099-.374 2.11-1.004 2.912z" fill="#ffcdd2"/></svg>