<svg xmlns="http://www.w3.org/2000/svg" fill-rule="evenodd" stroke-linejoin="round" stroke-miterlimit="1.4142" viewBox="0 0 24 24" xmlns:v="https://vecta.io/nano"><path d="M10 4H4c-1.11 0-2 .89-2 2v12a2.01 2.01 0 0 0 2 2h16a2.01 2.01 0 0 0 2-2V8a2 2 0 0 0-2-2h-8l-2-2z" fill="#f9a825" fill-rule="nonzero"/><path d="M19.017 17.774a1.196 1.196 0 0 0 1.195-1.195c0-.664-.538-1.195-1.195-1.195a1.196 1.196 0 0 0 0 2.391m3.587-5.38a1.196 1.196 0 0 1 1.195 1.195v5.978a1.196 1.196 0 0 1-1.195 1.195H15.43a1.196 1.196 0 0 1-1.196-1.195V13.59c0-.664.538-1.195 1.195-1.195h.598v-1.195a2.989 2.989 0 1 1 5.978 0v1.195h.598m-3.587-2.989a1.793 1.793 0 0 0-1.793 1.793v1.195h3.587v-1.195a1.793 1.793 0 0 0-1.793-1.793z" fill="#fff9c4"/></svg>