<svg xmlns="http://www.w3.org/2000/svg" stroke-linejoin="round" stroke-miterlimit="1.4142" viewBox="0 0 24 24" xmlns:v="https://vecta.io/nano"><path d="M19 20H4a2 2 0 0 1-2-2V6c0-1.11.89-2 2-2h6l2 2h7a2.01 2.01 0 0 1 2 2H4v10l2.14-8h17.07l-2.28 8.5c-.23.87-1.01 1.5-1.93 1.5z" fill="#546e7a"/><path d="M16.698 7.825a6.797 6.797 0 0 0-6.797 6.797c0 3.004 1.951 5.553 4.649 6.457.34.054.449-.156.449-.34V19.59c-1.883.408-2.284-.911-2.284-.911-.313-.788-.754-.999-.754-.999-.618-.421.048-.408.048-.408.68.048 1.04.7 1.04.7.591 1.033 1.59.727 1.978.564.061-.442.238-.741.428-.911-1.509-.17-3.092-.754-3.092-3.344a2.63 2.63 0 0 1 .7-1.842c-.068-.17-.306-.877.068-1.794 0 0 .571-.184 1.869.693.537-.15 1.121-.224 1.699-.224s1.162.075 1.699.224c1.298-.877 1.869-.693 1.869-.693.374.918.136 1.624.068 1.794a2.63 2.63 0 0 1 .7 1.842c0 2.596-1.59 3.167-3.106 3.337.245.211.469.625.469 1.257v1.862c0 .184.109.401.455.34 2.698-.911 4.642-3.453 4.642-6.457a6.797 6.797 0 0 0-6.797-6.797z" fill="#eceff1"/></svg>