<svg xmlns="http://www.w3.org/2000/svg" stroke-linejoin="round" stroke-miterlimit="1.4142" viewBox="0 0 24 24" xmlns:v="https://vecta.io/nano"><path d="M19 20H4a2 2 0 0 1-2-2V6c0-1.11.89-2 2-2h6l2 2h7a2.01 2.01 0 0 1 2 2H4v10l2.14-8h17.07l-2.28 8.5c-.23.87-1.01 1.5-1.93 1.5z" fill="#ff5722"/><path d="M19.57 8.483c-.637.012-1.272.189-1.832.546l-2.863 1.825a3.283 3.283 0 0 0-1.484 2.196 3.462 3.462 0 0 0 .34 2.222 3.287 3.287 0 0 0-.491 1.227 3.498 3.498 0 0 0 .598 2.648c1.142 1.634 3.397 2.118 5.027 1.079l2.863-1.817a3.294 3.294 0 0 0 1.484-2.196 3.46 3.46 0 0 0-.341-2.221 3.308 3.308 0 0 0 .492-1.227 3.502 3.502 0 0 0-.598-2.648v-.009c-.749-1.072-1.978-1.649-3.195-1.626zm.251 1.402a2.274 2.274 0 0 1 1.765.976 2.101 2.101 0 0 1 .36 1.592 2.212 2.212 0 0 1-.068.267l-.055.165-.146-.11a3.709 3.709 0 0 0-1.12-.56l-.11-.032.01-.11a.643.643 0 0 0-.116-.426.684.684 0 0 0-.731-.265.628.628 0 0 0-.176.077l-2.864 1.821a.598.598 0 0 0-.269.399.641.641 0 0 0 .11.481.686.686 0 0 0 .73.272.659.659 0 0 0 .176-.077l1.098-.696a2.043 2.043 0 0 1 .582-.256 2.273 2.273 0 0 1 2.441.905 2.104 2.104 0 0 1 .36 1.592 1.976 1.976 0 0 1-.893 1.324l-2.864 1.825a2.106 2.106 0 0 1-.582.256 2.276 2.276 0 0 1-2.442-.906 2.101 2.101 0 0 1-.359-1.592 1.866 1.866 0 0 1 .068-.265l.054-.165.147.11a3.709 3.709 0 0 0 1.117.555l.11.032-.01.11a.648.648 0 0 0 .12.423.686.686 0 0 0 .736.272.642.642 0 0 0 .176-.077l2.859-1.825a.595.595 0 0 0 .269-.4.633.633 0 0 0-.11-.48.686.686 0 0 0-.736-.272.628.628 0 0 0-.176.077l-1.098.697a2.097 2.097 0 0 1-.581.255 2.275 2.275 0 0 1-2.437-.905 2.104 2.104 0 0 1-.357-1.592 1.976 1.976 0 0 1 .893-1.324l2.868-1.825a2.091 2.091 0 0 1 .578-.255 2.274 2.274 0 0 1 .676-.071z" fill="#ffccbc"/></svg>