<svg xmlns="http://www.w3.org/2000/svg" fill-rule="evenodd" stroke-linejoin="round" stroke-miterlimit="1.4142" viewBox="0 0 24 24" xmlns:v="https://vecta.io/nano"><path d="M10 4H4c-1.11 0-2 .89-2 2v12a2.01 2.01 0 0 0 2 2h16a2.01 2.01 0 0 0 2-2V8a2 2 0 0 0-2-2h-8l-2-2z" fill="#ec407a" fill-rule="nonzero"/><path d="M21.944 12.474a4.87 4.87 0 0 1 0 6.885c-1.333 1.333-3.241 1.726-4.918 1.2a4.95 4.95 0 0 1-2.951 0c-1.677.526-3.585.133-4.918-1.2a4.87 4.87 0 0 1 0-6.885c1.333-1.333 3.241-1.726 4.918-1.2a4.95 4.95 0 0 1 2.951 0c1.677-.526 3.585-.133 4.918 1.2m-9.836 6.885a4.87 4.87 0 0 1 0-6.885 3.45 3.45 0 0 0-1.967.984c-.652.652-1.019 1.537-1.019 2.459s.366 1.807 1.019 2.459a3.45 3.45 0 0 0 1.967.984m2.951 0a4.87 4.87 0 0 1 0-6.885 3.45 3.45 0 0 0-1.967.984c-.652.652-1.019 1.537-1.019 2.459s.366 1.807 1.019 2.459a3.45 3.45 0 0 0 1.967.984m5.902-5.902a3.45 3.45 0 0 0-1.967-.984 4.87 4.87 0 0 1 0 6.885 3.45 3.45 0 0 0 1.967-.984c.652-.652 1.019-1.537 1.019-2.459s-.366-1.807-1.019-2.459m-4.918 0c-.652.652-1.019 1.537-1.019 2.459s.366 1.807 1.019 2.459a3.33 3.33 0 0 0 .984.689 3.33 3.33 0 0 0 .984-.689c.652-.652 1.019-1.537 1.019-2.459s-.366-1.807-1.019-2.459a3.33 3.33 0 0 0-.984-.689 3.33 3.33 0 0 0-.984.689z" fill="#f8bbd0"/></svg>