<svg xmlns="http://www.w3.org/2000/svg" stroke-linejoin="round" stroke-miterlimit="1.4142" viewBox="0 0 24 24" xmlns:v="https://vecta.io/nano"><path d="M19 20H4a2 2 0 0 1-2-2V6c0-1.11.89-2 2-2h6l2 2h7a2.01 2.01 0 0 1 2 2H4v10l2.14-8h17.07l-2.28 8.5c-.23.87-1.01 1.5-1.93 1.5z" fill="#03a9f4"/><path d="M22.044 18.085l-5.113 2.952-5.113-2.952v-5.904l5.113-2.952 5.113 2.952z" fill="#fff" fill-opacity=".785"/><path d="M17.342 8.793c-.139 0-.272.04-.378.119l-5.24 2.945a.66.66 0 0 0-.351.584v5.97a.66.66 0 0 0 .351.584l5.24 2.945c.106.08.239.119.378.119s.272-.04.378-.119l5.24-2.945a.66.66 0 0 0 .351-.584v-5.97a.66.66 0 0 0-.351-.584l-5.24-2.945c-.106-.08-.239-.119-.378-.119zm0 1.426l4.643 2.613v1.395h-.01v3.434h.01v.358l-4.643 2.613-4.643-2.613v-5.187zm0 1.38l-3.25 1.877 3.25 1.877 3.25-1.877zm-3.316 3.37v2.375l2.653 1.531V16.5zm6.633 0L18.005 16.5v2.375l2.653-1.531z" fill="#8ed6fb"/><path d="M17.342 11.599l-3.25 1.877 3.25 1.877 3.25-1.877zm-3.316 3.37v2.375l2.653 1.531V16.5zm6.633 0L18.005 16.5v2.375l2.653-1.531z" fill="#1c78c0"/></svg>