<svg xmlns="http://www.w3.org/2000/svg" fill-rule="evenodd" stroke-linejoin="round" stroke-miterlimit="1.4142" viewBox="0 0 24 24" xmlns:v="https://vecta.io/nano"><path d="M10 4H4c-1.11 0-2 .89-2 2v12a2.01 2.01 0 0 0 2 2h16a2.01 2.01 0 0 0 2-2V8a2 2 0 0 0-2-2h-8l-2-2z" fill="#03a9f4" fill-rule="nonzero"/><path d="M22.044 18.085l-5.113 2.952-5.113-2.952v-5.904l5.113-2.952 5.113 2.952z" fill="#fff" fill-opacity=".785"/><path d="M17.341 8.793c-.139 0-.272.04-.378.119l-5.24 2.945a.66.66 0 0 0-.351.584v5.97a.66.66 0 0 0 .351.584l5.24 2.945c.106.08.239.119.378.119s.272-.04.378-.119l5.24-2.945a.66.66 0 0 0 .351-.584v-5.97a.66.66 0 0 0-.351-.584l-5.24-2.945c-.106-.08-.239-.119-.378-.119zm0 1.426l4.643 2.613v1.395h-.01v3.434h.01v.358l-4.643 2.613-4.643-2.613v-5.187zm0 1.38l-3.25 1.877 3.25 1.877 3.25-1.877zm-3.316 3.37v2.375l2.653 1.531V16.5zm6.633 0L18.004 16.5v2.375l2.653-1.531z" fill="#8ed6fb"/><path d="M17.341 11.599l-3.25 1.877 3.25 1.877 3.25-1.877zm-3.316 3.37v2.375l2.653 1.531V16.5zm6.633 0L18.004 16.5v2.375l2.653-1.531z" fill="#1c78c0"/></svg>