<svg xmlns="http://www.w3.org/2000/svg" fill-rule="evenodd" stroke-linejoin="round" stroke-miterlimit="1.4142" viewBox="0 0 24 24" xmlns:v="https://vecta.io/nano"><path d="M10 4H4c-1.11 0-2 .89-2 2v12a2.01 2.01 0 0 0 2 2h16a2.01 2.01 0 0 0 2-2V8a2 2 0 0 0-2-2h-8l-2-2z" fill="#ffb300" fill-rule="nonzero"/><path d="M20.911 14.422a4.94 4.94 0 0 0-4.846-3.976 4.95 4.95 0 0 0-4.385 2.657 3.96 3.96 0 0 0-3.527 3.936 3.956 3.956 0 0 0 3.956 3.956h8.571a3.297 3.297 0 0 0 3.297-3.297c0-1.741-1.352-3.152-3.066-3.277z" fill="#ffecb3"/></svg>