<svg xmlns="http://www.w3.org/2000/svg" viewBox="0 0 24 24" fill-rule="nonzero" stroke-linejoin="round" stroke-miterlimit="1.4142" xmlns:v="https://vecta.io/nano"><path d="M19 20H4a2 2 0 0 1-2-2V6c0-1.11.89-2 2-2h6l2 2h7a2.01 2.01 0 0 1 2 2H4v10l2.14-8h17.07l-2.28 8.5c-.23.87-1.01 1.5-1.93 1.5z" fill="#ff7043"/><path d="M10.43 14.14l4.045-4.052 1.183 1.19c-.168.595.105 1.246.651 1.561v3.877a1.39 1.39 0 0 0-.7 1.211c0 .768.632 1.4 1.4 1.4s1.4-.632 1.4-1.4a1.39 1.39 0 0 0-.7-1.211v-3.401l1.449 1.463c-.049.105-.049.224-.049.35 0 .768.632 1.4 1.4 1.4s1.4-.632 1.4-1.4-.632-1.4-1.4-1.4c-.126 0-.245 0-.35.049l-1.798-1.798c.182-.651-.154-1.365-.805-1.637-.301-.112-.616-.14-.896-.063l-1.19-1.183.553-.546a1.38 1.38 0 0 1 1.973 0l5.591 5.591a1.38 1.38 0 0 1 0 1.973l-5.591 5.591a1.38 1.38 0 0 1-1.973 0l-5.591-5.591a1.38 1.38 0 0 1 0-1.973z" fill="#ffccbc"/></svg>