<svg xmlns="http://www.w3.org/2000/svg" fill-rule="evenodd" stroke-linejoin="round" stroke-miterlimit="1.4142" viewBox="0 0 24 24" xmlns:v="https://vecta.io/nano"><path d="M19 20H4a2 2 0 0 1-2-2V6c0-1.11.89-2 2-2h6l2 2h7a2.01 2.01 0 0 1 2 2H4v10l2.14-8h17.07l-2.28 8.5c-.23.87-1.011 1.5-1.93 1.5z" fill="#616161"/><g fill="#f5f5f5"><path d="M9.875 11.625q3.828.472 6.563.469 2.69-.003 6.437-.469v1.719q-3.747.466-6.437.469-2.735.002-6.563-.469v-1.719z"/><path d="M12.844 13.008l-.875 8.508 1.906-.008.281-8-1.312-.5zM19.688 13l.851 8.5h-1.883l-.281-8 1.313-.5z"/><path d="M9.797 15.172h13v1h-13z"/><path d="M15.797 13h1v2.375h-1z"/></g></svg>