<svg xmlns="http://www.w3.org/2000/svg" fill-rule="evenodd" stroke-linejoin="round" stroke-miterlimit="1.4142" viewBox="0 0 24 24" xmlns:v="https://vecta.io/nano"><path d="M10 4H4c-1.11 0-2 .89-2 2v12a2.01 2.01 0 0 0 2 2h16a2.01 2.01 0 0 0 2-2V8a2 2 0 0 0-2-2h-8l-2-2z" fill="#1e88e5" fill-rule="nonzero"/><path d="M18.432 9.02a.99.99 0 0 0-.822.44l-1.688 2.528h-3.954c-.273 0-.495.221-.495.495v2.72l1.731 1.783.597-.639.742.742-.603.603.731.731.604-.604.748.748-.593.593 1.731 1.731h2.72c.273 0 .495-.221.495-.495v-3.955l2.528-1.687a.99.99 0 0 0 .44-.823V9.514c0-.273-.221-.495-.495-.495zm1.944 1.484c.512 0 .964.26 1.231.654a1.48 1.48 0 0 1 .254.83c0 .307-.094.593-.254.829-.053.079-.114.153-.181.22-.134.134-.294.243-.471.318a1.48 1.48 0 0 1-.578.117c-.103 0-.203-.01-.299-.03s-.189-.049-.278-.086h-.001c-.177-.075-.337-.184-.471-.318a1.49 1.49 0 0 1-.318-.471v-.001a1.47 1.47 0 0 1-.086-.278v-.001c-.02-.097-.03-.196-.03-.299 0-.614.374-1.142.906-1.368a1.48 1.48 0 0 1 .578-.117zm-8.903 7.42v2.968h2.968v-.89h-2.078v-2.078z" fill="#bbdefb"/></svg>