<svg xmlns="http://www.w3.org/2000/svg" fill-rule="evenodd" stroke-linejoin="round" stroke-miterlimit="1.4142" viewBox="0 0 24 24" xmlns:v="https://vecta.io/nano"><path d="M10 4H4c-1.11 0-2 .89-2 2v12a2.01 2.01 0 0 0 2 2h16a2.01 2.01 0 0 0 2-2V8a2 2 0 0 0-2-2h-8l-2-2z" fill="#4caf50" fill-rule="nonzero"/><path d="M15.597 21.678a.6.6 0 0 1-.146-.018.74.74 0 0 1-.513-.857l1.915-10.2a.74.74 0 0 1 .314-.483.63.63 0 0 1 .495-.086.74.74 0 0 1 .514.857l-1.92 10.2a.73.73 0 0 1-.312.481.63.63 0 0 1-.346.105zm3.839-1.445h-.048a.66.66 0 0 1-.472-.266.78.78 0 0 1 .071-1.003l3.292-3.218-3.278-2.996a.78.78 0 0 1-.1-1.001.66.66 0 0 1 .467-.283c.183-.02.366.042.501.168l3.866 3.534a.78.78 0 0 1 .102 1.001c-.03.042-.063.081-.1.115l-3.85 3.763c-.12.119-.282.186-.451.187zm-5.764.002a.65.65 0 0 1-.452-.189l-3.853-3.765a.62.62 0 0 1-.093-.108c-.216-.311-.174-.737.1-.999l3.867-3.534c.132-.126.313-.187.495-.168.19.022.361.125.47.283a.78.78 0 0 1-.099 1.002L10.83 15.75l3.293 3.217c.266.27.297.698.071 1.003-.112.153-.284.25-.473.266z" fill="#c8e6c9" fill-rule="nonzero"/></svg>