<svg xmlns="http://www.w3.org/2000/svg" stroke-linejoin="round" stroke-miterlimit="1.4142" viewBox="0 0 24 24" xmlns:v="https://vecta.io/nano"><path d="M19 20H4a2 2 0 0 1-2-2V6c0-1.11.89-2 2-2h6l2 2h7a2.01 2.01 0 0 1 2 2H4v10l2.14-8h17.07l-2.28 8.5c-.23.87-1.01 1.5-1.93 1.5z" fill="#1e88e5"/><path d="M15.508 21.639c-4.692 0-8.491-1.925-8.491-4.302s3.8-4.302 8.492-4.302 8.491 1.925 8.491 4.302-3.8 4.302-8.491 4.302m-3.673-5.626c.382 0 .644.071.771.219.127.142.156.396.092.729-.071.375-.205.616-.41.771-.198.156-.502.234-.913.234h-.616l.375-1.953h.701m-2.477 3.927h1.019l.241-1.238h.87c.382 0 .693-.042.941-.12a1.88 1.88 0 0 0 .679-.41 2.03 2.03 0 0 0 .41-.517 1.81 1.81 0 0 0 .219-.623c.113-.552.035-.984-.234-1.288-.276-.311-.701-.46-1.288-.46h-1.953l-.906 4.656m5.13-5.895l-.906 4.656h1.005l.524-2.668h.807c.255 0 .425.042.502.127s.092.241.05.467l-.403 2.073h1.026l.418-2.172c.092-.439.021-.757-.191-.962-.212-.191-.601-.283-1.168-.283h-.899l.255-1.238h-1.019m5.265 1.967c.389 0 .644.071.771.219.127.142.156.396.092.729-.071.375-.205.616-.403.771-.205.156-.509.234-.92.234h-.601l.354-1.953h.708m-2.477 3.927h1.019l.241-1.238h.863c.389 0 .708-.042.955-.12.248-.085.46-.219.672-.41.17-.156.311-.326.41-.517a1.98 1.98 0 0 0 .226-.623c.106-.552.028-.984-.241-1.288-.255-.311-.701-.46-1.288-.46H18.19z" fill="#bbdefb"/></svg>