<svg xmlns="http://www.w3.org/2000/svg" fill-rule="evenodd" stroke-linejoin="round" stroke-miterlimit="1.4142" viewBox="0 0 24 24" xmlns:v="https://vecta.io/nano"><path d="M10 4H4c-1.11 0-2 .89-2 2v12a2.01 2.01 0 0 0 2 2h16a2.01 2.01 0 0 0 2-2V8a2 2 0 0 0-2-2h-8l-2-2z" fill="#ff5252" fill-rule="nonzero"/><path d="M17.249 9.261c-3.281 0-5.943 2.662-5.943 5.943s2.663 5.943 5.943 5.943 5.943-2.663 5.943-5.943-2.663-5.943-5.943-5.943zm0 10.697c-2.627 0-4.754-2.128-4.754-4.754 0-1.099.374-2.11 1.004-2.912l6.662 6.662c-.802.63-1.813 1.004-2.912 1.004zm3.75-1.842l-6.662-6.662c.802-.63 1.813-1.004 2.912-1.004 2.627 0 4.755 2.128 4.755 4.755 0 1.099-.374 2.11-1.004 2.912z" fill="#ffcdd2"/></svg>