<svg xmlns="http://www.w3.org/2000/svg" stroke-linejoin="round" stroke-miterlimit="1.414" viewBox="0 0 24 24" xmlns:v="https://vecta.io/nano"><path d="M19 20H4a2 2 0 0 1-2-2V6c0-1.11.89-2 2-2h6l2 2h7c1.097 0 2 .903 2 2H4v10l2.14-8h17.07l-2.28 8.5c-.23.87-1.01 1.5-1.93 1.5z" fill="#7cb342"/><path d="M13.313 11.766h-1.122v7.856c0 .618.504 1.122 1.122 1.122h7.856v-1.122h-7.856zm8.978-2.244h-6.733c-.617 0-1.122.504-1.122 1.122v6.733c0 .618.506 1.122 1.122 1.122h6.733c.618 0 1.122-.504 1.122-1.122v-6.733c0-.618-.504-1.122-1.122-1.122zm-.561 5.05h-2.244v2.244h-1.122v-2.245h-2.244v-1.122h2.244v-2.244h1.122v2.244h2.244z" fill="#dcedc8"/></svg>