<svg xmlns="http://www.w3.org/2000/svg" fill-rule="evenodd" stroke-linejoin="round" stroke-miterlimit="1.4142" viewBox="0 0 24 24" xmlns:v="https://vecta.io/nano"><path d="M10 4H4c-1.11 0-2 .89-2 2v12a2.01 2.01 0 0 0 2 2h16a2.01 2.01 0 0 0 2-2V8a2 2 0 0 0-2-2h-8l-2-2z" fill="#26a69a" fill-rule="nonzero"/><path d="M16.955 17.786l-2.367-2.367.834-.834 1.533 1.527 3.9-3.9.834.84m-3.551-4.734l-5.326 2.367v3.551c0 3.284 2.272 6.355 5.326 7.101 3.053-.746 5.326-3.817 5.326-7.101v-3.551z" fill="#b2dfdb"/></svg>