<svg xmlns="http://www.w3.org/2000/svg" fill-rule="evenodd" stroke-linejoin="round" stroke-miterlimit="1.4142" viewBox="0 0 24 24" xmlns:v="https://vecta.io/nano"><path d="M19 20H4a2 2 0 0 1-2-2V6c0-1.11.89-2 2-2h6l2 2h7a2.01 2.01 0 0 1 2 2H4v10l2.14-8h17.07l-2.28 8.5c-.23.87-1.01 1.5-1.93 1.5z" fill="#41b883"/><path d="M15.234 8.772a1.5 1.5 0 0 0-1.5 1.5v9a1.5 1.5 0 0 0 1.5 1.5h7.001a1.5 1.5 0 0 0 1.5-1.5v-9a1.5 1.5 0 0 0-1.5-1.5z" fill="#e8f5e9"/><path d="M15.257 11.771l3.477 6L22.21 11.8v-.029h-1.352l-2.105 3.615-2.095-3.615z" fill="#41b883"/><path d="M16.659 11.771l2.095 3.616 2.105-3.616h-1.268l-.829 1.423-.825-1.423z" fill="#35495e"/></svg>