<svg xmlns="http://www.w3.org/2000/svg" fill-rule="evenodd" stroke-linejoin="round" stroke-miterlimit="1.4142" viewBox="0 0 24 24" xmlns:v="https://vecta.io/nano"><path d="M10 4H4c-1.11 0-2 .89-2 2v12a2.01 2.01 0 0 0 2 2h16a2.01 2.01 0 0 0 2-2V8a2 2 0 0 0-2-2h-8l-2-2z" fill="#ef5350" fill-rule="nonzero"/><path d="M19.946 13.159V11.83h-2.658v3.654c-.279-.206-.618-.332-.997-.332a1.661 1.661 0 1 0 0 3.322 1.661 1.661 0 0 0 1.661-1.661v-3.654h1.993m-2.658-4.651a6.644 6.644 0 1 1 0 13.288 6.644 6.644 0 1 1 0-13.288z" fill="#ffcdd2"/></svg>