<svg xmlns="http://www.w3.org/2000/svg" stroke-linejoin="round" stroke-miterlimit="1.4142" viewBox="0 0 24 24" xmlns:v="https://vecta.io/nano"><path d="M19 20H4a2 2 0 0 1-2-2V6c0-1.11.89-2 2-2h6l2 2h7a2.01 2.01 0 0 1 2 2H4v10l2.14-8h17.07l-2.28 8.5c-.23.87-1.01 1.5-1.93 1.5z" fill="#ff5722"/><path d="M12.351 8.996c-.825 0-1.496.669-1.496 1.494a1.5 1.5 0 0 0 1.496 1.496h5.91c.825 0 1.494-.671 1.494-1.496s-.669-1.494-1.494-1.494zm9.768 0a1.527 1.496 0 0 0-1.527 1.494 1.527 1.496 0 0 0 1.527 1.496 1.527 1.496 0 0 0 1.525-1.496 1.527 1.496 0 0 0-1.525-1.494zM12.38 13.43c-.846 0-1.525.682-1.525 1.527 0 .835.68 1.517 1.525 1.527.846 0 1.527-.682 1.527-1.527s-.682-1.527-1.527-1.527zm3.693.031c-.825.062-1.454.774-1.393 1.6s.774 1.455 1.6 1.393h6.043c.825-.062 1.454-.774 1.393-1.6a1.5 1.5 0 0 0-1.598-1.393h-5.9zm-3.723 4.303c-.825 0-1.496.669-1.496 1.494a1.5 1.5 0 0 0 1.496 1.496h5.91c.825 0 1.494-.671 1.494-1.496s-.669-1.494-1.494-1.494zm9.768 0a1.527 1.496 0 0 0-1.527 1.494 1.527 1.496 0 0 0 1.527 1.496 1.527 1.496 0 0 0 1.525-1.496 1.527 1.496 0 0 0-1.525-1.494z" fill="#ffccbc"/></svg>