<svg xmlns="http://www.w3.org/2000/svg" fill-rule="evenodd" stroke-linejoin="round" stroke-miterlimit="1.4142" viewBox="0 0 24 24" xmlns:v="https://vecta.io/nano"><path d="M10 4H4c-1.11 0-2 .89-2 2v12a2.01 2.01 0 0 0 2 2h16a2.01 2.01 0 0 0 2-2V8a2 2 0 0 0-2-2h-8l-2-2z" fill="#afb42b" fill-rule="nonzero"/><path d="M19.04 18.616h-4.706v-1.345h4.706m2.017-1.345h-6.723v-1.345h6.723m0-1.345h-6.723v-1.345h6.723m1.345-2.689h-9.412a1.34 1.34 0 0 0-1.345 1.345v9.412a1.345 1.345 0 0 0 1.345 1.345h9.412a1.345 1.345 0 0 0 1.345-1.345v-9.412c0-.746-.605-1.345-1.345-1.345z" fill="#f0f4c3"/></svg>