<svg xmlns="http://www.w3.org/2000/svg" fill-rule="evenodd" stroke-linejoin="round" stroke-miterlimit="1.414" viewBox="0 0 24 24" xmlns:v="https://vecta.io/nano"><path d="M19 20H4a2 2 0 0 1-2-2V6c0-1.11.89-2 2-2h6l2 2h7c1.097 0 2 .903 2 2H4v10l2.14-8h17.07l-2.28 8.5c-.23.87-1.01 1.5-1.93 1.5z" fill="#ffa000"/><path d="M22.408 11.145h-2.543V9.874a1.24 1.24 0 0 0-.376-.897 1.243 1.243 0 0 0-.896-.376h-2.543c-.7 0-1.271.573-1.271 1.271v1.271h-2.543c-.7 0-1.271.573-1.271 1.271v6.994c0 .699.572 1.271 1.271 1.271h10.172c.699 0 1.271-.573 1.271-1.271v-6.993c0-.7-.573-1.271-1.271-1.271zm-6.357-1.271h2.543v1.271h-2.543zm.635 8.582l-.636-.636 1.907-1.907-1.907-1.907.636-.636 2.543 2.543z" fill="#ffecb3"/></svg>