<svg xmlns="http://www.w3.org/2000/svg" stroke-linejoin="round" stroke-miterlimit="1.4142" viewBox="0 0 24 24" xmlns:v="https://vecta.io/nano"><path d="M19 20H4a2 2 0 0 1-2-2V6c0-1.11.89-2 2-2h6l2 2h7a2.01 2.01 0 0 1 2 2H4v10l2.14-8h17.07l-2.28 8.5c-.23.87-1.01 1.5-1.93 1.5z" fill="#43a047"/><path d="M11.373 9.096v5.919l2.089-2.089 2.089 2.437c.696.696.696 1.393.696 1.393v4.178h2.785v-4.875s0-.696-.369-1.393-1.024-1.393-1.024-1.393l-2.089-2.382 1.741-1.797m4.526 0l-3.106 3.113.32.369s.648.696 1.024 1.393a2.98 2.98 0 0 1 .279.787l3.572-3.572" fill="#c8e6c9"/></svg>