<svg xmlns="http://www.w3.org/2000/svg" fill-rule="evenodd" stroke-linejoin="round" stroke-miterlimit="1.4142" viewBox="0 0 24 24" xmlns:v="https://vecta.io/nano"><path d="M10 4H4c-1.11 0-2 .89-2 2v12a2.01 2.01 0 0 0 2 2h16a2.01 2.01 0 0 0 2-2V8a2 2 0 0 0-2-2h-8l-2-2z" fill="#21759b" fill-rule="nonzero"/><path d="M16.361 8.295c-2.233 0-4.191 1.147-5.337 2.881l.409.008 1.705-.081c.342-.022.387.482.044.527l-.738.076 2.331 6.899 1.398-4.19-.996-2.709-.678-.076c-.335-.022-.298-.549.044-.527l1.682.081 1.705-.081c.342-.022.389.482.039.527l-.73.076 2.308 6.847.639-2.128c.268-.886.485-1.519.485-2.062 0-.797-.284-1.341-.529-1.765-.32-.521-.626-.966-.626-1.494 0-.588.449-1.132 1.074-1.132h.081a6.38 6.38 0 0 0-4.31-1.677zm5.606 3.322l.044.662c0 .648-.128 1.376-.493 2.284l-1.95 5.635c1.898-1.102 3.178-3.162 3.178-5.515a6.36 6.36 0 0 0-.78-3.066zm-11.444.462c-.35.804-.55 1.682-.55 2.605 0 2.531 1.467 4.712 3.604 5.747zm5.95 3.163l-1.914 5.57c.573.171 1.176.258 1.802.258a6.26 6.26 0 0 0 2.122-.362l-.047-.091z" fill="#e1f5fe"/></svg>