<svg xmlns="http://www.w3.org/2000/svg" stroke-linejoin="round" stroke-miterlimit="1.4142" viewBox="0 0 24 24" xmlns:v="https://vecta.io/nano"><path d="M19 20H4a2 2 0 0 1-2-2V6c0-1.11.89-2 2-2h6l2 2h7a2.01 2.01 0 0 1 2 2H4v10l2.14-8h17.07l-2.28 8.5c-.23.87-1.01 1.5-1.93 1.5z" fill="#ff7043"/><path d="M17.338 9.322a6.187 6.187 0 1 1 0 12.373 6.187 6.187 0 0 1 0-12.373m0 5.259a.928.928 0 0 0 0 1.856.928.928 0 1 0 0-1.856m-3.403 0a.928.928 0 1 0 0 1.856.928.928 0 1 0 0-1.856m6.805 0a.928.928 0 1 0 0 1.856.928.928 0 1 0 0-1.856z" fill="#ffccbc"/></svg>