<svg xmlns="http://www.w3.org/2000/svg" stroke-linejoin="round" stroke-miterlimit="1.414" viewBox="0 0 24 24" xmlns:v="https://vecta.io/nano"><path d="M19 20H4a2 2 0 0 1-2-2V6c0-1.11.89-2 2-2h6l2 2h7c1.097 0 2 .903 2 2H4v10l2.14-8h17.07l-2.28 8.5c-.23.87-1.01 1.5-1.93 1.5z" fill="#ef5350"/><path d="M11.375 11.618h3.081V8.537h-3.081zm4.622 9.244h3.081V17.78h-3.081zm-4.622 0h3.081V17.78h-3.081zm0-4.622h3.081v-3.081h-3.081zm4.622 0h3.081v-3.081h-3.081zm4.622-7.703v3.081H23.7V8.537zm-4.622 3.081h3.081V8.537h-3.081zm4.622 4.622H23.7v-3.081h-3.081zm0 4.622H23.7V17.78h-3.081z" fill="#ffcdd2"/></svg>