<svg xmlns="http://www.w3.org/2000/svg" fill-rule="evenodd" stroke-linejoin="round" stroke-miterlimit="1.414" viewBox="0 0 24 24" xmlns:v="https://vecta.io/nano"><path d="M10 4H4c-1.11 0-2 .89-2 2v12c0 1.097.903 2 2 2h16c1.097 0 2-.903 2-2V8a2 2 0 0 0-2-2h-8l-2-2z" fill="#0288d1" fill-rule="nonzero"/><path d="M17.66 10.789c-.708-.064-1.333.457-1.398 1.172l-.161 1.861h1.816v1.288h-1.932l-.283 3.265c-.129 1.417-1.378 2.467-2.795 2.338-.805-.071-1.533-.515-1.958-1.204l.966-.966a1.28 1.28 0 0 0 1.61.837c.502-.155.857-.599.902-1.121l.271-3.149h-1.932v-1.288h2.048l.174-1.977c.122-1.417 1.365-2.467 2.789-2.351.812.071 1.546.522 1.971 1.217l-.966.966a1.29 1.29 0 0 0-1.121-.889m6.17 5.384l-.908-.908-1.823 1.823-1.823-1.823-.921.908 1.836 1.836-1.836 1.81.921.908 1.823-1.823 1.823 1.823.908-.908-1.823-1.81z" fill="#b3e5fc"/></svg>