<svg xmlns="http://www.w3.org/2000/svg" stroke-linejoin="round" stroke-miterlimit="1.4142" viewBox="0 0 24 24" xmlns:v="https://vecta.io/nano"><path d="M19 20H4a2 2 0 0 1-2-2V6c0-1.11.89-2 2-2h6l2 2h7a2.01 2.01 0 0 1 2 2H4v10l2.14-8h17.07l-2.28 8.5c-.23.87-1.01 1.5-1.93 1.5z" fill="#1976d2"/><path d="M19.018 14.626a1.198 1.198 0 1 1-2.395 0 1.198 1.198 0 1 1 2.395 0zm4.118-3.069a6.138 6.138 0 0 0-.941-1.23l-1.384.799a4.61 4.61 0 0 0-1.445-.838c-.473.479-.848 1.014-1.119 1.596 1.541-.105 3.132.453 4.61 1.607l.871-.503a6.138 6.138 0 0 0-.592-1.432zm0 6.138a6.138 6.138 0 0 0 .595-1.43l-1.384-.799a4.61 4.61 0 0 0 .003-1.671 5.68 5.68 0 0 0-1.942-.171c.861 1.282 1.174 2.939.913 4.796l.871.503a6.138 6.138 0 0 0 .944-1.229zm-5.315 3.069a6.138 6.138 0 0 0 1.535-.2v-1.599a4.61 4.61 0 0 0 1.448-.833 5.68 5.68 0 0 0-.823-1.767c-.68 1.387-1.958 2.486-3.697 3.189v1.006a6.138 6.138 0 0 0 1.536.203zm-5.316-3.069a6.138 6.138 0 0 0 .941 1.23l1.384-.799a4.61 4.61 0 0 0 1.445.838c.473-.479.848-1.014 1.119-1.596-1.541.105-3.132-.453-4.61-1.607l-.871.503a6.138 6.138 0 0 0 .592 1.432zm0-6.138a6.138 6.138 0 0 0-.595 1.429l1.384.799a4.61 4.61 0 0 0-.003 1.671 5.68 5.68 0 0 0 1.942.171c-.861-1.282-1.174-2.939-.913-4.796l-.871-.503a6.138 6.138 0 0 0-.944 1.229zm5.315-3.069a6.138 6.138 0 0 0-1.535.2v1.598a4.61 4.61 0 0 0-1.448.833 5.68 5.68 0 0 0 .823 1.767c.68-1.387 1.958-2.486 3.697-3.189V8.691a6.138 6.138 0 0 0-1.536-.203z" fill="#bbdefb"/></svg>