<svg xmlns="http://www.w3.org/2000/svg" stroke-linejoin="round" stroke-miterlimit="1.4142" viewBox="0 0 24 24" xmlns:v="https://vecta.io/nano"><path d="M19 20H4a2 2 0 0 1-2-2V6c0-1.11.89-2 2-2h6l2 2h7a2.01 2.01 0 0 1 2 2H4v10l2.14-8h17.07l-2.28 8.5c-.23.87-1.01 1.5-1.93 1.5z" fill="#1e88e5"/><path d="M17.123 8.692c-.746.069-1.415.573-1.656 1.332-.157.495-.102 1.008.112 1.439l-2.161 1.615a.78.78 0 0 0-.165-.075.77.77 0 0 0-.965.5.77.77 0 0 0 .501.965.77.77 0 0 0 .965-.5c.045-.142.045-.287.011-.421l2.676-1.967c-.353-.332-.536-.875-.38-1.368a1.3 1.3 0 0 1 2.537.372l.623.013c-.003-.813-.525-1.565-1.342-1.824a1.91 1.91 0 0 0-.758-.082zm.234 1.222a.77.77 0 1 0 0 1.542c.149 0 .288-.043.406-.116l2.693 1.959c.21-.438.672-.778 1.19-.778.719 0 1.304.583 1.304 1.302 0 .575-.374 1.064-.891 1.237l.178.599a1.93 1.93 0 0 0-.591-3.763 1.92 1.92 0 0 0-1.34.544l-2.199-1.575c.014-.058.021-.118.021-.18a.77.77 0 0 0-.771-.771zm-4.333 1.873c-.594-.006-1.18.263-1.555.777-.62.849-.428 2.045.428 2.67.419.306.921.418 1.396.354l.853 2.549a.75.75 0 0 0-.122.129c-.248.34-.172.818.17 1.068s.822.177 1.07-.163.17-.817-.172-1.067a.77.77 0 0 0-.395-.146l-1.025-3.145c-.424.226-.994.227-1.411-.077-.579-.422-.709-1.232-.29-1.806a1.29 1.29 0 0 1 1.435-.464l.206-.582a1.92 1.92 0 0 0-.589-.097zm8.65 1.265a.77.77 0 0 0-.303.034c-.404.13-.626.562-.496.964.045.141.129.257.234.346l-1.037 3.14c.479.064.942.397 1.1.885.219.678-.156 1.406-.838 1.626-.545.176-1.12-.024-1.441-.458l-.515.35a1.92 1.92 0 0 0 2.146.698c1.009-.326 1.563-1.403 1.239-2.406a1.9 1.9 0 0 0-.922-1.098l.823-2.556a.77.77 0 0 0 .176-.036c.404-.13.625-.56.496-.962-.097-.301-.364-.5-.662-.526zm-8.56 4.567c-.476.655-.5 1.568.004 2.257.625.854 1.824 1.04 2.678.415a1.91 1.91 0 0 0 .756-1.224l2.689-.026a.76.76 0 0 0 .088.155c.25.342.729.416 1.07.167a.77.77 0 0 0 .167-1.072c-.25-.342-.729-.415-1.07-.165-.12.088-.207.203-.258.331l-3.31.007c.089.474-.082 1.021-.498 1.325-.577.422-1.387.296-1.809-.281-.337-.461-.324-1.072-.011-1.514z" fill="#e3f2fd" stroke="#e3f2fd" stroke-width=".324"/></svg>