<svg xmlns="http://www.w3.org/2000/svg" stroke-linejoin="round" stroke-miterlimit="1.4142" viewBox="0 0 24 24" xmlns:v="https://vecta.io/nano"><path d="M19 20H4a2 2 0 0 1-2-2V6c0-1.11.89-2 2-2h6l2 2h7a2.01 2.01 0 0 1 2 2H4v10l2.14-8h17.07l-2.28 8.5c-.23.87-1.01 1.5-1.93 1.5z" fill="#fbc02d"/><path d="M13.424 8.543h9.37a.586.586 0 0 1 .586.586v2.343a.586.586 0 0 1-.586.586h-9.37a.586.586 0 0 1-.586-.586V9.128a.586.586 0 0 1 .586-.586m0 4.685h9.37a.586.586 0 0 1 .586.586v2.343a.586.586 0 0 1-.586.586h-9.37a.586.586 0 0 1-.586-.586v-2.343a.586.586 0 0 1 .586-.586m0 4.685h9.37a.586.586 0 0 1 .586.586v2.343a.586.586 0 0 1-.586.586h-9.37a.586.586 0 0 1-.586-.586v-2.343a.586.586 0 0 1 .586-.586m2.928-7.028h.586V9.714h-.586v1.171m0 4.685h.586v-1.171h-.586v1.171m0 4.685h.586v-1.171h-.586v1.171M14.01 9.714v1.171h1.171V9.714H14.01m0 4.685v1.171h1.171v-1.171H14.01m0 4.685v1.171h1.171v-1.171z" fill="#fffde7"/></svg>