<svg xmlns="http://www.w3.org/2000/svg" stroke-linejoin="round" stroke-miterlimit="1.4142" viewBox="0 0 24 24" xmlns:v="https://vecta.io/nano"><path d="M19 20H4a2 2 0 0 1-2-2V6c0-1.11.89-2 2-2h6l2 2h7a2.01 2.01 0 0 1 2 2H4v10l2.14-8h17.07l-2.28 8.5c-.23.87-1.01 1.5-1.93 1.5z" fill="#5c6bc0"/><path d="M21.981 19.546H13.36v-6.774h8.622m0-3.079h-.616V8.461h-1.232v1.232h-4.927V8.461h-1.232v1.232h-.616a1.23 1.23 0 0 0-1.232 1.232v8.622a1.232 1.232 0 0 0 1.232 1.232h8.621a1.232 1.232 0 0 0 1.232-1.232v-8.621a1.232 1.232 0 0 0-1.232-1.232m-1.521 4.964l-.653-.653-3.005 3.005-1.306-1.306-.653.653 1.958 1.958z" fill="#c5cae9"/></svg>