<svg xmlns="http://www.w3.org/2000/svg" fill-rule="nonzero" stroke-linejoin="round" stroke-miterlimit="1.4142" viewBox="0 0 24 24" xmlns:v="https://vecta.io/nano"><path d="M19 20H4a2 2 0 0 1-2-2V6c0-1.11.89-2 2-2h6l2 2h7a2.01 2.01 0 0 1 2 2H4v10l2.14-8h17.07l-2.28 8.5c-.23.87-1.01 1.5-1.93 1.5z" fill="#42a5f5"/><path d="M12.488 9.415l-.439 2.258h9.188l-.297 1.46h-9.181l-.446 2.251h9.188l-.514 2.576-3.705 1.224-3.211-1.224.223-1.109h-2.258l-.534 2.704 5.307 2.028 6.118-2.028.811-4.077.162-.818 1.041-5.246H12.488z" fill="#bbdefb"/></svg>