<svg xmlns="http://www.w3.org/2000/svg" stroke-linejoin="round" stroke-miterlimit="1.4142" viewBox="0 0 24 24" xmlns:v="https://vecta.io/nano"><path d="M19 20H4a2 2 0 0 1-2-2V6c0-1.11.89-2 2-2h6l2 2h7a2.01 2.01 0 0 1 2 2H4v10l2.14-8h17.07l-2.28 8.5c-.23.87-1.01 1.5-1.93 1.5z" fill="#ec407a"/><path d="M21.944 12.474a4.868 4.868 0 0 1 0 6.885c-1.333 1.333-3.241 1.726-4.918 1.2a4.95 4.95 0 0 1-2.951 0c-1.677.526-3.585.133-4.918-1.2a4.868 4.868 0 0 1 0-6.885c1.333-1.333 3.241-1.726 4.918-1.2a4.95 4.95 0 0 1 2.951 0c1.677-.526 3.585-.133 4.918 1.2m-9.836 6.885a4.868 4.868 0 0 1 0-6.885 3.45 3.45 0 0 0-1.967.984 3.478 3.478 0 0 0 0 4.918 3.45 3.45 0 0 0 1.967.984m2.951 0a4.868 4.868 0 0 1 0-6.885 3.45 3.45 0 0 0-1.967.984 3.478 3.478 0 0 0 0 4.918 3.45 3.45 0 0 0 1.967.984m5.901-5.901a3.45 3.45 0 0 0-1.967-.984 4.868 4.868 0 0 1 0 6.885 3.45 3.45 0 0 0 1.967-.984 3.478 3.478 0 0 0 0-4.918m-4.918 0a3.478 3.478 0 0 0 0 4.918 3.33 3.33 0 0 0 .984.689 3.33 3.33 0 0 0 .984-.689 3.478 3.478 0 0 0 0-4.918 3.33 3.33 0 0 0-.984-.688 3.33 3.33 0 0 0-.984.688z" fill="#f8bbd0"/></svg>