<svg xmlns="http://www.w3.org/2000/svg" fill-rule="nonzero" stroke-linejoin="round" stroke-miterlimit="1.4142" viewBox="0 0 24 24" xmlns:v="https://vecta.io/nano"><path d="M10 4H4c-1.11 0-2 .89-2 2v12a2.01 2.01 0 0 0 2 2h16a2.01 2.01 0 0 0 2-2V8a2 2 0 0 0-2-2h-8l-2-2z" fill="#009688"/><path d="M18.575 12.859h3.712l-3.712-3.713v3.713M13.85 8.134h5.4l4.05 4.05v8.1c0 .74-.61 1.35-1.35 1.35h-8.1a1.35 1.35 0 0 1-1.35-1.35v-10.8c0-.749.601-1.35 1.35-1.35m0 12.15h8.1v-5.4l-2.7 2.7-1.35-1.35-4.05 4.05m1.35-7.425c-.74 0-1.35.61-1.35 1.35s.61 1.35 1.35 1.35 1.35-.61 1.35-1.35-.61-1.35-1.35-1.35z" fill="#b2dfdb"/></svg>