<svg xmlns="http://www.w3.org/2000/svg" fill-rule="evenodd" stroke-linejoin="round" stroke-miterlimit="1.4142" viewBox="0 0 24 24" xmlns:v="https://vecta.io/nano"><path d="M10 4H4c-1.11 0-2 .89-2 2v12a2.01 2.01 0 0 0 2 2h16a2.01 2.01 0 0 0 2-2V8a2 2 0 0 0-2-2h-8l-2-2z" fill="#8d6e63" fill-rule="nonzero"/><path d="M17.651 19.894a4.761 4.761 0 0 0 0-9.522 4.761 4.761 0 0 0 0 9.522m0-10.713a5.952 5.952 0 1 1 0 11.903 5.96 5.96 0 0 1-5.951-5.951 5.952 5.952 0 0 1 5.951-5.951m.298 2.976v3.124l2.678 1.589-.446.732-3.125-1.875v-3.571z" fill="#d7ccc8" stroke="#d7ccc8" stroke-miterlimit="4" stroke-width=".271"/></svg>