<svg xmlns="http://www.w3.org/2000/svg" fill-rule="evenodd" stroke-linejoin="round" stroke-miterlimit="1.4142" viewBox="0 0 24 24" xmlns:v="https://vecta.io/nano"><path d="M10 4H4c-1.11 0-2 .89-2 2v12a2.01 2.01 0 0 0 2 2h16a2.01 2.01 0 0 0 2-2V8a2 2 0 0 0-2-2h-8l-2-2z" fill="#5c6bc0" fill-rule="nonzero"/><path d="M19.903 17.826l3.822-2.205v-4.417l-3.822 2.21m-4.242-2.21l3.822 2.21v4.412l-3.822-2.207m-4.242-2.464l3.822 2.207v-4.414l-3.822-2.207m4.242 11.777l3.822 2.207v-4.414l-3.822-2.207" fill="#c5cae9"/></svg>