<svg xmlns="http://www.w3.org/2000/svg" stroke-linejoin="round" stroke-miterlimit="1.4142" viewBox="0 0 24 24" xmlns:v="https://vecta.io/nano"><path d="M19 20H4a2 2 0 0 1-2-2V6c0-1.11.89-2 2-2h6l2 2h7a2.01 2.01 0 0 1 2 2H4v10l2.14-8h17.07l-2.28 8.5c-.23.87-1.01 1.5-1.93 1.5z" fill="#e57373"/><path d="M18.575 11.113h-2.576V9.825h2.576m3.864 1.288h-2.576V9.825l-1.288-1.288h-2.576l-1.288 1.288v1.288h-2.576c-.715 0-1.288.573-1.288 1.288v7.085a1.288 1.288 0 0 0 1.288 1.288h10.305a1.288 1.288 0 0 0 1.288-1.288v-7.085a1.29 1.29 0 0 0-1.288-1.288z" fill="#ffcdd2" fill-rule="evenodd"/></svg>