<svg xmlns="http://www.w3.org/2000/svg" fill-rule="nonzero" stroke-linejoin="round" stroke-miterlimit="1.4142" viewBox="0 0 24 24" xmlns:v="https://vecta.io/nano"><path d="M19 20H4a2 2 0 0 1-2-2V6c0-1.11.89-2 2-2h6l2 2h7a2.01 2.01 0 0 1 2 2H4v10l2.14-8h17.07l-2.28 8.5c-.23.87-1.01 1.5-1.93 1.5z" fill="#546e7a"/><path d="M18.466 20.241c.69 0 1.258-.568 1.258-1.258v-8.18H15.32a.63.63 0 0 0-.629.629v6.292h-1.888v-6.921a1.9 1.9 0 0 1 1.888-1.888h6.921a1.9 1.9 0 0 1 1.888 1.888v.629h-2.517v8.18a1.9 1.9 0 0 1-1.888 1.888h-6.292a1.9 1.9 0 0 1-1.888-1.888v-.629h6.292c0 .69.568 1.258 1.258 1.258z" fill="#cfd8dc"/></svg>