<svg xmlns="http://www.w3.org/2000/svg" fill-rule="evenodd" stroke-linejoin="round" stroke-miterlimit="1.4142" viewBox="0 0 24 24" xmlns:v="https://vecta.io/nano"><path d="M10 4H4c-1.11 0-2 .89-2 2v12a2.01 2.01 0 0 0 2 2h16a2.01 2.01 0 0 0 2-2V8a2 2 0 0 0-2-2h-8l-2-2z" fill="#ff7043" fill-rule="nonzero"/><path d="M17.338 9.322a6.187 6.187 0 1 1 0 12.373 6.187 6.187 0 0 1 0-12.373m0 5.259a.928.928 0 0 0 0 1.856.928.928 0 1 0 0-1.856m-3.403 0a.928.928 0 1 0 0 1.856.928.928 0 1 0 0-1.856m6.805 0a.928.928 0 1 0 0 1.856.928.928 0 1 0 0-1.856z" fill="#ffccbc"/></svg>