<svg xmlns="http://www.w3.org/2000/svg" stroke-linejoin="round" stroke-miterlimit="1.4142" viewBox="0 0 24 24" xmlns:v="https://vecta.io/nano"><path d="M19 20H4a2 2 0 0 1-2-2V6c0-1.11.89-2 2-2h6l2 2h7a2.01 2.01 0 0 1 2 2H4v10l2.14-8h17.07l-2.28 8.5c-.23.87-1.01 1.5-1.93 1.5z" fill="#afb42b"/><path d="M19.039 18.616h-4.706v-1.345h4.706m2.017-1.345h-6.723v-1.345h6.723m0-1.345h-6.723v-1.345h6.723m1.345-2.689h-9.412a1.34 1.34 0 0 0-1.345 1.345v9.412a1.345 1.345 0 0 0 1.345 1.345h9.412a1.345 1.345 0 0 0 1.345-1.345v-9.412c0-.746-.605-1.345-1.345-1.345z" fill="#f0f4c3"/></svg>