<svg xmlns="http://www.w3.org/2000/svg" fill-rule="evenodd" stroke-linejoin="round" stroke-miterlimit="1.414" viewBox="0 0 24 24" xmlns:v="https://vecta.io/nano"><path d="M19 20H4a2 2 0 0 1-2-2V6c0-1.11.89-2 2-2h6l2 2h7a2.01 2.01 0 0 1 2 2H4v10l2.14-8h17.07l-2.28 8.5c-.23.87-1.011 1.5-1.93 1.5z" fill="#c0ca33" fill-rule="nonzero"/><path d="M20.758 19.209c1.099-1.315 1.229-2.673.378-5.194-.538-1.595-1.433-2.823-.775-3.814.7-1.056 2.188-.032.948 1.379l.247.172c1.488.173 2.22-1.864 1.111-2.445-2.931-1.53-5.495 1.411-4.365 4.815.486 1.445 1.165 2.975.615 4.192-.474 1.045-1.39 1.659-2.003 1.68-1.283.064-.431-2.876 1.045-3.609.129-.064.313-.151.139-.367-1.82-.204-2.887.636-3.501 1.81-1.789 3.416 3.393 4.676 6.162 1.379z" fill="#f0f4c3"/></svg>