<svg xmlns="http://www.w3.org/2000/svg" fill-rule="evenodd" stroke-linejoin="round" stroke-miterlimit="1.4142" viewBox="0 0 24 24" xmlns:v="https://vecta.io/nano"><path d="M10 4H4c-1.11 0-2 .89-2 2v12a2.01 2.01 0 0 0 2 2h16a2.01 2.01 0 0 0 2-2V8a2 2 0 0 0-2-2h-8l-2-2z" fill="#ffb300" fill-rule="nonzero"/><path d="M12.91 14.24h2.402l-1.702-1.702c-.649 0-1.175-.527-1.175-1.182a1.175 1.175 0 0 1 1.175-1.175c.655 0 1.182.527 1.182 1.175l1.702 1.702v-2.402c-.456-.462-.456-1.207 0-1.663.456-.462 1.201-.462 1.657 0 .456.456.456 1.201 0 1.663v2.402l1.708-1.702a1.17 1.17 0 0 1 1.175-1.175c.649 0 1.175.527 1.175 1.175 0 .655-.527 1.182-1.175 1.182l-1.702 1.702h2.402c.462-.456 1.207-.456 1.663 0 .462.456.462 1.201 0 1.657-.456.456-1.201.456-1.663 0h-2.402l1.702 1.708a1.17 1.17 0 0 1 1.175 1.175 1.175 1.175 0 0 1-1.175 1.175 1.17 1.17 0 0 1-1.175-1.175l-1.708-1.702v2.402c.456.462.456 1.207 0 1.663-.456.462-1.201.462-1.657 0-.456-.456-.456-1.201 0-1.663v-2.402l-1.702 1.702c0 .649-.527 1.175-1.182 1.175-.649 0-1.175-.527-1.175-1.175a1.17 1.17 0 0 1 1.175-1.175l1.702-1.708H12.91c-.462.456-1.207.456-1.663 0-.462-.456-.462-1.201 0-1.657.456-.456 1.201-.456 1.663 0z" fill="#fff9c4"/></svg>