<svg xmlns="http://www.w3.org/2000/svg" stroke-linejoin="round" stroke-miterlimit="1.4142" viewBox="0 0 24 24" xmlns:v="https://vecta.io/nano"><path d="M19 20H4a2 2 0 0 1-2-2V6c0-1.11.89-2 2-2h6l2 2h7a2.01 2.01 0 0 1 2 2H4v10l2.14-8h17.07l-2.28 8.5c-.23.87-1.01 1.5-1.93 1.5z" fill="#00acc1"/><path d="M23.043 12.103c.458.458.458 1.202 0 1.603l-1.603 1.603-4.465-4.465 1.603-1.603c.458-.458 1.202-.458 1.603 0l1.03 1.03 1.717-1.717.801.801-1.717 1.717 1.03 1.03m-3.32 3.32l-.801-.801-1.603 1.603-1.202-1.202 1.603-1.603-.801-.801-1.603 1.603-.859-.801-1.603 1.603c-.458.458-.458 1.202 0 1.603l1.03 1.03-2.29 2.29.801.801 2.29-2.29 1.03 1.03c.458.458 1.202.458 1.603 0l1.603-1.603-.801-.801z" fill="#b2ebf2"/></svg>