<svg xmlns="http://www.w3.org/2000/svg" fill-rule="evenodd" stroke-linejoin="round" stroke-miterlimit="1.4142" viewBox="0 0 24 24" xmlns:v="https://vecta.io/nano"><path d="M10 4H4c-1.11 0-2 .89-2 2v12a2.01 2.01 0 0 0 2 2h16a2.01 2.01 0 0 0 2-2V8a2 2 0 0 0-2-2h-8l-2-2z" fill="#afb42b" fill-rule="nonzero"/><path d="M20.671 9.434a1.22 1.22 0 0 0-.876.355l-3.559 3.565 3.461 3.461 3.565-3.559a1.24 1.24 0 0 0 0-1.733l-1.74-1.733c-.239-.239-.545-.355-.851-.355m-5.023 4.502l-3.651 3.651c-.478.478-.478 1.25.012 1.746l-2.26 2.26h3.467l.527-.527a1.23 1.23 0 0 0 1.721-.012l3.645-3.651" fill="#f0f4c3"/></svg>