<svg xmlns="http://www.w3.org/2000/svg" viewBox="0 0 24 24" fill-rule="evenodd" stroke-linejoin="round" stroke-miterlimit="1.4142" xmlns:v="https://vecta.io/nano"><path d="M19 20H4a2 2 0 0 1-2-2V6c0-1.11.89-2 2-2h6l2 2h7a2.01 2.01 0 0 1 2 2H4v10l2.14-8h17.07l-2.28 8.5c-.23.87-1.011 1.5-1.93 1.5z" fill="#616161"/><g fill-rule="nonzero"><path d="M23.815 15.44a6.21 6.21 0 0 1-6.177 6.177 6.21 6.21 0 0 1-6.177-6.177 6.21 6.21 0 0 1 6.177-6.177h0a6.21 6.21 0 0 1 6.177 6.177h0" fill="#848992"/><path d="M17.742 13.124l1.599 3.945-2.415-1.902.816-2.043zm2.84 4.854l-2.459-5.917c-.058-.159-.212-.265-.381-.261a.41.41 0 0 0-.391.261l-2.699 6.491h.923l1.068-2.676 3.188 2.576c.128.104.221.151.341.151.252 0 .451-.199.451-.441h0c-.004-.063-.018-.124-.042-.182" fill="#fff"/></g></svg>