<svg xmlns="http://www.w3.org/2000/svg" fill-rule="evenodd" stroke-linejoin="round" stroke-miterlimit="1.4142" viewBox="0 0 24 24" xmlns:v="https://vecta.io/nano"><path d="M10 4H4c-1.11 0-2 .89-2 2v12a2.01 2.01 0 0 0 2 2h16a2.01 2.01 0 0 0 2-2V8a2 2 0 0 0-2-2h-8l-2-2z" fill="#448aff" fill-rule="nonzero"/><path d="M18.116 15.74c-.271.258-.271.682 0 .94a.67.67 0 0 0 .94 0c1.291-1.291 1.291-3.389 0-4.68l-2.343-2.344c-1.291-1.291-3.389-1.291-4.68 0s-1.291 3.39 0 4.681l.986.986c-.007-.543.079-1.086.265-1.602l-.311-.318c-.781-.775-.781-2.032 0-2.807.775-.781 2.032-.781 2.807 0l2.337 2.337c.781.775.781 2.032 0 2.807m-1.867-2.807a.67.67 0 0 0-.94 0c-1.291 1.291-1.291 3.39 0 4.68l2.344 2.343c1.291 1.291 3.389 1.291 4.681 0s1.291-3.389 0-4.68l-.986-.986c.007.543-.079 1.086-.265 1.609l.311.311c.781.775.781 2.032 0 2.807-.775.781-2.032.781-2.807 0l-2.337-2.337c-.781-.775-.781-2.032 0-2.807.271-.258.271-.682 0-.94z" fill="#bbdefb"/></svg>