<svg xmlns="http://www.w3.org/2000/svg" stroke-linejoin="round" stroke-miterlimit="1.4142" viewBox="0 0 24 24" xmlns:v="https://vecta.io/nano"><path d="M19 20H4a2 2 0 0 1-2-2V6c0-1.11.89-2 2-2h6l2 2h7a2.01 2.01 0 0 1 2 2H4v10l2.14-8h17.07l-2.28 8.5c-.23.87-1.01 1.5-1.93 1.5z" fill="#c0ca33"/><path d="M17.391 12.543a2.051 2.051 0 1 0 0-4.102 2.051 2.051 0 1 0 0 4.102m0 2.42a8.99 8.99 0 0 0-6.152-2.42v7.52a8.99 8.99 0 0 1 6.153 2.42 8.99 8.99 0 0 1 6.153-2.42v-7.52a8.99 8.99 0 0 0-6.152 2.42z" fill="#f0f4c3"/></svg>