<svg xmlns="http://www.w3.org/2000/svg" stroke-linejoin="round" stroke-miterlimit="1.4142" viewBox="0 0 24 24" xmlns:v="https://vecta.io/nano"><path d="M19 20H4a2 2 0 0 1-2-2V6c0-1.11.89-2 2-2h6l2 2h7a2.01 2.01 0 0 1 2 2H4v10l2.14-8h17.07l-2.28 8.5c-.23.87-1.01 1.5-1.93 1.5z" fill="#fbc02d"/><path d="M21.598 12.059h-6.085v-1.217h6.085m-2.434 6.085h-3.651V15.71h3.651m2.434-1.217h-6.085v-1.217h6.085m.608-4.259h-7.302a1.217 1.217 0 0 0-1.217 1.217v7.301a1.217 1.217 0 0 0 1.217 1.217h7.302a1.217 1.217 0 0 0 1.217-1.217v-7.301a1.217 1.217 0 0 0-1.217-1.217m-9.735 2.434h-1.217v8.518a1.217 1.217 0 0 0 1.217 1.217h8.518v-1.217h-8.518z" fill="#fff9c4"/></svg>