<svg xmlns="http://www.w3.org/2000/svg" fill-rule="evenodd" stroke-linejoin="round" stroke-miterlimit="1.414" viewBox="0 0 24 24" xmlns:v="https://vecta.io/nano"><path d="M10 4H4c-1.11 0-2 .89-2 2v12c0 1.097.903 2 2 2h16c1.097 0 2-.903 2-2V8a2 2 0 0 0-2-2h-8l-2-2z" fill="#ff7043" fill-rule="nonzero"/><path d="M18.755 10.609a.52.52 0 0 0-.368.157l-7.166 7.166v2.573h2.573l7.176-7.157c.208-.208.208-.531 0-.739l-1.844-1.844c-.104-.104-.238-.157-.371-.157zm-.765 7.813l-2.084 2.084h7.813v-2.084z" fill="#ffccbc"/></svg>