<svg xmlns="http://www.w3.org/2000/svg" fill-rule="evenodd" stroke-linejoin="round" stroke-miterlimit="1.4142" viewBox="0 0 24 24" xmlns:v="https://vecta.io/nano"><path d="M10 4H4c-1.11 0-2 .89-2 2v12a2.01 2.01 0 0 0 2 2h16a2.01 2.01 0 0 0 2-2V8a2 2 0 0 0-2-2h-8l-2-2z" fill="#8bc34a" fill-rule="nonzero"/><path d="M19.68 17.703c.5-.052.879-.482.861-.999a.97.97 0 0 0-.965-.93h-.034c-.534.017-.948.465-.93.999a.99.99 0 0 0 .276.637c-.586 1.154-1.482 1.998-2.825 2.705-.913.482-1.861.655-2.808.534-.775-.103-1.378-.448-1.757-1.016-.551-.844-.603-1.757-.138-2.67a4.04 4.04 0 0 1 1.172-1.378l-.224-.879c-2.498 1.809-2.24 4.255-1.482 5.41.569.861 1.723 1.395 2.998 1.395.345 0 .689-.034 1.034-.121 2.205-.431 3.876-1.74 4.824-3.687zm3.032-2.136c-1.309-1.533-3.239-2.377-5.444-2.377h-.276c-.155-.31-.482-.517-.844-.517h-.034c-.534.017-.948.465-.93.999a.97.97 0 0 0 .965.93h.034a.97.97 0 0 0 .844-.586h.31c1.309 0 2.55.379 3.67 1.12.861.569 1.482 1.309 1.826 2.205.293.724.276 1.43-.034 2.033-.482.913-1.292 1.413-2.36 1.413-.689 0-1.344-.207-1.688-.362-.19.172-.534.448-.775.62.741.345 1.499.534 2.222.534 1.654 0 2.877-.913 3.342-1.826.5-.999.465-2.722-.827-4.186zm-8.752 2.429a.97.97 0 0 0 .965.93h.034c.534-.017.948-.465.93-.999a.97.97 0 0 0-.965-.93h-.034c-.034 0-.086 0-.121.017-.706-1.172-.999-2.446-.896-3.825.069-1.034.413-1.93 1.016-2.67.5-.637 1.464-.948 2.119-.965 1.826-.034 2.601 2.24 2.653 3.153a11.66 11.66 0 0 1 .861.258c-.207-2.791-1.93-4.238-3.583-4.238-1.551 0-2.98 1.12-3.549 2.774-.792 2.205-.276 4.324.689 5.995-.086.121-.138.31-.121.5z" fill="#dcedc8" stroke="#dcedc8" stroke-width=".293" stroke-miterlimit="4"/></svg>