<svg xmlns="http://www.w3.org/2000/svg" stroke-linejoin="round" stroke-miterlimit="1.4142" viewBox="0 0 24 24" xmlns:v="https://vecta.io/nano"><path d="M19 20H4a2 2 0 0 1-2-2V6c0-1.11.89-2 2-2h6l2 2h7a2.01 2.01 0 0 1 2 2H4v10l2.14-8h17.07l-2.28 8.5c-.23.87-1.01 1.5-1.93 1.5z" fill="#00bcd4"/><path d="M16.473 13.928a1.32 1.32 0 0 1 1.313 1.327 1.32 1.32 0 0 1-1.313 1.299 1.32 1.32 0 0 1-1.313-1.299 1.32 1.32 0 0 1 1.313-1.327m-3.252 6.946c.442.267 1.412-.14 2.528-1.194-.365-.414-.723-.864-1.06-1.334-.576-.056-1.145-.14-1.685-.253-.358 1.503-.225 2.535.218 2.781m.499-4.031l-.204-.358-.204.604.618.112-.211-.358m4.593-.534l.569-1.053-.569-1.053-.639-1.032-1.201-.021-1.201.021-.639 1.032-.569 1.053.569 1.053.639 1.032 1.201.021 1.201-.021.639-1.032m-1.84-4.719l-.414.506h.414.414l-.414-.506m0 7.332l.414-.506h-.414-.414l.414.506m3.244-9.284c-.435-.267-1.405.14-2.521 1.194.365.414.723.864 1.06 1.334.576.056 1.145.14 1.686.253.358-1.503.225-2.535-.225-2.781m-.492 4.031l.204.358.204-.604-.618-.112.211.358m1.018-4.951c1.032.59 1.145 2.142.709 3.954 1.784.527 3.069 1.398 3.069 2.584s-1.285 2.058-3.069 2.584c.435 1.812.323 3.364-.709 3.954-1.025.59-2.423-.084-3.771-1.369-1.348 1.285-2.746 1.959-3.778 1.369-1.025-.59-1.138-2.142-.702-3.954-1.784-.527-3.069-1.398-3.069-2.584s1.285-2.058 3.069-2.584c-.435-1.812-.323-3.364.702-3.954 1.032-.59 2.43.084 3.778 1.37 1.348-1.285 2.746-1.959 3.771-1.37m-.204 6.538a15.81 15.81 0 0 1 .625 1.587c1.475-.442 2.303-1.075 2.303-1.587s-.829-1.145-2.303-1.587a15.81 15.81 0 0 1-.625 1.587m-7.135 0a15.81 15.81 0 0 1-.625-1.587c-1.475.442-2.303 1.075-2.303 1.587s.829 1.145 2.303 1.587a15.81 15.81 0 0 1 .625-1.587m6.32 1.587l-.211.358.618-.112a5.56 5.56 0 0 0-.204-.604l-.204.358m-2.03 2.837c1.117 1.053 2.086 1.461 2.521 1.194.449-.246.583-1.278.225-2.781-.541.112-1.11.197-1.686.253l-1.06 1.334m-3.476-6.012l.211-.358-.618.112c.049.197.126.4.204.604l.204-.358m2.03-2.837c-1.117-1.053-2.086-1.461-2.528-1.194-.442.246-.576 1.278-.218 2.781.541-.112 1.11-.197 1.685-.253l1.06-1.334z" fill="#b2ebf2"/></svg>