<svg xmlns="http://www.w3.org/2000/svg" stroke-linejoin="round" stroke-miterlimit="1.4142" viewBox="0 0 24 24" xmlns:v="https://vecta.io/nano"><path d="M19 20H4a2 2 0 0 1-2-2V6c0-1.11.89-2 2-2h6l2 2h7a2.01 2.01 0 0 1 2 2H4v10l2.14-8h17.07l-2.28 8.5c-.23.87-1.01 1.5-1.93 1.5z" fill="#00897b"/><path d="M10.26 18.997l-.008-1.83.008-.071.604-.012.611-.02.004-.99.036-1.116c.11-.414.43-.745.852-.884.075-.024.533-.032 2.047-.043l1.952-.012.008-.903.004-.907h-1.231V8.54h3.668v3.668h-1.207v1.818l1.949.008c2.154.012 2.039 0 2.319.166a.95.95 0 0 1 .339.308c.134.178.217.359.245.56a17.42 17.42 0 0 1 .024 1.1v.939h1.231v3.645h-3.657l-.016-3.668h.564l.619-.016.051-.012v-1.795h-3.668v1.822h1.207v3.668h-3.668v-3.668h.564l.615-.016.051-.012v-1.795H12.71v1.822h1.207v3.668h-3.641z" fill="#b2dfdb"/></svg>