<svg xmlns="http://www.w3.org/2000/svg" stroke-linejoin="round" stroke-miterlimit="1.4142" viewBox="0 0 24 24" xmlns:v="https://vecta.io/nano"><path d="M19 20H4a2 2 0 0 1-2-2V6c0-1.11.89-2 2-2h6l2 2h7a2.01 2.01 0 0 1 2 2H4v10l2.14-8h17.07l-2.28 8.5c-.23.87-1.01 1.5-1.93 1.5z" fill="#5c6bc0"/><path d="M21.133 18.585a1.22 1.22 0 0 0-1.156-.846h-.608v-1.825a.608.608 0 0 0-.608-.608h-3.651v-1.217h1.217a.608.608 0 0 0 .608-.608v-1.217h1.217a1.217 1.217 0 0 0 1.217-1.217v-.249a4.86 4.86 0 0 1 3.042 4.509 4.84 4.84 0 0 1-1.278 3.28m-4.198 1.546a4.86 4.86 0 0 1-4.259-4.825c0-.377.049-.742.128-1.089l2.915 2.915v.608a1.217 1.217 0 0 0 1.217 1.217m.608-9.736a6.085 6.085 0 0 0 0 12.169 6.085 6.085 0 1 0 0-12.169z" fill="#c5cae9"/></svg>