<svg xmlns="http://www.w3.org/2000/svg" stroke-linejoin="round" stroke-miterlimit="1.4142" viewBox="0 0 24 24" xmlns:v="https://vecta.io/nano"><path d="M19 20H4a2 2 0 0 1-2-2V6c0-1.11.89-2 2-2h6l2 2h7a2.01 2.01 0 0 1 2 2H4v10l2.14-8h17.07l-2.28 8.5c-.23.87-1.01 1.5-1.93 1.5z" fill="#78909c"/><path d="M23.395 13.464v-1.801h-3.602a1.801 1.801 0 0 0-1.801 1.801v1.801a1.801 1.801 0 0 0 1.801 1.801h1.801v1.801h-3.602v1.801h3.602a1.801 1.801 0 0 0 1.801-1.801v-1.801a1.801 1.801 0 0 0-1.801-1.801h-1.801v-1.801m-4.503 5.403h-1.801v-5.403h1.801m0-1.801h-1.801a1.801 1.801 0 0 0-1.801 1.801v5.403a1.801 1.801 0 0 0 1.801 1.801h1.801a1.801 1.801 0 0 0 1.801-1.801v-5.403a1.801 1.801 0 0 0-1.801-1.801m-6.304 9.006h1.801v-5.403H8.986m0-1.801h1.801v-1.801H8.986z" fill="#cfd8dc"/></svg>