<svg xmlns="http://www.w3.org/2000/svg" viewBox="0 0 24 24" fill-rule="nonzero" stroke-linejoin="round" stroke-miterlimit="1.4142" xmlns:v="https://vecta.io/nano"><path d="M10 4H4c-1.11 0-2 .89-2 2v12a2.01 2.01 0 0 0 2 2h16a2.01 2.01 0 0 0 2-2V8a2 2 0 0 0-2-2h-8l-2-2z" fill="#616161"/><path d="M23.815 15.44a6.21 6.21 0 0 1-6.177 6.177 6.21 6.21 0 0 1-6.177-6.177 6.21 6.21 0 0 1 6.177-6.177h0a6.21 6.21 0 0 1 6.177 6.177h0" fill="#848992"/><path d="M17.742 13.124l1.599 3.945-2.415-1.902.816-2.043zm2.84 4.854l-2.459-5.917c-.058-.159-.212-.265-.381-.261a.41.41 0 0 0-.391.261l-2.699 6.491h.923l1.068-2.676 3.188 2.576c.128.104.221.151.341.151.252 0 .451-.199.451-.441h0c-.004-.063-.018-.124-.042-.182" fill="#fff"/></svg>