<svg xmlns="http://www.w3.org/2000/svg" stroke-linejoin="round" stroke-miterlimit="1.4142" viewBox="0 0 24 24" xmlns:v="https://vecta.io/nano"><path d="M19 20H4a2 2 0 0 1-2-2V6c0-1.11.89-2 2-2h6l2 2h7a2.01 2.01 0 0 1 2 2H4v10l2.14-8h17.07l-2.28 8.5c-.23.87-1.01 1.5-1.93 1.5z" fill="#afb42b"/><path d="M20.671 9.434a1.22 1.22 0 0 0-.876.355l-3.559 3.565 3.461 3.461 3.565-3.559a1.24 1.24 0 0 0 0-1.733l-1.74-1.733c-.239-.239-.545-.355-.851-.355m-5.023 4.502l-3.651 3.651c-.478.478-.478 1.25.012 1.746l-2.26 2.26h3.467l.527-.527a1.23 1.23 0 0 0 1.721-.012l3.645-3.651" fill="#f0f4c3"/></svg>