<svg xmlns="http://www.w3.org/2000/svg" fill-rule="evenodd" stroke-linejoin="round" stroke-miterlimit="1.414" viewBox="0 0 24 24" xmlns:v="https://vecta.io/nano"><path d="M10 4H4c-1.11 0-2 .89-2 2v12c0 1.097.903 2 2 2h16c1.097 0 2-.903 2-2V8a2 2 0 0 0-2-2h-8l-2-2z" fill="#ffa000" fill-rule="nonzero"/><path d="M22.409 11.145h-2.543V9.874a1.24 1.24 0 0 0-.376-.897 1.243 1.243 0 0 0-.896-.376h-2.543c-.7 0-1.271.573-1.271 1.271v1.271h-2.543c-.7 0-1.271.573-1.271 1.271v6.994c0 .699.572 1.271 1.271 1.271h10.172c.699 0 1.271-.573 1.271-1.271v-6.993c0-.7-.573-1.271-1.271-1.271zm-6.357-1.271h2.543v1.271h-2.543zm.635 8.582l-.636-.636 1.907-1.907-1.907-1.907.636-.636 2.543 2.543z" fill="#ffecb3"/></svg>