<svg xmlns="http://www.w3.org/2000/svg" fill-rule="evenodd" stroke-linejoin="round" stroke-miterlimit="1.4142" viewBox="0 0 24 24" xmlns:v="https://vecta.io/nano"><path d="M10 4H4c-1.11 0-2 .89-2 2v12a2.01 2.01 0 0 0 2 2h16a2.01 2.01 0 0 0 2-2V8a2 2 0 0 0-2-2h-8l-2-2z" fill="#fbc02d" fill-rule="nonzero"/><path d="M13.424 8.543h9.37a.586.586 0 0 1 .586.586v2.343a.586.586 0 0 1-.586.586h-9.37a.586.586 0 0 1-.586-.586V9.128a.586.586 0 0 1 .586-.586m0 4.685h9.37a.586.586 0 0 1 .586.586v2.343a.586.586 0 0 1-.586.586h-9.37a.586.586 0 0 1-.586-.586v-2.343a.586.586 0 0 1 .586-.586m0 4.685h9.37a.586.586 0 0 1 .586.586v2.343a.586.586 0 0 1-.586.586h-9.37a.586.586 0 0 1-.586-.586v-2.343a.586.586 0 0 1 .586-.586m2.928-7.028h.586V9.714h-.586v1.171m0 4.685h.586v-1.171h-.586v1.171m0 4.685h.586v-1.171h-.586v1.171M14.01 9.714v1.171h1.171V9.714H14.01m0 4.685v1.171h1.171v-1.171H14.01m0 4.685v1.171h1.171v-1.171z" fill="#fffde7"/></svg>