<svg xmlns="http://www.w3.org/2000/svg" fill-rule="evenodd" stroke-linejoin="round" stroke-miterlimit="1.4142" viewBox="0 0 24 24" xmlns:v="https://vecta.io/nano"><path d="M10 4H4c-1.11 0-2 .89-2 2v12a2.01 2.01 0 0 0 2 2h16a2.01 2.01 0 0 0 2-2V8a2 2 0 0 0-2-2h-8l-2-2z" fill="#009688" fill-rule="nonzero"/><g fill="#b2dfdb"><path d="M17.422 12.84l-.508.879-1.736-3.007-5.33 9.231h3.609a.88.88 0 0 0 .879.879H9.847a.88.88 0 0 1-.761-1.319l5.33-9.231a.88.88 0 0 1 1.523 0z"/><path d="M21.269 19.503l-3.34-5.784-.508-.879-.508.879-3.34 5.784a.88.88 0 0 0 .761 1.319h6.172a.88.88 0 0 0 .762-1.319zm-6.934.44l3.086-5.345 3.086 5.345z"/><path d="M23.657 20.382a.88.88 0 0 1-.761.44h-2.389a.88.88 0 0 0 .879-.879h1.508l-4.279-7.412-.686 1.188-.508-.879.432-.748a.88.88 0 0 1 1.523 0l4.281 7.412a.88.88 0 0 1 0 .879z"/></g></svg>