<svg xmlns="http://www.w3.org/2000/svg" viewBox="0 0 24 24" fill-rule="evenodd" stroke-linejoin="round" stroke-miterlimit="2" xmlns:v="https://vecta.io/nano"><path d="M10 4H4c-1.11 0-2 .89-2 2v12a2.01 2.01 0 0 0 2 2h16a2.01 2.01 0 0 0 2-2V8a2 2 0 0 0-2-2h-8l-2-2z" fill-rule="nonzero" fill="#f44336"/><path d="M20.76 9.028l.001 2.79c0 .023-.008.046-.022.064-.043.083-.151.245-.389.351-.15.067-.865.484-3.126.794l-3.519.487c-.448.069-.409.133-.409.133v-2.736a.1.1 0 0 1 .077-.098c.136-.037.48-.116 1.232-.205 1.519-.18 3.36-.464 4.801-.817 1.363-.333 1.354-.763 1.354-.763zm0 3.763l.001 2.79c0 .023-.008.045-.022.063-.043.083-.151.245-.389.351-.15.067-.865.484-3.126.795l-3.519.486c-.448.069-.409.133-.409.133v-2.735a.1.1 0 0 1 .077-.098c.136-.038.48-.116 1.232-.205 1.519-.18 3.36-.465 4.801-.817 1.363-.333 1.354-.763 1.354-.763zm0 3.618l.001 2.791c0 .023-.008.045-.022.063-.043.083-.151.245-.389.351-.15.067-.865.484-3.126.794l-3.519.487c-.448.069-.409.133-.409.133v-2.736a.1.1 0 0 1 .077-.098c.136-.037.48-.116 1.232-.205 1.519-.179 3.36-.464 4.801-.816 1.363-.334 1.354-.764 1.354-.764z" fill="#ffcdd2"/></svg>