<svg xmlns="http://www.w3.org/2000/svg" fill-rule="evenodd" stroke-linejoin="round" stroke-miterlimit="1.414" viewBox="0 0 24 24" xmlns:v="https://vecta.io/nano"><path d="M19 20H4a2 2 0 0 1-2-2V6c0-1.11.89-2 2-2h6l2 2h7c1.097 0 2 .903 2 2H4v10l2.14-8h17.07l-2.28 8.5c-.23.87-1.01 1.5-1.93 1.5z" fill="#607d8b"/><path d="M13.589 11.246H11.57a.675.675 0 0 0-.673.673v8.082c0 .37.303.673.673.673h2.02a.675.675 0 0 0 .673-.673v-8.082a.675.675 0 0 0-.673-.673zm9.428 0h-2.02a.675.675 0 0 0-.673.673v8.082c0 .37.303.673.673.673h2.02a.675.675 0 0 0 .673-.673v-8.082a.675.675 0 0 0-.673-.673zm-4.714 0h-2.02a.675.675 0 0 0-.673.673v8.082c0 .37.303.673.673.673h2.02a.675.675 0 0 0 .673-.673v-8.082a.675.675 0 0 0-.673-.673z" fill="#cfd8dc"/></svg>