<svg xmlns="http://www.w3.org/2000/svg" fill-rule="evenodd" stroke-linejoin="round" stroke-miterlimit="1.4142" viewBox="0 0 24 24" xmlns:v="https://vecta.io/nano"><path d="M10 4H4c-1.11 0-2 .89-2 2v12a2.01 2.01 0 0 0 2 2h16a2.01 2.01 0 0 0 2-2V8a2 2 0 0 0-2-2h-8l-2-2z" fill="#00acc1" fill-rule="nonzero"/><path d="M23.043 12.103c.458.458.458 1.202 0 1.603l-1.603 1.603-4.465-4.465 1.603-1.603c.458-.458 1.202-.458 1.603 0l1.03 1.03 1.717-1.717.801.801-1.717 1.717 1.03 1.03m-3.32 3.32l-.801-.801-1.603 1.603-1.202-1.202 1.603-1.603-.801-.801-1.603 1.603-.859-.801-1.603 1.603c-.458.458-.458 1.202 0 1.603l1.03 1.03-2.29 2.29.801.801 2.29-2.29 1.03 1.03c.458.458 1.202.458 1.603 0l1.603-1.603-.801-.801z" fill="#b2ebf2"/></svg>