<svg xmlns="http://www.w3.org/2000/svg" fill-rule="evenodd" stroke-linejoin="round" stroke-miterlimit="1.4142" viewBox="0 0 24 24" xmlns:v="https://vecta.io/nano"><path d="M10 4H4c-1.11 0-2 .89-2 2v12a2.01 2.01 0 0 0 2 2h16a2.01 2.01 0 0 0 2-2V8a2 2 0 0 0-2-2h-8l-2-2z" fill="#00897b" fill-rule="nonzero"/><path d="M23.284 16.949h-1.288v1.288h-3.864v-1.932h1.288v-1.288h-1.288v-3.22a1.288 1.288 0 0 0-1.288-1.288h-5.152V9.221h-1.288v5.152h1.288v-1.288h3.864v1.932h-1.288v1.288h1.288v3.22a1.288 1.288 0 0 0 1.288 1.288h5.152v1.288h1.288" fill="#b2dfdb"/></svg>