<svg xmlns="http://www.w3.org/2000/svg" stroke-linejoin="round" stroke-miterlimit="1.4142" viewBox="0 0 24 24" xmlns:v="https://vecta.io/nano"><path d="M19 20H4a2 2 0 0 1-2-2V6c0-1.11.89-2 2-2h6l2 2h7a2.01 2.01 0 0 1 2 2H4v10l2.14-8h17.07l-2.28 8.5c-.23.87-1.01 1.5-1.93 1.5z" fill="#fbc02d"/><path d="M23.626 20.067v.655H11.837v-.655l1.31-1.31v-3.93a4.58 4.58 0 0 1 3.275-4.395v-.19a1.31 1.31 0 0 1 2.62 0v.19a4.58 4.58 0 0 1 3.275 4.395v3.93l1.31 1.31m-4.585 1.31a1.31 1.31 0 0 1-2.62 0" fill="#fff9c4"/></svg>