<svg xmlns="http://www.w3.org/2000/svg" width="256" height="256" viewBox="0 0 67.733 67.733" xmlns:v="https://vecta.io/nano"><path d="M10.321 12.006c-.21 0-.38.174-.38.389v12.63c0 .216.169.39.38.39h16.925c.21 0 .38-.174.38-.39v-12.63c0-.216-.169-.389-.38-.389zm30.167 0c-.21 0-.38.174-.38.389v12.63c0 .216.169.39.38.39h16.925c.21 0 .38-.174.38-.39v-12.63c0-.216-.169-.389-.38-.389zM10.321 34.328c-.21 0-.38.173-.38.389v12.63c0 .216.169.39.38.39h16.925c.21 0 .38-.174.38-.39v-12.63c0-.216-.169-.389-.38-.389zm30.167 0c-.21 0-.38.173-.38.389v12.63c0 .216.169.39.38.39h4.053v4.351H40.51c-.208 0-.375.167-.375.375v2.89c0 .208.167.374.375.374h8.303c.208 0 .374-.167.374-.374v-4.135h3.798c.208 0 .374-.167.374-.375v-3.106h4.054c.21 0 .38-.174.38-.39v-12.63c0-.216-.169-.389-.38-.389z" fill="#ef5350"/></svg>