<svg xmlns="http://www.w3.org/2000/svg" viewBox="0 0 16 16" xmlns:v="https://vecta.io/nano"><path d="M12.564 5.092h-.615q-.172-.648-.722-1.386-.541-.738-1.042-.812-.254-.033-.607-.049-.344-.016-.787-.016H6.839v4.675h1.337q.607 0 .943-.123.336-.131.574-.394.164-.18.295-.558.139-.385.18-.82h.623v4.569h-.623q-.025-.361-.172-.82-.139-.459-.303-.664-.246-.303-.623-.41-.369-.115-.894-.115H6.839v4.011q0 .271.107.484.107.213.377.344.123.057.533.139.41.082.623.09v.582H3.435v-.582q.246-.016.656-.049.41-.041.533-.098.246-.107.353-.312.115-.213.115-.509V3.87q0-.271-.09-.476-.09-.213-.377-.344-.221-.107-.599-.189-.369-.082-.591-.098v-.582h9.129z" fill="#ff7043"/></svg>