<svg xmlns="http://www.w3.org/2000/svg" viewBox="0 0 300 300" xmlns:v="https://vecta.io/nano"><path d="M110.978 292.583c1.71-.481 4.857-.93 6.995-.997l3.886-.123v-5.072c0-9.684-6.355-24.885-13.844-33.115-1.219-1.34-5.476-4.083-9.459-6.096-7.061-3.568-7.461-3.644-16.062-3.032-4.851.345-11.618 1.391-15.038 2.325-21.15 5.777-53.825-10.128-53.871-26.223-.017-5.957 2.584-8.327 11.095-10.108 10.247-2.144 17.287-5.479 18.059-8.555 1.179-4.697-.304-19.367-2.339-23.139-1.434-2.659-1.926-5.793-1.94-12.369-.018-8.404.159-9.093 3.877-15.025 2.143-3.42 6.094-8.939 8.779-12.265 4.553-5.639 4.908-6.514 5.266-12.953.414-7.455-2.386-20.66-6.188-29.184-4.291-9.619-3.663-35.68 1.335-55.392C56.631 21.139 66.773 4.993 73.058 6.989c2.083.661 2.215 1.014 9.388 24.968 2.121 7.084 2.404 7.46 8.731 11.62 10.457 6.875 20.048 18.022 29.738 34.562l2.685 4.583 10.202 1.289c17.301 2.185 37.568 10.032 48.636 18.83 2.259 1.796 4.824 3.043 5.699 2.771s6.923-2.912 13.439-5.868c14.078-6.386 28.26-11.149 47.559-15.972 20.389-5.096 31.765-7.166 34.969-6.362 2.781.698 2.795.75 2.153 7.662-.73 7.856-5.042 21.461-9.758 30.793-7.232 14.308-25.004 34.001-41.888 46.417-7.607 5.594-7.996 6.08-8.621 10.787-5.233 39.421-15.871 61.176-43.497 88.956-12.947 13.019-13.966 13.797-25.405 19.401-15.592 7.639-23.663 9.76-44.04 11.572-4.036.359-4.494.267-2.072-.414zm-80.394-56.332c-.237-.161-1.364-.977-2.504-1.813-1.917-1.406-1.966-1.384-.65.293.782.997 1.909 1.813 2.504 1.813s.888-.132.65-.293z" fill="#fbc02d"/><path d="M110.978 292.583c1.71-.481 4.857-.93 6.995-.997l3.886-.123-.012-4.922c-.014-5.735-1.856-13.217-5.005-20.336-1.629-3.683-1.805-4.689-.654-3.733 2.946 2.445 2.773.138-.326-4.355-3.607-5.229-8.863-9.639-16.879-14.163-3.158-1.782-6.761-4.412-8.006-5.844-1.368-1.574-3.366-2.603-5.049-2.603-2.703 0-2.656.099 1.548 3.33 2.383 1.832 4.333 3.628 4.333 3.992s-4.08.95-9.067 1.304-11.865 1.407-15.284 2.341c-21.15 5.777-53.825-10.128-53.871-26.223-.017-5.957 2.584-8.327 11.095-10.108 10.282-2.151 17.287-5.477 18.066-8.577 1.24-4.94-.43-20.227-2.787-25.52-1.773-3.982-2.17-6.519-1.862-11.917.433-7.594 3.475-13.514 13.021-25.34 4.553-5.639 4.908-6.514 5.266-12.953.414-7.455-2.386-20.66-6.188-29.184-4.291-9.619-3.663-35.68 1.335-55.392C56.631 21.139 66.773 4.993 73.058 6.989c2.083.661 2.215 1.014 9.388 24.968 2.121 7.084 2.404 7.46 8.731 11.62 10.457 6.875 20.048 18.022 29.738 34.562l2.685 4.583 10.202 1.289c17.301 2.185 37.568 10.032 48.636 18.83 2.259 1.796 4.824 3.043 5.699 2.771s6.923-2.912 13.439-5.868c14.078-6.386 28.26-11.149 47.559-15.972 20.389-5.096 31.765-7.166 34.969-6.362 2.781.698 2.795.75 2.153 7.662-.73 7.856-5.042 21.461-9.758 30.793-7.232 14.308-25.004 34.001-41.888 46.417-7.607 5.594-7.996 6.08-8.621 10.787-5.233 39.421-15.871 61.176-43.497 88.956-12.947 13.019-13.966 13.797-25.405 19.401-15.592 7.639-23.663 9.76-44.04 11.572-4.036.359-4.494.267-2.072-.414zm28.487-17.758c15.214-5.867 29.597-17.339 38.769-30.923 10.818-16.02 18.632-40.542 21.439-67.272l1.34-12.765 7.065-6.263c7.63-6.764 16.248-18.903 22.119-31.154 4.509-9.408 4.621-12.62.517-14.742-6.472-3.347-27.43-1.058-46.262 5.051-12.977 4.21-14.759 4.399-19.647 2.079l-3.479-1.651-7.558 5.011c-4.157 2.756-12.656 10.027-18.888 16.158-11.187 11.007-14.057 12.906-14.057 9.305 0-2.563 14.333-18.343 24.633-27.121 6.741-5.744 9.286-7.308 11.917-7.321 2.426-.012 2.933-.276 1.847-.963-.824-.521-3.643-.693-6.265-.383-4.019.476-5.899.003-11.974-3.009-3.963-1.965-12.102-5.63-18.086-8.143-9.856-4.139-11.671-5.351-19.271-12.867-4.615-4.563-11.323-12.727-14.907-18.141-7.62-11.511-9.882-14.176-13.738-16.182-6.709-3.49-11.335 2.037-14.805 17.686-2.129 9.604-1.636 29.433 1.083 43.55 2.508 13.023 1.119 18.643-7.308 29.554-9.286 12.024-10.76 19.669-6.288 32.616 3.344 9.683 4.875 19.774 3.541 23.34-2.335 6.241-12.264 13.471-18.499 13.471-3.036 0-3.192.185-2.565 3.04.793 3.612-2.413 13.54-4.373 13.54-1.971 0-1.581 1.74.908 4.06 3.545 3.302 11.061 6.39 16.815 6.908 4.562.411 4.949.313 2.726-.688l-5.699-2.599-3.109-1.432 4.145.761c6.892 1.266 21.307.708 29.219-1.131 4.102-.954 10.03-1.734 13.173-1.734 10.801 0 24.918 7.328 33.195 17.229 4.184 5.006 10.903 18.998 10.926 22.751.026 4.412.858 4.439 11.402.373zm-5.69-42.91c-34.094-5.986-38.188-6.82-39.716-8.088-2.839-2.357 2.651-2.362 31.777-.034 15.761 1.26 28.936 1.963 29.277 1.562s1.118-5.779 1.728-11.953 1.39-11.504 1.732-11.847c1.708-1.708 2.777 2.714 3.803 15.741 1.267 16.084 1.016 16.914-5.359 17.659-1.955.229-12.415-1.14-23.244-3.041zm-52.977-29.776c-.838-1.356 2.065-3.717 11.39-9.263 9.722-5.782 21.588-9.93 32.598-11.395 13.411-1.786 17.116.439 6.12 3.676-4.206 1.238-6.001 2.455-8.009 5.428-3.308 4.9-9.591 9.453-14.249 10.327-2.002.376-6.759.094-10.572-.625-6.389-1.205-7.31-1.141-11.761.829-3.247 1.436-5.055 1.772-5.517 1.025zm-18.997-20.248c-4.125-5.853-5.082-11.666-2.814-17.095 1.092-2.614 1.411-5.572 1.015-9.412-.62-6.007.613-8.121 3.393-5.814.851.706 3.211 4.259 5.245 7.896 4.349 7.777 4.958 15.029 2.007 23.912-2.29 6.894-4.267 7.008-8.846.513z" fill="#ff9800"/><path d="M110.978 292.583c1.71-.481 4.857-.93 6.995-.997 2.347-.074 3.89-.636 3.896-1.418.005-.729 5.324-3.066 12.176-5.349 15.389-5.128 25.226-9.652 34.146-15.702 29.01-19.678 47.927-56.351 47.958-92.981.009-10.453.319-10.95 10.844-17.31 8.456-5.11 30.613-27.397 30.613-30.793 0-.536 1.457-3.175 3.237-5.863 3.99-6.024 10.379-23.327 10.994-29.775.435-4.561.324-4.8-2.484-5.336-10.335-1.975-40.272 5.588-66.668 16.842-19.344 8.247-18.664 8.18-28.104 2.792-15.558-8.878-31.567-15.114-45.664-17.789-4.657-.883-8.535-1.717-8.619-1.852-1.217-1.965-13.341-18.003-16.245-21.488-2.137-2.565-7.376-7.673-11.643-11.352-8.299-7.156-11.524-12.045-15.022-22.777-2.646-8.117-4.739-11.48-7.106-11.418-.984.026-3.746 2.286-6.138 5.024-4.88 5.586-7.617 14.008-9.749 30-1.675 12.568-.593 40.068 2.188 55.6 3.129 17.474 1.721 23.614-7.367 32.123l-4.427 4.145 4.343-5.33c6.243-7.662 7.43-10.45 7.434-17.467.004-6.504-3.948-23.123-6.818-28.673-2.285-4.419-3.132-24.549-1.54-36.609 3.759-28.471 16.268-54.566 24.85-51.842 2.083.661 2.215 1.014 9.388 24.968 2.121 7.084 2.404 7.46 8.731 11.62 10.457 6.875 20.048 18.022 29.738 34.562l2.685 4.583 10.161 1.283c17.57 2.219 38.61 10.584 50.486 20.073l2.807 2.242 9.398-4.367c5.169-2.402 13.465-5.935 18.436-7.853 18.979-7.321 63.592-18.102 69.142-16.709 2.871.721 2.874.729 2.228 7.681-.73 7.856-5.042 21.461-9.758 30.793-7.232 14.308-25.004 34.001-41.888 46.417-7.607 5.594-7.996 6.08-8.621 10.787-5.233 39.421-15.871 61.176-43.497 88.956-12.947 13.019-13.966 13.797-25.405 19.401-15.592 7.639-23.663 9.76-44.04 11.572-4.036.359-4.494.267-2.072-.414zm-65.8-46.306c-8.26-2.215-20.639-8.611-24.889-12.862-7.241-7.241-9.021-15.757-4.205-20.115 1.074-.972 5.017-2.408 8.763-3.192 8.78-1.837 14.799-4.553 19.145-8.637 1.913-1.798 4.128-3.269 4.922-3.269 5.032 0-6.224 11.609-13.063 13.473l-5.947 1.634c-.941.266-1.012 1.077-.266 3.04 1.193 3.137-.807 8.859-4.458 12.759l-2.282 2.438 3.109 2.522c11.045 8.96 23.648 10.677 44.586 6.076 12.895-2.833 13.258-2.856 16.62-1.046 6.163 3.319 5.234 4.346-4.561 5.038-4.938.349-11.543 1.343-14.677 2.208-7.078 1.954-15.352 1.929-22.797-.067zM148.8 232.847c-.855-.191-11.94-2.021-24.634-4.066-24.526-3.952-26.441-4.384-25.582-5.775.576-.932 1.04-.909 34.536 1.675 11.609.895 21.688 1.405 22.398 1.133.84-.322 1.55-4.146 2.031-10.933.721-10.17 2.027-14.002 3.137-9.206.302 1.306.987 7.237 1.522 13.18 1.23 13.661.801 14.622-6.451 14.462-2.972-.066-6.103-.276-6.958-.467zm-62.842-35.035c9.796-8.935 32.919-17.021 46.583-16.29 2.633.141 1.298 1.805-2.124 2.647-1.573.387-5.687 3.662-9.143 7.276-7.841 8.202-11.972 9.648-21.914 7.672-5.394-1.072-7.266-1.071-9.948.007-6.849 2.753-7.599 2.468-3.454-1.313zm-23.513-17.967c-4.162-6.558-4.618-9.793-2.197-15.588 1.149-2.749 1.404-5.397.904-9.394-.627-5.014-.509-5.53 1.183-5.204 1.033.199 3.52 3.159 5.527 6.578 4.576 7.795 5.447 15.96 2.535 23.746-1.048 2.802-2.412 5.264-3.031 5.47s-2.833-2.317-4.922-5.608zm59.413-32.9c0-2.014 12.835-16.483 20.321-22.908 9.177-7.876 12.005-9.769 14.593-9.769 4.218 0 2.596 2.78-4.605 7.892-3.847 2.731-11.858 9.766-17.802 15.635s-11.19 10.669-11.658 10.669-.85-.683-.85-1.519z" fill="#263238"/></svg>