<svg xmlns="http://www.w3.org/2000/svg" viewBox="0 0 152.99 160.01" xmlns:v="https://vecta.io/nano"><path fill="#fff" d="M76.995 12.087l64.783 21.76-6.721 76.61-57.093 37.236-60.916-38.344-4.975-75.179z"/><path d="M77.982 149.831l-62.688-39.444-5.124-77.518 66.817-22.694 66.729 22.406-6.93 78.906zM18.794 108.31l59.153 37.236 55.382-36.127 6.52-74.306-62.845-21.106-63.028 21.437z" fill="#515151"/><path fill="#1d79bf" d="M76.856 140.055V64.012l58.42-26.028-5.228 68.754z"/><path fill="#383838" d="M76.856 140.055l-52.676-32.636-5.604-69.488 58.28 26.081z"/><g fill="#fff"><path d="M32.498 56.2l.471 13.905L65.57 85.973l.105 12.822-32.295-15.895 1.431 32.383-12.709-7.856-4.408-70.308 59.171 26.901v13.494z"/><path d="M128.799 89.404c-.07 11.452-5.525 23.209-14.638 28.909l-37.358 24.379V64.039l36.895-16.444c4.504-2.104 8.301-1.248 10.823 2.715 1.658 2.619 2.523 6.311 2.496 10.657a31.15 31.15 0 0 1-3.954 15.545c3.745 1.746 5.813 5.717 5.735 12.892zm-11.268-23.576c0-4.05-1.746-6.049-4.294-4.757L87.923 73.71l-.07 15.022 25.697-13.608c2.182-1.152 3.98-5.159 3.98-9.296zm1.877 28.141c0-4.984-2.112-7.192-5.717-5.176l-25.836 14.463v17.09l25.609-15.24c3.867-2.304 5.927-6.346 5.944-11.138z"/></g><path fill="#383838" d="M76.856 17.874l-58.21 20.032 95.813 2.077-73.337 8.039 35.734 15.991 18.12-8.074-24.204-1.196 43.45-7.384 21.053-9.374z"/></svg>