<svg xmlns="http://www.w3.org/2000/svg" viewBox="0 0 300 300" xmlns:v="https://vecta.io/nano"><path d="M184.351 103.816h7.786l22.191-22.191 1.09-9.421c-25.845-22.812-61.637-30.661-94.656-20.758s-58.584 36.153-67.61 69.423a12.07 12.07 0 0 1 7.786-.467l44.382-7.319s2.258-3.737 3.426-3.504c19.742-21.682 52.967-24.209 75.761-5.762z" fill="#f44336"/><path d="M245.941 120.868c-5.101-18.783-15.573-35.669-30.133-48.587l-31.145 31.145a55.36 55.36 0 0 1 20.322 43.915v5.528c15.309 0 27.719 12.41 27.719 27.719s-12.41 27.719-27.719 27.719h-55.438l-5.528 5.606v33.248l5.528 5.528h55.438c31.786.247 59.984-20.351 69.416-50.706s-2.13-63.307-28.46-81.116z" fill="#448aff"/><path d="M94.028 252.379h55.438v-44.382H94.028c-3.95-.001-7.853-.851-11.446-2.492l-7.786 2.414-22.347 22.191-1.947 7.786a71.71 71.71 0 0 0 43.525 14.483z" fill="#43a047"/><path d="M94.028 108.41c-30.794.184-58.072 19.905-67.9 49.09s-.035 61.389 24.375 80.163l32.157-32.157a27.72 27.72 0 0 1 7.505-52.703 27.72 27.72 0 0 1 29.169 16.03l32.157-32.157c-13.682-17.887-34.943-28.345-57.463-28.264z" fill="#ffc107"/></svg>