<svg width="25" height="24" viewBox="0 0 25 24" fill="none" xmlns="http://www.w3.org/2000/svg">
<path d="M21.5846 12.5627L11.9775 3.39711C11.8459 3.27123 11.6897 3.17136 11.5176 3.10322C11.3455 3.03508 11.1611 3 10.9748 3C10.7885 3 10.604 3.03508 10.432 3.10322C10.2599 3.17136 10.1036 3.27123 9.97206 3.39711L7.98106 5.30057L10.5124 7.71319C10.8098 7.61692 11.1295 7.6021 11.4352 7.6704C11.7409 7.73871 12.0205 7.88742 12.2422 8.09965C12.7152 8.55108 12.8472 9.2 12.6471 9.76034L15.0822 12.0877C15.3806 11.9885 15.7022 11.9718 16.0101 12.0395C16.3179 12.1072 16.5995 12.2565 16.8223 12.4702C17.485 13.0988 17.485 14.1171 16.8223 14.7463C16.666 14.8958 16.4804 15.0143 16.2761 15.0952C16.0718 15.1761 15.8528 15.2177 15.6315 15.2177C15.4103 15.2177 15.1913 15.1761 14.987 15.0952C14.7827 15.0143 14.5971 14.8958 14.4408 14.7463C14.2061 14.5222 14.0457 14.2373 13.9794 13.9268C13.9132 13.6164 13.944 13.2942 14.0682 13.0004L11.7871 10.8338V16.5442C11.9479 16.6196 12.1019 16.722 12.2346 16.8486C12.8898 17.4811 12.8898 18.4955 12.2346 19.1247C11.917 19.4267 11.487 19.5962 11.0387 19.5962C10.5904 19.5962 10.1604 19.4267 9.84281 19.1247C9.64627 18.9371 9.50138 18.706 9.42103 18.452C9.34069 18.198 9.32738 17.929 9.38229 17.6689C9.43721 17.4088 9.55864 17.1657 9.73578 16.9613C9.91292 16.7568 10.1403 16.5973 10.3976 16.4969V10.7321C10.1924 10.6489 10.0053 10.5296 9.84625 10.3804C9.60967 10.1552 9.44888 9.86775 9.38446 9.55484C9.32004 9.24193 9.35491 8.91779 9.48462 8.62391L6.99932 6.23884L0.411017 12.5233C0.147639 12.7784 0 13.1222 0 13.4803C0 13.8384 0.147639 14.1822 0.411017 14.4373L10.0181 23.6029C10.1497 23.7288 10.306 23.8286 10.478 23.8968C10.6501 23.9649 10.8346 24 11.0208 24C11.2071 24 11.3916 23.9649 11.5636 23.8968C11.7357 23.8286 11.892 23.7288 12.0236 23.6029L21.5839 14.4786C21.7158 14.3531 21.8204 14.2039 21.8918 14.0397C21.9632 13.8755 22 13.6994 22 13.5217C22 13.3439 21.9632 13.1678 21.8918 13.0036C21.8204 12.8394 21.7158 12.6902 21.5839 12.5647L21.5846 12.5627Z" fill="#898989"/>
</svg>
