<svg xmlns="http://www.w3.org/2000/svg" width="500" height="500" fill-rule="evenodd" xmlns:v="https://vecta.io/nano"><path d="M455.233 277.231l-23.054-70.952-45.69-140.624c-2.35-7.234-12.586-7.234-14.937 0L325.86 206.279H174.135L128.443 65.655c-2.35-7.234-12.586-7.234-14.937 0l-45.69 140.624-23.053 70.952c-2.104 6.472.201 13.561 5.705 17.561l199.526 144.966 199.526-144.966a15.71 15.71 0 0 0 5.705-17.561" fill="#fc6d26"/><path d="M250.001 439.76l75.862-233.481H174.138z" fill="#e24329"/><path d="M250.002 439.759L174.14 206.286H67.823z" fill="#fc6d26"/><path d="M67.819 206.282l-23.054 70.952c-2.103 6.472.201 13.561 5.706 17.56L249.996 439.76z" fill="#fca326"/><path d="M67.819 206.279h106.317L128.444 65.655c-2.351-7.236-12.588-7.236-14.937 0z" fill="#e24329"/><path d="M250.001 439.759l75.862-233.473H432.18z" fill="#fc6d26"/><path d="M432.185 206.282l23.054 70.952c2.103 6.472-.201 13.561-5.706 17.56L250.007 439.76z" fill="#fca326"/><path d="M432.176 206.279H325.859l45.692-140.624c2.351-7.236 12.588-7.236 14.937 0z" fill="#e24329"/></svg>