<svg xmlns="http://www.w3.org/2000/svg" viewBox="0 0 24 24" xmlns:v="https://vecta.io/nano"><g fill="#73cddc"><path d="M10.857 1.561C8.223 1.561 6.1 4.014 6.1 7.063v4.599l-.027-.002v4.71c0 3.049 2.122 5.502 4.757 5.502h2.287c2.634 0 4.756-2.453 4.756-5.502v-4.599l.027.002v-4.71c0-3.049-2.122-5.502-4.756-5.502h-2.286z"/><rect transform="matrix(.48489 -.87457 .85979 .51065 .282 -.134)" x="-1.177" y="6.093" width="2.289" height="3.335" ry="1.125"/><rect transform="matrix(.44646 .8948 -.89204 .45195 .282 -.134)" x="10.261" y="-15.076" width="2.297" height="3.39" ry="1.143"/></g><g fill="#fff" stroke="#5e5d5b" stroke-width=".1"><circle cx="9.549" cy="4.996" r="2.055"/><circle cx="14.496" cy="4.982" r="2.055"/></g><ellipse cx="8.321" cy="4.917" rx=".792" ry=".901" fill="#030d18"/><g fill="#fff"><path d="M12.074 9.422l.763.138c.005.046.008.092.008.138 0 .183-.042.358-.118.487s-.178.202-.285.202-.21-.072-.285-.202-.118-.305-.118-.488a1.12 1.12 0 0 1 .035-.277z" stroke="#fff" stroke-width=".155"/><ellipse cx="8.792" cy="5.231" rx=".138" ry=".166"/></g><ellipse cx="13.227" cy="5.055" rx=".792" ry=".901" fill="#030d18"/><ellipse cx="13.696" cy="5.312" rx=".138" ry=".166" fill="#fff"/><ellipse transform="matrix(-.63477 -.7727 .7727 -.63477 .282 -.134)" cx="-12.982" cy="-3.409" rx=".708" ry="1.026" fill="#f6d2a1"/><path d="M12.054 9.419l-.757.135c-.005.044-.008.09-.008.135a.95.95 0 0 0 .117.475c.075.126.177.197.282.197s.208-.071.283-.197a.95.95 0 0 0 .117-.476c0-.093-.012-.185-.035-.27z" fill="#fff" stroke="#fff" stroke-width=".153"/><g fill="#f6d2a1"><ellipse transform="matrix(.63477 -.7727 -.7727 -.63477 .282 -.134)" cx="1.841" cy="-21.563" rx=".707" ry="1.026"/><ellipse transform="matrix(.3054 -.95222 -.97065 -.24051 .282 -.134)" cx="-17.281" cy="-21.784" rx=".864" ry="1.27"/><ellipse transform="matrix(.22652 .97401 .95652 -.29167 .282 -.134)" cx="22.885" cy="2.587" rx=".864" ry="1.27"/><path d="M10.99 8.258c-.329 0-.594.267-.594.597v.115c0 .331.264.597.594.597h.386c.183-.15.434-.234.697-.234s.515.085.698.234h.334c.329 0 .595-.267.595-.597v-.115c0-.331-.265-.597-.595-.597H10.99z" stroke="#657075" stroke-width=".1"/></g><ellipse cx="12.016" cy="8.069" rx="1.208" ry=".68" fill="#030d18" stroke="#fff" stroke-width=".162"/></svg>