<svg xmlns="http://www.w3.org/2000/svg" viewBox="0 0 300 300" fill="#4fc3f7" xmlns:v="https://vecta.io/nano"><path d="M124.488 31.726c-11.459 2.547-22.794 6.094-33.42 11.443.243 9.384.85 18.375 2.08 27.508-4.127 2.644-8.464 4.914-12.319 8.009-3.917 3.013-7.917 5.896-11.463 9.42-7.085-4.686-14.584-9.09-22.309-12.978-8.327 8.962-16.113 18.634-22.474 29.457 4.785 7.741 9.781 14.997 15.175 21.883h.151V192.9a4.32 4.32 0 0 1 .363.017l40.726 3.927c2.133.206 3.805 1.923 3.954 4.061l1.256 17.978 35.526 2.535 2.447-16.593c.317-2.151 2.162-3.746 4.339-3.746h42.967c2.175 0 4.02 1.594 4.338 3.746l2.447 16.593 35.526-2.535 1.255-17.978c.15-2.138 1.82-3.854 3.954-4.061l40.71-3.927a4.32 4.32 0 0 1 .362-.017v-5.3l.017-.005v-61.123h.151c5.395-6.886 10.387-14.142 15.175-21.883-6.358-10.824-14.149-20.497-22.476-29.457-7.723 3.887-15.225 8.291-22.31 12.978-3.545-3.524-7.539-6.407-11.461-9.42-3.854-3.095-8.196-5.365-12.315-8.009 1.226-9.133 1.833-18.124 2.077-27.508-10.628-5.349-21.962-8.896-33.425-11.443-4.577 7.693-8.763 16.023-12.408 24.167-4.323-.722-8.666-.99-13.014-1.042v-.007c-.03 0-.059.007-.084.007s-.055-.007-.082-.007v.007c-4.357.052-8.696.319-13.02 1.042-3.643-8.144-7.827-16.474-12.411-24.167zm-32.22 97.178c13.556 0 24.543 10.979 24.543 24.53 0 13.56-10.987 24.546-24.543 24.546-13.549 0-24.54-10.985-24.54-24.546a24.54 24.54 0 0 1 24.54-24.53zm115.467 0c13.548 0 24.538 10.979 24.538 24.53 0 13.56-10.99 24.546-24.538 24.546-13.558 0-24.545-10.985-24.545-24.546 0-13.551 10.987-24.53 24.545-24.53zm-57.736 14.355c4.363 0 7.907 3.219 7.907 7.179v22.594c0 3.964-3.544 7.18-7.907 7.18s-7.9-3.216-7.9-7.18v-22.594c0-3.96 3.537-7.179 7.9-7.179zm73.54 61.959l-1.261 18.073a4.39 4.39 0 0 1-4.063 4.069l-43.38 3.095-.316.011c-2.156 0-4.016-1.582-4.334-3.747l-2.488-16.871h-35.396l-2.488 16.871c-.334 2.271-2.364 3.903-4.65 3.736l-43.38-3.095c-2.178-.156-3.911-1.89-4.063-4.069l-1.261-18.073-36.62-3.531.068 9.106c0 38.677 49.062 57.266 110.018 57.479h.15c60.955-.214 110.001-18.804 110.001-57.479l.071-9.106z"/></svg>