<svg xmlns="http://www.w3.org/2000/svg" width="53.333" height="53.333" viewBox="0 0 24 24" xmlns:v="https://vecta.io/nano"><path d="M21.71 5.559c-.731-1.316-2.039-1.709-2.963-1.728-1.133-.023-2.065.605-1.888 1.017a6.35 6.35 0 0 0 .381.741c.189.275.526.064.645.001.354-.188.731-.249 1.16-.199.409.047.954.3 1.319 1.001.859 1.651-1.793 5.05-5.114 2.697S8.702 7.516 7.24 7.991s-2.134.951-1.556 2.054l1.286 2.28c1.209 1.97 3.855-.907 3.855-.907-1.971 2.906-3.661 2.204-4.309 1.188-.584-.915-1.038-1.971-1.038-1.971-4.993 1.761-3.642 9.535-3.642 9.535h2.48c.632-2.862 2.893-2.757 3.28 0h1.892c1.674-5.589 5.914 0 5.914 0h2.467c-.691-3.812 1.387-5.011 2.697-7.246s2.551-4.969 1.146-7.364zm-6.362 7.362c-1.304-.426-.837-1.723-.837-1.723l2.679.871c-.089.402-.855 1.174-1.842.852z" fill="#0097a7"/></svg>