<svg xmlns="http://www.w3.org/2000/svg" viewBox="0 0 400 400" fill="#ec407a" stroke="#ec407a" stroke-width="6.51" xmlns:v="https://vecta.io/nano"><path d="M75.308 289.808l-12.577-7.261L202.844 39.872l12.577 7.261z"/><path d="M59.851 263.158h280.215v14.523H59.851z"/><path d="M205.557 352.247l-140.16-80.925 7.261-12.577 140.16 80.925zm121.759-210.915l-140.16-80.925 7.261-12.577 140.16 80.925z"/><path d="M72.696 141.275l-7.261-12.576 140.16-80.925 7.261 12.577z"/><path d="M324.731 289.808L184.619 47.133l12.577-7.261 140.112 242.675zM70.956 119.065h14.523v161.853H70.956zm243.565 0h14.523v161.853h-14.523z"/><path d="M203.088 346.104l-6.343-10.986 121.902-70.383 6.343 10.985z"/><path d="M348.291 285.645c-8.399 14.61-27.121 19.597-41.731 11.198s-19.597-27.121-11.198-41.731 27.121-19.597 41.731-11.198c14.697 8.486 19.685 27.121 11.198 41.731M104.554 144.883c-8.399 14.61-27.121 19.597-41.731 11.198s-19.597-27.121-11.198-41.731 27.121-19.597 41.731-11.198c14.61 8.486 19.597 27.121 11.198 41.731M51.712 285.645c-8.399-14.61-3.412-33.245 11.198-41.731 14.61-8.399 33.245-3.412 41.731 11.198 8.399 14.61 3.412 33.245-11.198 41.731-14.697 8.399-33.332 3.412-41.731-11.198m243.737-140.763c-8.399-14.61-3.412-33.245 11.198-41.731 14.61-8.399 33.245-3.412 41.731 11.198 8.399 14.61 3.412 33.245-11.198 41.731-14.61 8.399-33.332 3.412-41.731-11.198m-95.448 226.417c-16.885 0-30.532-13.648-30.532-30.532s13.648-30.532 30.532-30.532 30.532 13.648 30.532 30.532c0 16.798-13.648 30.532-30.532 30.532m0-281.535c-16.885 0-30.532-13.648-30.532-30.532s13.648-30.532 30.532-30.532 30.532 13.648 30.532 30.532-13.648 30.532-30.532 30.532"/></svg>