<svg xmlns="http://www.w3.org/2000/svg" width="300" height="300" preserveAspectRatio="xMidYMid" xmlns:v="https://vecta.io/nano"><path d="M246.886 107.727c-12.237-6.891-27.616 2.1-30.082 3.646l-52.834 29.965c-7.8-6.196-18.914-5.932-26.412.626s-9.24 17.537-4.139 26.093 15.587 12.246 24.922 8.768 14.852-13.129 13.111-22.937l52.688-29.899.321-.197c3.464-2.188 11.5-5.462 15.256-3.34 2.705 1.524 4.251 6.629 4.375 14.148h-.066v66.092c-.011 6.165-3.3 11.859-8.634 14.95l-75.739 43.755c-5.343 3.073-11.918 3.073-17.261 0l-75.739-43.755c-5.335-3.09-8.624-8.784-8.634-14.95V113.22c.011-6.165 3.3-11.859 8.634-14.95l68.549-39.562c6.522 7.482 17.451 9.25 25.999 4.205s12.284-15.467 8.887-24.794-12.961-14.904-22.751-13.269-17.022 10.018-17.203 19.943L59.397 85.632a31.93 31.93 0 0 0-15.977 27.588v87.455c.011 11.381 6.078 21.897 15.927 27.602l75.739 43.755c9.858 5.671 21.988 5.671 31.846 0l75.739-43.755c9.842-5.701 15.909-16.206 15.927-27.58V137.12h.051c.372-14.913-3.617-24.794-11.762-29.389z" fill="#27ae60" stroke="#27ae60" stroke-width="7.884"/></svg>