<svg xmlns="http://www.w3.org/2000/svg" viewBox="0 0 24 24" xmlns:v="https://vecta.io/nano"><path d="M12 1.881a10.119 10.119 0 1 0 0 20.238 10.119 10.119 0 1 0 0-20.238zm1.254 2.422c.91 0 1.647.261 2.213.779.571.518.857 1.189.857 2.014 0 .889-.319 1.673-.959 2.35s-1.376 1.016-2.207 1.016c-.487 0-.89-.119-1.213-.357-.317-.238-.477-.532-.477-.881 0-.212.06-.399.182-.562.127-.164.274-.246.438-.246.159 0 .238.092.238.277 0 .164.06.291.182.381s.261.135.42.135c.423 0 .829-.289 1.215-.865.391-.582.588-1.202.588-1.863 0-.465-.152-.844-.453-1.135-.302-.296-.69-.445-1.166-.445-.714 0-1.406.318-2.078.953-.666.635-1.212 1.469-1.635 2.506-.418 1.031-.627 2.014-.627 2.945 0 .857.184 1.539.555 2.047.37.503.863.754 1.477.754 1.037 0 2.028-.734 2.975-2.199l1.492-.213c.185-.026.277.018.277.135 0 .053-.072.28-.215.682s-.337 1.074-.586 2.016c.82-.476 1.455-1.004 1.904-1.58v.914c-.36.418-1.047.888-2.062 1.412-.212 1.407-.682 2.493-1.406 3.26-.725.772-1.539 1.16-2.443 1.16-.434 0-.775-.102-1.023-.303-.243-.201-.365-.478-.365-.832 0-.984.956-1.939 2.865-2.865l.586-1.928c-.333.481-.816.907-1.451 1.277s-1.225.555-1.77.555c-.889 0-1.628-.383-2.221-1.15-.587-.772-.881-1.748-.881-2.928 0-1.243.333-2.42 1-3.531.667-1.116 1.541-2.007 2.625-2.674 1.084-.672 2.135-1.008 3.15-1.008zm-1.223 12.188c-1.375.688-2.062 1.365-2.062 2.031 0 .354.169.533.508.533.666 0 1.184-.856 1.555-2.564z" fill="#26c6da"/></svg>