<svg xmlns="http://www.w3.org/2000/svg" viewBox="0 0 300 300" xmlns:v="https://vecta.io/nano"><path d="M75.766 33.97c-12.149-.304-27.153 6.049-27.153 6.049l49.613 100.64-26.308 112.47c24.012 20.305 50.496 10.593 50.496 10.593l12.187-87.03c1.539 1.458 3.172 2.794 4.818 4.028 5.289 3.746 11.018 6.609 16.746 8.813s11.681 3.967 17.631 5.289c3.966.881 7.71 1.543 11.676 1.983-1.763 3.966-2.864 8.152-2.643 12.78 0 .441.221.881.662 1.101h.219c4.187 2.204 8.594 3.968 13.441 5.07 4.627.881 9.697 1.323 14.545.662 5.068-.661 10.136-2.645 14.103-5.951s6.831-7.713 8.594-12.34l.221-.221v-.219l.662-5.948v-.223c2.204-1.322 4.407-2.643 6.61-4.406 2.644-2.204 5.068-4.629 6.831-7.713s2.864-6.831 2.643-10.577c-.22-3.526-1.544-7.049-3.087-10.134s-3.524-5.952-5.728-8.596c-4.407-5.068-9.696-9.254-15.425-12.559-5.509-3.526-11.679-6.392-17.849-8.375l-2.425-.662-1.98-.66c-1.322-.441-2.426-1.102-3.528-1.542-2.204-1.322-3.748-2.645-4.849-4.408-2.204-3.305-2.423-8.371-1.322-13.66.22-1.322.662-2.645 1.103-3.967s.881-2.645 1.322-4.188c.316-1.424.513-2.853.603-4.44l29.451-25.77c-2.295-8.475-27.722-17.304-27.722-17.304l-75.569 64.269-43.61-82.277c-1.567-.353-3.246-.532-4.981-.575zm108.6 73.763c-.452 2.355-.652 4.836-.652 7.32.22 3.746 1.322 7.936 3.746 11.462s5.728 6.169 9.033 7.711a29.91 29.91 0 0 0 5.07 1.983l2.645.66 2.202.441c5.729 1.542 11.237 3.746 16.305 6.61s9.916 6.39 13.883 10.357 7.052 9.035 7.493 14.103c.22 3.526-.222 6.17-1.324 8.373-1.102 2.424-2.864 4.627-4.847 6.61-.881.881-1.983 1.762-2.864 2.423a27.34 27.34 0 0 0-.66-5.948c-.22-1.102-.442-1.983-.882-3.085-.441-.881-.88-1.982-1.982-2.643-.22 0-.443-.001-.443.219-1.322 3.305-3.525 6.171-5.948 8.155s-5.509 2.864-8.594 3.085-6.392-.44-9.697-1.322-6.608-1.985-9.914-3.087l-.443-.221c-.661-.22-1.539.002-1.98.443-1.763 2.204-3.086 4.184-4.629 6.388-1.102 1.763-1.982 3.307-2.864 5.07l-11.68-4.408c-5.509-2.204-11.019-4.405-16.087-7.05-5.289-2.424-10.354-5.291-14.761-8.596-3.178-2.383-6.114-4.887-8.255-7.747l2.425-17.318z" fill="#f4511e"/></svg>