<svg xmlns="http://www.w3.org/2000/svg" viewBox="0 0 24 24" xmlns:v="https://vecta.io/nano"><path d="M8.528 11.121c-2.754 0-4.202 3.478-5.794 3.478-.979 0-1.126-.676-1.126-.914 0-.332.236-.706.565-.706.59 0 .414.77.414.77s.798-.555.272-1.299c-.421-.595-1.31-.623-1.92-.171-.618.459-1.057 1.147-.853 2.287.099.551.468 1.35 1.232 1.805s1.926.566 2.335.566c2.194 0 4.342-1.633 6.638-2.322.59-.177 1.111-.214 1.497-.222.097-.005 1.011-.047 1.92.225 2.297.689 4.445 2.324 6.638 2.324.41 0 1.571-.111 2.335-.566s1.132-1.256 1.231-1.807c.204-1.141-.235-1.829-.853-2.287-.61-.453-1.497-.422-1.918.172-.526.743.27 1.297.27 1.297s-.176-.77.414-.77c.329 0 .565.373.565.706 0 .238-.147.914-1.126.914-1.591 0-3.04-3.478-5.794-3.478-2.565 0-3.075 1.177-3.462 1.718-.013.01-.015.003-.02-.003-.386-.541-.897-1.718-3.462-1.718z" fill="#ff7043" fill-rule="evenodd"/></svg>