<svg xmlns="http://www.w3.org/2000/svg" viewBox="0 0 210 210" xmlns:v="https://vecta.io/nano"><path fill="#f68712" d="M41.559 104.988l63.431-63.431 63.431 63.431-63.431 63.431z"/><path d="M41.578 105.037L29.973 61.726 18.368 18.415 61.679 30.02l43.311 11.605-31.706 31.706z" fill="#fab20b"/><path d="M104.735 41.555L61.544 30.01 18.368 18.413l22.927.185 23.228.294 20.263 11.359z" fill="#fbc707"/><path d="M18.368 18.417l11.597 43.176 11.544 43.19-11.303-19.948-11.359-20.263-.294-23.228z" fill="#fff200"/><path d="M104.999 41.579l43.311-11.605 43.311-11.605-11.605 43.311-11.605 43.311-31.706-31.706z" fill="#f47216"/><path d="M168.491 104.735l11.544-43.19 11.597-43.176-.185 22.927-.294 23.228-11.359 20.263z" fill="#f1471d"/><path d="M191.629 18.365l-43.176 11.597-43.19 11.544 19.948-11.303 20.263-11.359 23.228-.294z" fill="#fbc707"/><path d="M168.419 104.987l11.605 43.311 11.605 43.311-43.311-11.605-43.311-11.605 31.706-31.706z" fill="#f25c19"/><path d="M105.261 168.469l43.19 11.544 43.176 11.597-22.927-.185-23.228-.294-20.263-11.359z" fill="#f68712"/><path d="M191.631 191.617l-11.597-43.176-11.544-43.19 11.303 19.948 11.359 20.263.294 23.228z" fill="#f1471d"/><path d="M104.991 168.422L61.68 180.027l-43.311 11.605 11.605-43.311 11.605-43.311 31.706 31.706z" fill="#f89c0e"/><path d="M41.51 105.269l-11.544 43.19-11.597 43.176.185-22.927.294-23.228 11.359-20.263z" fill="#fff200"/><path d="M18.368 191.629l43.176-11.597 43.19-11.544-19.948 11.303-20.263 11.359-23.228.294z" fill="#f25c19"/></svg>