<svg xmlns="http://www.w3.org/2000/svg" width="300" height="300" xmlns:v="https://vecta.io/nano"><path d="M148.014 286.552c-1.984-1.375-4.333-5.939-5.67-11.019-1.19-4.519-1.641-16.43-.844-22.273.296-2.172.465-4.024.374-4.114s-1.937-.378-4.103-.64c-12.481-1.504-25.802-5.747-35.943-11.446-2.151-1.209-4.166-2.198-4.477-2.198s-1.407 1.619-2.435 3.598c-4.778 9.199-13.123 18.333-19.466 21.307-2.316 1.086-5.401 1.35-6.828.585-2.152-1.154-2.789-5.721-1.505-10.777.88-3.463 4.417-10.748 7.285-15.006 1.266-1.88 3.768-5.068 5.56-7.085l3.257-3.667-1.698-1.622c-4.474-4.275-12.876-14.162-12.876-15.152 0-.354 11.463-8.318 12.298-8.544.425-.115 1.453.902 2.842 2.813 3.013 4.142 11.068 12.106 15.807 15.629 36.132 26.861 87.061 20.114 114.48-15.165 1.457-1.874 2.875-3.408 3.152-3.408.55 0 11.895 7.692 12.291 8.333.353.573-4.605 6.999-8.841 11.458-2.011 2.116-3.654 4.02-3.651 4.23s1.582 2.046 3.511 4.078c6.121 6.453 12.144 16.527 13.817 23.108 1.285 5.057.647 9.623-1.505 10.777-.464.249-1.697.451-2.739.448-6.595-.015-17.532-10.606-24.023-23.262-1.251-2.439-2.459-4.434-2.685-4.434s-1.499.697-2.829 1.549c-9.431 6.043-23.511 11.256-35.69 13.214-2.59.416-4.923.922-5.183 1.123-.337.26-.294 1.48.15 4.222.791 4.889.486 16.503-.557 21.199-1.077 4.847-2.73 8.604-4.769 10.834-2.344 2.564-4.167 2.93-6.507 1.309zm-129.646-98.84c-.117-.307-.162-16.388-.099-35.734l.113-35.176h18.437l.117 12.949c.087 9.687.253 13.036.658 13.294.298.19 4.913.348 10.255.352 7.567.005 9.821-.123 10.199-.58.324-.391.525-4.817.602-13.301l.117-12.715h18.437v71.231H58.768l-.116-13.593c-.078-9.135-.276-13.786-.602-14.18-.379-.457-2.645-.587-10.256-.587s-9.877.13-10.256.587c-.327.394-.524 5.046-.602 14.18l-.116 13.593-9.119.119c-7.057.092-9.167-.007-9.332-.44zm74.624-.005c-.116-.304-.16-16.383-.097-35.73l.113-35.176h45.654l.12 7.798.12 7.798-13.508.116-13.508.116-.124 5.241c-.092 3.898.02 5.333.439 5.599.31.197 5.556.361 11.658.365l11.094.007-.12 7.805-.12 7.805-11.413.22-11.413.22v12.312l14.047.22 14.047.22v15.389l-23.388.114c-18.476.09-23.432-.003-23.599-.44zm61.457 0c-.116-.304-.16-16.383-.097-35.73l.113-35.176h18.437l.219 27.701.219 27.701 13.389.22 13.389.22v15.389l-22.728.114c-17.95.09-22.774-.003-22.939-.44zm58.381-.004c-.115-.302-.158-16.379-.096-35.726l.113-35.176 9.657-.108c5.312-.059 9.876.04 10.142.22.651.44 10.401 26.995 12.551 34.184 2.237 7.479 2.063 7.037 2.57 6.53.238-.238 1.276-3.19 2.307-6.559 2.272-7.425 11.261-33.167 11.854-33.945.325-.428 2.692-.53 10.131-.44l9.707.118v71.231l-8.22.12-8.22.12-.291-1.163c-.606-2.417.207-27.864 1.122-35.132 1.44-11.437 1.221-11.614-2.173-1.759-3.671 10.658-10.967 30.256-11.664 31.329-.598.921-.958.989-5.188.989-3.115 0-4.68-.173-4.974-.55-.543-.696-9.505-25.085-11.954-32.533-1.728-5.254-2.668-7.146-2.637-5.307.007.437.411 4.06.896 8.05.909 7.474 1.713 32.529 1.119 34.899l-.289 1.155h-8.127c-6.097 0-8.179-.137-8.336-.55zm5.807-81.213c-1.729-2.933-6.081-8.407-9.761-12.281-11.855-12.477-26.131-20.363-43.658-24.118-5.018-1.075-6.35-1.177-15.584-1.197-10.871-.024-13.265.247-21.685 2.452-11.398 2.985-21.791 8.282-30.992 15.796-4.424 3.613-11.47 11.044-14.481 15.271-1.854 2.603-2.787 3.568-3.275 3.382-1.6-.608-12.314-7.811-12.307-8.274.015-1.041 7.231-10.091 12.127-15.21l5.065-5.295-3.349-3.632c-6.12-6.637-11.988-16.528-13.623-22.961-1.285-5.057-.647-9.623 1.505-10.777.464-.249 1.697-.451 2.739-.448 6.595.015 17.532 10.606 24.023 23.262 1.251 2.439 2.429 4.434 2.619 4.434s1.905-.891 3.812-1.979c9.804-5.596 25.544-10.583 36.26-11.487 1.85-.156 3.595-.427 3.878-.603.389-.241.331-1.42-.234-4.808-1.042-6.244-.719-18.472.623-23.553 2.126-8.051 5.54-12.56 9.016-11.908 3.241.609 6.386 5.9 8.021 13.498 1.067 4.959 1.095 18.905.047 23.473-.389 1.693-.577 3.214-.419 3.381s2.263.614 4.677.993c13.989 2.201 24.599 6.105 37.603 13.838.884.526 1.716.779 1.85.564s1.332-2.574 2.665-5.24c5.145-10.294 13.428-19.648 20.217-22.831 2.316-1.086 5.401-1.35 6.828-.585 2.152 1.154 2.789 5.721 1.505 10.777-.938 3.692-4.548 10.983-7.782 15.72-1.51 2.211-4.577 5.872-6.814 8.133l-4.069 4.113 4.003 4.256c4.046 4.301 11.193 13.425 12.502 15.96.592 1.147.613 1.467.123 1.919-1.004.925-11.798 7.263-12.369 7.263-.297 0-.885-.584-1.305-1.297z" fill="#00acc1"/></svg>