<svg xmlns="http://www.w3.org/2000/svg" viewBox="0 0 144 152" xmlns:v="https://vecta.io/nano"><path d="M117.909 12.242H26.095a11.48 11.48 0 0 0-11.477 11.477v104.566a11.48 11.48 0 0 0 11.477 11.477h91.814a11.48 11.48 0 0 0 11.477-11.477V23.719a11.48 11.48 0 0 0-11.477-11.477zM43.31 120.634V95.13l14.346 12.752zm44.632 0V82.553c-.062-2.976-1.495-6.551-7.97-6.551-12.966 0-27.509 6.521-27.654 6.586l-9.008 4.081V31.37h12.752v36.201c6.366-2.072 15.266-4.321 23.91-4.321 7.882 0 12.601 3.099 15.17 5.699 5.485 5.547 5.56 12.613 5.552 13.429v38.256zm3.188-68.542H78.378c5.012-6.575 8.158-13.495 9.564-20.722h12.752c-.861 7.243-3.797 14.187-9.564 20.722z" fill="#6963b9"/></svg>