<svg xmlns="http://www.w3.org/2000/svg" viewBox="0 0 24 24" xmlns:v="https://vecta.io/nano"><path d="M16.047 13.856c.074-.613.13-1.225.13-1.856a15.33 15.33 0 0 0-.13-1.856h3.137A7.65 7.65 0 0 1 19.425 12a7.65 7.65 0 0 1-.241 1.856m-4.78 5.16c.557-1.03.984-2.144 1.281-3.304h2.738c-.891 1.531-2.311 2.719-4.019 3.304m-.232-5.16H9.829c-.093-.613-.148-1.225-.148-1.856a12.22 12.22 0 0 1 .148-1.856h4.343c.084.603.148 1.225.148 1.856s-.065 1.244-.148 1.856m-2.172 5.531c-.77-1.114-1.392-2.348-1.773-3.675h3.545c-.381 1.327-1.002 2.561-1.773 3.675m-3.712-11.1h-2.71c.882-1.541 2.311-2.729 4.009-3.304-.557 1.03-.975 2.144-1.299 3.304m-2.71 7.425h2.71c.325 1.16.742 2.274 1.299 3.304-1.698-.585-3.128-1.773-4.009-3.304m-.761-1.856A7.65 7.65 0 0 1 4.576 12a7.65 7.65 0 0 1 .241-1.856h3.137c-.074.613-.13 1.225-.13 1.856a15.33 15.33 0 0 0 .13 1.856M12 4.603c.77 1.114 1.392 2.357 1.773 3.685h-3.545c.381-1.327 1.002-2.571 1.773-3.684m6.422 3.685h-2.738c-.297-1.16-.724-2.274-1.281-3.304a7.41 7.41 0 0 1 4.019 3.304M12 2.719C6.868 2.719 2.72 6.895 2.72 12a9.281 9.281 0 0 0 18.562 0A9.281 9.281 0 0 0 12 2.719z" fill="#e53935"/></svg>