<svg xmlns="http://www.w3.org/2000/svg" viewBox="0 0 24 24" xmlns:v="https://vecta.io/nano"><path d="M13.083 2.937c1.003.401 1.399 1.98.875 3.54-.519 1.552-1.745 2.497-2.753 2.104-1-.389-1.404-1.972-.888-3.536.512-1.556 1.753-2.493 2.765-2.107m5.61 3.239c.848.688.65 2.227-.427 3.457-1.105 1.225-2.67 1.671-3.514.995-.852-.68-.646-2.215.446-3.436 1.089-1.234 2.654-1.679 3.495-1.016M6.801 4.122c1.117.132 1.93 1.532 1.863 3.116-.119 1.584-1.075 2.769-2.184 2.641S4.562 8.364 4.653 6.774s1.068-2.773 2.148-2.652m14.124 8.155c.646.875.109 2.312-1.222 3.186s-2.938.867-3.603-.03-.117-2.317 1.195-3.212c1.338-.849 2.957-.845 3.63.056m-6.194 7.702c-.394.756-1.431 1.246-2.282 1.162-1.776-.168-2.669-2.462-4.231-3.363s-4.043-.482-5.02-1.978c-.563-.838-.515-2.17.076-2.959.816-1.088 2.583-.904 3.909-1.28 1.745-.468 3.73-2.094 5.308-1.183 1.569.906 1.219 3.434 1.621 5.184.318 1.46 1.303 3.107.62 4.417z" fill="#90a4ae"/></svg>