<svg xmlns="http://www.w3.org/2000/svg" fill-rule="evenodd" stroke-linejoin="round" stroke-miterlimit="1.4142" viewBox="0 0 24 24" xmlns:v="https://vecta.io/nano"><path d="M12.839 14.958l-2.447-2.418.029-.029a16.88 16.88 0 0 0 3.574-6.291h2.823V4.292h-6.744V2.365H8.147v1.927H1.402v1.927h10.762c-.646 1.85-1.667 3.613-3.054 5.155-.896-.992-1.638-2.081-2.226-3.228H4.958c.703 1.571 1.667 3.054 2.871 4.393l-4.904 4.837 1.368 1.368 4.817-4.817 2.997 2.997.732-1.966m5.424-4.885h-1.927l-4.336 11.562h1.927l1.079-2.89h4.576l1.089 2.89h1.927l-4.336-11.562m-2.524 6.744l1.561-4.172 1.561 4.172z" fill="#7986cb"/></svg>