<svg xmlns="http://www.w3.org/2000/svg" viewBox="0 0 200 200" fill="#f44336" xmlns:v="https://vecta.io/nano"><path d="M103.07 189.451c-7.937-2.666-8.004-2.718-9.763-7.517-.974-2.658-2.303-9.039-2.952-14.181-.997-7.896-.932-10.754.422-18.391 2.778-15.674 9.623-27.676 27.672-48.521 20.869-24.102 24.509-32.427 20.238-46.29-3.656-11.865-13.458-22.969-33.613-38.077-12.915-9.681-13.458-10.303-5.013-5.736 22.554 12.196 40.365 27.413 46.375 39.621 4.182 8.495 5.131 17.919 2.664 26.458-2.622 9.076-7.402 17.316-21.141 36.448-18.697 26.035-24.133 38.641-23.165 53.723.411 6.41 1.147 8.82 5.005 16.396 5.204 10.219 5.321 10.114-6.729 6.066zm-16.791-83.413C82 92.463 72.675 83.429 57.066 77.736c-4.127-1.505-7.504-2.968-7.504-3.251 0-1.026 18.939.849 22.98 2.275 10.092 3.561 15.043 10.936 15.799 23.537.644 10.726.039 12.409-2.062 5.742zm16.539-21.356c-6.047-16.401-16.159-25.681-33.756-30.981-9.46-2.849-9.054-3.744 1.347-2.967 20.536 1.534 29.413 7.298 33.642 21.846.953 3.279 1.488 8.121 1.311 11.864l-.3 6.323zM116.189 59.8c-5.019-11.521-12.108-17.947-25.873-23.454-5.394-2.158-6.8-3.084-5.479-3.608 2.476-.983 14.765.98 19.143 3.058 4.914 2.332 11.082 9.558 13.024 15.26 1.554 4.56 3.246 15.212 2.417 15.212-.228 0-1.683-2.91-3.232-6.467z"/><path d="M94.58 7.497c-.085-.009-.186-.028-.357.057s-.318.377-.303.541c.031.327.149.374.258.498.434.497 1.428 1.302 3.168 2.654l7.426 5.627c20.123 15.084 29.828 26.115 33.436 37.824 2.115 6.866 2.27 12.229-.672 18.959s-9.041 14.817-19.467 26.857c-18.07 20.869-24.992 32.99-27.787 48.76-1.357 7.655-1.425 10.628-.426 18.541.654 5.175 1.966 11.528 2.978 14.291.88 2.401 1.385 3.746 2.731 4.781s3.375 1.704 7.344 3.037c3.012 1.012 5.263 1.779 6.898 2.207.818.214 1.479.346 2.031.373s1.038-.04 1.398-.365.449-.832.391-1.336-.244-1.077-.529-1.779c-.571-1.404-1.557-3.311-2.857-5.865-3.85-7.56-4.542-9.822-4.951-16.201-.48-7.473.618-14.292 4.168-22.525s9.564-17.87 18.904-30.875c13.747-19.142 18.572-27.446 21.217-36.6 2.503-8.666 1.536-18.219-2.697-26.818-6.11-12.412-23.974-27.614-46.584-39.84-2.114-1.143-3.663-1.961-4.625-2.406-.481-.223-.753-.36-1.092-.396zm2.588 2.301l2.652 1.381c22.498 12.165 40.254 27.397 46.164 39.402 4.13 8.39 5.063 17.686 2.633 26.098-2.599 8.998-7.337 17.174-21.068 36.295-9.358 13.03-15.41 22.713-19.01 31.062s-4.736 15.376-4.248 22.986c.413 6.44 1.193 8.999 5.059 16.59 1.301 2.556 2.282 4.465 2.82 5.789.269.662.423 1.18.463 1.519s-.014.429-.066.477-.252.129-.68.107-1.042-.134-1.826-.34c-1.569-.411-3.821-1.175-6.834-2.187-3.968-1.333-5.94-2.024-7.053-2.881s-1.521-1.936-2.4-4.334c-.936-2.553-2.281-8.963-2.926-14.072-.995-7.878-.932-10.622.418-18.24 2.761-15.578 9.531-27.461 27.559-48.281 10.444-12.062 16.6-20.187 19.627-27.111s2.867-12.656.711-19.652c-3.704-12.022-13.604-23.199-33.791-38.33l-7.412-5.617c-.452-.351-.435-.374-.791-.66zm-8.889 22.211c-1.595-.08-2.825-.055-3.629.264-.203.08-.383.173-.539.334s-.27.44-.23.689c.078.499.431.742.9 1.051.939.618 2.64 1.38 5.346 2.463 13.695 5.479 20.624 11.764 25.602 23.189a101.44 101.44 0 0 0 2.121 4.592 25.32 25.32 0 0 0 .754 1.418c.102.173.188.31.273.424.043.057.083.108.143.164s.119.17.398.17a.65.65 0 0 0 .418-.172.72.72 0 0 0 .172-.258c.067-.161.088-.312.105-.488.035-.352.028-.801-.006-1.35-.068-1.098-.251-2.58-.51-4.207-.517-3.254-1.326-7.059-2.123-9.398-2.005-5.885-8.154-13.117-13.283-15.551-2.298-1.09-6.463-2.087-10.42-2.719-1.979-.316-3.897-.536-5.492-.615zm-.051.998c1.543.077 3.434.294 5.385.605 3.901.623 8.07 1.648 10.15 2.635 4.699 2.23 10.886 9.451 12.766 14.969.756 2.22 1.57 6.02 2.08 9.232.255 1.606.435 3.072.5 4.113.007.12-.002.165.002.273-.123-.231-.22-.396-.367-.691-.58-1.161-1.328-2.771-2.1-4.543-5.061-11.617-12.31-18.186-26.145-23.721-2.688-1.075-4.388-1.854-5.17-2.369-.302-.199-.324-.265-.355-.285.023-.011.015-.012.045-.023.434-.172 1.666-.272 3.209-.195zm-23.76 16.961c-.691.01-1.229.046-1.643.119-.207.037-.381.08-.545.152s-.346.177-.453.412-.034.526.074.688.24.268.396.377c.312.218.743.429 1.324.672 1.162.486 2.918 1.076 5.291 1.791 17.494 5.269 27.426 14.387 33.432 30.676l2.244 6.084.969-.148.299-6.324c.181-3.81-.354-8.668-1.33-12.025-2.136-7.347-5.49-12.562-10.914-16.084s-12.863-5.351-23.172-6.121c-2.608-.195-4.591-.287-5.973-.268zm.016 1c1.324-.019 3.29.07 5.883.264 10.227.764 17.496 2.584 22.701 5.965s8.405 8.323 10.498 15.523c.93 3.2 1.467 8.025 1.293 11.699l-.184 3.865-1.393-3.775c-6.088-16.513-16.379-25.956-34.08-31.287-2.357-.71-4.098-1.299-5.195-1.758-.391-.164-.592-.284-.811-.406.318-.044.712-.082 1.287-.09zM52.595 73.706c-.929-.027-1.696-.022-2.258.025-.281.024-.508.054-.711.115a.94.94 0 0 0-.311.148c-.111.082-.258.266-.258.49 0 .267.116.349.18.414a1.18 1.18 0 0 0 .188.154c.132.092.292.184.492.289.401.211.96.47 1.647.768 1.374.595 3.255 1.338 5.326 2.094 15.509 5.656 24.672 14.547 28.908 27.984.529 1.679.956 2.83 1.34 3.518.192.344.317.624.738.752a.76.76 0 0 0 .656-.154c.151-.139.217-.287.273-.445.227-.632.276-1.624.275-3.203s-.085-3.702-.246-6.389c-.382-6.36-1.825-11.449-4.482-15.408s-6.525-6.763-11.648-8.57c-1.094-.386-3.031-.763-5.387-1.125s-5.108-.699-7.736-.959-5.128-.444-6.986-.498zm-.029 1c1.819.053 4.306.236 6.918.494s5.35.593 7.682.951 4.28.753 5.207 1.08c4.968 1.753 8.621 4.417 11.15 8.186s3.94 8.667 4.314 14.908c.161 2.676.243 4.786.244 6.33.001 1.235-.091 1.828-.174 2.291-.296-.583-.677-1.539-1.156-3.059-4.323-13.713-13.809-22.894-29.518-28.623-2.056-.75-3.927-1.489-5.273-2.072-.431-.187-.699-.322-1.01-.471a21.31 21.31 0 0 1 1.615-.016z"/></svg>