<svg xmlns="http://www.w3.org/2000/svg" viewBox="0 0 201 201" fill-rule="evenodd" stroke-linejoin="round" stroke-miterlimit="1.4142" xmlns:v="https://vecta.io/nano"><path d="M161.96 61.952c-3.043 13.905-32.633 79.576-36.431 94.457-2.698 10.575 11.229 23.851 13.555 15.159 6.84-25.548 37.32-86.251 39.023-98.893 1.468-10.897-14.66-17.516-16.147-10.723zm-37.128 48.192c1.859-.471 3.822.17 5.045 1.647a4.97 4.97 0 0 1 .681 5.263c.022.013.021.015.021.016a19.04 19.04 0 0 1-13.667 10.676c-3.4.645-7.237 1.182-11.504 1.588-15.316 1.453-31.743-17.007-20.624-16.49 16.552.771 29.747-.446 40.047-2.699zm16.256-17.347a13.36 13.36 0 0 1-9.677 8.152c-20.232 4.242-49.32 2.591-63.662-.888-13.939-3.38-23.102-23.665-14.05-20.64 21.019 7.024 60.118 9.347 82.248 6.838 1.691-.234 3.38.448 4.436 1.79a4.81 4.81 0 0 1 .697 4.733zm8.398-23.8c-1.36 4.472-5.314 7.659-9.973 8.037-40.633 2.924-92.83-6.466-107.91-22.019C20.274 43.326 21 20.849 27.442 27.992c24.417 27.072 84.437 34.865 117.12 34.521a5.02 5.02 0 0 1 4.114 1.984c.973 1.283 1.273 2.955.806 4.497z" fill="#ffc400"/></svg>