<svg xmlns="http://www.w3.org/2000/svg" viewBox="0 0 512 512" fill="#4f8ff7" xmlns:v="https://vecta.io/nano"><path d="M423.59 132.8c3.414-5.09 5.408-11.214 5.408-17.804 0-17.675-14.33-32-32-32-6.59 0-12.714 1.994-17.805 5.409-34.486-25.394-77.085-40.409-123.2-40.409-114.88 0-208 93.125-208 208s93.125 208 208 208 208-93.123 208-208c0-46.111-15.016-88.71-40.408-123.2zm-31.762 259.03c-17.646 17.646-38.191 31.499-61.064 41.174-23.672 10.012-48.826 15.089-74.766 15.089s-51.095-5.077-74.767-15.089c-22.873-9.675-43.417-23.527-61.064-41.174s-31.5-38.191-41.174-61.064c-10.013-23.672-15.09-48.828-15.09-74.768s5.077-51.095 15.089-74.767c9.674-22.873 23.527-43.417 41.174-61.064s38.191-31.5 61.064-41.174c23.673-10.013 48.828-15.09 74.768-15.09s51.094 5.077 74.766 15.089a191.22 191.22 0 0 1 37.802 21.327 31.85 31.85 0 0 0-3.568 14.679c0 17.675 14.327 32 32 32a31.85 31.85 0 0 0 14.678-3.568c8.498 11.721 15.641 24.355 21.327 37.801 10.013 23.672 15.09 48.827 15.09 74.767s-5.077 51.096-15.09 74.768c-9.675 22.873-23.527 43.418-41.175 61.064z"/><circle cx="256" cy="256" r="96"/></svg>