<svg xmlns="http://www.w3.org/2000/svg" viewBox="0 0 512 512" xmlns:v="https://vecta.io/nano"><path d="M455.53 83.986l-11.783 65.043c-3.209 1.945-3.432 5.288-1.061 6.391h24.253c4.34.482 5.615-6.452.599-5.59zm-12.513 72.299v52.416l-7.432.05c-.964 5.661.849 11.824 4.871 14.493l-.167 124.36c-4.839 1.125-6.397 6.781-.681 8.206l-4.327 38.45-4.579.002v-39.26h-13.145l-.314-79.706c4.358-3.651 2.898-7.653 3.293-11.87h-4.21l-.33-36.048c1.918-1.433 3.099-5.216-.22-5.554l-8.123-44.691c-.713-.971-1.353-.572-1.757 0l-7.474 44.587c-4.072 1.285-3.428 3.076-.951 4.466l.189 37.713-4.959.099c-.806 6.799 2.805 10.348 2.805 10.348l-.31 53.933-13.675.157v-7.432h-9.453l.052-22.149h2.898s.314-2.19-.685-2.221c-.552-.017-1.278-.012-2.207-.014l.06-25.293-17.313.079v-3.694h-6.098c-14.785-30.857-44.131-50.285-82.68-52.758h-.053l.034-5.636c-.477-2.268-1.488-4.406-4.036-6.674 0 0-.015-.796 0-1.985.195-.035.931-.012 1.215-.526l-.081-2.227s-.139-.893-1.205-1.195c.543-3.73-.762-3.658-.762-3.658l.067-1.435c.92-.907 1.222-2.738-.173-2.706 0 0 .049-4.088-.599-4.25s-.901 3.43-.901 3.43c-.997.593-1.392 2.479-.25 3.635l-.308 4.923c-.993 1.079-1.497 2.376-.204 3.76l.129 1.935c-2.315.884-4.256 5.013-4.365 6.771l-.048 5.683c-34.286 2.215-68.12 20.402-82.092 52.837l-6.473.048.024 3.728-17.885.055v25.325c-.754-.006-1.334-.018-1.912 0-.999.031-1.374 2.247-1.374 2.247h3.285v22.349l-8.385-.117v7.144l-23.741-.095-.492-52.688c3.398-4.316 3.097-6.793 3.065-12.013h-3.835l-.584-37.795c3.166-.972 3.37-4.749.065-5.312l-8.546-44.105c-.086-.368-.267-.732-.542-.675-.165.034-.364.221-.597.647l-7.644 44.379c-4.679 2.113-2.936 4.002-1.241 5.109l.083 37.751h-5.284c.045 3.494-1.297 7.771 3.529 11.866l.159 79.496H79.786l.274 39.381-4.613.002-3.641-38.807c6.447-1.727 3.908-6.486-.204-7.998l-.119-122.98c-.36-3.716 4.433-4.196 4.433-12.107.939-5.473-4.698-3.855-7.106-3.968v-52.101H43.57v52.113c-2.669-.039-4.686-.05-5.05.002-1.678.24-2.038 2.996-1.439 7.551s4.139 7.523 4.139 7.523l.647 121.23c.297 4.082-1.291 3.546-2.866 3.934-3.107.498-2.339 6.471 1.796 6.471.659 5.753-7.91 72.398-7.91 72.398l446.22.385-8.474-72.55c7.005-.828 4.183-7.823-1.034-7.704l-.113-124.01c2.219-1.211 6.709-7.235 4.425-15.251l-6.515.044v-52.254zm-184.67 117.54c2.29.067 4.513 1.657 5.179 4.476v16.378H252.42l.357-16.202c.925-3.267 3.28-4.72 5.57-4.653zm-39.291.022c2.45-.047 4.998 1.817 5.683 5.008v15.821l-10.588-.046.288-16.93c.866-2.623 2.712-3.817 4.617-3.853zm102.95.087c1.971.181 3.749 1.868 4.264 4.891v15.956h-9.643l-.032-16.704c1.279-2.999 3.44-4.324 5.411-4.143zm-50.463.004c2.3.098 4.506 1.654 5.115 4.49v16.319l-10.943-.046.143-16.503c.99-2.997 3.385-4.358 5.685-4.26zm-64.88.016c2.204-.116 4.511 1.387 5.26 4.133v16.593h-9.723l.286-17.341c.809-2.226 2.462-3.295 4.177-3.384zm150.05.028c1.692.123 3.362 1.534 4.355 4.8l-.079 4.609c-6.405-.079-6.113.998-9.341 3.196l-.167-7.9c.848-2.892 3.057-4.862 5.233-4.704zm-162.29.022c2.204-.116 4.511 1.387 5.26 4.133v16.595h-9.723l.286-17.343c.809-2.226 2.462-3.295 4.177-3.385zm50.326 0c2.372-.116 4.792 1.387 5.181 4.133v16.595h-9.937l.288-17.343c.809-2.226 2.624-3.295 4.468-3.385zm38.839 0c2.318-.116 4.745 1.387 5.532 4.133v16.595h-10.225l.302-17.343c.851-2.226 2.588-3.295 4.391-3.385zm49.681.032c2.207-.094 4.437 1.435 4.826 4.18v16.595l-9.339-.079.286-17.343c.809-2.226 2.512-3.28 4.228-3.353zm-161.8.012c1.899.137 3.683 1.675 4.474 4.413l.087 16.444h-3.345c-.27-2.142-.849-7.58-4.528-8.399-.239-1.061-1.236-1.679-1.88-2.114l.024-6.342c1.252-2.873 3.268-4.139 5.167-4.002zm11.011.006c2.204-.116 4.511 1.387 5.26 4.133v16.595h-9.723l.288-17.341c.809-2.226 2.46-3.296 4.174-3.386zm48.784 0c2.204-.116 4.511 1.387 5.26 4.133v16.595h-9.723l.288-17.341c.809-2.226 2.46-3.296 4.174-3.386zm113.53.04c2.135-.13 4.229 1.469 5.191 3.956l.024 10.407c-.644.435-1.72 2.047-1.735 4.734-.708.538-1.36.916-1.35 1.713h-6.668V277.93c1.194-2.588 2.878-3.736 4.538-3.837zm-47.549.032c1.981.103 3.779 1.68 4.365 4.52l-.24 16.035h-9.723l.127-16.224c1.324-3.063 3.489-4.434 5.471-4.331zm-137.41.123c1.891-.128 3.805.829 4.577 3.15v6.441h-9.117l.087-6.235c.69-2.017 2.561-3.229 4.452-3.357zm149.47.073c2.235.01 4.475 1.539 4.885 4.536v15.819l-9.742-.046v-15.733c.391-3.077 2.622-4.586 4.857-4.575zm-136.23 24.745h3.373v22.063h-3.373zm170.74 0h3.373v22.063h-3.373zm-184.15 13.778h2.378v15.205h-2.378zm198.94 0h2.38v15.205h-2.38zm-175.74 8.694h2.682v98.544h-2.682zm151.75.004h3.343v98.534h-3.343zm-75.589 17.262c3.923-.079 7.869 2.477 7.978 7.908v25.114h-15.733l-.087-25.115c.019-5.114 3.919-7.829 7.843-7.908zm-19.29 11.146c2.942-.025 5.901 1.897 5.983 5.909v15.555h-11.864v-15.69c.014-3.777 2.94-5.75 5.882-5.774zm38.62 0c2.942-.025 5.901 1.897 5.983 5.909v15.555h-11.864v-15.69c.014-3.777 2.94-5.75 5.882-5.774zm-118.69.999h2.39v7.853h-2.39zm198.94 0h2.39v7.853h-2.39zm-198.91 29.184h2.388v8.144h-2.388zm198.94 0h2.39v8.144h-2.39zm-158.72 4.19c2.539-.025 5.094 1.898 5.165 5.911v15.561H194.84v-15.696c.012-3.779 2.536-5.752 5.076-5.776zm19.951.25c2.539-.025 5.092 1.898 5.163 5.911v15.561h-10.241v-15.696c.012-3.779 2.538-5.752 5.078-5.776zm19.733.127c2.756-.025 5.527 1.898 5.604 5.911v15.559H234.09v-15.694c.013-3.778 2.754-5.752 5.51-5.776zm19.699 0c2.756-.025 5.527 1.898 5.604 5.911v15.559h-11.114v-15.694c.013-3.778 2.754-5.752 5.51-5.776zm19.197 0c2.756-.025 5.529 1.898 5.606 5.911v15.559h-11.116v-15.694c.013-3.778 2.754-5.752 5.51-5.776zm20.327 0c2.756-.025 5.529 1.898 5.606 5.911v15.559h-11.116v-15.694c.013-3.778 2.754-5.752 5.51-5.776zm19.548 0c2.756-.025 5.529 1.898 5.606 5.911v15.559h-11.116v-15.694c.013-3.778 2.754-5.752 5.51-5.776zM56.941 85.121l-11.783 64.213c-3.209 1.92-3.432 5.22-1.061 6.309H68.35c4.34.476 5.423-6.37.407-6.287z" fill="#fdd835"/></svg>