<svg xmlns="http://www.w3.org/2000/svg" viewBox="0 0 24 24" fill="#ffca28" xmlns:v="https://vecta.io/nano"><path d="M17.778 7.747v2h2v10h-10v-2h-2v4h14v-14zM2.222 2.253h14.136v14.136H2.222V2.253m3.714 11.811c.314.668.935 1.217 1.995 1.217 1.178 0 1.987-.628 1.987-2.002V8.74H8.583v4.508c0 .675-.275.848-.707.848-.455 0-.644-.314-.856-.683l-1.084.652m4.696-.141c.393.77 1.186 1.359 2.427 1.359 1.256 0 2.199-.652 2.199-1.853 0-1.107-.636-1.602-1.767-2.089l-.33-.141c-.573-.243-.817-.408-.817-.801 0-.322.243-.573.636-.573.377 0 .628.165.856.573l1.029-.683c-.432-.754-1.044-1.044-1.885-1.044-1.186 0-1.948.754-1.948 1.751 0 1.084.636 1.594 1.594 2.002l.33.141c.613.267.974.432.974.887 0 .377-.353.652-.903.652-.652 0-1.029-.338-1.312-.809z"/></svg>