<svg xmlns="http://www.w3.org/2000/svg" xmlns:xlink="http://www.w3.org/1999/xlink" viewBox="0 0 180 180" xmlns:v="https://vecta.io/nano"><style><![CDATA[.B{fill-rule:evenodd}.C{fill:#dcd9d8}.D{fill:#d33833}.E{stroke:#d33833}.F{stroke-width:2}.G{fill:#231f20}]]></style><defs><clipPath id="A"><path transform="scale(1 -1)" fill="#37474f" d="M.899-144.42h144.42V0H.899z"/></clipPath><path id="B" d="M101.09 3.617a1.72 1.72 0 0 0-1.72-1.719 1.72 1.72 0 0 0-1.719 1.719 1.72 1.72 0 0 0 1.719 1.72 1.72 1.72 0 0 0 1.72-1.72"/></defs><g transform="matrix(1.0691 0 0 -1.0691 9.4 166.1425)" clip-path="url(#A)"><g class="B"><path d="M107.96 30.661l-12.506-1.876-16.883-1.876-10.943-.312-10.629.312-8.129 2.502-7.191 7.816-5.628 15.945-1.25 3.439-7.503 2.501-4.377 7.191-3.126 10.317 3.44 9.067 8.128 2.814 6.566-3.127 3.127-6.878 3.752.626 1.25 1.563-1.25 7.191-.313 9.067 1.876 12.505-.073 7.143 5.701 9.114 10.005 7.191 17.508 7.503 19.383-2.814 16.883-12.193 7.817-12.505 5.002-9.067 1.25-22.51-3.752-19.384-6.878-17.195-6.565-9.067" fill="#f0d6b7"/><path d="M97.334-23.425l-44.709-1.876v-7.503l3.752-26.262-1.876-2.189-31.264 10.63-2.189 3.752-3.126 35.328-7.19 21.26-1.564 5.002 25.011 17.195 7.817 3.127 6.878-8.441 5.94-5.315 6.879-2.188 3.126-.938L68.57 1.899l2.814-3.439L78.575.961l-5.003-9.693 27.2-12.818-3.438-1.876" fill="#335061"/><path d="M23.238 85.687l8.128 2.814 6.566-3.127 3.127-6.878 3.752.626.938 3.752-1.876 7.19 1.876 17.196-1.564 9.379 5.628 6.566 12.193 9.692-3.439 4.69-17.195-8.441-7.191-5.628-4.064-8.754-6.253-8.441-1.876-10.005 1.251-10.63" fill="#6d6b6d"/><g class="C"><path d="M36.055 115.07s4.69 11.567 23.448 17.195.938 4.065.938 4.065l-20.321-7.817-7.817-7.816-3.438-6.253 7.19.626m-9.379-27.195s-6.565 21.886 18.446 25.012l-.938 3.752-17.195-4.065-5.003-16.257 1.251-10.63 3.438 2.188"/></g></g><g fill="#f7e4cd"><g class="B"><path d="M36.681 58.799l4.094 3.967s1.848-.215 2.16-2.403 1.25-21.886 14.694-32.516c1.226-.97-10.004 1.564-10.004 1.564L37.619 45.042m56.59 19.697s.729 9.477 3.281 8.748 2.552-3.281 2.552-3.281-6.198-4.01-5.833-5.467"/></g><path d="M120.16 99.442s-5.153-1.088-5.628-5.628 5.628-.938 6.566-.626m-38.771 5.941s-6.879-.938-6.879-5.314 7.817-4.065 10.005-2.189"/><g class="B"><path d="M39.807 78.808s-11.881 7.191-13.131.312-4.065-11.881 1.876-19.071l-4.064 1.25-3.752 9.692-1.25 9.379 7.19 7.504 8.129-.626 4.69-3.752.313-4.69m5.627 19.698s5.315 27.512 32.203 32.827c22.136 4.375 33.765-.938 38.142-5.94 0 0-19.696 23.447-38.455 16.257s-32.514-20.322-32.202-28.762l.313-14.382m72.534 23.766s-9.066.312-9.379-7.817c0 0-.001-1.25.625-2.501 0 0 7.192 8.129 11.568 3.752M78.268 111.1s-1.561 12.477-12.199 5.223c-6.878-4.69-6.252-11.255-5.002-12.505s.91-3.769 1.862-2.041.638 7.356 4.078 8.919 9.077 3.31 11.261.404"/></g></g><g class="B"><g fill="#49728b"><path d="M48.874 26.597L19.486 13.466s12.193-48.46 5.94-63.467l-4.377 1.563-.313 18.446-8.128 35.015-3.44 9.693 30.638 20.633 9.067-8.753M51.896-.206l4.169-5.087v-18.759h-5.003l-.625 14.695c0 1.563.625 7.191.625 7.191m.938-24.7l-14.069-.625 4.065-2.814L52-31.868"/></g><g fill="#335061"><path d="M100.15-23.739l11.567.313 2.814-28.764-11.881-1.563-2.501 30.014"/><path d="M103.27-23.739l17.508.938s7.19 18.133 7.19 19.071 6.253 26.262 6.253 26.262l-14.069 14.694-2.814 2.502-7.503-7.503V3.148l-6.565-26.887"/></g><g fill="#49728b"><path d="M111.09-21.55l-10.942-2.188 1.563-8.755c4.064-1.876 10.943 3.127 10.943 3.127M111.4 33.162l21.885-16.257.626 7.503-16.57 15.319-5.94-6.565"/></g><path d="M62.85-85.332l-6.473 26.266-3.219 19.38-.532 14.385 29.296 1.56 18.226.003-1.657-32.83 2.814-25.324-.312-4.69-23.76-1.876-14.382 3.126" fill="#fff"/><path d="M96.083-23.426s-1.563-32.515 3.127-55.65c0 0-9.379-5.941-23.136-7.503l26.262.938 3.126 1.876-3.752 51.273-.938 10.944" class="C"/><path d="M115.06-49.691l12.193 3.439 23.135 1.25 3.439 10.629-6.253 18.446-7.19.938-10.005-3.126-9.599-4.687-5.096.935-3.971-1.56" fill="#fff"/><path d="M114.84-43.435s8.128 3.751 9.379 3.438l-3.438 17.196 4.064 1.563s2.814-16.257 2.814-18.133l19.071-.938s3.752 7.191 2.814 14.694l3.439-10.005.312-5.628-5.002-7.503-5.628-1.25-9.379.313-3.126 4.064-10.943-1.563-3.439-1.251" class="C"/></g><path d="M102.56-21.241L95.682-3.733 88.491 6.584s1.563 4.377 3.752 4.377h7.191l6.878-2.501-.625-11.568-3.127-18.134" fill="#fff"/><path d="M103.9-15.297S95.145 1.585 95.145 4.086c0 0 1.563 3.752 3.752 2.814s6.879-3.438 6.879-3.438v5.94l-10.63 2.189-7.19-.938 12.193-28.763 2.501-.313" class="B C"/><path d="M65.664 25.968l-8.661.942-8.129 2.502v-2.814l3.972-4.38 12.506-5.628" fill="#fff"/><g class="B"><path d="M51.689 25.031s9.693-4.065 12.819-3.127l.311-3.748-8.752 1.872-5.315 3.752.938 1.251" class="C"/><path d="M115.03 9.897c-5.305.156-10.098.786-14.294 1.97.285 1.72-.249 3.408.18 4.647 1.17.842 3.13.829 4.898 1.027-1.529.751-3.677 1.049-5.441.614-.041 1.194-.577 1.934-.901 2.868 2.983 1.064 10.024 8.044 13.984 5.733 1.887-1.099 2.689-7.378 2.835-10.431.122-2.532-.23-5.087-1.261-6.429" class="D"/></g><path d="M115.03 9.897c-5.305.156-10.098.786-14.294 1.97.285 1.72-.249 3.408.18 4.647 1.17.842 3.13.829 4.898 1.027-1.529.751-3.677 1.049-5.441.614-.041 1.194-.577 1.934-.901 2.868 2.983 1.064 10.024 8.044 13.984 5.733 1.887-1.099 2.689-7.378 2.835-10.431.122-2.532-.23-5.087-1.261-6.429z" fill="none" class="E F"/><path d="M89.66 18.569l-.047-1.211c-1.656-1.088-4.33-1.075-6.148-1.989 2.68-.117 4.789-.763 6.614-1.672l-.118-3.032c-3.036-2.078-5.809-5.174-9.384-7.123-1.69-.922-7.622-3.294-9.42-2.875-1.017.236-1.109 1.499-1.516 2.689-.866 2.548-2.861 6.605-3.035 10.441-.222 4.845-.711 12.966 4.511 11.968 4.213-.804 9.112-2.744 12.374-4.526 1.993-1.09 3.146-2.437 6.17-2.669" class="B D"/><path d="M89.66 18.569l-.047-1.211c-1.656-1.088-4.33-1.075-6.148-1.989 2.68-.117 4.789-.763 6.614-1.672l-.118-3.032c-3.036-2.078-5.809-5.174-9.384-7.123-1.69-.922-7.622-3.294-9.42-2.875-1.017.236-1.109 1.499-1.516 2.689-.866 2.548-2.861 6.605-3.035 10.441-.222 4.845-.711 12.966 4.511 11.968 4.213-.804 9.112-2.744 12.374-4.526 1.993-1.09 3.146-2.437 6.17-2.669z" fill="none" class="E F"/><path d="M92.675 12.788c-.463 2.639-.999 3.393-.792 5.695 7.039 4.693 8.361-8.062.792-5.695" class="B D"/><path d="M92.675 12.788c-.463 2.639-.999 3.393-.792 5.695 7.039 4.693 8.361-8.062.792-5.695z" fill="none" class="E F"/><g class="B"><g fill="#ef3d3a"><path d="M102.87 10.649s-2.189 3.127-.626 4.065 3.127-.001 4.065 1.563 0 2.502.312 4.377 1.877 2.189 3.439 2.502 5.941.938 6.566-.626l-1.876 5.628-3.752 1.25-11.881-6.878-.626-3.439v-6.878M70.041.331l-1.215 14.626c-.662 7.278 1.748 6.008 8.057 6.008.964 0 5.933-1.149 6.289-1.876 1.705-3.482-2.851-2.709 1.964-5.335 4.065-2.216 11.246 1.346 9.603 6.273-.919 1.096-4.789.341-6.176 1.061l-7.327 3.799c-3.108 1.612-10.29 3.963-13.603 1.71-8.395-5.709.53-19.974 3.525-25.93"/></g><g class="G"><path d="M78.268 111.1c-8.521 1.985-12.755-3.566-15.338-9.323-2.306.559-1.389 3.695-.806 5.294 1.525 4.194 7.672 9.778 12.694 9.021 2.161-.325 5.086-2.302 3.45-4.992m41.522-9.7l.404-.016c1.926-4 3.592-8.238 6.022-11.769-1.627-3.79-12.322-7.144-12.157-.339 2.313 1.011 6.306.206 8.356 1.498-1.186 3.254-2.896 6.023-2.624 10.626"/><path d="M82.63 101.29c1.827-3.349 2.422-6.868 5.019-9.4 1.17-1.14 3.444-2.529 2.317-5.698-.264-.748-2.189-2.414-3.301-2.742-4.06-1.199-13.521-.248-10.317 4.814 3.358-.157 7.871-2.181 10.381.257-1.927 3.081-5.364 9.177-4.099 12.768m35.63-34.036c-6.113-3.927-12.93-8.197-22.947-7.207-2.14 1.861-2.956 6.002-.877 8.737 1.082-1.861.402-5.283 3.419-5.798 5.684-.973 12.299 3.477 16.387 5.032 2.535 4.274-.219 5.846-2.502 8.597-4.676 5.636-10.947 12.622-10.72 21.059 1.89 1.37 2.053-2.092 2.324-2.722 2.441-5.714 8.586-13.021 13.07-17.912 1.101-1.204 2.914-2.36 3.116-3.156.582-2.316-1.513-5.09-1.27-6.63m-80.592 4.134c-1.916 1.094-2.372 5.911-4.622 6.048-3.215.195-2.629-6.249-2.616-10.018-2.213 2.009-2.602 8.195-.976 11.371-1.853.91-2.68-1.004-3.708-1.678 1.321 9.595 14.036 4.451 11.922-5.723m84.482-8.13c-2.846-5.416-6.871-11.382-15.222-11.555-.17 1.749-.3 4.411.009 5.464 6.383.613 10.325 3.862 15.212 6.091m-40-3.512c5.326-2.801 15.114-3.102 22.353-2.89.388-1.586.379-3.545.394-5.479-9.305-.464-20.307 1.838-22.747 8.369m-1.013-5.222c3.683-9.247 16.341-8.182 27.016-7.927-.47-1.2-1.489-2.619-2.755-3.132-3.421-1.392-12.855-2.448-17.604.074-3.012 1.601-4.947 5.219-6.597 7.339-.797 1.024-4.765 3.64-.06 3.646"/></g><path d="M117.82 3.516c-4.322-7.402-8.457-15.005-13.585-21.534 2.15 6.321 3.07 16.9 3.394 24.965 4.497 2.105 8.349-.474 10.191-3.431" fill="#81b0c4"/><g class="G"><path d="M141.07-23.089c-4.839-.969-8.239-5.672-12.959-5.37 2.594 3.657 7.14 5.199 12.959 5.37m2.14-7.572c-3.944-.417-8.576-1.055-12.577-.726 1.894 2.893 9.19 1.895 12.577.726m1.37-6.529c-4.433-.096-9.942-.008-14.155.346 2.492 2.677 11.28.993 14.155-.346"/></g><path d="M109.48-55.057c.636-5.567 2.843-11.207 2.566-17.304-2.451-.826-3.859-1.549-7.142-1.545-.232 5.181-.925 13.102-.718 18.041 1.615-.107 3.996 1.154 5.294.808" class="C"/><path d="M102.33 26.985c-2.226-1.453-4.121-3.267-6.259-4.818-4.74-.234-7.327.328-10.81 3.05.057.219.407.121.42.389 5.074-2.261 11.524.921 16.648 1.379" fill="#f0d6b7"/><path d="M75.694-7.603c1.394 6.041 6.857 9.17 11.817 12.497 5.12-6.498 8.234-14.855 11.663-22.919-8.102 2.442-16.38 6.405-23.481 10.422" fill="#81b0c4"/><path d="M104.18-55.865c-.207-4.939.486-12.86.718-18.041 3.284-.004 4.692.718 7.142 1.545.277 6.097-1.93 11.737-2.566 17.304-1.297.346-3.679-.914-5.294-.808zm-51.13 28.09c2.165-19.906 5.301-36.639 11.054-54.266 12.766-3.876 28.157-4.214 39.441-.716-2.072 9.949-1.167 22.061-2.378 32.677-.913 7.98-.447 16.009-1.699 24.15-13.673 2.845-33 .665-46.418-1.845zm49.651 1.72c-.115-8.549.383-16.982 1.035-25.542 3.283.493 5.51.822 8.561 1.49-.99 8.24-.869 17.513-2.886 24.803-2.332-.022-4.385.027-6.71-.751zm16.653 1.378c-1.558.357-3.372.014-4.86-.015.7-6.969 2.397-14.659 2.995-21.974 2.342-.073 3.593 1.032 5.52 1.403.103 6.421-.561 15.268-3.654 20.586zm25.215-23.038c4.882 1.185 7.952 7.165 6.586 13.305-.916 4.127-2.548 11.898-4.295 14.538-1.291 1.953-4.79 4.509-7.584 2.72-4.545-2.91-12.552-3.755-15.867-7.278 1.662-5.534 2.178-13.135 2.864-20.146 5.678-.354 12.665 1.563 17.387-.471-3.297-1.068-7.575-1.076-10.423-2.633 2.328-1.124 7.778-.897 11.332-.034zM99.17-18.026C95.741-9.962 92.627-1.605 87.507 4.893 82.546 1.566 77.084-1.563 75.69-7.604c7.101-4.017 15.379-7.98 23.481-10.422zm8.453 24.972c-.325-8.065-1.245-18.644-3.394-24.965 5.128 6.529 9.263 14.132 13.585 21.534-1.842 2.957-5.693 5.535-10.191 3.431zm-9.582 3.405c-1.942.209-3.591-2.233-6.117-1.177-.579-.64-1.105-1.333-1.695-1.957 5.579-6.723 8.114-16.262 12.423-24.163 2.312 7.59 2.046 15.904 2.555 24.188-3.177-.202-4.939 2.873-7.166 3.109zm-6.161 8.132c-.207-2.303.328-3.056.792-5.695 7.569-2.366 6.248 10.388-.792 5.695zm-8.394 2.756c-3.261 1.782-8.161 3.723-12.374 4.526-5.222.999-4.733-7.123-4.511-11.968.174-3.836 2.169-7.893 3.035-10.441.407-1.19.498-2.453 1.516-2.689 1.798-.419 7.73 1.953 9.42 2.875 3.575 1.949 6.348 5.044 9.384 7.123l.118 3.032c-1.825.91-3.935 1.555-6.614 1.672 1.818.914 4.492.901 6.148 1.989l.047 1.211c-3.024.233-4.177 1.579-6.17 2.669zm-31.152 5.659c-2.707-2.748 7.592-6.494 10.871-6.696-.018 1.739.991 3.378.788 4.626-3.895.684-9.013.233-11.659 2.07zm33.345-1.291c-.013-.268-.363-.171-.42-.389 3.483-2.722 6.069-3.285 10.81-3.05 2.138 1.551 4.033 3.365 6.259 4.818-5.124-.458-11.574-3.64-16.648-1.379zm30.606-9.281c-.146 3.053-.948 9.331-2.835 10.431-3.961 2.312-11.002-4.668-13.984-5.733.325-.934.86-1.674.901-2.868 1.764.434 3.912.137 5.441-.614-1.768-.198-3.728-.185-4.898-1.027-.429-1.239.105-2.927-.18-4.647 4.196-1.184 8.989-1.814 14.294-1.97 1.032 1.341 1.383 3.896 1.261 6.429zm-68.508 7.913c-.85.606-6.6 8.088-7.388 7.777-10.405-4.103-20.134-11.199-28.828-17.91C19.85-3.681 23.196-25.473 23.788-46.476c9.496-4.441 17.836-10.844 30.722-11.512-1.491 10.55-2.852 19.962-3.699 29.895-3.238 1.365-7.883-.062-10.913.423-.026 3.651 4.627 1.599 5.015 4.054.292 1.857-2.56 1.998-1.631 4.922 2.369-.861 3.612-2.763 6.139-3.477 2.308 5.05-.032 13.985.3 18.205.063.792.396 4.39 2.171 3.759 1.571-.559-.09-9.569.082-13.563.157-3.68-.444-7.241 1.046-9.552 12.451 1.695 25.104 2.79 38.576 3.16-2.964 1.272-6.485 2.475-10.345 4.651-2.093 1.18-8.689 3.634-9.293 5.622-.964 3.167 2.528 4.854 3.125 7.57-6.285-3.428-7.511 3.286-8.998 8.042-1.347 4.308-2.114 7.526-2.444 10.01-5.414 2.581-11.203 5.195-15.863 8.505zm63.009 6.872c8.669 4.204 10.232-15.711 6.834-22.127.525-1.913 2.332-2.646 3.069-4.366-4.838-8.666-10.211-16.756-15.148-25.32 3.672 2.286 8.917.409 13.238 2.12 1.579.625 2.723 4.241 3.919 7.133 3.289 7.958 6.743 17.991 8.279 25.586.347 1.73 1.292 5.501 1.081 7.041-.378 2.758-4.119 4.802-6.022 6.507-3.506 3.15-5.714 5.921-9.371 8.866-1.483-2.189-4.665-3.66-5.878-5.44zm-82.836 76.88c-4.131-4.545-3.266-13.062-2.766-19.121 7.467 4.697 17.377-.371 17.284-8.361 3.565.095 1.332 4.452.687 7.26-2.107 9.169 3.55 19.131.257 27.516-6.395-.485-11.649-3.097-15.461-7.294zm29.558 26.38c-9.352-2.651-21.337-9.446-25.18-17.847 2.976.432 5.041 1.933 7.977 2.119 1.109.072 2.563-.465 3.838-.148 2.541.63 4.685 6.327 6.602 8.447 1.868 2.07 4.114 2.954 5.651 4.842.987.476 2.447.444 2.504 1.927-.428.458-.879.807-1.392.661zm48.681-2.493c-9.707 5.477-26.136 9.596-36.462 4.449-8.331-4.154-19.593-11.027-23.433-19.737 3.587-8.405-1.062-16.106-1.359-24.639-.158-4.54 2.138-8.504 2.314-13.447-1.227-2.025-4.977-2.275-7.573-2.136-.874 4.373-2.403 9.287-6.906 9.781-6.371.697-11.03-4.576-11.319-10.086-.343-6.48 4.977-17.22 12.517-16.475 2.913.288 3.628 3.208 6.802 3.178 1.72-3.432-2.653-4.51-3.103-6.964-.117-.634.363-3.112.642-4.274 1.37-5.659 4.423-12.982 7.428-17.29 3.814-5.464 11.307-6.288 19.369-6.823 1.44 3.102 6.744 2.847 10.2 2.035-4.142 1.64-7.992 5.617-11.184 9.137-3.666 4.039-7.379 8.371-7.566 13.65 6.927-9.61 12.65-18.003 25.246-22.23 9.531-3.197 20.662 1.465 27.986 6.608 3.039 2.138 4.853 5.529 7.013 8.634 8.082 11.626 11.854 28.219 11.024 44.303-.341 6.633-.326 13.244-2.552 17.706-2.326 4.666-10.193 8.841-14.799 4.62-.854 4.538 3.83 7.344 9.331 5.711-3.922 5.062-8.039 11.144-13.614 14.29zm18.084-149.66c7.585 3.771 21.757 10.149 26.512-.014 1.755-3.746 3.814-10.079 4.722-13.946 1.284-5.456-1.392-16.923-7-18.754-4.953-1.617-10.733-1.518-16.699-.32-.703.584-1.485 1.603-2.032 2.665-4.26.165-8.249-.229-11.614-1.98.319-3.151-1.812-3.656-3.81-4.305-1.481-5.872 2.963-13.541 1.899-18.896-.759-3.815-5.452-4.405-8.902-5.118-.113-2.12.151-3.889.386-5.683-.789-2.906-4.327-4.561-7.679-4.966-11.029-1.326-27.775-1.922-38.384 1.893-2.96 7.261-5.292 16.093-7.758 24.384-10.346-1.105-18.715 4.464-26.603 8.113-2.731 1.266-6.51 1.964-7.53 4.138-.989 2.105-.584 6.139-.83 9.95-.625 9.733-1.16 19.121-3.73 29.086-1.154 4.472-3.165 8.418-4.569 12.727-1.297 3.994-3.563 8.929-4.154 12.911-.876 5.902 4.682 6.231 8.236 8.788 5.494 3.955 9.806 6.142 15.756 9.712 1.762 1.057 7.077 3.733 7.681 4.965 1.202 2.443-2.063 5.888-2.935 7.804-1.38 3.029-2.1 5.601-2.298 8.59-4.991.789-8.775 3.759-11.06 7.109-3.781 5.543-6.402 15.798-3.131 23.599.257.614 1.536 1.822 1.725 2.766.372 1.858-.701 4.329-.767 6.305-.344 10.139 1.715 18.875 8.541 21.932 2.771 11.038 12.688 14.709 22.032 20.195 3.493 2.05 7.343 3.361 11.319 4.824 14.264 5.25 36.15 4.261 47.988-4.692 5.02-3.797 13.044-11.813 15.914-17.617 7.58-15.323 7.042-40.931 1.74-59.571-.713-2.502-1.746-6.181-3.19-9.187-1.006-2.099-4.134-6.299-3.755-8.153.391-1.916 7.132-7.035 8.577-8.428 2.603-2.511 7.548-5.843 7.948-9.012.431-3.372-1.486-7.985-2.456-11.238-3.245-10.858-6.412-20.895-10.091-30.576" class="G"/><path d="M73.674 57.38c.411.548 2.674 1.38 5.839-.144 0 0-3.752-.626-3.44-6.881l-1.563.313s-1.616 5.672-.836 6.712" fill="#f7e4cd"/><g fill="#1d1919"><use xlink:href="#B"/><path d="M102.81-4.355a1.72 1.72 0 0 0-1.72-1.719 1.72 1.72 0 0 0-1.719 1.719 1.72 1.72 0 0 0 1.719 1.72 1.72 1.72 0 0 0 1.72-1.72"/></g></g><rect transform="matrix(.8 0 0 -.8 0 144)" x="16.854" y="177.38" width="70.412" height="4.12" rx=".983"/><g transform="scale(1 -1)"><rect x="78.502" y="-2.097" width="50.037" height="3.296" rx=".786"/><rect x="13.483" y="-3.697" width="54.831" height="3.296" rx=".786"/><rect x="83.296" y="-3.697" width="45.243" height="3.296" rx=".786"/></g></g></svg>