<svg xmlns="http://www.w3.org/2000/svg" width="300" height="300" fill="#f4511e" xmlns:v="https://vecta.io/nano"><path d="M194.74 86.602l-17 34.328c5.584 5.174 9.526 11.99 11.087 19.71h12.811c1.478-7.309 5.092-13.879 10.266-18.971zm-31.289 26.033L194.74 49.4l31.207 63.646 3.696-1.068 29.647-87.462H130.109l29.565 87.216 3.778.903zm-10.758 55.926c11.415 0 20.695-9.28 20.695-20.695a20.65 20.65 0 0 0-3.367-11.333c-.657-1.068-1.478-2.053-2.299-2.956l-.082-.082c-.821-.903-1.807-1.725-2.792-2.382l-.082-.082c-.246-.164-.575-.411-.903-.575-.082 0-.082-.082-.164-.082-.328-.164-.657-.411-.985-.575h-.082c-.328-.164-.739-.411-1.068-.575h-.082c-.328-.164-.657-.328-.985-.411-.082 0-.164-.082-.246-.082-.246-.082-.575-.246-.821-.328-.082 0-.164-.082-.328-.082-.328-.082-.657-.246-.985-.328h-.082l-1.15-.246c-.082 0-.164 0-.328-.082-.328-.082-.575-.082-.903-.164-.164 0-.246 0-.411-.082-.246 0-.575-.082-.821-.082h-.411-1.232-1.232-.328c-.328 0-.575.082-.903.082h-.328c-.328.082-.657.082-.985.164h-.246l-1.15.246c-9.034 2.217-15.768 10.43-15.768 20.12.164 11.251 9.444 20.613 20.859 20.613zm87.051-41.39h-.164c-.328 0-.575-.082-.903-.082h-1.068c-.411 0-.821 0-1.314.082h-.411c-.328 0-.657.082-.985.082-.082 0-.246 0-.328.082l-1.232.246h-.082l-1.15.246c-.082 0-.246.082-.328.082-.328.082-.657.164-.985.328-.082 0-.164.082-.246.082l-1.15.493-1.15.493c-.082 0-.164.082-.246.082-.328.164-.657.328-.985.575 0 0-.082 0-.082.082a12.4 12.4 0 0 0-2.135 1.478l-.082.082c-1.068.821-1.971 1.725-2.874 2.71s-1.642 2.135-2.299 3.285c-1.725 3.039-2.71 6.57-2.71 10.266 0 11.415 9.28 20.695 20.695 20.695s20.695-9.28 20.695-20.695c0-10.019-7.227-18.478-16.671-20.367-.493-.164-1.15-.246-1.807-.328zm-172.871 41.39c11.415 0 20.695-9.28 20.695-20.695s-9.28-20.695-20.695-20.695-20.695 9.28-20.695 20.695 9.28 20.695 20.695 20.695zm170.818 16.014c-17.082 0-31.453-11.744-35.56-27.512h-13.797c-4.106 15.768-18.478 27.512-35.56 27.512-1.971 0-3.86-.164-5.667-.411-4.763 7.309-10.43 14.043-17.082 20.285-11.744 11.087-25.048 19.299-39.42 24.473l-3.367 1.232-3.121-1.642c-17.246-8.869-26.115-26.855-22.995-44.265a31.88 31.88 0 0 1-5.667-1.478c-.328.575-.575 1.232-.903 1.889-5.256 10.84-10.758 22.009-12.729 33.999-2.135 12.811-3.039 36.217 15.029 48.7 7.884 5.42 16.178 8.13 25.458 8.13 17.821 0 37.038-9.526 57.405-19.628 15.932-7.884 32.357-16.096 49.439-20.285 6.488-1.56 13.058-2.546 19.381-3.449 11.579-1.642 22.584-3.285 31.536-8.459 9.526-5.502 16.014-14.7 17.821-25.212 1.15-6.406.493-12.893-1.642-18.889-5.42 3.121-11.744 5.01-18.56 5.01z"/></svg>