<svg xmlns="http://www.w3.org/2000/svg" viewBox="0 0 24 24" xmlns:v="https://vecta.io/nano"><path d="M5.759 3.975h1.783v1.783H5.759v4.458A1.783 1.783 0 0 1 3.975 12a1.783 1.783 0 0 1 1.783 1.783v4.458h1.783v1.783H5.759c-.954-.241-1.783-.802-1.783-1.783v-3.566a1.783 1.783 0 0 0-1.783-1.783H1.3v-1.783h.892a1.783 1.783 0 0 0 1.783-1.783V5.759a1.783 1.783 0 0 1 1.783-1.783m12.483 0a1.783 1.783 0 0 1 1.783 1.783v3.566a1.783 1.783 0 0 0 1.783 1.783h.892v1.783h-.892a1.783 1.783 0 0 0-1.783 1.783v3.567a1.783 1.783 0 0 1-1.783 1.783h-1.783v-1.783h1.783v-4.458A1.783 1.783 0 0 1 20.025 12a1.783 1.783 0 0 1-1.783-1.783V5.759h-1.783V3.975h1.783M12 14.675a.892.892 0 0 1 0 1.783.892.892 0 0 1 0-1.783m-3.566 0a.892.892 0 0 1 0 1.783.892.892 0 0 1 0-1.783m7.133 0a.892.892 0 0 1 0 1.783.892.892 0 0 1 0-1.783z" fill="#fbc02d"/></svg>