<svg xmlns="http://www.w3.org/2000/svg" viewBox="0 0 300 300" xmlns:v="https://vecta.io/nano"><path d="M150 42c-49.908.056-93.281 34.296-104.92 82.828 17.924-23.681 59.214-39.05 104.92-39.053 45.809.029 87.144 15.491 104.96 39.261C243.399 76.406 199.985 42.06 150 41.999zM45.04 175.01c11.561 48.63 54.975 82.976 104.96 83.037 49.908-.056 93.281-34.296 104.92-82.828-17.924 23.681-59.214 39.05-104.92 39.053-45.809-.029-87.144-15.491-104.96-39.261z" fill="#f57c00" paint-order="fill markers stroke"/><circle cx="61.5" cy="266.8" r="22.627" fill="#9e9e9e" paint-order="fill markers stroke"/><circle cx="46.3" cy="48.6" r="16.617" fill="#616161" paint-order="fill markers stroke"/><circle cx="241.8" cy="33.4" r="21.213" fill="#757575" paint-order="fill markers stroke"/></svg>