<svg xmlns="http://www.w3.org/2000/svg" viewBox="0 0 24 24" xmlns:v="https://vecta.io/nano"><path d="M12 1.703c-.25-.002-.501.11-.729.338l-9.226 9.235c-.144.144-.229.347-.341.522v.41c.16.223.294.474.485.666l8.936 8.937c.193.192.443.325.666.486h.41c.205-.141.435-.255.609-.428l9.133-9.126c.47-.47.472-1.005.006-1.472l-9.218-9.218c-.23-.23-.481-.347-.731-.349zm-1.062 4.546l1.386.832 2.109 1.262.04.026c.006.004.011.009.017.013s.011.009.016.013c.062.055.089.122.089.224v3.793c0 .037-.002.068-.008.094h0c-.014.069-.054.103-.141.109l-.044.002-.136-.003h-.998v-.527-1.34-.001-.67l.003-.671h0c0-.146-.039-.23-.169-.307l-2.67-1.599-.174-.112.001-.002zm.362 3.39c.068-.003.119.042.174.138a16.4 16.4 0 0 0 .264.439l.015.025.291.47-1.915 1.176-1.014.618c-.113.066-.154.143-.154.277l.015 2.932v.254H7.666h-.002l-.014-.17-.016-3.752a.3.3 0 0 1 .164-.294l3.353-2.054.049-.027.049-.02.025-.007.026-.004zm5.678 3.125l.313.54.346.595v.001l-.438.258-3.097 1.798c-.106.062-.189.072-.3.01l-.893-.495-1.525-.843-.894-.493c-.035-.02-.068-.044-.129-.085l.001-.001.137-.25.495-.902 1.447.795 1.323.735a.29.29 0 0 0 .334 0l2.688-1.563c.057-.034.118-.062.192-.099z" fill="#29b6f6"/></svg>