<svg xmlns="http://www.w3.org/2000/svg" viewBox="0 0 318 315" fill="#1e88e5" xmlns:v="https://vecta.io/nano"><path d="M39.778 280.589c-4.911-2.139-4.99-2.851-4.99-34.058v-28.118H97.36v63.364H69.876c-21.702-.079-28.118-.317-30.098-1.188zm69.463-30.494v-31.682h62.572v63.364h-62.572zm-.792-89.027c0-51.721.158-54.414 4.435-67.958 4.119-13.069 11.802-25.425 21.94-35.246 16.079-15.603 35.009-23.682 57.582-24.554 16.633-.634 29.702 2.218 43.959 9.505 52.117 26.93 62.968 98.531 21.306 140.272-14.653 14.653-33.187 23.128-54.572 25.029-4.752.396-28.039.792-51.642.792h-43.008zm61.78-15.92v-35.246h-30.098v70.492h30.098zm40.395 10.297v-24.95h-30.098v49.899h30.098zm40.395-20.197V90.101H220.92v90.294h30.098zm-216.231 40.79V143.96H97.36v64.156H34.788z"/></svg>