<svg xmlns="http://www.w3.org/2000/svg" viewBox="0 0 240 240" xmlns:v="https://vecta.io/nano"><path d="M211.34 68.408c0-.088-.089-.177-.089-.265-.089-.177-.089-.354-.177-.442s-.177-.177-.177-.265c-.089-.088-.177-.265-.265-.354l-.265-.265c-.089-.088-.177-.177-.354-.265l-35.475-20.436c-.885-.531-2.035-.531-2.919 0L136.144 66.55c-.089.088-.177.177-.354.265l-.265.265c-.089.088-.177.265-.265.354s-.177.177-.177.265c-.089.177-.177.265-.177.442 0 .088-.089.177-.089.265-.089.265-.089.531-.089.796v38.748l-29.547 16.986V49.033c0-.265 0-.531-.088-.796 0-.088-.088-.177-.088-.265-.088-.177-.088-.354-.177-.442s-.177-.177-.177-.265c-.088-.088-.177-.265-.265-.354l-.265-.265c-.088-.088-.177-.177-.354-.265L68.203 26.12c-.885-.531-2.035-.531-2.919 0L29.808 46.556c-.088.088-.177.177-.354.265l-.265.265c-.088.088-.177.265-.265.354s-.177.177-.177.265c-.088.177-.177.265-.177.442 0 .088-.088.177-.088.265-.088.265-.088.531-.088.796v121.37c0 1.062.531 2.035 1.504 2.565l70.862 40.783c.177.089.354.177.442.177s.177.089.265.089c.265.089.531.089.796.089s.531 0 .796-.089c.088 0 .088-.089.177-.089.177-.089.354-.089.531-.177l70.862-40.783c.885-.531 1.504-1.504 1.504-2.565v-38.748l33.971-19.551c.885-.531 1.504-1.504 1.504-2.566V69.11c-.177-.265-.265-.531-.265-.708zM102.09 167.05l-29.459-16.72 30.963-17.87 33.971-19.551 29.547 16.985-21.674 12.385zm67.942-75.816v33.618l-12.385-7.166-17.162-9.908V74.16l12.385 7.166zm3.008-39.102l29.547 16.985-29.547 16.985-29.547-16.985zM82.008 138.21l-12.385 7.166V71.152l17.162-9.908 12.385-7.166v74.135zM66.703 32.05L96.25 49.035 66.703 66.109 37.156 49.124zM34.148 54.167l12.385 7.166 17.162 9.908v79.266c0 .089 0 .265.088.354 0 .177 0 .265.088.442 0 .089.088.265.177.354s.088.265.177.354l.265.265c.088.089.177.177.265.354.088.089.177.177.265.177a1.22 1.22 0 0 0 .354.265l33.794 19.109v33.971l-65.023-37.422zm135.89 114.57l-65.023 37.422v-33.971l48.126-27.513 16.897-9.643zm35.475-60.865l-29.547 16.986V91.24l17.162-9.908 12.385-7.166z" fill="#ff5252" stroke-width="4.802" stroke="#ff5252"/></svg>