<svg xmlns="http://www.w3.org/2000/svg" viewBox="0 0 300 300" fill="#0277bd" xmlns:v="https://vecta.io/nano"><path d="M106.192 32.75v.026l-6.327-.018c-7.537-.066-13.846 4.053-19.333 8.347-5.988 4.703-11.114 10.842-12.72 19.065-.915 4.822-.722 9.037-.722 13.248v33.184c0 11.717-4.36 20.424-10.274 26.123-3.331 3.3-10.442 6.313-18.529 9.037v14.99c7.167 1.976 14.067 4.651 17.894 8.048 6.336 5.535 10.902 13.499 10.902 23.904v38.754c0 12.875 3.072 22.682 12.007 29.409s19.351 10.067 31.244 10.392l7.959-.053v-19.324c-6.208-1.817-9.657-3.925-12.144-6.31-4.475-4.053-7.009-10.635-7.009-19.777v-31.292c-.172-10.643-1.887-18.968-5.764-24.992-3.876-6.01-11.44-11.281-22.695-15.822C83.103 144 91.437 136.581 95.687 127.43c2.504-5.443 3.454-12.782 3.454-22.012V76.726c0-9.478 2.2-16.117 6.01-19.909 2.068-2.059 5.746-3.753 10.855-5.126l8.078.056V32.749H106.19v.001zm87.611 0v.026l6.327-.018c7.537-.066 13.846 4.053 19.333 8.347 5.988 4.703 11.114 10.842 12.72 19.065.915 4.822.722 9.037.722 13.248v33.184c0 11.717 4.36 20.424 10.274 26.123 3.331 3.3 10.442 6.313 18.529 9.037v14.99c-7.167 1.976-14.067 4.651-17.894 8.048-6.336 5.535-10.902 13.499-10.902 23.904v38.754c0 12.875-3.072 22.682-12.008 29.409s-19.351 10.067-31.244 10.392l-7.959-.053v-19.324c6.208-1.817 9.657-3.925 12.144-6.31 4.475-4.053 7.009-10.635 7.009-19.777v-31.292c.172-10.643 1.887-18.968 5.764-24.992 3.876-6.01 11.44-11.282 22.695-15.822-12.421-5.689-20.755-13.108-25.005-22.259-2.504-5.443-3.454-12.782-3.454-22.012V76.726c0-9.478-2.2-16.117-6.01-19.909-2.068-2.059-5.746-3.753-10.855-5.126l-8.078.056V32.749h17.894v.001z"/></svg>