<svg xmlns="http://www.w3.org/2000/svg" width="24" height="24" xmlns:v="https://vecta.io/nano"><path d="M12 2A10.01 10.01 0 0 0 2 12a10.01 10.01 0 0 0 10 10 10.01 10.01 0 0 0 10-10A10.01 10.01 0 0 0 12 2zm0 1.619A8.38 8.38 0 0 1 20.381 12c0 3.307-1.916 6.156-4.695 7.52l-.17.021-.318.01-.449-.021a4.52 4.52 0 0 1-.445-.068l-.436-.109a4.47 4.47 0 0 1-.42-.156l-.406-.193a4.51 4.51 0 0 1-.383-.236c-.124-.085-.241-.175-.355-.271a4.49 4.49 0 0 1-.33-.305c-.104-.108-.204-.222-.297-.34s-.181-.239-.262-.365-.155-.255-.223-.389a4.53 4.53 0 0 1-.184-.412 4.45 4.45 0 0 1-.143-.424 4.51 4.51 0 0 1-.098-.439l-.055-.445-.012-.318a4.49 4.49 0 0 1 .021-.449c.015-.149.041-.298.07-.445s.065-.292.109-.436a4.49 4.49 0 0 1 .35-.826c.072-.132.152-.259.236-.383a4.49 4.49 0 0 1 .271-.357l.145-.164s.097-.103.145-.16c.097-.115.187-.236.271-.359a4.49 4.49 0 0 0 .234-.383l.197-.404a4.48 4.48 0 0 0 .152-.422 4.5 4.5 0 0 0 .111-.436l.068-.445s.021-.299.021-.449l-.012-.316a4.52 4.52 0 0 0-.055-.447 4.47 4.47 0 0 0-.098-.437l-.141-.428a4.51 4.51 0 0 0-.186-.41 4.5 4.5 0 0 0-.223-.391c-.081-.126-.169-.248-.262-.365s-.192-.228-.297-.336-.213-.212-.328-.309a4.48 4.48 0 0 0-.357-.271 4.47 4.47 0 0 0-.383-.232 4.54 4.54 0 0 0-.406-.197c-.138-.058-.277-.108-.42-.152a4.51 4.51 0 0 0-.436-.113c-.147-.03-.296-.051-.445-.066s-.299-.023-.449-.023l-.234.01c1.098-.528 2.324-.832 3.625-.832zm1.531 2.785c.726.994 1.338 1.814 1.471 2.916.175 1.459-1.617 5.156-2.334 6.219h1.465c.517-.801 1.653-3.25 1.986-4.266.383.696 1.297 3.367 1.504 4.266h1.334c-.506-1.959-1.515-5.041-3.953-9.092 0 0-.989-.043-1.473-.043zM5.008 8.461h1.334c.207.899 1.121 3.57 1.504 4.266.334-1.016 1.47-3.464 1.986-4.266h1.465c-.716 1.063-2.51 4.76-2.334 6.219.133 1.102.745 1.922 1.471 2.916-.483 0-1.473-.043-1.473-.043-2.438-4.05-3.447-7.133-3.953-9.092z" fill="#ef5350"/></svg>