<svg xmlns="http://www.w3.org/2000/svg" width="151.181" height="151.181" viewBox="0 0 40 40" fill="#317eac" xmlns:v="https://vecta.io/nano"><path d="M5.419 3.18h3.685v34.207H5.419z"/><path d="M37.074 31.2v3.685H2.867V31.2z"/><path d="M29.614 8.66l2.005 2.005L7.43 34.853l-2.005-2.005z"/><path d="M10.73 5.47h2.835v22.08H10.73zm4.63.05h2.835v17.382H15.36zm4.63-.05h2.835v12.802H19.99zm4.536.02h2.835v8.254h-2.835z"/><path d="M28.783 5.46h2.835v5.197h-2.835zm6.018 24.08v-2.835h-22.08v2.835zm-.048-4.63v-2.835H17.371v2.835zm.048-4.63v-2.835H21.999v2.835z"/><path d="M34.781 15.75v-2.835h-8.254v2.835zm.028-4.26V8.655h-5.197v2.835z"/></svg>