<svg xmlns="http://www.w3.org/2000/svg" viewBox="0 0 24 24" xmlns:v="https://vecta.io/nano"><path d="M12 7.687l-1.35.091c-.873-1.035-3.318-3.643-5.754-3.643 0 0-1.999 3.004-.041 7.013-.558.842-.903 1.279-.974 2.283l-1.959.294.213.995 1.786-.264.142.721-1.593.954.477.903 1.472-.903c1.167 2.476 4.12 3.735 7.581 3.735s6.414-1.258 7.581-3.735l1.471.903.477-.903-1.593-.954.142-.721 1.786.264.213-.995-1.959-.294c-.071-1.005-.416-1.441-.974-2.283 1.959-4.009-.041-7.012-.041-7.012-2.436 0-4.881 2.608-5.754 3.643L12 7.687m-3.045 3.044a1.015 1.015 0 1 1 0 2.03 1.015 1.015 0 0 1 0-2.03m6.089 0a1.015 1.015 0 1 1 0 2.03 1.015 1.015 0 1 1 0-2.03m-4.059 3.044h2.03l-.71 1.411c.203.649.771 1.127 1.472 1.127a1.522 1.522 0 0 0 1.522-1.522h.507a2.03 2.03 0 0 1-2.03 2.03A2.07 2.07 0 0 1 12 15.806a2.07 2.07 0 0 1-1.776 1.015 2.03 2.03 0 0 1-2.03-2.03h.507a1.522 1.522 0 0 0 1.522 1.522c.7 0 1.268-.477 1.472-1.126z" fill="#ef5350"/></svg>