<svg xmlns="http://www.w3.org/2000/svg" viewBox="0 0 24 24" xmlns:v="https://vecta.io/nano"><circle cx="12" cy="12" r="10.322" fill="none" stroke="#42a5f5"/><g fill="#42a5f5" fill-rule="evenodd"><path d="M12.127 5.644c-3.58 0-6.482 2.857-6.482 6.381s2.902 6.381 6.482 6.381c1.72 0 3.369-.672 4.585-1.868a6.33 6.33 0 0 0 1.899-4.512 6.33 6.33 0 0 0-1.899-4.512c-1.216-1.197-2.865-1.869-4.585-1.868zm1.859 1.916a2.35 2.35 0 0 1 1.648.671c.437.43.682 1.013.682 1.622-.001 1.266-1.044 2.292-2.33 2.291s-2.327-1.026-2.328-2.291S12.7 7.561 13.986 7.56z"/><ellipse cx="19.428" cy="4.513" rx="2.329" ry="2.293"/></g></svg>