<svg xmlns="http://www.w3.org/2000/svg" viewBox="0 0 24 24" xmlns:v="https://vecta.io/nano"><path d="M3.403 2.47a2.061 2.061 0 0 0-2.06 2.061v12.363a2.06 2.06 0 0 0 2.061 2.061h7.982l1.759 1.654a.31.31 0 0 0 .398.02l1.27-1.024c.389.147.769.226 1.167.266l.686 1.489c.064.127.217.205.362.157l2.334-.704c.145-.048.237-.188.215-.334l-.245-1.62c.151-.126.297-.256.435-.402s.262-.307.386-.475l1.62.157a.31.31 0 0 0 .322-.235l.553-2.374a.3.3 0 0 0-.179-.352l-1.525-.596c-.069-.391-.166-.767-.342-1.141l.942-1.334a.31.31 0 0 0-.046-.396l-1.61-1.509V4.531a2.06 2.06 0 0 0-2.061-2.06zm0 4.121h14.423v4.383c-.311-.1-.621-.168-.94-.203l-.69-1.483c-.06-.132-.219-.205-.364-.157l-2.334.704a.3.3 0 0 0-.215.334l.26 1.606-.449.417c-.138.147-.258.302-.374.461l-1.632-.143a.3.3 0 0 0-.32.235l-.555 2.374c-.038.148.048.296.179.352l1.529.59c.046.285.123.561.221.833H3.403zm12.991 6.596a2.136 2.136 0 0 1 1.594 3.598 2.136 2.136 0 0 1-3.115-2.924 2.136 2.136 0 0 1 1.521-.674z" fill="#ef5350"/></svg>