<svg xmlns="http://www.w3.org/2000/svg" width="24" height="24" preserveAspectRatio="xMidYMid" xmlns:v="https://vecta.io/nano"><path d="M4.002 5.519L2.026 8.728.063 11.941l.002.002-.002.002 1.964 3.211 1.976 3.211h3.33l-1.974-3.211-1.962-3.213 1.962-3.215 1.974-3.209z" fill="#2196f3"/><path d="M3.999 5.519l-.002.002 1.964 3.212 1.974 3.21h3.331l-1.974-3.21-1.961-3.214z" fill="#26a69a"/><path d="M15.203 5.519l.002.002-1.964 3.212-1.974 3.21H7.935l1.974-3.21 1.961-3.214z" fill="#8bc34a"/><path d="M11.874 5.519l1.974 3.209 1.962 3.215-1.962 3.213-1.974 3.209h3.33l1.974-3.209 1.966-3.211-.002-.002.002-.002-1.966-3.213-1.974-3.209z" fill="#ffc107"/><path d="M16.74 5.519l1.974 3.209 1.96 3.215-1.96 3.213-1.974 3.211h3.33l1.974-3.211 1.966-3.211-.002-.002.002-.002-1.966-3.213-1.974-3.209z" fill="#f44336"/></svg>