<svg xmlns="http://www.w3.org/2000/svg" viewBox="0 0 23 24" xmlns:v="https://vecta.io/nano"><path d="M11.498 1.525l-.073.025-.46.794-.454.763-1.217 2.089h-.018L5.421 3.501l-.1-.047h-.018v.092l.025.163v.086l.132 1.226v.082l.032.252v.082l.22 2.137v.075l.018.082v.06l-2.348.507-.04.015-.457.1-.025.01h-.042l-1.096.245-.04.007-.17.035v.082l.018.01 1.859 2.086.053.053.114.132.804.908v.006l-.053.05-.22.256-2.565 2.876-.01.007v.082l.072.006.294.075 1.698.366v.006l2.139.472h.015v.047l-.035.252v.081l-.047.412v.082l-.035.245v.082l-.045.412v.081l-.05.409v.081l-.037.245v.082l-.045.412v.082l-.05.407v.082l-.032.248v.082l-.05.407v.104h.037l3.642-1.6.294-.135h.018l.177.312.539.911.015.032.854 1.465.16.262.404.694.007.022h.092l.004-.022.018-.025.56-.946.015-.042.599-1.033.316-.539.645-1.091.05.013 3.905 1.721h.035v-.085l-.138-1.32v-.082l-.032-.245V18.7l-.035-.245v-.085l-.032-.245v-.081l-.032-.245v-.082l-.032-.245v-.085l-.035-.245v-.082l-.032-.245v-.082l-.032-.245v-.085l-.025-.17v-.053l1.632-.354.042-.007.459-.107h.028v-.01l.23-.05.029-.01h.042l.382-.089.025-.01h.042l.195-.05h.032l1.015-.23.07-.007v-.064l-.015-.013-1.191-1.342-.028-.028-.196-.22-1.428-1.604v-.006l.294-.324.4-.457 2.149-2.408.015-.01v-.064l-.035-.007-1.288-.28-.372-.085-.047-.01-2.481-.543v-.045l.432-4.264v-.021h-.042l-.302.135-.01.015h-.025l-3.306 1.45-.297.135h-.015L11.67 1.712l-.098-.145-.015-.045zm-.002 1.113l1.365 2.323.34.592-.007.025-1.181 1.512-.517.659-.012-.01-.258-.334-.04-.05L9.79 5.568l.029-.063 1.378-2.366.287-.491zm4.909 2.039l-.007.025-.168.226-.538.066zm-9.817.004l.053.021.677.299h-.498l-.224-.299zm10.345.319l-.123 1.248-.113-.927.226-.308zm-9.259.157l.053.023.705.309-.757-.174zm7.387.116l.021.168-1.318.403.003-.003.16-.072 1.015-.444zM9.655 6.39l.943 1.204v.01l-1.129-.403zm3.549.171l.209.683-.233.083-.089.022-.702.255.007-.022.776-.981zm-4.999.836l.986.356.898.312.048.021 1.053.372.012 3.086-.362-.117-.671-.224-.081-.038-.735-.245-.769-.256-.291-.1-.01-.255-.032-1.195-.01-.287-.015-.894-.013-.297zm6.583 0l-.012.227-.028.901-.007.302-.032 1.475-.01.262-.337.117-.734.245-.77.256-.712.245-.354.117.01-3.086 1.632-.577zm.584.437l.089.735.791-.097-.916 1.302-.018.006.01-.183.018-.877zm-9.451.536l.152.22 1.447 2.049-2.607.968-.05.015-1.972-2.213-.28-.312.003-.01.114-.018.425-.1.139-.022.337-.078.042-.01zm11.146.003l3.284.713.029.01-.022.025-1.954 2.191-.277.312-.092-.035-2.563-.951.475-.681.152-.215zm-10.295.149h.861l.035 1.258-.013-.006-.763-1.078zm1.358 2.625l.152.06.77.252.712.245.746.248.489.167-.064.092-1.723 2.334-1.015-.302-.082-.018-.035-.015-1.901-.56.938-1.22.981-1.277zm6.731 0l.032.006 1.787 2.328.132.17-.127.035-.032.015-2.196.642-.105.032-.564.17-.018-.003-1.053-1.44-.174-.239-.546-.727-.007-.018.469-.16.769-.255.713-.245.769-.252zm-7.766.305l-.007.021-.404.523-.292-.291.658-.245zm8.802 0l.042.007.579.212.713.27-.661.394-.375-.479-.029-.042-.262-.341zm-10.843.75l-.669.668.354-.397.207-.23zm12.911.016l.067.025.045.042.554.627.042.042.204.229-.255.135zm-6.473.265l.022.015 1.38 1.872.032.05.343.466.007.031-.088.117-.422.628-.047.075-.245.343-.971 1.43-.012.007-1.181-1.72-.095-.16-.494-.709-.007-.037 1.617-2.191.007-.01zm7.827 1.194l.565.633.063.082-.272-.092-.037-.013zm-15.785.148l.297.299-.637.218-.152.05.038-.057zm13.225.47l-.855.448.346.659-.185-.057-.27-.088-1.093-.349.012-.01zm-9.687.255l1.222.356-.006.007-.458.145-.442.135-.032.01-.491.157zm-2.766.048l.318.319 2.007.517-.567.18-.054.004-2.103-.469-.744-.157.007-.006zm14.966.205l.548.188v.003l-.457.1-.042.015-1.069.23zm-10.231.507l.007.227.01.347.025 1.362.025.691-.007.255-.24.107-2.862 1.255.032-.372.032-.255.018-.227.031-.256.037-.407.045-.419.018-.23.032-.252.032-.412.05-.415.013-.139 1.455-.457.003-.015.302-.098zm4.909 0l1.245.39v.015l.312.1 1.146.362.022.23.031.255.042.409.04.419.018.23.032.252.032.412.042.325.078.848-.078-.04-3.025-1.323-.004-.305.06-2.369zm-4.295.617l.015.007.067.107.599.875-.639.532-.035-1.439zm3.671 0h.007l-.004.06-.021.678-.004.214-.479-.223zm-2.889 3.605l.763.916.002.371-.018-.007-.025-.05-.464-.791-.012-.018zm1.531.609l.183.084-.343.586-.018.007.002-.532z" fill="#f44336" fill-rule="evenodd" stroke="#f44336" stroke-linejoin="round" stroke-width=".775"/></svg>