<svg xmlns="http://www.w3.org/2000/svg" viewBox="0 0 18 18" xmlns:v="https://vecta.io/nano"><path d="M9.06 1.534c-4.627 2.641-7.5 7.588-7.526 12.962 4.841 2.668 10.525 2.577 14.93.028l.002-.039C16.46 9.14 13.637 4.203 9.06 1.533zm2.491 5.722c.686.471.584 1.606.474 2.382-.141.856-.952 2.262-2.007 3.18.136.198.216.441.215.701-.653.334-1.302-.043-2.086-.722s-1.63-2.039-1.911-3.437a1.12 1.12 0 0 1-.723-.169c.057-.784.88-1.249 1.609-1.524s2.608-.368 3.933.108c.103-.219.274-.404.494-.52z" fill="#3f51b5"/></svg>