<svg xmlns="http://www.w3.org/2000/svg" width="120" height="120" xmlns:v="https://vecta.io/nano"><g transform="matrix(.802594 0 0 .802594 9.942646 14.252775)"><g fill="#ff5722"><path d="M14.5 0h57.3c8 0 14.5 6.5 14.5 14.5S79.8 29 71.8 29H14.5C6.5 29 0 22.5 0 14.5S6.5 0 14.5 0z"/><ellipse cx="109.2" cy="14.5" rx="14.8" ry="14.5"/><path d="M52.6 43.3h56.6c8-.6 14.9 5.5 15.5 13.5s-5.5 14.9-13.5 15.5h-1.4-57.2c-8 .6-14.9-5.5-15.5-13.5s5.5-14.9 13.5-15.5H52z"/></g><path d="m14.8 43c8.2 0 14.8 6.6 14.8 14.8s-6.6 14.8-14.8 14.8c-8.2-.1-14.8-6.7-14.8-14.8 0-8.2 6.6-14.8 14.8-14.8z" fill="#ff1744"/><g fill="#ff5722"><path d="M14.5 85h57.3c8 0 14.5 6.5 14.5 14.5S79.8 114 71.8 114H14.5C6.5 114 0 107.5 0 99.5S6.5 85 14.5 85z"/><ellipse cx="109.2" cy="99.5" rx="14.8" ry="14.5"/></g></g></svg>