<svg xmlns="http://www.w3.org/2000/svg" width="192" height="192" fill="#a1887f" xmlns:v="https://vecta.io/nano"><path d="M146.156 74.096c0-2.418-1.934-4.835-4.835-4.835H50.423c-2.418 0-4.835 1.934-4.835 4.835 0 16.439 2.418 73.008 26.593 100.568.967.967 1.934 1.45 3.385 1.45h40.614c1.45 0 2.418-.483 3.385-1.45 24.175-27.076 26.593-83.645 26.593-100.568zm-35.779 87.997H81.85c-1.45 0-2.417-.483-3.385-1.45-16.439-19.34-18.373-58.02-18.857-71.558 0-2.418 1.934-4.835 4.835-4.835h63.822c2.418 0 4.835 1.934 4.835 4.835 0 13.538-2.417 51.735-18.857 71.558-1.45.967-2.417 1.45-3.868 1.45zm-5.319-102.502s17.406-10.153 6.769-28.526c-6.285-9.67-9.187-17.889-6.769-21.274-6.286 7.736-16.923 15.956-5.318 33.362 3.868 4.351 5.802 13.538 5.318 16.439zm-19.34 1.45s11.604-6.769 4.352-19.34c-4.352-6.286-6.285-12.087-4.352-14.022-4.351 5.319-11.12 10.637-3.385 22.724 2.418 2.418 3.385 8.703 3.385 10.637zm39.648 56.087c-1.934 13.055-5.802 28.043-14.022 37.713-.967.967-1.934 1.45-2.901 1.45H84.268c-.967 0-2.417-.483-2.901-1.45-5.802-7.252-9.67-16.923-12.088-27.076 0 0 28.043 3.868 43.998-1.934 11.604-4.352 12.088-8.703 12.088-8.703z"/></svg>