<svg xmlns="http://www.w3.org/2000/svg" viewBox="0 0 300 300" xmlns:v="https://vecta.io/nano"><path d="M172.381 24.409c-1.792 0-3.499.427-5.036.939 3.329 2.219 5.121 5.121 6.06 8.45l.256 1.195c.085.427.171.768.171 1.195.256 5.719-1.536 6.401-2.731 9.815-1.878 4.353-1.366 9.047.939 12.803a8.08 8.08 0 0 0 .768 1.451c-2.475-16.473 11.266-18.948 13.827-24.069.171-4.524-3.499-7.511-6.401-9.559-2.987-1.707-5.548-2.219-7.852-2.219zm20.655 3.67c-.256 1.536-.085 1.11-.171 1.878-.085.512-.085 1.195-.171 1.707-.171.512-.256 1.024-.427 1.536l-.512 1.536c-.256.512-.427.939-.683 1.536l-.512.768c-.171.171-.256.427-.427.597-.341.427-.683.939-.939 1.28-.427.427-.683.854-1.195 1.195v.085c-.427.341-.768.683-1.195 1.024-1.366 1.024-2.902 1.792-4.353 2.817-.427.341-.939.597-1.28.939-.427.341-.854.683-1.195 1.024l-1.195 1.195c-.341.427-.683.854-.939 1.28-.341.427-.683.939-.939 1.366-.256.512-.427.939-.683 1.536-.171.512-.427.939-.512 1.536-.171.597-.341 1.11-.427 1.622-.085.256-.085.597-.171.854s-.085.512-.171.768c0 .512-.085 1.11-.085 1.622 0 .427 0 .768.085 1.195 0 .512.085 1.024.171 1.622.085.512.171 1.024.341 1.536l.512 1.536c.171.341.341.683.427.939l-14.937-5.804-7.511-1.963c-1.366-.341-2.731-.683-4.097-.939-3.926-.768-7.852-1.366-11.864-1.792-.171 0-.171-.085-.341-.085-3.926-.427-7.767-.597-11.608-.597-2.902 0-5.719.171-8.535.341-3.926.256-7.938.768-11.864 1.451l-2.902.512-5.889 1.28-2.902.768c-.939.427-1.878.854-2.817 1.195a23.2 23.2 0 0 1-2.134.939c-.171.085-.256.085-.341.171-.683.341-1.195.597-1.792.939-.171.085-.341.171-.427.171-.683.341-1.451.683-2.048 1.024-.427.171-.939.427-1.28.683-.171.171-.427.256-.597.341-.597.341-1.195.683-1.707.939-.597.341-1.11.683-1.536.939-.427.341-.939.597-1.28.939-.085.085-.171.085-.171.171-.427.256-.854.597-1.195.939l-.171.171c-.341.256-.683.512-.939.768-.171.085-.256.171-.427.256-.341.256-.683.597-.939.854-.085.171-.171.171-.256.256-.427.427-.768.683-1.195 1.11-.085 0-.085.085-.171.171-.427.341-.768.683-1.195 1.11-.085.085-.085.171-.171.171-.341.341-.683.683-.939 1.024-.171.171-.341.256-.427.427-.341.427-.683.768-1.11 1.195-.085.171-.171.171-.256.341-.512.512-.939 1.024-1.536 1.536l-.171.171c-1.024 1.11-2.134 2.219-3.329 3.158-1.195 1.024-2.39 2.048-3.67 2.902-1.28.939-2.561 1.707-3.926 2.475-1.28.683-2.646 1.366-4.097 1.963-1.366.597-2.817 1.11-4.268 1.536-2.731.597-5.548 1.707-7.938 1.878-.512 0-1.11.171-1.622.171-.597.171-1.11.256-1.622.427s-1.024.427-1.536.597-1.024.427-1.536.683c-.427.341-.939.597-1.451.939-.427.341-.939.683-1.28 1.11-.427.341-.939.768-1.28 1.195-.427.427-.768.854-1.11 1.28-.341.512-.683.939-.939 1.536-.341.427-.683.939-.939 1.536s-.512 1.11-.683 1.707c-.171.512-.427 1.11-.597 1.707-.171.512-.256 1.024-.341 1.536 0 .085-.085.171-.085.171-.171.597-.171 1.366-.171 1.792-.085.427-.171.854-.171 1.28 0 .256 0 .597.085.854l.256 1.195c.171.427.256.768.427 1.195v.085c.171.427.427.768.683 1.195s.512.768.854 1.195c.341.341.683.683 1.11 1.024.427.427.768.683 1.195 1.024 1.536 1.366 1.963 1.792 3.926 2.902l1.024.512c.085 0 .171.085.171.085a.51.51 0 0 0 .085.341c.085.512.171 1.024.341 1.536.171.597.341 1.11.512 1.536s.341.768.512 1.195c.085.171.171.256.171.341.256.512.512.939.768 1.451.341.427.683.939.939 1.366.341.427.683.854 1.11 1.195.427.427.768.683 1.195 1.11 0 0 .085.085.171.085.427.341.768.683 1.195.939.427.341.939.597 1.451.854.427.256.939.512 1.536.683.427.171.854.341 1.28.427.085.085.171.085.256.171.256.085.597.171.854.171-.171 3.499-.256 6.828.256 8.023.597 1.28 3.414-2.646 6.316-7.255-.427 4.524-.683 9.73 0 11.352s4.609-3.414 8.023-9.047c46.09-10.669 88.169 21.167 92.607 66.233-.854-6.999-9.474-10.925-13.486-9.986-1.963 4.78-5.292 11.01-10.584 14.851.427-4.268.256-8.706-.683-12.974-1.451 5.975-4.268 11.608-8.023 16.388-6.145.427-12.376-2.561-15.619-6.999-.256-.171-.341-.597-.512-.854-.171-.427-.427-.939-.512-1.366a8.39 8.39 0 0 1-.427-1.366c-.085-.427-.085-.939-.085-1.451v-.939c.085-.427.171-.939.341-1.366s.256-.939.427-1.366c.256-.427.427-.939.768-1.366 1.11-3.158 1.11-5.633-.939-7.17-.427-.256-.768-.427-1.195-.683-.256-.085-.597-.171-.854-.256-.171-.085-.341-.171-.512-.171-.427-.171-.939-.256-1.366-.341-.427-.171-.939-.171-1.366-.171-.427-.085-.939-.171-1.451-.171-.341 0-.683.085-.939.085-.512 0-.939.085-1.451.171l-1.366.256c-.427.171-.939.256-1.366.427s-.854.427-1.28.597-.768.427-1.195.683c-15.193 9.901-6.145 33.031 4.268 39.689-3.926.683-7.852 1.536-8.962 2.39l-.171.171c2.817 1.707 5.719 3.158 8.791 4.353 4.182 1.366 8.621 2.561 10.498 3.158v.085c5.377 1.11 10.84 1.536 16.388 1.195 28.764-2.048 52.406-23.899 56.674-52.833.171.597.256 1.11.427 1.707.171 1.195.427 2.39.597 3.67v.085c.171.597.171 1.195.256 1.707v.256c.085.597.171 1.195.171 1.707.085.683.171 1.451.171 2.134v1.024c0 .341.085.683.085 1.024 0 .427-.085.768-.085 1.195v.939c0 .427-.085.854-.085 1.28 0 .256 0 .512-.085.854 0 .427-.085.939-.085 1.451-.085.171-.085.427-.085.597-.085.512-.171.939-.171 1.536 0 .171 0 .427-.085.597l-.256 1.878v.171c-.171.597-.256 1.195-.427 1.792v.171c-.171.597-.256 1.195-.427 1.792 0 .085-.085.171-.085.256-.171.597-.256 1.195-.427 1.792v.171c-.171.683-.427 1.195-.512 1.792-.085.085-.085.171-.085.171-.171.683-.427 1.28-.597 1.963l-.683 1.878c-.256.683-.427 1.28-.683 1.878-.256.683-.512 1.195-.768 1.878h-.085c-.256.597-.512 1.195-.854 1.792-.085.171-.171.341-.171.427-.085.085-.085.171-.171.171-4.268 8.535-10.498 15.961-18.265 21.85-.512.341-1.024.683-1.536 1.11-.171.171-.341.171-.427.341-.427.341-.939.683-1.451.939l.171.427h.085c.939-.171 1.792-.256 2.731-.427h.085c1.707-.256 3.414-.597 5.036-.939.427-.085.939-.171 1.451-.341.341-.085.597-.171.939-.171l1.366-.256c.427-.171.768-.171 1.195-.341 6.487-1.536 12.803-3.67 18.863-6.231-10.328 14.083-24.155 25.52-40.371 32.946 7.511-.512 14.937-1.792 22.192-3.841 26.203-7.767 48.224-25.35 61.453-49.077-2.646 15.022-8.621 29.361-17.497 41.822 6.316-4.182 12.12-8.962 17.326-14.424 14.595-15.193 24.155-34.568 27.398-55.308 2.219 10.242 2.902 20.911 1.878 31.324 46.944-65.465 3.926-133.405-14.083-151.244-.085-.171-.171-.171-.171-.341-.085.085-.085.085-.085.171 0-.085 0-.085-.085-.171 0 .768-.085 1.536-.171 2.305-.171 1.536-.427 2.902-.683 4.353-.341 1.451-.683 2.902-1.11 4.268s-.939 2.817-1.536 4.182c-.597 1.28-1.195 2.646-1.963 3.926-.683 1.195-1.536 2.561-2.305 3.67-.854 1.195-1.792 2.39-2.646 3.499-.939 1.195-2.048 2.219-3.073 3.243-.683.597-1.195 1.11-1.878 1.622-.512.427-.939.854-1.536 1.28-1.195.939-2.305 1.792-3.67 2.561-1.195.768-2.561 1.536-3.841 2.219-1.366.683-2.731 1.195-4.097 1.792-1.366.512-2.817.939-4.268 1.366s-2.902.683-4.353.939c-1.536.256-2.987.427-4.438.512-1.024.085-2.048.171-3.158.171-1.536 0-2.987-.171-4.438-.256-1.536-.171-2.987-.341-4.438-.683-1.536-.256-2.902-.683-4.353-1.11h-.085c1.451-.171 2.902-.256 4.268-.512 1.536-.256 2.902-.597 4.353-.939 1.451-.427 2.902-.854 4.268-1.366 1.451-.512 2.817-1.195 4.097-1.792 1.366-.683 2.561-1.366 3.926-2.134l3.67-2.561c1.195-.939 2.305-1.878 3.329-2.902 1.11-.939 2.048-2.048 3.073-3.158.939-1.195 1.878-2.305 2.731-3.499.171-.171.256-.427.427-.683.683-1.024 1.28-2.048 1.878-3.158.683-1.28 1.366-2.561 1.963-3.926s1.11-2.731 1.536-4.182c.427-1.366.768-2.817 1.11-4.268.256-1.536.512-2.902.683-4.353.171-1.536.256-2.987.256-4.438 0-1.024-.085-2.048-.171-3.158l-.512-4.353c-.256-1.536-.597-2.902-.939-4.353a81.02 81.02 0 0 0-1.451-4.182c-.512-1.366-1.195-2.731-1.792-4.012-.683-1.28-1.451-2.561-2.219-3.841l-2.561-3.585c-.939-1.11-1.963-2.219-2.987-3.329-.512-.512-1.11-1.11-1.707-1.622-2.902-2.305-5.975-4.438-9.047-6.401-.427-.256-.854-.427-1.28-.683-2.048-1.536-4.012-2.219-6.06-2.902z" fill="#ffca28"/></svg>