<svg xmlns="http://www.w3.org/2000/svg" viewBox="0 0 40 40" xmlns:v="https://vecta.io/nano"><path d="M27.84 14.658l-.013-.005c-.007-.003-.015-.005-.021-.012a.1.1 0 0 1-.025-.085l.704-4.304 3.302 3.303-3.434 1.461a.076.076 0 0 1-.03.005h-.014c-.005-.003-.009-.006-.018-.015a1.563 1.563 0 0 0-.451-.347zm4.789-.262l3.53 3.53c.733.734 1.1 1.1 1.234 1.525.02.063.036.126.049.19l-8.437-3.573a.663.663 0 0 0-.014-.005c-.034-.014-.073-.029-.073-.064s.04-.051.074-.065l.011-.005zm4.67 6.378c-.182.342-.537.698-1.139 1.3l-3.98 3.979-5.148-1.072-.027-.005c-.046-.007-.094-.015-.094-.056a1.554 1.554 0 0 0-.597-1.087c-.021-.021-.015-.054-.009-.084l.97-5.957.004-.02c.005-.046.014-.098.055-.098a1.576 1.576 0 0 0 1.056-.606c.008-.009.014-.019.025-.025.029-.014.064 0 .094.013l8.789 3.718zm-6.034 6.194l-6.545 6.545 1.12-6.886.002-.009c.001-.009.003-.018.005-.026.009-.022.033-.031.056-.04l.011-.005a1.685 1.685 0 0 0 .633-.471c.022-.025.048-.05.082-.055a.082.082 0 0 1 .026 0l4.609.947zm-7.93 7.93l-.738.738-8.156-11.788a.386.386 0 0 0-.009-.013c-.013-.017-.026-.035-.024-.055.001-.015.01-.027.02-.038l.009-.012.068-.112.018-.032.003-.003c.013-.022.025-.043.046-.055s.046-.005.066-.001l9.036 1.863a.149.149 0 0 1 .069.03c.012.012.015.025.017.039a1.6 1.6 0 0 0 .936 1.07c.025.013.015.041.003.071a.217.217 0 0 0-.014.041l-1.353 8.255zm-1.541 1.54c-.544.538-.864.823-1.227.938a1.822 1.822 0 0 1-1.098 0c-.424-.135-.791-.501-1.525-1.235l-8.191-8.191 2.14-3.318c.01-.016.02-.031.036-.043.023-.016.056-.009.083 0a2.217 2.217 0 0 0 1.492-.076c.025-.009.049-.015.068.002a.173.173 0 0 1 .025.029l8.196 11.894zM8.962 27.162l-1.879-1.879 3.711-1.583a.077.077 0 0 1 .03-.006c.031 0 .049.031.066.059a2.651 2.651 0 0 0 .118.168l.012.015c.011.015.004.031-.007.046l-2.049 3.182zm-2.711-2.711l-2.377-2.377-.902-.95 7.228 1.499a.765.765 0 0 0 .027.005c.045.007.094.015.094.057s-.054.067-.099.084l-.021.009zm-3.694-4.549a1.822 1.822 0 0 1 .082-.451c.135-.424.501-.791 1.235-1.525l3.042-3.042a1981.5 1981.5 0 0 0 4.213 6.091c.025.033.052.069.024.097-.133.147-.266.307-.36.481a.146.146 0 0 1-.046.056c-.012.007-.025.005-.038.002h-.002l-8.151-1.71zm5.173-5.832l4.09-4.09 3.035 1.288 2.082.883c.027.011.052.022.064.049.007.016.004.037 0 .055a1.824 1.824 0 0 0 .476 1.665c.027.027 0 .066-.024.1l-.013.019-4.153 6.433c-.011.018-.021.034-.039.046s-.053.007-.078.001a2.071 2.071 0 0 0-.495-.067c-.149 0-.312.027-.475.057H12.2c-.018.003-.035.006-.049-.005a.191.191 0 0 1-.041-.046zm4.917-4.917l5.295-5.295c.733-.733 1.1-1.1 1.525-1.234a1.822 1.822 0 0 1 1.098 0c.424.134.791.501 1.525 1.234l1.148 1.148-3.766 5.833a.141.141 0 0 1-.037.044c-.023.015-.055.009-.082 0a1.91 1.91 0 0 0-1.749.337c-.025.025-.061.011-.092-.003l-4.865-2.063zm11.391-3.348l3.477 3.478-.838 5.19v.014a.123.123 0 0 1-.007.035c-.009.018-.027.022-.046.027a1.667 1.667 0 0 0-.499.249.14.14 0 0 0-.018.015c-.01.011-.02.021-.036.023a.104.104 0 0 1-.039-.006l-5.299-2.251-.01-.005c-.034-.014-.074-.03-.074-.065a2.002 2.002 0 0 0-.282-.833c-.025-.042-.054-.086-.032-.128zm-3.581 7.839l4.968 2.104c.027.013.057.025.069.053a.097.097 0 0 1 0 .052c-.015.073-.027.156-.027.24v.139c0 .035-.036.049-.068.063l-.01.004-11.064 4.712c-.015 0-.032 0-.047-.015-.027-.027 0-.066.025-.1a.692.692 0 0 0 .013-.018l4.082-6.321.007-.011c.024-.038.051-.081.095-.081l.041.006.258.025c.619 0 1.193-.301 1.539-.817a.146.146 0 0 1 .031-.036c.025-.018.061-.009.089.004zm-5.689 8.366l11.185-4.77s.016 0 .032.015c.061.061.113.102.163.14l.025.015c.023.013.046.027.047.051 0 .009 0 .015-.002.023l-.958 5.886-.004.024c-.006.046-.013.097-.056.097a1.575 1.575 0 0 0-1.25.771l-.005.007c-.013.021-.025.041-.046.052s-.044.005-.064.001l-8.92-1.84c-.009-.002-.138-.473-.148-.474z" fill="#00bfa5"/></svg>