<svg xmlns="http://www.w3.org/2000/svg" fill-rule="evenodd" stroke-linejoin="round" stroke-miterlimit="2" viewBox="0 0 24 24" xmlns:v="https://vecta.io/nano"><path d="M11.801 1.442a.4.4 0 0 1 .398 0l8.884 5.106c.124.072.201.204.201.347v10.21a.4.4 0 0 1-.201.346l-8.884 5.107a.4.4 0 0 1-.398 0l-8.884-5.107a.4.4 0 0 1-.201-.346V6.895c0-.143.077-.275.201-.347l8.884-5.106zM8.976 10.18l5.531 6.625s.65.571 1.577.514c1.12-.07 1.232-1.009 1.232-1.009l.001-8.694a1.26 1.26 0 0 0-1.23-1.013c-.596-.002-1.11.416-1.232 1l.002 6.12-5.678-6.688s-.454-.512-1.516-.396c-1.044.115-1.156 1.009-1.156 1.009l.01 8.625c.099.617.621 1.061 1.232 1.06s1.131-.446 1.227-1.05z" fill="#43a047"/></svg>