<svg xmlns="http://www.w3.org/2000/svg" viewBox="0 0 500 500" xmlns:v="https://vecta.io/nano"><path d="M133.347 451.499c0-.295-2.752-5.283-6.116-11.084s-6.116-10.776-6.116-11.055 9.515-16.889 21.143-36.912l21.542-37.279c.346-.76-1.607-4.363-14.896-27.466L133.61 300.68c0-.501 24.461-43.501 25.206-44.31.414-.45.593-.384 1.079.395.32.513 16.876 29.256 36.791 63.871l75.41 130.46c.299.241.543.553.543.693s-11.836.21-26.302.154c-23.023-.089-26.313-.175-26.393-.693-.111-.715-27.662-48.825-28.859-50.392-.747-.978-.907-1.036-1.426-.51-.688.696-28.954 49.323-29.49 50.733l-.365.959h-13.229c-10.896 0-13.229-.095-13.229-.537zm167.58-125.61c-.134-.216 1.188-2.863 2.938-5.882l96.491-166.88 13.333-22.433c.363.062 25.861 43.105 25.861 43.655 0 .174-6.762 11.952-15.026 26.173-8.46 14.557-14.932 26.104-14.81 26.421.185.483 4.564.564 30.213.564h29.996l.957 1.48c.527.814 3.296 5.547 6.155 10.518s5.449 9.29 5.756 9.597c.705.705.703.724-.16 1.572-.395.388-3.36 5.323-6.587 10.965s-6.056 10.387-6.285 10.543-19.695.171-43.256.034l-42.84-.249-.803 1.149c-.442.632-7.505 12.736-15.696 26.897l-14.892 25.747h-15.486l-25.551.259c-6.549.169-10.15.122-10.308-.135zm-133.75-157.86l-102.5-.282c0-.1 5.617-10.132 12.481-22.294l12.481-22.112h30.332c27.113 0 30.332-.065 30.332-.611 0-.336-6.659-12.228-14.797-26.427l-14.797-26.04c0-.123 2.682-4.853 5.96-10.51s6.003-10.578 6.055-10.934c.086-.586 1.375-.648 13.572-.648 7.412 0 13.463.143 13.446.317s.221.707.531 1.184 9.762 16.937 21.007 36.578l21.036 36.401c.554.647 2.548.691 31.428.691h30.837l12.896 22.145 12.682 22.492c-.118.191-4.776.302-10.352.249l-112.63-.198z" fill="#5075c1"/><path d="M23.046 238.939c-6.099 10.563-6.689 11.711-6.225 12.078.283.224 3.18 5.044 6.441 10.712l6.123 10.417c.107.062 13.585.153 29.951.204l30.284.399c.473.273-1.081 3.094-14.637 26.574l-15.166 26.269 12.907 21.865 13.068 21.956c.087.05 23.257-39.831 51.492-88.624l30.371-52.442 30.729-54.132c-1.096-.11-6.141-.187-13.006-.216l-12.749-.002-25.342.093-15.419 26.706c-14.257 24.693-15.446 26.663-16.279 26.86-.001.001-.023.036-.023.036-.012.003-1.621-.001-1.825.001-4.291.061-20.453.062-40.226-.01l-42.183-.096c-.568.03-1.148-.03-1.29-.132s-3.29 5.066-6.996 11.485zm205.16-190.3c-.123.149 5.619 10.392 12.761 22.763l96.276 167c1.502 2.613 2.919 4.803 3.443 5.348.9-1.249 3.532-5.63 7.954-13.219l10.049-17.76 6.606-11.443c.692-1.403.753-1.818.653-2.117-.162-.48-6.904-12.332-14.982-26.337l-14.991-26.32a.73.73 0 0 1-.009-.366l-.426-.913 21.636-36.976 9.471-16.29c9.158-15.948 12.036-21.189 11.895-21.55-.126-.324-2.7-4.831-5.721-10.017l-6.275-11.026c-.483-.987-.734-1.364-1.099-1.456-.054.014-.083.018-.145.034-.42.112-5.455.196-11.189.186s-11.22.023-12.188.072l-1.76.089-14.998 25.978c-12.824 22.212-15.084 25.964-15.595 25.883-.024-.004-.149-.188-.235-.301-.109.067-.201.091-.271.05-.256-.148-7.144-11.901-15.306-26.118L279.4 48.817l-.458-.752c-.476-.275-50.502.286-50.737.569zm-18.646 283.09c-.047.109-.026.262.042.481.328 1.05 25.338 43.734 25.772 43.984.206.119 14.178.239 31.05.267 26.651.043 30.749.151 31.234.832.307.431 9.988 17.214 21.513 37.296l21.394 36.767c.242.14 5.927.243 12.633.23s12.401.099 12.657.246c.131.076.382-.141.851-.795l6.008-10.406c5.234-9.066 6.62-11.684 6.294-11.888-.575-.361-15.597-26.643-23.859-41.482l-5.441-9.774c-.195-.712-.065-.822 1.156-.98 1.956-.252 57.397-.057 58.071.204.237.092.789-.568 2.593-3.497 1.866-3.067 5.03-8.524 11.001-18.866l12.941-22.843c-.102-.059-.771-.051-1.489.016-.001 0-.045.001-.046.001-4.452.204-33.918.203-149.74.025l-71.912-.072c-1.121.01-2.095.075-2.661.172a.25.25 0 0 0-.061.083z" fill="#7db7e1"/></svg>