<svg xmlns="http://www.w3.org/2000/svg" width="300" height="300" viewBox="0 0 225 225" xmlns:v="https://vecta.io/nano"><defs><clipPath id="A"><path d="M239.03 226.6l-42.13 24.317c-1.578.91-2.546 2.59-2.546 4.406v48.668c0 1.817.968 3.496 2.546 4.406l42.133 24.336a5.1 5.1 0 0 0 5.09 0l42.126-24.336c1.57-.91 2.54-2.59 2.54-4.406v-48.668c0-1.816-.97-3.496-2.55-4.406l-42.12-24.317c-.79-.453-1.67-.68-2.55-.68s-1.76.227-2.55.68"/></clipPath><linearGradient id="B" x1="271.967" x2="211.101" gradientUnits="userSpaceOnUse" y1="217.607" y2="341.773"><stop stop-color="#3e863d" offset=".3"/><stop stop-color="#55934f" offset=".5"/><stop stop-color="#5aad45" offset=".8"/></linearGradient><clipPath id="C"><path d="M195.4 307.09a5.1 5.1 0 0 0 1.5 1.316l36.14 20.875 6.02 3.46c.9.52 1.926.74 2.934.665.336-.027.672-.09 1-.183l44.434-81.36c-.34-.37-.738-.68-1.184-.94l-27.586-15.93-14.582-8.39c-.414-.24-.863-.41-1.32-.53z"/></clipPath><linearGradient id="D" x1="186.485" x2="297.353" gradientUnits="userSpaceOnUse" y1="321.376" y2="239.46"><stop stop-color="#3e863d" offset=".57"/><stop stop-color="#619857" offset=".72"/><stop stop-color="#76ac64" offset="1"/></linearGradient><clipPath id="E"><path d="M241.07 225.95a5.14 5.14 0 0 0-2.035.652l-42.01 24.247 45.3 82.51c.63-.09 1.25-.3 1.81-.624l42.13-24.336c1.3-.754 2.19-2.03 2.46-3.476l-46.18-78.89a5.29 5.29 0 0 0-1.03-.102l-.42.02"/></clipPath><linearGradient id="F" x1="197.049" x2="288.718" gradientUnits="userSpaceOnUse" y1="279.65" y2="279.65"><stop stop-color="#6bbf47" offset=".16"/><stop stop-color="#79b461" offset=".38"/><stop stop-color="#75ac64" offset=".47"/><stop stop-color="#659e5a" offset=".7"/><stop stop-color="#3e863d" offset=".9"/></linearGradient></defs><g transform="matrix(1.8117 0 0 1.8117 -325.151 -394.171)"><g clip-path="url(#A)"><path d="m331.36 246.79-118.72-58.19-60.87 124.17 118.71 58.193z" fill="url(#B)"/></g><g clip-path="url(#C)"><path d="m144.07 264 83.825 113.45 110.86-81.906-83.83-113.45z" fill="url(#D)"/></g><g clip-path="url(#E)"><path d="M197.02 225.93v107.43h91.683V225.93z" fill="url(#F)"/></g></g></svg>