<svg xmlns="http://www.w3.org/2000/svg" width="300" height="300" xmlns:v="https://vecta.io/nano"><path d="M149.868 20.62a12.31 12.31 0 0 0-6.154 1.648L41.899 81.083c-3.805 2.2-6.15 6.258-6.15 10.652v117.633a12.29 12.29 0 0 0 6.152 10.646l101.815 58.766h.002a12.28 12.28 0 0 0 12.291 0l101.84-58.766a12.29 12.29 0 0 0 6.152-10.652V91.738a12.31 12.31 0 0 0-6.146-10.652l-101.84-58.815a12.3 12.3 0 0 0-6.152-1.648zM83.303 70.93s11.789 33.031 35.477 31.934l27.741-15.961c1.061-.62 2.231-.941 3.414-.99h.641c1.185.049 2.358.369 3.404.99l27.738 15.961c23.69 1.094 35.475-31.934 35.475-31.934 5.233 23.154 1.06 38.641-5.924 48.942l4.541 2.613h.002c2.321 1.328 3.734 3.796 3.736 6.49l-.119 95.812c0 1.337-.717 2.576-1.856 3.227-1.143.691-2.582.691-3.734 0L177.1 206.971c-2.311-1.363-3.742-3.817-3.742-6.481v-44.762a7.44 7.44 0 0 0-3.736-6.465l-15.642-9.01a7.28 7.28 0 0 0-3.715-1.01c-1.302 0-2.577.331-3.742 1.01l-15.648 9.01c-2.315 1.323-3.729 3.798-3.729 6.467v44.762c0 2.663-1.413 5.099-3.738 6.481l-36.748 21.041a3.57 3.57 0 0 1-3.709 0c-1.173-.651-1.865-1.888-1.865-3.225l-.136-95.812c0-2.693 1.434-5.161 3.74-6.49l4.541-2.615c-6.982-10.302-11.161-25.789-5.926-48.942z" fill="#8bc34a"/></svg>