<svg xmlns="http://www.w3.org/2000/svg" viewBox="0 0 100 100" xmlns:v="https://vecta.io/nano"><path d="M40.434 15.644a34.31 34.31 0 0 0-21.68 60.776 7.058 7.058 0 0 1-2.069-.746 6.813 6.813 0 0 0-3.914-.896 6.974 6.974 0 0 0-6.036 9.479 19.901 19.901 0 0 1 5.665-1.195 20.194 20.194 0 0 1 3.408.059 17.666 17.666 0 0 0 2.815.041l1.47-.16a17.206 17.206 0 0 0 5.868-2.034 32.625 32.625 0 0 0 4.394 1.675 44.398 44.398 0 0 0 29.929-1.972 5.343 5.343 0 0 0 1.195-.748l32.258 2.944-30.775-6.147c-.048-1.064-.98-1.793-1.333-2.247a1.381 1.381 0 0 1-.324-.705 16.447 16.447 0 0 0-14.994-15.209 5.008 5.008 0 0 0-1.792-1.942 5.038 5.038 0 0 1-1.907-3.963 5.624 5.624 0 0 0-4.984 4.398 13.955 13.955 0 0 1-3.777-22.279 18.025 18.025 0 0 1 13.147-5.63 18.258 18.258 0 0 1 17.678 13.53 9.144 9.144 0 0 1-5.444 3.205 9.054 9.054 0 0 0-7.375 7.494c3.514 0 5.852 4.781 12.378 4.781a5.923 5.923 0 0 0 5.485-3.682 5.935 5.935 0 0 0 5.493 3.682 11.72 11.72 0 0 0 .763-.033v.014c.079-.005.152-.018.23-.025a11.72 11.72 0 0 0 .455-.047 11.82 11.82 0 0 0 .693-.1 11.72 11.72 0 0 0 .371-.072c.261-.056.514-.12.761-.191a11.72 11.72 0 0 0 .301-.086 11.95 11.95 0 0 0 .894-.318 11.72 11.72 0 0 0 .127-.049l.1-.043a11.72 11.72 0 0 0 .42-.187v-.006c3.005-1.411 4.864-3.623 7.26-3.623a9.054 9.054 0 0 0-7.26-7.469h-.006a9.054 9.054 0 0 0-.109-.025 9.144 9.144 0 0 1-1.874-.558c-.021-.009-.041-.016-.062-.025a9.144 9.144 0 0 1-.754-.363c-.043-.023-.084-.05-.127-.074a9.144 9.144 0 0 1-.611-.371l-.111-.074a9.144 9.144 0 0 1-.666-.502c-1.084-.895-1.953-2.027-2.403-3.299a34.31 34.31 0 0 0-33.17-24.983zM25.202 42.19c.639.042 1.111.829 1.046 1.749s-.64 1.627-1.286 1.585-1.105-.831-1.04-1.751.64-1.625 1.279-1.583zm-4.172 3l-.016.016c.323 0 .597.354.597.814s-.227.843-.549.855-.597-.348-.597-.808.249-.86.566-.878zm-.254 5.292c.538.033 1.101.598 1.284 1.382.209.896-.131 1.747-.759 1.89s-1.304-.461-1.513-1.364.15-1.757.777-1.907l-.018.018c.075-.018.153-.025.23-.02zm4.07 6.426c.081-.007.162-.007.246 0 .562.045 1.192.387 1.677.97.777.932.861 2.121.209 2.659s-1.794.215-2.571-.718-.843-2.121-.209-2.659c.183-.15.406-.232.648-.252zm17.391 17.159c.316.012.721.161 1.181.275.92.227 1.726.198 1.517 1.064l-.016.018a1.715 1.715 0 0 1-3.33-.808c.105-.436.332-.561.648-.549z" fill="#00b8d4"/></svg>