<svg xmlns="http://www.w3.org/2000/svg" fill="none" viewBox="0 0 300 300" xmlns:v="https://vecta.io/nano"><path d="M168.788 105.485l-9.087 15.734-31.075-53.824-95.393 165.211h64.589c0 8.69 7.045 15.734 15.734 15.734H33.231c-5.621 0-10.814-3-13.624-7.869s-2.81-10.865.001-15.733l95.393-165.211c2.811-4.868 8.005-7.868 13.626-7.868s10.816 2.999 13.626 7.868z" fill="#00bfa5"/><path d="M237.65 224.739l-59.777-103.518-9.087-15.734-9.087 15.734-59.77 103.518c-2.81 4.868-2.811 10.865-.001 15.733s8.003 7.869 13.624 7.869h110.455c5.622 0 10.817-2.997 13.629-7.866s2.812-10.867.001-15.736zm-124.096 7.867l55.234-95.652 55.221 95.652H113.554z" fill="#37474f"/><path d="M280.391 240.471c-2.81 4.867-8.003 7.867-13.623 7.867H224.01c8.69 0 15.734-7.044 15.734-15.734h26.991L190.147 99.958l-12.273 21.261-9.087-15.734 7.736-13.394c2.811-4.868 8.005-7.868 13.626-7.868s10.816 2.999 13.626 7.868l76.615 132.645c2.811 4.868 2.811 10.866 0 15.734z" fill="#26a69a"/></svg>