<svg xmlns="http://www.w3.org/2000/svg" viewBox="0 0 24 24" xmlns:v="https://vecta.io/nano"><path d="M22.847 7.511a.74.74 0 0 0-.706-.528.76.76 0 0 0-.288.051c-.237.091-.605.196-1.064.209L16.341 4.04s.177.531.417 1.522l-3.472-2.106s.505 1.05.543 1.388l-4.092-.864s1.796 1.018 2.233 1.619L7.222 5.23s1.291.664 1.917 1.193l-4.112.348L6.849 8.29s-2.231.814-4.904 2.266c0 0 1.393.091 2.393.42 0 0-1.231 1.022-3.441 3.376l2.518-.155s-.903 1.31-2.038 3.672c0 0 .758-.449 1.487-.604 0 0 .03 2.674 1.533 3.128l.001-.002c.074.024.144.033.205.034a.86.86 0 0 0 .23-.029c.482-.124.853-.576 1.282-1.099l.443-.523c.171-.226.394-.461.66-.666.549-.423 1.306-.734 2.218-.575.989.12 1.589 1.093 2.072 1.878.37.6.662 1.075 1.081 1.127.029.004.059.006.087.006.641.011.879-.709 1.181-1.622l.062-.186c.233-.722.658-1.517 1.173-2.231.698-.969 1.59-1.829 2.439-2.221l.002.005 1.423-.711h.001c1.483-.714 2.884-1.389 3.599-2.437.358-.524.542-1.172.548-1.925a6.04 6.04 0 0 0-.256-1.706zm-6.19 7.881c-.428.378-.848.85-1.218 1.364-.61.846-1.063 1.776-1.207 2.552.403.668.769.999 1.117 1.011h.011c.319.006.534-.199.637-.607.077-.305.1-.725.127-1.211.048-.886.11-2.027.534-3.11zm-9.87 3.82l-.005-.013a3.12 3.12 0 0 1 .697-.751c.442-.34 1.022-.588 1.716-.516l-.274.647c-.342.763-.748 1.55-1.173 1.607-.025.003-.051.005-.076.005-.332-.006-.621-.326-.885-.979zm8.512-12.44l-1.831-1.18 3.034 1.105zm-5.1.437l2.919.776 1.286-.389zm5.203 1.512l.634-.448-2.429.353zm-4.15-.071l-1.015.633-2.775-.304zm3.103 1.678l1.027-.533-3.79.329zm-2.813.564l-.729 1.116-3.564.779zm-4.446.618l-2.768 1.123 3.414-2.283zm-1.528 1.378l-.129 1.169-1.612 1.887z" fill-rule="evenodd" fill="#ba68c8"/></svg>