<svg xmlns="http://www.w3.org/2000/svg" viewBox="0 0 24 24" xmlns:v="https://vecta.io/nano"><path d="M22 2c-2.023.139-16.234 1.492-17.227 11.234-.121 1.042-.189 2.088-.234 3.135l4.313-4.308A1.5 1.5 0 0 1 6.4 10.9a1.5 1.5 0 1 1 3 0 1.5 1.5 0 0 1-.349.963l2.476-2.474c.245-.245.641-.245.885 0s.245.64 0 .884l-2.525 2.522A1.5 1.5 0 0 1 12.4 13.9a1.5 1.5 0 1 1-3 0 1.5 1.5 0 0 1 .379-.998L2.275 20.4c-.366.366-.366.96 0 1.325a.94.94 0 0 0 1.327 0l2.232-2.229c1.645-.006 3.287-.099 4.92-.287 2.089-.213 3.791-1.033 5.18-2.207h-3.946l5.735-1.91a15.49 15.49 0 0 0 1.189-1.84h-3.17l4.162-2.078C21.543 7.191 21.929 3.025 22 2z" fill="#ff7043"/></svg>