<svg xmlns="http://www.w3.org/2000/svg" viewBox="0 0 32 32" xmlns:v="https://vecta.io/nano"><path d="M11.416 21.358c-.141-.848-.565-1.555-1.414-1.838-.283-.141-.707-.424-.989-.565l-1.131-.424c-.283-.141-.565 0-.848.283-.141.283 0 .565.141.707.141.283.283.424.565.707.283.424.565.707.99 1.131.283.424.565.707.424 1.272-.141.989-.565 1.979-1.272 2.686-.141.141-.283.141-.283.141-.424 0-.989-.283-1.272-.565-.424-.424-.283-.848.141-1.131.141 0 .283-.141.283-.283.283-.283.424-.565.283-.989-.141-.141-.141-.283-.283-.424-.565-.565-1.272-1.131-1.979-1.696-1.838-1.414-2.686-3.11-2.827-5.089-.141-2.262.424-4.382 1.555-6.361.424-.707.99-1.414 1.838-1.838.565-.283 1.131-.424 1.696-.565 1.555-.424 3.251-.707 4.948-.424 1.414.283 2.544.99 2.969 2.403.283.989.424 1.838.283 2.827-.141 1.979-1.696 3.675-3.534 4.241-.848.283-1.272.141-1.696-.565-.283-.424-.707-.989-.989-1.555v-.141c0-.141-.141-.141-.141-.283.141.848.283 1.696.707 2.403.283.424.565.707 1.131.707 1.838.141 3.251-.424 4.382-1.838 1.131-1.555 1.414-3.393 1.131-5.372 0-.424-.141-.707-.283-1.131 0-.283 0-.424.283-.565.141 0 .283 0 .283-.141 1.414-.283 2.968-.424 4.382-.283 1.696.141 3.251.565 4.665 1.555 2.262 1.414 3.675 3.534 4.382 6.078.141.424.141.707.141 1.131 0 .283-.141.283-.424.141s-.424-.424-.565-.565-.283-.424-.424-.565-.283-.141-.283 0-.141.283-.141.424c-.424 1.414-.989 2.686-1.979 3.675-.141.141-.283.424-.283.565 0 .565-.141 1.131 0 1.696l.424 3.534c.141.707-.141.989-.707 1.272-.424.141-.848.283-1.414.283h-2.262c0-.848 0-1.696-.707-2.12l.424-1.838c.141-.565 0-.989-.283-1.414s-.707-.424-1.131-.283c-1.131.707-2.262.707-3.534.283-.565-.141-.989-.141-1.272.424s-.424 1.131-.424 1.696c0 .707.141 1.555.283 2.262 0 .424 0 .565-.424.707a6.48 6.48 0 0 1-2.827.141h-.141c0-.848 0-1.696-.989-2.12.565-.565.565-1.555.424-2.403zM5.62 18.107c.141-.141.283-.283.283-.565.141-.424-.283-1.131-.707-1.272-.283-.141-.424 0-.565.141-.424.424-.707.848-1.131 1.272 0 .141-.141.141-.141.283-.141.283 0 .565.283.565.141 0 .424 0 .565.141.565 0 .99-.141 1.414-.565zm0-4.665a.61.61 0 0 0-.565-.565c-.283 0-.707.283-.565.707 0 .283.283.565.707.565.141-.141.424-.424.424-.707z" fill="#ec407a"/></svg>