<svg xmlns="http://www.w3.org/2000/svg" viewBox="0 0 32 32" xmlns:v="https://vecta.io/nano"><path fill="#f57f17" d="M20 23h-8.14a4.17 4.17 0 0 0-.43-1L22 11.43a3.86 3.86 0 0 0 2 .57 4 4 0 0 0 .688-7.943A4 4 0 0 0 20.14 7h-8.28a4 4 0 0 0-7.873 1 4 4 0 0 0 7.873 1h8.28a4.17 4.17 0 0 0 .43 1L10 20.57A3.86 3.86 0 0 0 8 20a4 4 0 0 0-.688 7.943A4 4 0 0 0 11.86 25H20v3h8v-8h-8v3zM8 10a2 2 0 1 1 0-4 2 2 0 0 1 1.414 3.414A2 2 0 0 1 8 10zm16-4a2 2 0 1 1 0 4 2 2 0 1 1 0-4zM8 26a2 2 0 1 1 0-4 2 2 0 1 1 0 4zm14-4h4v4h-4v-4z"/></svg>