<svg xmlns="http://www.w3.org/2000/svg" width="300" height="300" viewBox="0 0 79 78" stroke="#e53935" xmlns:v="https://vecta.io/nano"><path d="M69.721 39c0 16.691-13.53 30.221-30.221 30.221S9.279 55.691 9.279 39 22.81 8.779 39.5 8.779 69.721 22.31 69.721 39" fill-opacity="0" paint-order="fill markers stroke" stroke-linecap="square" stroke-width="3.967"/><path d="M68.668 52.53H10.332l29.168-42.106z" fill-opacity="0" paint-order="fill markers stroke" stroke-width="4.033"/><path d="M28.22 27.597h24.685v24.685H28.22z" fill-opacity="0" paint-order="fill markers stroke" stroke-width="3.418"/><path d="M51.014 39.409a10.45 10.45 0 0 1-10.452 10.452A10.45 10.45 0 0 1 30.11 39.409a10.45 10.45 0 0 1 10.452-10.452 10.45 10.45 0 0 1 10.452 10.452" fill-opacity="0" paint-order="fill markers stroke" stroke-linecap="square" stroke-width="3.206"/></svg>