<svg xmlns="http://www.w3.org/2000/svg" viewBox="0 0 24 24" fill="#f57f17" xmlns:v="https://vecta.io/nano"><path d="M6.177 16.747c1.271 0 2.471-.494 3.327-1.35l6.203-5.506a2.97 2.97 0 0 1 2.118-.874c1.65 0 3 1.332 3 2.982s-1.35 2.982-3 2.982c-.803 0-1.553-.309-2.153-.909l-.997-.882-1.35 1.182 1.129.979a4.74 4.74 0 0 0 3.371 1.394c2.629 0 4.765-2.135 4.765-4.747s-2.135-4.747-4.765-4.747c-1.271 0-2.471.494-3.326 1.35l-6.203 5.506a2.97 2.97 0 0 1-2.118.874c-1.65 0-3-1.332-3-2.982s1.35-2.982 3-2.982c.794 0 1.553.309 2.153.909l1.024.891 1.323-1.182-1.129-.988a4.75 4.75 0 0 0-3.371-1.385c-2.629 0-4.765 2.127-4.765 4.738 0 2.647 2.135 4.747 4.765 4.747z"/><path d="M17.824 6.963c-1.345 0-2.619.52-3.531 1.432l-6.199 5.502-.006.006a2.67 2.67 0 0 1-1.912.789A2.7 2.7 0 0 1 3.467 12a2.7 2.7 0 0 1 2.709-2.691c.719 0 1.399.276 1.947.824l.008.006 1.225 1.066 1.76-1.572-1.363-1.193a5.06 5.06 0 0 0-3.576-1.469c-2.786 0-5.055 2.259-5.055 5.029 0 2.804 2.27 5.037 5.055 5.037 1.345 0 2.619-.52 3.531-1.432l6.199-5.502.006-.006a2.67 2.67 0 0 1 1.912-.789A2.7 2.7 0 0 1 20.533 12a2.7 2.7 0 0 1-2.709 2.691c-.728 0-1.398-.275-1.947-.824l-.008-.006-1.195-1.059-1.793 1.572 1.367 1.184c.954.954 2.23 1.478 3.576 1.478 2.787 0 5.055-2.267 5.055-5.037s-2.268-5.037-5.055-5.037zm0 .58A4.47 4.47 0 0 1 22.297 12a4.47 4.47 0 0 1-4.473 4.457c-1.195 0-2.32-.464-3.166-1.31l-.006-.006-.887-.768.906-.795.793.701.002.002c.65.649 1.481.992 2.357.992A3.29 3.29 0 0 0 21.115 12a3.29 3.29 0 0 0-3.291-3.273 3.27 3.27 0 0 0-2.322.957l-6.199 5.502-.006.006c-.799.799-1.926 1.266-3.121 1.266-2.474 0-4.473-1.966-4.473-4.457 0-2.453 2-4.447 4.473-4.447 1.204 0 2.319.462 3.166 1.301l.008.006.887.777-.887.793-.814-.709c-.651-.651-1.49-.994-2.359-.994A3.29 3.29 0 0 0 2.884 12a3.29 3.29 0 0 0 3.291 3.273 3.27 3.27 0 0 0 2.322-.957l6.199-5.502.006-.006c.799-.799 1.926-1.266 3.121-1.266z"/></svg>