<svg xmlns="http://www.w3.org/2000/svg" viewBox="0 0 24 24" xmlns:v="https://vecta.io/nano"><path d="M21.783 4.039c.488 0 .796.398.667.886l-3.145 14.151c-.109.488-.587.886-1.075.886H2.218c-.488 0-.796-.398-.667-.886L4.696 4.924c.109-.488.587-.886 1.075-.886h16.012m-5.971 11.942h-3.981c-.458 0-.826.378-.826.836 0 .468.368.846.826.846h3.981c.468 0 .846-.378.846-.846 0-.458-.378-.836-.846-.836m-10.001.279c-.398.279-.488.826-.209 1.214.279.418.836.498 1.234.229l7.414-5.235c.179-.159.269-.378.279-.597.01-.199-.04-.368-.159-.557L9.473 6.059c-.328-.358-.886-.378-1.244-.03-.358.318-.378.876-.05 1.234l4.13 4.419z" fill="#03a9f4"/></svg>