<svg xmlns="http://www.w3.org/2000/svg" viewBox="0 0 24 24" xmlns:v="https://vecta.io/nano"><path d="M18.808 17.864L9.59 20.52c-.282.081-.552-.156-.492-.433L12.39 4.721c.062-.287.469-.333.598-.067l6.097 12.615c.115.238-.016.519-.278.594zm1.581-.626l-7.06-14.607h0c-.177-.365-.547-.606-.965-.628a1.13 1.13 0 0 0-1.032.521L3.675 14.606c-.237.377-.233.841.013 1.213l3.743 5.649c.223.337.61.532 1.011.532.114 0 .228-.016.341-.048l10.865-3.131a1.18 1.18 0 0 0 .747-.629 1.11 1.11 0 0 0-.006-.954z" fill="#00bfa5" fill-rule="evenodd"/></svg>