<svg xmlns="http://www.w3.org/2000/svg" viewBox="0 0 300 300" fill="#cfd8dc" xmlns:v="https://vecta.io/nano"><path d="M71.515 107.054H99.88h31.066v149.928l28.365 4.052v16.208H72.866v-17.559l28.365-4.052V125.963c-4.052 0-9.455 0-14.858-1.351s-9.455-1.351-13.507-2.701c0-4.052-1.351-9.455-1.351-14.858zm62.132-39.171v-37.82c5.403-1.351 12.156-4.052 20.261-5.403 6.754-1.351 17.559-2.701 29.715-1.351 6.754 1.351 14.858 2.701 22.962 8.104 2.701 2.701 9.455 8.104 13.507 17.559 6.754 14.858 1.351 29.715-1.351 35.118-8.104 18.91-27.014 25.663-29.715 27.014 5.403 1.351 13.507 2.701 21.611 9.455 14.858 12.156 16.208 28.365 17.559 32.417 2.701 22.962-14.858 39.17-17.559 43.222-10.806 10.806-21.611 13.507-28.365 16.208-10.806 4.052-21.611 4.052-28.365 4.052v-21.611h12.156c5.403-1.351 14.858-2.701 24.313-9.455 2.701-2.701 10.806-9.455 10.806-22.962 0-2.701 1.351-14.858-8.104-24.313-5.403-5.403-10.806-6.754-18.91-9.455s-16.208-2.701-20.261-2.701v-18.91c4.052 0 9.455-1.351 16.208-4.052s13.507-4.052 18.91-10.806c2.701-2.701 10.806-12.156 9.455-25.663 0-2.701-1.351-10.806-8.104-16.208-6.754-6.753-16.208-6.753-21.611-6.753-8.104 0-14.858 2.701-17.559 4.052-1.351 6.754-1.351 14.858-2.701 21.611-4.052-1.351-9.455-1.351-14.858-1.351z"/></svg>