<svg xmlns="http://www.w3.org/2000/svg" viewBox="0 0 24 24" xmlns:v="https://vecta.io/nano"><path d="M12 15.385a5.11 5.11 0 0 0 1.862 1.693L12 18.94l-1.862-1.862c.753-.398 1.396-.982 1.862-1.693m4.232-4.063a1.693 1.693 0 1 0 0 3.386 1.693 1.693 0 0 0 1.693-1.693c0-.939-.762-1.693-1.693-1.693m-8.464 0a1.693 1.693 0 1 0 0 3.386 1.693 1.693 0 0 0 1.693-1.693c0-.939-.762-1.693-1.693-1.693m8.464-2.116a3.386 3.386 0 1 1 0 6.771 3.386 3.386 0 1 1 0-6.771m-8.464 0a3.386 3.386 0 1 1 0 6.771 3.386 3.386 0 1 1 0-6.771M3.739 2.689c1.49 3.132.415 5.468-.584 7.787a5.1 5.1 0 0 0-.466 2.116 5.078 5.078 0 0 0 5.078 5.078l.533-.042 2.505 2.505L12 21.31l1.193-1.177 2.505-2.505c.178.025.355.034.533.042a5.078 5.078 0 0 0 5.078-5.078 5.1 5.1 0 0 0-.466-2.116c-.999-2.319-2.074-4.655-.584-7.787C18.026 4.433 14.844 5.812 12 5.821 9.156 5.813 5.974 4.433 3.74 2.689z" fill="#ef5350"/></svg>