<svg xmlns="http://www.w3.org/2000/svg" viewBox="0 0 80 80" xmlns:v="https://vecta.io/nano"><defs><clipPath id="A"><path transform="scale(1 -1)" fill="#564b55" d="M-2.983-69.251h69.412v67.108H-2.983z"/></clipPath></defs><g transform="matrix(1.1304 0 0 -1.1304 5.7143 82.137)" clip-path="url(#A)"><path d="M61.216 37.276c0-17.059-13.826-30.886-30.885-30.886S-.554 20.218-.554 37.276 13.27 68.161 30.331 68.161s30.885-13.827 30.885-30.885" fill="#e53935"/><path d="M46.274 52.172l-10.504.096-6.141 6.142-7.21-4.788 1.244-1.244-2.921.026-9.913-16.682H6.94l2.439-2.44-2.457-4.136L29.67 6.398l.66-.008c17.042 0 30.858 13.806 30.885 30.841L46.274 52.173" fill="#d51c2f"/><path d="M15.114 35.019c0 8.405 6.813 15.215 15.217 15.215s15.214-6.81 15.214-15.215zm34.206-.702v1.405h4.401c-.175 5.934-2.556 11.31-6.354 15.342l-3.288-3.289-.993.994 3.288 3.289c-4.032 3.798-9.408 6.179-15.341 6.353l-.002-4.4h-1.404v4.4c-5.934-.174-11.31-2.556-15.341-6.353l3.289-3.289-.994-.992-3.288 3.288c-3.797-4.032-6.178-9.408-6.353-15.342h4.4v-1.403H6.922v-5.151H53.74v5.15h-4.42" fill="#f5f5f5"/></g></svg>