<svg xmlns="http://www.w3.org/2000/svg" viewBox="0 0 128 128" xmlns:v="https://vecta.io/nano"><path d="M107.15 49.189c-.2-4.4.4-8.3-1.6-11.6-4.8-8.2-16.8-13-40.8-13v.7h-.5.5v-.7c-24 0-36.6 4.8-41.4 13.1-1.9 3.4-1.7 7.2-2 11.6-.2 3.5-1.8 7.2-1.1 11.2.8 5.2 1.1 10.4 1.9 15.2.6 3.9 6 7.2 6.5 10.9 1.4 10.2 12 14.9 36 14.9v.8h-.6.7v-.8c24 0 34.2-4.7 35.5-14.9.5-3.8 5.5-7 6.1-10.9.8-4.8 1.1-10 1.9-15.2.7-4-.9-7.8-1.1-11.3z" fill="#efcca3"/><g fill="#ccac8d"><path d="M64.35 52.789c4.3.1 7.3 2.8 10.1 5.3 3.3 2.9 8.9 4.9 11.2 7.4s5.3 5 6.4 8.9 1.4 8.9 1.4 10.2.7 1 2.7 0c4.7-2.3 9.9-8.5 9.9-8.5-.6 3.9-5.7 7.4-6.2 11.1-1.2 10.2-11.1 15.1-35.6 15.1h-.1.6"/><path d="M80.15 44.989c.9 3.1 4.1 13.6-2.1 10.1 0 0 2.6 1.5 4.2 7.2 1.7 5.7 5.8 6.4 5.8 6.4s6.7 1.3 11.7-3c4.2-3.6 4.9-10 3.1-14.9-1.8-4.8-5-6.3-9.7-7.3-4.7-1.1-14.1-2-13 1.5z"/></g><circle cx="92.05" cy="56.389" r="8.8"/><circle cx="89.75" cy="52.489" r="2.3" fill="#fff"/><path d="M78.65 55.989s7.9 5.4 12.2 10.7 4.2 6.3 4.2 6.3l-3.1 1.4s-4.4-8.3-9.8-11.4c-5.5-3.1-6.1-5.7-6.1-5.7z" fill="#efcca3"/><path d="M64.65 52.789c-4.3.1-7.5 2.8-10.4 5.3-3.3 2.9-9.1 4.9-11.4 7.4s-5.4 5-6.5 8.9-1.5 8.9-1.5 10.2.2 1.4-2.7 0c-4.7-2.2-9.9-8.5-9.9-8.5.6 3.9 5.7 7.4 6.2 11.1 1.4 10.2 11.3 15.1 35.8 15.1h.5" fill="#ccac8d"/><path d="M87.85 69.689c-4.8-5.9-12.5-11.4-23.2-11.4h-.1c-10.7 0-18.4 5.5-23.2 11.4-5 6.1-4.6 8.5-4.6 14.3 0 21 7.4 15 12.3 17.6 5 2.5 10.2 1.7 15.5 1.7h.1c5.4 0 10.5.7 15.5-1.8 4.9-2.5 12.3 3.7 12.3-17.3.1-5.8.4-8.4-4.6-14.5z" fill="#56332b"/><g fill="#442823"><path d="M64.15 63.489s-.7 9.7-2.1 11.6l2.6-.6z"/><path d="M64.85 63.489s.7 9.7 2.1 11.6l-2.6-.6z"/></g><path d="M56.45 61.189c-1-2.3 2.6-6 8.3-6.1 5.7 0 9.3 3.7 8.3 6.1s-4.6 3.1-8.3 3.2c-3.6-.1-7.3-.8-8.3-3.2z" fill="#56332b"/><path d="M64.75 63.489c0-.4 3.4-.5 5.2-1.7 0 0-3.7 1.2-4.5.7-.8-.4-1-1.6-1-1.6s-.3 1.2-.9 1.6c-.7.4-4.9-.7-4.9-.7l5.6 1.7c0 .3-.1 1.3-.1 2l.4 9.2c.6.9.4-6.7.4-9.2l-.2-2z"/><path d="M64.95 76.889c1.7 0 4.7 1.2 7.4 3.1-2.6-2.9-5.7-4.9-7.4-4.9-1.8 0-5.6 2.2-8.3 5.4 2.8-2.2 6.4-3.6 8.3-3.6z" fill="#7f4a41"/><g fill="#442823"><path d="M64.25 94.589c-3.8 0-7.5-1.2-10.9-2.1-.7-.2-1.4.3-2.1.1-6.3-2-11.4-5.4-14.5-9.7v1c0 21 7.4 15.1 12.3 17.6 5 2.5 10.2 1.7 15.5 1.7h.1c5.4 0 10.5.7 15.5-1.8 4.9-2.5 12.3 3.6 12.3-17.4 0-.8 0-1.6.1-2.3-2.9 4.7-8.2 8.4-14.8 10.6-.6.2-2-.3-2.6-.2-3.6 1.2-6.8 2.5-10.9 2.5z"/><path d="M54.75 83.289s-2.5 7.5-.8 10.8l-2.3-1s1.7-7.6 3.1-9.8zm19.8 0s2.5 7.5.8 10.8l2.3-1s-1.8-7.6-3.1-9.8z"/></g><path d="M48.35 44.989c-.9 3.1-4.1 13.6 2.1 10.1 0 0-2.6 1.5-4.2 7.2s-5.8 6.4-5.8 6.4-6.7 1.3-11.7-3c-4.2-3.6-4.9-10-3.1-14.9s5-6.3 9.7-7.3c4.7-1.1 14-2 13 1.5z" fill="#ccac8d"/><path d="M64.65 75.089c2.7 0 11.1 5.8 11.2 12.9v-.4c0-7.4-6.8-13.3-11.2-13.3s-11.2 6-11.2 13.3v.4c.1-7.1 8.5-12.9 11.2-12.9z"/><g fill="#331712"><ellipse transform="matrix(.9683 -.2497 .2497 .9683 -13.484 16.895)" cx="66.7" cy="61.5" rx=".8" ry="1.5"/><ellipse transform="matrix(.9551 .2963 -.2963 .9551 20.762 -17.432)" cx="62.4" cy="61.5" rx=".8" ry="1.5"/></g><circle cx="36.95" cy="56.389" r="8.8"/><circle cx="39.25" cy="52.489" r="2.3" fill="#fff"/><path d="M67.25 56.489c0-.1-2.3 1-2.9 1.1-.6-.1-2.9-1.2-2.9-1.1h2.9 2.9z" fill="#7f4a41"/><path d="M49.75 55.989s-7.9 5.4-12.2 10.7-4.2 6.3-4.2 6.3l3.1 1.4s4.4-8.3 9.8-11.4 6.1-5.7 6.1-5.7z" fill="#efcca3"/><g fill="#ccac8d"><path d="M32.45 39.989s-2.7 7.4-8.7 10.5c0 0 9.4-1.1 8.7-10.5zm63.1 0s2.7 7.4 8.7 10.5c0 0-9.4-1.1-8.7-10.5zm-17.1 13.8s-5.9-6.2-13.8-6.4h.1.1c-8 .2-13.8 6.4-13.8 6.4 6.9-4.8 12.8-4.7 13.8-4.7-.1 0 6.7-.1 13.6 4.7zm-6.9-13s-3-4.2-7-4.3h.1.1c-3 .1-6.9 4.3-6.9 4.3 3.4-3.3 6.9-3.2 6.9-3.2s3.3-.1 6.8 3.2zm-34.6 30.7s-4.7 2.3-8.1.9h-.1c-3-1.7-4.5-6.8-4.5-6.8s3 9 12.7 5.9zm54.8 0s4.7 2.3 8.1.9c4-1.7 4.6-6.8 4.6-6.8s-3 9-12.7 5.9zm-49.4-32c2.6-.5 6.9-.6 10.3.5 4.3 1.5.8 7 1.7 7.3s2.1-3.8 10.1-3.4c8.1.4 9 4 10.1 3.4s-1.1-10 11-7.8c0 0-12.7-3.4-12.1 5.8 0 0-7.3-5.6-17.5-.6.1 0 2.7-8.6-13.6-5.2zm44.3 0c.2 0 .3.1.4.1s-.1-.1-.4-.1z"/><path d="M86.65 39.489zm-47.8-12.3s-10.8 13.6-12.4 18.8c-1.6 5.3-2.8 27-4.2 30.1l-5-21.4 9.2-22.3zm50.8 0s10.8 13.6 12.4 18.8c1.6 5.3 2.8 27 4.2 30.1l5-21.4-9.2-22.3z"/></g><path d="M89.15 27.189s11.6 9.7 15 20.9 2 24.8 4.6 26.5c3.7 2.4 7.9-11.9 9.3-13.4 2.2-2.4 9.5-8.5 10-9.6s-14.8-17.8-21.5-21.1c-8.1-3.8-18.1-4.1-17.4-3.3z" fill="#56332b"/><path d="M99.05 33.189s13.7 17.5 13.5 39.3l5.5-11.2c-.1 0-4.9-14.3-19-28.1z" fill="#442823"/><path d="M38.85 27.189s-11.6 9.7-15 20.9-2 24.8-4.6 26.5c-3.7 2.4-7.9-11.9-9.3-13.4-2.2-2.4-9.5-8.5-10-9.6s14.8-17.8 21.5-21.1c8.1-3.8 18.1-4.1 17.4-3.3z" fill="#56332b"/><path d="M28.95 33.189s-13.7 17.5-13.5 39.3l-5.4-11.2s4.8-14.3 18.9-28.1z" fill="#442823"/><path d="M21.55 72.889s1 5.4 2.6 7.1.5-1.3.5-1.3-1.7-.9-1.4-7.8-1.7 2-1.7 2zm85.3 0s-1 5.4-2.6 7.1-.5-1.3-.5-1.3 1.7-.9 1.4-7.8 1.7 2 1.7 2z" fill="#ccac8d"/><g fill="#442823"><circle cx="54.25" cy="68.789" r=".8"/><circle cx="49.65" cy="73.589" r=".8"/><circle cx="48.15" cy="68.789" r=".8"/><circle cx="73.75" cy="68.789" r=".8"/><circle cx="78.35" cy="73.589" r=".8"/><circle cx="79.85" cy="68.789" r=".8"/></g></svg>