<svg xmlns="http://www.w3.org/2000/svg" width="100" height="100" fill="#42a5f5" xmlns:v="https://vecta.io/nano"><path d="M98.079 38.548L79.221 19.68l-5.086 5.088L90.448 41.09 74.135 57.411l5.086 5.086 18.858-18.861a3.59 3.59 0 0 0 1.055-2.549 3.58 3.58 0 0 0-1.055-2.54m-72.596 4.247l-5.089-5.089L1.529 56.568C.852 57.245.478 58.151.48 59.112a3.57 3.57 0 0 0 1.049 2.542L20.394 80.52l5.089-5.086L9.162 59.112z" clip-path="url(#SVGID_2_)" transform="translate(.193 -.1)"/><path clip-path="url(#SVGID_2_)" d="M316.68 557.77l-6.46-6.03h-28.38l6.46 6.03zm-6.46 15.13l6.46-6.04H288.3l-6.46 6.04zm6.46 15.12l-6.46-6.04h-28.38l6.46 6.04z" transform="matrix(1.1917 0 0 1.1917 -306.647 -629.15)"/></svg>