<svg xmlns="http://www.w3.org/2000/svg" viewBox="0 0 24 24" xmlns:v="https://vecta.io/nano"><path d="M9.859 2.001A2.86 2.86 0 0 0 7 4.86v1.68h4.289c.39 0 .711.571.711.961H4.859A2.86 2.86 0 0 0 2 10.36v3.781a2.86 2.86 0 0 0 2.859 2.859h1.18v-2.68c0-1.58 1.272-2.859 2.852-2.859h5.25c1.58 0 2.859-1.272 2.859-2.852V4.86a2.86 2.86 0 0 0-2.859-2.859zM9.141 3.61c.4 0 .719.121.719.711s-.319.891-.719.891c-.39 0-.711-.301-.711-.891s.321-.711.711-.711z" fill="#3c78aa"/><path d="M17.959 7v2.68a2.85 2.85 0 0 1-2.85 2.859h-5.25A2.85 2.85 0 0 0 7 15.389v3.75A2.86 2.86 0 0 0 9.859 22h4.281A2.86 2.86 0 0 0 17 19.139v-1.68h-4.291c-.39 0-.709-.569-.709-.959h7.141A2.86 2.86 0 0 0 22 13.639V9.859A2.86 2.86 0 0 0 19.141 7zM8.32 11.514l-.004.004c.012-.002.025-.002.037-.004zm6.539 7.275c.39 0 .711.301.711.891a.71.71 0 0 1-.711.709c-.4 0-.719-.119-.719-.709s.319-.891.719-.891z" fill="#fdd835"/></svg>