<svg xmlns="http://www.w3.org/2000/svg" viewBox="0 0 24 24" xmlns:v="https://vecta.io/nano"><path d="M13 9h5.5L13 3.5V9M6 2h8l6 6v12a2 2 0 0 1-2 2H6a2 2 0 0 1-2-2V4c0-1.11.89-2 2-2m9 16v-2H6v2h9m3-4v-2H6v2h12z" fill="#757575"/><path d="M16.93 13a1.43 1.43 0 0 0-1.43 1.43v.84h2.145c.195 0 .355.285.355.48h-3.57A1.43 1.43 0 0 0 13 17.18v1.891a1.43 1.43 0 0 0 1.43 1.43h.59v-1.34c0-.79.636-1.43 1.426-1.43h2.625c.79 0 1.43-.636 1.43-1.426V14.43A1.43 1.43 0 0 0 19.07 13zm-.359.805c.2 0 .359.06.359.355s-.159.445-.359.445-.355-.15-.355-.445.16-.355.355-.355z" fill="#3c78aa"/><path d="M20.98 15.5v1.34c0 .79-.635 1.43-1.425 1.43H16.93c-.79 0-1.43.635-1.43 1.425v1.875A1.43 1.43 0 0 0 16.93 23h2.141a1.43 1.43 0 0 0 1.43-1.431v-.84h-2.145c-.195 0-.354-.284-.354-.479h3.57A1.43 1.43 0 0 0 23 18.819v-1.89a1.43 1.43 0 0 0-1.43-1.43zm-4.819 2.257l-.002.002zm3.27 3.638c.195 0 .355.15.355.445 0 .196-.159.355-.355.354s-.359-.059-.359-.354.159-.445.359-.445z" fill="#fdd835"/></svg>