<svg xmlns="http://www.w3.org/2000/svg" viewBox="0 0 24 24" fill="#fbc02d" xmlns:v="https://vecta.io/nano"><path d="M11.937 16.414c.899-1.101 1.468-2.936 1.468-4.735 0-1.964-.697-3.854-1.872-5.12-1.156-1.248-2.661-1.854-4.57-1.854s-3.413.606-4.57 1.854C1.219 7.826.522 9.716.522 11.716s.697 3.891 1.872 5.157c1.156 1.248 2.679 1.854 4.57 1.854 1.376 0 2.404-.275 3.469-.918l1.578 1.486 1.395-1.486zm-3.395-3.211l-1.395 1.486 1.413 1.34c-.422.22-1.028.349-1.615.349-2.202 0-3.67-1.854-3.67-4.661s1.468-4.661 3.689-4.661c2.239 0 3.689 1.835 3.689 4.68 0 1.101-.202 2.092-.606 2.9zm9.046-8.475l-.611 4h-1.5l-.34 2h1.5l-.32 2h-1.5l-.34 2h1.5l-.609 4h2l.609-4h1l-.609 4h2l.609-4h1.5l.34-2h-1.5l.32-2h1.5l.34-2h-1.5l.611-4h-2l-.611 4h-1l.611-4zm1.049 6h1l-.32 2h-1z"/></svg>