<svg xmlns="http://www.w3.org/2000/svg" width="54.233" height="54.233" viewBox="0 0 50.843 50.843" xmlns:v="https://vecta.io/nano"><path d="M29.585 25.422a4.16 4.16 0 0 1-4.159 4.159 4.16 4.16 0 0 1-4.159-4.159 4.16 4.16 0 0 1 4.159-4.159 4.16 4.16 0 0 1 4.159 4.159zm14.304-10.661a21.32 21.32 0 0 0-3.267-4.271l-4.808 2.776c-1.499-1.28-3.202-2.261-5.02-2.91-1.642 1.664-2.946 3.523-3.886 5.544 5.352-.364 10.88 1.573 16.012 5.582l3.026-1.747a21.32 21.32 0 0 0-2.057-4.975zm.001 21.32a21.32 21.32 0 0 0 2.066-4.965l-4.808-2.776c.359-1.938.357-3.904.01-5.802-2.262-.59-4.523-.79-6.744-.593 2.992 4.453 4.078 10.209 3.172 16.658l3.026 1.747a21.32 21.32 0 0 0 3.28-4.269zM25.427 46.741a21.32 21.32 0 0 0 5.333-.694v-5.552c1.858-.658 3.559-1.643 5.03-2.893-.62-2.254-1.578-4.312-2.859-6.137-2.361 4.817-6.802 8.636-12.841 11.076v3.494a21.32 21.32 0 0 0 5.336.706zM6.963 36.082a21.32 21.32 0 0 0 3.267 4.271l4.808-2.776c1.499 1.28 3.202 2.261 5.02 2.91 1.642-1.664 2.946-3.523 3.886-5.544-5.352.364-10.88-1.573-16.012-5.582l-3.026 1.747a21.32 21.32 0 0 0 2.057 4.975zm-.001-21.32a21.32 21.32 0 0 0-2.066 4.965l4.808 2.776c-.359 1.938-.357 3.904-.01 5.802 2.262.59 4.523.79 6.744.593-2.992-4.453-4.078-10.209-3.172-16.658l-3.026-1.747a21.32 21.32 0 0 0-3.28 4.269zM25.424 4.102a21.32 21.32 0 0 0-5.333.694v5.552c-1.858.658-3.559 1.643-5.03 2.893.62 2.254 1.578 4.312 2.859 6.137 2.361-4.817 6.802-8.636 12.841-11.076V4.808a21.32 21.32 0 0 0-5.336-.706z" fill="#1976d2"/></svg>