<svg xmlns="http://www.w3.org/2000/svg" width="24" height="24" xmlns:v="https://vecta.io/nano"><path d="M11.956 4.05c-5.694 0-10.354 3.106-10.354 6.947 0 3.396 3.686 6.212 8.531 6.813v2.205h3.531V17.82a13.09 13.09 0 0 0 2.475-.497l1.429 2.692h3.997l-2.402-4.048c1.936-1.263 3.148-3.034 3.148-4.97 0-3.841-4.659-6.947-10.354-6.947m1.584 2.713c4.348 0 7.558 1.449 7.558 4.752 0 1.771-.953 3.013-2.506 3.779-.093-.052-.176-.104-.228-.155-.373-.166-.994-.352-.994-.352s3.085-.228 3.085-3.303-3.23-3.127-3.23-3.127h-7.092v7.413c-2.64-.766-4.462-2.392-4.462-4.255 0-2.63 3.52-4.752 7.869-4.752m.155 4.121h2.143s.984-.052.984.973c0 1.004-.984 1.004-.984 1.004h-2.143v-1.977m-.031 4.566h.953c.186 0 .28.052.445.207.135.104.28.3.404.476-.569.072-1.17.104-1.802.104z" fill="#1976d2"/></svg>