<svg xmlns="http://www.w3.org/2000/svg" width="511.88" height="511.82" viewBox="0 0 511.875 511.824" xmlns:v="https://vecta.io/nano"><path d="M416.17 381.6c27.189-34.614 43.404-78.256 43.404-125.685 0-112.466-91.168-203.634-203.634-203.634-24.464 0-47.92 4.318-69.65 12.227 82.672 43.367 192.023 184.855 229.879 317.097z" fill="#0288d1"/><path d="M226.77 182.174c-31.766-34.222-67.34-61.4-105.015-79.425-42.568 37.324-69.453 92.101-69.453 153.162 0 51.344 19.009 98.24 50.365 134.061 27.642-83.05 79.607-163.09 124.108-207.801zm37.526 46.176c-44.085 47.512-88.014 130.682-103.913 207.415 28.498 15.172 61.02 23.783 95.561 23.783 35.508 0 68.887-9.097 97.951-25.073-16.752-77.406-48.375-148.294-89.591-206.128z" fill="#e53935"/></svg>