<svg xmlns="http://www.w3.org/2000/svg" viewBox="0 0 24 24" xmlns:v="https://vecta.io/nano"><path d="M12 10.11c1.03 0 1.87.84 1.87 1.89 0 1-.84 1.85-1.87 1.85S10.13 13 10.13 12c0-1.05.84-1.89 1.87-1.89M7.37 20c.63.38 2.01-.2 3.6-1.7-.52-.59-1.03-1.23-1.51-1.9a22.7 22.7 0 0 1-2.4-.36c-.51 2.14-.32 3.61.31 3.96m.71-5.74l-.29-.51-.29.86.88.16-.3-.51m6.54-.76l.81-1.5-.81-1.5-.91-1.47L12 9l-1.71.03-.91 1.47-.81 1.5.81 1.5.91 1.47L12 15l1.71-.03.91-1.47M12 6.78l-.59.72H12h.59L12 6.78m0 10.44l.59-.72H12h-.59l.59.72M16.62 4c-.62-.38-2 .2-3.59 1.7.52.59 1.03 1.23 1.51 1.9a22.7 22.7 0 0 1 2.4.36c.51-2.14.32-3.61-.32-3.96m-.7 5.74l.29.51.29-.86-.88-.16.3.51m1.45-7.05c1.47.84 1.63 3.05 1.01 5.63 2.54.75 4.37 1.99 4.37 3.68s-1.83 2.93-4.37 3.68c.62 2.58.46 4.79-1.01 5.63-1.46.84-3.45-.12-5.37-1.95-1.92 1.83-3.91 2.79-5.38 1.95-1.46-.84-1.62-3.05-1-5.63-2.54-.75-4.37-1.99-4.37-3.68s1.83-2.93 4.37-3.68c-.62-2.58-.46-4.79 1-5.63 1.47-.84 3.46.12 5.38 1.95 1.92-1.83 3.91-2.79 5.37-1.95M17.08 12c.34.75.64 1.5.89 2.26 2.1-.63 3.28-1.53 3.28-2.26s-1.18-1.63-3.28-2.26c-.25.76-.55 1.51-.89 2.26M6.92 12c-.34-.75-.64-1.5-.89-2.26-2.1.63-3.28 1.53-3.28 2.26s1.18 1.63 3.28 2.26c.25-.76.55-1.51.89-2.26m9 2.26l-.3.51.88-.16c-.07-.28-.18-.57-.29-.86l-.29.51m-2.89 4.04c1.59 1.5 2.97 2.08 3.59 1.7.64-.35.83-1.82.32-3.96a22.7 22.7 0 0 1-2.4.36l-1.51 1.9M8.08 9.74l.3-.51-.88.16c.07.28.18.57.29.86l.29-.51m2.89-4.04C9.38 4.2 8 3.62 7.37 4c-.63.35-.82 1.82-.31 3.96a22.7 22.7 0 0 1 2.4-.36l1.51-1.9z" fill="#00bcd4"/></svg>