<svg xmlns="http://www.w3.org/2000/svg" width="25.6" height="25.6" viewBox="0 0 24 24" xmlns:v="https://vecta.io/nano"><path d="M3 3v18.001h18.001V3zm5.12 8.994h2.798c.382 0 .71.025.985.075a1.96 1.96 0 0 1 .775.326c.243.167.435.386.577.654s.218.598.218 1c0 .552-.112 1.001-.335 1.35s-.535.639-.947.87l2.159 3.204H12.31l-1.763-2.743h-.769v2.743H8.119zm6.594 0h4.676v1.447h-3.018v1.291h2.802v1.446h-2.802v1.848h3.018v1.447h-4.677zm-4.935 1.375v2.014h.513c.266 0 .491-.014.67-.044s.329-.1.45-.207a.96.96 0 0 0 .253-.341c.055-.127.082-.296.082-.507 0-.188-.034-.349-.101-.483s-.18-.24-.342-.317c-.113-.054-.245-.085-.396-.095s-.326-.02-.526-.02z" fill="#f44336"/></svg>