<svg xmlns="http://www.w3.org/2000/svg" viewBox="0 0 200 200" xmlns:v="https://vecta.io/nano"><linearGradient  x1="72.428" x2="99.994" y1="28.55" y2="28.55" gradientUnits="userSpaceOnUse"><stop offset="0" stop-color="#eea831"/><stop offset="1" stop-color="#ffc929"/></linearGradient><linearGradient  x1="100" x2="163.3" y1="90.7" y2="90.7" gradientUnits="userSpaceOnUse"><stop offset="0" stop-color="#b32629"/><stop offset=".583" stop-color="#8c1e21"/><stop offset="1" stop-color="#7a1a1d"/></linearGradient><linearGradient  x1="100" x2="127.57" y1="28.55" y2="28.55" gradientUnits="userSpaceOnUse"><stop offset="0" stop-color="#e8a333"/><stop offset=".612" stop-color="#c68931"/><stop offset="1" stop-color="#ab762f"/></linearGradient><linearGradient  x1="100" x2="199" y1="152.8" y2="152.8" gradientUnits="userSpaceOnUse"><stop offset="0" stop-color="#b32629"/><stop offset=".583" stop-color="#8c1e21"/><stop offset="1" stop-color="#7a1a1d"/></linearGradient><linearGradient  x1="1" x2="100" y1="152.8" y2="152.8" gradientUnits="userSpaceOnUse"><stop offset="0" stop-color="#ae2524"/><stop offset=".563" stop-color="#d01d19"/><stop offset="1" stop-color="#ed1913"/></linearGradient><linearGradient  x1="36.7" x2="100" y1="90.7" y2="90.7" gradientUnits="userSpaceOnUse"><stop offset="0" stop-color="#ae2524"/><stop offset=".563" stop-color="#d01d19"/><stop offset="1" stop-color="#ed1913"/></linearGradient><path d="M100 60.234V10.322L74.999 47.28z" fill="#fbc02d"/><path d="M100 125.001l57.34-29.893-25.001-36.958L100 74.999z" fill="#b71c1c"/><path d="M100 10.322v49.912l25.001-12.954z" fill="#f9a825"/><path d="M100 139.766v49.912l89.678-46.651-25.001-36.958z" fill="#b71c1c"/><path d="M100 139.766l-64.677-33.697-25.001 36.958L100 189.678zm0-14.765V74.999L67.662 58.15 42.66 95.108z" fill="#e53935"/></svg>