<svg xmlns="http://www.w3.org/2000/svg" fill-rule="evenodd" stroke-linejoin="round" stroke-miterlimit="4" viewBox="0 0 24 24" fill="#8bc34a" stroke="#8bc34a" stroke-width=".435" xmlns:v="https://vecta.io/nano"><path d="M15.878 15.787c.742-.077 1.305-.716 1.279-1.484a1.44 1.44 0 0 0-1.433-1.382h-.051c-.793.026-1.407.691-1.382 1.484a1.47 1.47 0 0 0 .409.947c-.87 1.714-2.2 2.968-4.196 4.017-1.356.716-2.763.972-4.171.793-1.151-.154-2.047-.665-2.61-1.51-.819-1.254-.896-2.61-.205-3.966.486-.972 1.254-1.689 1.74-2.047l-.333-1.305c-3.71 2.687-3.326 6.32-2.2 8.034.844 1.279 2.559 2.073 4.452 2.073a6.29 6.29 0 0 0 1.535-.179c3.275-.64 5.757-2.584 7.164-5.476zm4.503-3.173c-1.945-2.277-4.81-3.531-8.085-3.531h-.409c-.23-.461-.716-.768-1.254-.768h-.051c-.793.026-1.407.691-1.382 1.484a1.44 1.44 0 0 0 1.433 1.382h.051a1.44 1.44 0 0 0 1.254-.87h.461c1.945 0 3.787.563 5.45 1.663 1.279.844 2.2 1.945 2.712 3.275.435 1.075.409 2.124-.051 3.019-.716 1.356-1.919 2.098-3.505 2.098-1.023 0-1.996-.307-2.508-.537a15.11 15.11 0 0 1-1.151.921c1.1.512 2.226.793 3.301.793 2.456 0 4.273-1.356 4.964-2.712.742-1.484.691-4.043-1.228-6.218zM7.383 16.222a1.44 1.44 0 0 0 1.433 1.382h.051c.793-.026 1.407-.691 1.382-1.484a1.44 1.44 0 0 0-1.433-1.382h-.051c-.051 0-.128 0-.179.026-1.049-1.74-1.484-3.633-1.331-5.68.102-1.535.614-2.866 1.51-3.966.742-.947 2.175-1.407 3.147-1.433 2.712-.051 3.864 3.326 3.94 4.682.333.077.896.256 1.279.384-.307-4.145-2.866-6.294-5.322-6.294-2.303 0-4.427 1.663-5.271 4.12-1.177 3.275-.409 6.422 1.023 8.904a1.15 1.15 0 0 0-.179.742z"/></svg>