<svg xmlns="http://www.w3.org/2000/svg" width="500" height="500" xmlns:v="https://vecta.io/nano"><style>.A{isolation:isolate}</style><g class="A"><g><path d="M462.596 230.033c.586 6.466.99 12.989.99 19.612 0-6.623-.405-13.141-.99-19.612z" fill="#56676e"/><g fill="#90a4ae"><path d="M145.725 228.905S86.327 447.758 324.401 449.662c74.697-27.807 129.739-95.98 138.081-178.172.576-5.685.748-11.484.876-17.293.024-1.528.229-3.014.229-4.552 0-6.618-.405-13.146-.99-19.612-62.898 247.607-341.154 150.622-316.871-1.128zm123.101-81.235S47.164 85.767 50.573 327.466c11.363 29.208 28.996 55.566 51.656 77.216.952.9 1.938 1.752 2.9 2.638a214.53 214.53 0 0 0 20.255 16.508c1.1.786 2.133 1.652 3.238 2.419a212.71 212.71 0 0 0 23.383 13.884c2.347 1.209 4.761 2.314 7.142 3.442 6.955 3.275 14.084 6.168 21.355 8.666 1.786.609 3.49 1.371 5.299 1.938a211.73 211.73 0 0 0 26.583 6.285c2.719.476 5.466.876 8.218 1.257a214.32 214.32 0 0 0 28.145 2.185c.362 0 .709.057 1.071.057 7.104 0 14.118-.381 21.036-1.062-248.707-59.313-154.174-337.417-2.028-315.228zm86.401 114.621s52.442-221.09-183.619-211.215C92.45 82.344 36.413 159.364 36.413 249.626c.074 9.72.807 19.424 2.195 29.045 49.68-250.135 332.712-169.125 316.619-16.379zm-113.345 95.143s222.048 28.987 208.149-182.128C419.81 94.043 341.781 36.039 250 36.039c-12.996.05-25.961 1.282-38.734 3.681 247.421 30.373 183.114 319.876 30.616 317.714z"/></g><path d="M311.641 249.65a59.83 59.83 0 0 1-102.138 42.297 59.83 59.83 0 0 1 42.33-102.124c33.035.008 59.811 26.792 59.808 59.827z" fill="#607d8b"/></g></g></svg>