<svg xmlns="http://www.w3.org/2000/svg" viewBox="0 0 300 300" xmlns:v="https://vecta.io/nano"><g transform="matrix(1.3602 0 0 1.3602 33.252 18.767)"><path d="M171.39 55.799c-.975-6.147-4.673-11.642-10.15-14.805L96.381 3.546A20.87 20.87 0 0 0 85.964.756c-3.651 0-7.253.964-10.415 2.788L10.69 40.992C4.263 44.705.272 51.617.272 59.035v74.89c0 7.418 3.991 14.331 10.416 18.042l64.859 37.446c3.165 1.827 6.767 2.791 10.417 2.791a20.86 20.86 0 0 0 10.415-2.79l64.859-37.445c5.479-3.166 9.178-8.66 10.152-14.808zm-16.516 85.147L90.017 178.39c-1.254.724-2.654 1.087-4.054 1.087s-2.8-.363-4.054-1.087l-64.857-37.444a8.11 8.11 0 0 1-4.053-7.021v-74.89a8.11 8.11 0 0 1 4.053-7.021l64.857-37.446c1.254-.725 2.654-1.086 4.054-1.086s2.8.361 4.054 1.086l64.857 37.446c2.508 1.448 4.053 4.124 4.053 7.021v74.89a8.11 8.11 0 0 1-4.053 7.021z" fill="#83e8c2"/><path d="M158.93 59.035a8.11 8.11 0 0 0-4.053-7.021L90.02 14.568c-1.254-.725-2.654-1.086-4.054-1.086s-2.8.361-4.054 1.086L17.055 52.014c-2.508 1.448-4.053 4.124-4.053 7.021v74.89a8.11 8.11 0 0 0 4.053 7.021l64.857 37.444c1.254.724 2.654 1.087 4.054 1.087s2.8-.363 4.054-1.087l64.857-37.444a8.11 8.11 0 0 0 4.053-7.021zm-46.766 31.681a1.42 1.42 0 0 1 .365-.149c.044-.012.088-.01.131-.018.076-.012.152-.029.228-.029l.074.007a1.55 1.55 0 0 1 .273.04l.1.03a1.45 1.45 0 0 1 .223.095l.084.043c.094.057.184.122.263.199.007.008.013.017.021.024a1.48 1.48 0 0 1 .188.235l.05.09a1.34 1.34 0 0 1 .099.229l.032.099a1.51 1.51 0 0 1 .049.361v16.209l-3.278 1.893c-.325.188-.556.487-.678.83-.058.164-.098.334-.098.514v3.785l-14.038 8.104a1.64 1.64 0 0 1-.364.15c-.045.012-.09.011-.135.018-.074.012-.15.029-.225.029l-.073-.007c-.093-.005-.184-.019-.273-.041-.034-.008-.066-.019-.1-.03a1.32 1.32 0 0 1-.223-.094l-.084-.044a1.45 1.45 0 0 1-.263-.198c-.009-.008-.015-.019-.023-.027-.069-.07-.13-.148-.185-.232-.019-.029-.034-.06-.051-.09a1.42 1.42 0 0 1-.098-.229l-.033-.101c-.028-.114-.048-.232-.048-.358l-.001-20.055c0-.389.156-.755.424-1.023a1.37 1.37 0 0 1 .303-.232zM85.24 31.369a1.45 1.45 0 0 1 1.452 0l45.741 26.41a1.45 1.45 0 0 1 0 2.512l-17.366 10.027c-.225.129-.475.193-.726.193s-.501-.064-.726-.193l-15.49-8.943 1.727-.996c1.035-.598 1.035-2.091 0-2.688l-13.111-7.57a1.54 1.54 0 0 0-.775-.207c-.267 0-.535.068-.775.207l-3.278 1.893-14.038-8.104c-.967-.559-.967-1.954 0-2.513zM57.59 47.558a1.46 1.46 0 0 1 .726.194l15.489 8.942-1.727.997c-1.034.597-1.034 2.09 0 2.688l1.727.996-15.488 8.943c-.225.129-.475.193-.726.193s-.501-.064-.726-.193L39.499 60.291a1.45 1.45 0 0 1 0-2.512l17.366-10.027c.225-.129.475-.194.725-.194zm-9.56 92.328c-.241 0-.489-.062-.724-.196l-17.365-10.026a1.45 1.45 0 0 1-.726-1.256V75.59c0-.847.694-1.453 1.452-1.453a1.44 1.44 0 0 1 .724.197l17.366 10.025a1.45 1.45 0 0 1 .726 1.257v17.886l-1.727-.997a1.53 1.53 0 0 0-.773-.21c-.811-.001-1.554.647-1.554 1.554v15.139a1.55 1.55 0 0 0 .775 1.344l3.278 1.894v16.209c.001.845-.694 1.451-1.452 1.451zm29.828 14.929c0 .847-.694 1.453-1.452 1.453-.242 0-.49-.062-.725-.196l-17.365-10.026a1.45 1.45 0 0 1-.726-1.257v-17.885l1.726.996c.25.145.515.211.773.211.811 0 1.554-.648 1.554-1.555v-1.993l15.489 8.942a1.45 1.45 0 0 1 .726 1.257zm0-32.768a1.45 1.45 0 0 1-.049.36c-.009.035-.021.067-.032.101a1.3 1.3 0 0 1-.099.229l-.05.09a1.48 1.48 0 0 1-.188.235c-.008.008-.014.018-.021.025a1.51 1.51 0 0 1-.264.199c-.026.016-.055.028-.082.043-.072.037-.147.069-.225.095l-.099.029a1.36 1.36 0 0 1-.278.041c-.018.001-.036.006-.055.006-.092.001-.17-.017-.248-.029-.043-.007-.084-.005-.125-.017-.124-.032-.247-.081-.366-.149l-14.035-8.104v-3.784c0-.277-.074-.544-.208-.775s-.328-.43-.568-.568l-3.276-1.892V91.976c0-.127.02-.246.049-.361.009-.034.021-.066.032-.1a1.33 1.33 0 0 1 .099-.229l.051-.091a1.4 1.4 0 0 1 .187-.234c.008-.008.014-.018.021-.025.079-.076.168-.142.263-.199.027-.016.056-.029.084-.043.072-.038.146-.069.224-.095l.099-.03a1.53 1.53 0 0 1 .278-.041c.019 0 .036-.005.055-.005.093-.001.172.017.251.029.04.007.081.005.122.017.124.031.246.08.366.149l17.361 10.023c.226.13.407.314.532.532s.194.467.194.727zm-9.984-45.373a1.45 1.45 0 0 1-.544-.55c-.242-.437-.242-.978 0-1.413a1.44 1.44 0 0 1 .544-.55l14.038-8.104 3.277 1.892c.48.276 1.071.276 1.551 0l3.278-1.893 14.038 8.105c.968.558.968 1.954 0 2.513L86.691 86.7c-.225.13-.475.194-.726.194s-.501-.064-.726-.194zm74.842 51.733a1.45 1.45 0 0 1-.726 1.256l-45.741 26.409c-.233.135-.481.196-.724.196-.758 0-1.453-.606-1.453-1.453v-20.053a1.45 1.45 0 0 1 .727-1.257l15.488-8.941v1.992c0 .906.743 1.555 1.553 1.555.26 0 .523-.066.774-.21l13.11-7.57a1.55 1.55 0 0 0 .776-1.344v-3.784l14.038-8.105a1.44 1.44 0 0 1 .724-.196c.758 0 1.453.606 1.453 1.453v20.052zm0-32.764c0 .519-.276.997-.726 1.256l-15.489 8.943v-1.993c0-.906-.744-1.554-1.554-1.554a1.52 1.52 0 0 0-.773.21l-1.727.996V85.616a1.45 1.45 0 0 1 .727-1.257l17.365-10.025a1.44 1.44 0 0 1 .724-.197c.758 0 1.453.606 1.453 1.453z" fill="#111d5a"/><g fill="#83e8c2"><path d="M59.402 90.568c.123.031.247.08.366.149a1.46 1.46 0 0 0-.366-.149zm35.083 32.492c-.069-.07-.13-.148-.185-.232.055.084.116.162.185.232zm.286.23a1.45 1.45 0 0 1-.263-.198c.08.077.17.141.263.198zm-16.996-.78a1.3 1.3 0 0 1-.099.229 1.23 1.23 0 0 0 .099-.229zm-.703.82c-.072.037-.147.069-.225.095.078-.026.153-.058.225-.095zm.346-.24c-.079.076-.169.142-.264.199a1.56 1.56 0 0 0 .264-.199zm.438-1.04a1.45 1.45 0 0 1-.049.36c.03-.114.049-.233.049-.36zm-1.107 1.4c-.091.022-.184.037-.278.041.095-.004.187-.017.278-.041zm17.37-1.04c-.028-.114-.048-.232-.048-.358 0 .126.02.244.048.358zm-16.988 11.1l-15.489-8.942v1.993c0 .906-.743 1.555-1.554 1.555a1.53 1.53 0 0 1-.773-.211l-1.726-.996v17.885a1.45 1.45 0 0 0 .726 1.257l17.365 10.026a1.44 1.44 0 0 0 .725.196c.758 0 1.452-.606 1.452-1.453v-20.053c-.001-.519-.277-.997-.726-1.257zm17.119-10.77a1.42 1.42 0 0 1-.098-.229 1.42 1.42 0 0 0 .098.229zm16.03-11.32c0-.18.04-.35.098-.514-.058.164-.098.334-.098.514zm-15.786-10.44a1.37 1.37 0 0 1 .303-.232l17.365-10.026-17.365 10.026a1.39 1.39 0 0 0-.303.232zm-16.867 21.85c-.055.085-.117.164-.188.235a1.48 1.48 0 0 0 .188-.235zm-19.6-31.894c.079-.076.168-.142.263-.199a1.42 1.42 0 0 0-.263.199zm.347-.243a1.42 1.42 0 0 1 .224-.095 1.52 1.52 0 0 0-.224.095zm.67-.172c.068 0 .152.016.236.03-.079-.012-.158-.03-.236-.03zm-1.225.674a1.4 1.4 0 0 1 .187-.234c-.07.071-.133.15-.187.234zm.877-.627a1.62 1.62 0 0 1 .278-.041 1.53 1.53 0 0 0-.278.041zm-1.107 1.409c0-.127.02-.246.049-.361a1.41 1.41 0 0 0-.049.361zm18.454 31.483c-.124-.032-.247-.081-.366-.149.119.068.242.117.366.149zM57.67 91.516a1.33 1.33 0 0 1 .099-.229 1.3 1.3 0 0 0-.099.229z"/><path d="M75.677 123.31l-14.035-8.11zm.724.19c-.067 0-.151-.017-.233-.03.078.012.156.03.233.03zm35.759-32.784a1.42 1.42 0 0 1 .365-.149c-.123.031-.246.079-.365.149zM77.662 101.27c-.125-.218-.307-.402-.532-.532a1.45 1.45 0 0 1 .532.532zm35.978-10.536c.094.057.184.122.263.199a1.53 1.53 0 0 0-.263-.199zM96.237 123.31a1.55 1.55 0 0 1-.354.146 1.55 1.55 0 0 0 .354-.146zm17.093-32.713c.076.025.15.057.223.095a1.36 1.36 0 0 0-.223-.095zm-.44-.077c-.075 0-.151.018-.228.029.081-.014.162-.029.242-.028zm28.37-16.383c-.241 0-.489.062-.724.197l-17.365 10.025c-.449.26-.727.738-.727 1.257v17.885l1.727-.996a1.52 1.52 0 0 1 .773-.21c.81 0 1.554.647 1.554 1.554v1.993l15.489-8.943a1.45 1.45 0 0 0 .726-1.256V75.59c0-.847-.695-1.453-1.453-1.453zm-28.3 16.389c.092.005.184.019.273.04a1.55 1.55 0 0 0-.273-.04zM95.523 123.5c.074 0 .15-.018.225-.029-.08.013-.159.028-.238.028z"/><path d="M95.451 123.5c-.093-.005-.184-.019-.273-.041.09.023.18.036.273.041zM85.238 86.7c.225.13.475.194.726.194-.251.001-.501-.064-.726-.194zm9.84 36.73c-.077-.024-.151-.057-.223-.094.072.038.146.069.223.094zm46.182-16.53c-.241 0-.489.062-.724.196l-14.038 8.105v3.784a1.55 1.55 0 0 1-.776 1.344l-13.11 7.57c-.251.144-.515.21-.774.21-.81 0-1.553-.648-1.553-1.555v-1.992l-15.488 8.941c-.449.26-.727.738-.727 1.257v20.053c0 .847.695 1.453 1.453 1.453a1.45 1.45 0 0 0 .724-.196l45.741-26.409a1.45 1.45 0 0 0 .726-1.256v-20.053c-.001-.845-.696-1.452-1.454-1.452zM67.871 41.396c-.967.559-.967 1.954 0 2.513l14.038 8.104 3.278-1.893c.24-.139.508-.207.775-.207a1.54 1.54 0 0 1 .775.207l13.111 7.57c1.035.597 1.035 2.09 0 2.688l-1.727.996 15.49 8.943c.225.129.475.193.726.193s.501-.064.726-.193l17.366-10.027a1.45 1.45 0 0 0 0-2.512l-45.741-26.41a1.45 1.45 0 0 0-1.452 0zM39.497 57.779a1.45 1.45 0 0 0 0 2.512l17.366 10.027c.225.129.475.193.726.193s.501-.064.726-.193l15.488-8.943-1.727-.996c-1.034-.598-1.034-2.091 0-2.688l1.727-.997-15.489-8.942a1.46 1.46 0 0 0-.726-.194c-.25 0-.5.065-.725.194zm9.984 80.651v-16.209l-3.278-1.894a1.55 1.55 0 0 1-.775-1.344v-15.139c0-.906.743-1.555 1.554-1.554a1.53 1.53 0 0 1 .773.21l1.727.997V85.611a1.45 1.45 0 0 0-.726-1.257L31.39 74.33c-.233-.135-.481-.197-.724-.197-.758 0-1.452.606-1.452 1.453v52.817a1.45 1.45 0 0 0 .726 1.256l17.365 10.026a1.44 1.44 0 0 0 .724.196 1.45 1.45 0 0 0 1.452-1.451zm64.859-30.25l-3.278 1.893 3.278-1.893V91.971a1.51 1.51 0 0 0-.049-.361 1.51 1.51 0 0 1 .049.361zm-.23-16.987c-.055-.085-.117-.164-.188-.235.071.071.134.15.188.235zm.05.09a1.34 1.34 0 0 1 .099.229c-.027-.08-.059-.157-.099-.229z"/></g><path d="M94.494 100.98a1.45 1.45 0 0 0-.424 1.023v20.053a1.54 1.54 0 0 0 .049.36l.033.101a1.41 1.41 0 0 0 .098.229l.051.09a1.44 1.44 0 0 0 .185.232c.009.009.015.02.023.027.079.077.169.142.263.198.027.017.055.029.084.044a1.46 1.46 0 0 0 .223.094c.033.012.065.022.1.03a1.49 1.49 0 0 0 .273.041c.02.001.039.005.059.006.079 0 .158-.016.238-.028.045-.007.09-.006.135-.018.119-.031.238-.08.354-.146l14.048-8.108v-3.785c0-.18.04-.35.098-.514.122-.343.353-.643.678-.83l3.278-1.893V91.977a1.51 1.51 0 0 0-.049-.361l-.032-.099c-.026-.081-.059-.157-.099-.229l-.05-.09c-.055-.085-.117-.164-.188-.235-.008-.008-.014-.017-.021-.024a1.41 1.41 0 0 0-.263-.199c-.027-.016-.056-.029-.084-.043a1.51 1.51 0 0 0-.223-.095l-.1-.03a1.59 1.59 0 0 0-.273-.04c-.021-.001-.039-.005-.059-.006-.08-.001-.161.015-.242.028-.043.008-.087.006-.131.018a1.42 1.42 0 0 0-.365.149l-17.365 10.026c-.112.065-.214.144-.302.233zm-17.364-.24L59.769 90.717c-.119-.069-.243-.118-.366-.149-.041-.012-.082-.01-.122-.017-.084-.015-.168-.03-.251-.029-.019 0-.036.005-.055.005-.095.005-.188.02-.278.041l-.099.03c-.076.024-.151.057-.224.095l-.084.043c-.095.058-.184.123-.263.199-.008.008-.014.018-.021.025-.07.071-.133.15-.187.234-.019.029-.034.061-.051.091-.04.073-.072.149-.099.229l-.032.1c-.029.115-.049.234-.049.361v16.206l3.276 1.892c.24.139.435.336.568.568a1.56 1.56 0 0 1 .208.775v3.784l14.035 8.104c.119.068.242.117.366.149.041.012.082.01.125.017.082.014.166.03.248.029.019 0 .037-.005.055-.006.095-.004.188-.019.278-.041.034-.008.065-.019.099-.029a1.58 1.58 0 0 0 .225-.095l.082-.043c.095-.058.185-.123.264-.199.008-.008.014-.018.021-.025a1.48 1.48 0 0 0 .188-.235l.05-.09c.04-.072.072-.149.099-.229l.032-.101a1.45 1.45 0 0 0 .049-.36v-20.047c0-.26-.069-.51-.194-.727a1.45 1.45 0 0 0-.532-.532zm9.559-14.04l17.365-10.026c.968-.559.968-1.955 0-2.513l-14.038-8.105-3.278 1.893c-.479.276-1.07.276-1.551 0l-3.277-1.892-14.038 8.104a1.44 1.44 0 0 0-.544.55c-.242.436-.242.977 0 1.413a1.45 1.45 0 0 0 .544.55L85.238 86.7c.225.13.475.194.726.194a1.44 1.44 0 0 0 .725-.194z" fill="#de5941"/></g></svg>