<svg xmlns="http://www.w3.org/2000/svg" fill="#e53935" viewBox="0 0 24 24" xmlns:v="https://vecta.io/nano"><path d="M3.221 3.66c0-.088.071-.159.158-.159h11.756c3.117 0 5.643 2.537 5.643 5.667v1.1c0 .088-.071.159-.158.159h-3.446c-.087 0-.158-.071-.158-.159v-1.1c0-1.043-.842-1.889-1.881-1.889H7.142c-.087 0-.158.071-.158.159v12.905c0 .088-.071.159-.158.155-2.004-.083-3.604-1.741-3.604-3.775zm7.056 7.397c-.087 0-.159.071-.155.159a3.77 3.77 0 0 0 3.759 3.619h2.508a.63.63 0 0 1 .627.63v4.878c0 .088.071.159.158.155 2.004-.083 3.604-1.741 3.604-3.775v-1.259a4.4 4.4 0 0 0-4.389-4.407z"/></svg>