<svg xmlns="http://www.w3.org/2000/svg" viewBox="0 0 24 24" xmlns:v="https://vecta.io/nano"><path d="M6.529 10.621c0-1.458 1.185-2.643 2.641-2.643s2.643 1.185 2.643 2.643a.96.96 0 0 1-.959.96.96.96 0 0 1-.959-.96c0-.399-.325-.722-.725-.722s-.724.324-.724.722a.96.96 0 0 1-.959.96.96.96 0 0 1-.959-.96m10.942 4.441a.96.96 0 0 1-.959.96H7.617a.96.96 0 1 1 0-1.921h8.895a.96.96 0 0 1 .959.96m-4.157-3.903a.96.96 0 0 1 .259-1.332l2.224-1.502c.436-.303 1.035-.18 1.332.255a.96.96 0 0 1-.259 1.332l-2.224 1.502c-.163.112-.351.167-.535.167-.308 0-.611-.15-.797-.422m6.089 5.905c0 .181-.072.355-.2.484L17.551 19.2c-.128.128-.302.2-.484.2H6.934c-.182 0-.356-.072-.484-.2l-1.653-1.653c-.128-.129-.2-.302-.2-.484V6.936c0-.182.072-.356.2-.484L6.45 4.8c.128-.128.302-.2.484-.2h10.133c.182 0 .356.072.484.2l1.653 1.653c.128.128.2.302.2.484zm1.407-11.717l-2.158-2.158c-.327-.327-.771-.511-1.233-.511H6.579c-.463 0-.906.184-1.233.511L3.189 5.347c-.327.327-.51.77-.51 1.233v10.84c0 .462.184.906.511 1.233l2.158 2.158c.327.327.77.511 1.233.511h10.84c.462 0 .906-.184 1.233-.511l2.158-2.158c.327-.327.511-.77.511-1.233V6.58c0-.463-.184-.906-.511-1.233" fill="#00bfa5"/></svg>