<svg xmlns="http://www.w3.org/2000/svg" viewBox="100 100 800 800" xmlns:v="https://vecta.io/nano"><linearGradient  x1="423.751" x2="468.267" y1="513.194" y2="559.936" gradientUnits="userSpaceOnUse"><stop stop-color="#ff6533" offset="0"/><stop stop-color="#ff5633" offset=".157"/><stop stop-color="#ff4333" offset=".434"/><stop stop-color="#ff3733" offset=".714"/><stop stop-color="#f33" offset="1"/></linearGradient><linearGradient  x1="446.822" x2="510.057" y1="509.911" y2="552.914" gradientUnits="userSpaceOnUse"><stop stop-color="#fbb040" offset="0"/><stop stop-color="#fb8840" offset="1"/></linearGradient><linearGradient  x1="511.603" x2="447.055" y1="266.798" y2="976.829" gradientUnits="userSpaceOnUse"><stop stop-color="#fff" offset="0"/><stop stop-color="#fff" stop-opacity="0" offset="1"/></linearGradient><path d="M733.79 394.71c0 77.407-42.308 144.79-104.67 180.51-3.761 3.134-5.954 8.148-3.761 12.849l106.87 211.22c2.821 6.581-1.567 14.103-8.775 14.103h-408.35l2.194-1.254c15.356-8.775 121.91-219.06 225.95-318.72 104.05-99.658 117.21-66.439 59.857-174.87 0 0 44.188 86.182 6.581 92.763-29.459 5.328-97.151-60.171-72.08-119.09 25.071-57.664 123.79-46.695 169.23.313 17.236 30.085 26.952 64.872 26.952 102.17m-385.47 140.71c-41.367 76.154-67.692 131.62-82.108 170.48v-509.57c0-5.328 4.387-9.715 9.715-9.715h252.91c73.333 1.254 137.58 40.114 173.62 98.718-26.325-32.906-67.692-51.709-108.43-51.709-77.407 0-96.837 28.205-245.7 301.79z" fill="#f44336"/></svg>