<svg xmlns="http://www.w3.org/2000/svg" viewBox="0 0 24 24" xmlns:v="https://vecta.io/nano"><path d="M18.041 3.177c2.239.382 2.879 1.919 2.843 3.528v-.036l-1.013 13.266-13.133.897h.009c-1.093-.044-3.519-.151-3.634-3.545l1.217-2.221 2.461 5.74 2.097-6.771-.044.009.018-.018 6.851 2.186-1.768-6.913 6.531-.409-5.145-4.212 2.71-1.51v.009M3.113 17.252v.018-.018M6.916 6.874c2.63-2.621 6.033-4.167 7.339-2.843 1.297 1.306-.071 4.523-2.701 7.135-2.666 2.612-6.015 4.247-7.322 2.932-1.306-1.324.036-4.612 2.675-7.224z" fill="#f44336"/></svg>