<svg xmlns="http://www.w3.org/2000/svg" viewBox="0 0 144 144" xmlns:v="https://vecta.io/nano"><path d="M68.252 26.207a3.561 3.561 0 0 1 7.123 0 3.561 3.561 0 0 1-7.123 0M25.766 58.452a3.561 3.561 0 0 1 7.123 0 3.561 3.561 0 0 1-7.123 0m84.97.166a3.561 3.561 0 0 1 7.123 0 3.561 3.561 0 0 1-7.123 0m-74.661 4.879c1.639-.728 2.379-2.648 1.651-4.29l-1.58-3.573h6.214v28.01H29.823a43.847 43.847 0 0 1-1.42-16.738zm25.994.689V55.93h14.798c.764 0 5.397.883 5.397 4.347 0 2.876-3.553 3.907-6.475 3.907zm-20.203 44.452a3.561 3.561 0 0 1 7.123 0 3.561 3.561 0 0 1-7.123 0m52.769.166a3.561 3.561 0 0 1 7.123 0 3.561 3.561 0 0 1-7.123 0m1.101-8.076c-1.754-.376-3.48.74-3.856 2.498l-1.788 8.342a43.847 43.847 0 0 1-36.566-.175l-1.786-8.342c-.376-1.755-2.102-2.874-3.855-2.497l-7.365 1.581a43.847 43.847 0 0 1-3.808-4.488h35.834c.406 0 .676-.073.676-.442V84.528c0-.369-.27-.442-.676-.442h-10.48v-8.035h11.335c1.035 0 5.532.296 6.97 6.044l2.115 9.361c.674 2.065 3.417 6.19 6.34 6.19h18.501a43.847 43.847 0 0 1-4.061 4.7zm19.898-33.468a43.847 43.847 0 0 1 .093 7.612h-4.499c-.45 0-.631.296-.631.737v2.066c0 4.863-2.742 5.921-5.145 6.19-2.288.258-4.825-.958-5.138-2.358-1.35-7.593-3.599-9.214-7.151-12.016 4.408-2.799 8.995-6.929 8.995-12.457 0-5.969-4.092-9.729-6.881-11.572-3.913-2.579-8.246-3.096-9.415-3.096H39.336a43.847 43.847 0 0 1 24.531-13.845l5.484 5.754c1.24 1.298 3.293 1.346 4.59.105l6.136-5.869a43.847 43.847 0 0 1 30.017 21.379l-4.201 9.488c-.725 1.642.015 3.563 1.652 4.29zm10.477.154l-.143-1.467 4.327-4.036c.88-.82.551-2.472-.574-2.891l-5.531-2.068-.433-1.428 3.45-4.792c.704-.974.057-2.529-1.128-2.724l-5.832-.949-.701-1.31 2.451-5.38c.502-1.096-.431-2.497-1.636-2.451l-5.92.206-.935-1.134 1.36-5.766c.275-1.171-.913-2.361-2.084-2.085l-5.765 1.359-1.137-.935.207-5.92c.046-1.199-1.357-2.135-2.45-1.637l-5.379 2.452-1.31-.702-.951-5.834c-.193-1.183-1.749-1.829-2.723-1.128l-4.796 3.45-1.425-.432-2.068-5.532c-.419-1.127-2.072-1.452-2.89-.576l-4.036 4.33-1.467-.143-3.117-5.036c-.63-1.02-2.318-1.02-2.946 0l-3.117 5.036-1.468.143-4.037-4.33c-.818-.875-2.471-.551-2.89.576l-2.068 5.532-1.427.432-4.794-3.45c-.974-.704-2.531-.055-2.724 1.128l-.951 5.834-1.31.702-5.379-2.452c-1.093-.5-2.496.439-2.45 1.637l.206 5.92-1.137.935-5.765-1.359c-1.171-.273-2.36.914-2.085 2.085l1.358 5.766-.933 1.134-5.92-.206c-1.194-.034-2.135 1.356-1.637 2.451l2.452 5.38-.702 1.31-5.832.949c-1.185.193-1.826 1.75-1.128 2.724l3.45 4.792-.433 1.428-5.532 2.068c-1.123.419-1.452 2.071-.574 2.891l4.328 4.036-.143 1.467-5.035 3.117c-1.02.63-1.02 2.318 0 2.946l5.035 3.117.143 1.467-4.328 4.037c-.878.818-.549 2.468.574 2.89l5.532 2.068.433 1.428-3.45 4.793c-.701.976-.056 2.532 1.129 2.723l5.831.949.702 1.312-2.452 5.378c-.5 1.093.443 2.499 1.637 2.451l5.917-.207.935 1.137-1.358 5.767c-.275 1.169.914 2.356 2.085 2.081l5.765-1.358 1.137.933-.206 5.921c-.046 1.199 1.357 2.136 2.45 1.636l5.379-2.451 1.31.702.951 5.83c.193 1.187 1.75 1.829 2.724 1.13l4.792-3.453 1.428.434 2.068 5.53c.419 1.123 2.072 1.454 2.89.574l4.037-4.328 1.468.147 3.117 5.035c.628 1.015 2.316 1.018 2.946 0l3.117-5.035 1.467-.147 4.036 4.328c.818.88 2.471.549 2.89-.574l2.068-5.53 1.428-.434 4.793 3.453c.974.699 2.53.055 2.723-1.13l.951-5.83 1.31-.702 5.379 2.451c1.093.5 2.493-.435 2.45-1.636l-.206-5.921 1.136-.933 5.765 1.358c1.171.275 2.359-.912 2.084-2.081l-1.358-5.767.933-1.137 5.92.207c1.194.048 2.138-1.358 1.636-2.451l-2.451-5.378.701-1.312 5.832-.949c1.187-.19 1.831-1.746 1.127-2.723l-3.45-4.793.433-1.428 5.531-2.068c1.125-.422 1.454-2.072.574-2.89l-4.327-4.037.143-1.467 5.035-3.117c1.02-.628 1.021-2.316.001-2.946z" fill="#ff7043"/></svg>