<svg xmlns="http://www.w3.org/2000/svg" width="24" height="24" xmlns:v="https://vecta.io/nano"><path d="M18.206 6.522c-.681 0-1.275.204-1.858.399-.681-1.177-1.956-1.956-3.328-1.956-1.07 0-2.043.487-2.734 1.168-.778-.973-1.956-1.664-3.318-1.664-2.267 0-4.213 1.858-4.213 4.125 0 .574.204 1.158.399 1.742-1.08.594-1.858 1.761-1.858 3.123 0 1.946 1.567 3.62 3.522 3.62.292 0 .584 0 .778-.097.389 1.469 1.858 2.549 3.62 2.549 1.654 0 3.026-.983 3.512-2.355.496.204.983.399 1.469.399a3.49 3.49 0 0 0 3.026-1.761c.302.078.613.078.885.078 2.54 0 4.593-2.034 4.593-4.67.097-2.627-1.946-4.7-4.495-4.7z" fill="#039be5"/></svg>