<svg xmlns="http://www.w3.org/2000/svg" width="24" height="24" viewBox="0 0 6.35 6.35" xmlns:v="https://vecta.io/nano"><path d="M3.159.546c-.246.006-.476.052-.666.129-.378.157-.678.401-.846.741-.255.451-.296 1.031.04 1.535.311.475.72.908 1.148 1.408.381.139.572-.272.515-.421l-.804-1.059a1.1 1.1 0 0 1-.07-.906c.074-.198.502-.84 1.371-.836.345.04.658.059 1.087.529-.112-.301-.284-.566-.537-.752C4.02.642 3.569.537 3.159.546zm.246 1.4c-.278.002-.406.228-.349.437.253.365.578.747.869 1.121.316.609.092 1.077-.511 1.473-.821.457-1.576.115-2.027-.298.234.489.424.636.472.679.31.27.81.527 1.621.423.455-.102 1.06-.256 1.396-1.097.093-.266.125-.541.029-.844-.089-.338-.273-.579-.465-.828l-.906-1.053a.6.6 0 0 0-.128-.013z" fill="#039be5"/></svg>