<svg xmlns="http://www.w3.org/2000/svg" viewBox="0 0 500 500" xmlns:v="https://vecta.io/nano"><path d="M419.047 96.227C406.855 48.389 327.54 32.67 252.472 59.336c-44.679 15.876-93.029 40.785-127.809 73.311-41.349 38.675-47.943 72.328-45.216 86.395 9.583 49.621 77.585 82.069 105.536 106.125v.144c-8.246 4.051-68.565 34.584-82.685 65.799-14.893 32.932 2.373 56.557 13.805 59.742 35.423 9.859 71.764-7.866 91.311-37.01 18.852-28.121 17.279-64.423 9.085-82.488 11.301-2.976 24.476-4.313 41.218-2.36 47.248 5.519 56.517 35.017 54.747 47.366s-11.681 19.141-14.998 21.186-4.326 2.766-4.051 4.287c.406 2.216 1.94 2.137 4.759 1.652 3.894-.655 24.804-10.042 25.709-32.827 1.141-28.934-26.587-61.302-75.684-60.45-20.216.354-32.932 2.268-42.122 5.69l-2.084-2.307c-30.35-32.382-86.46-55.285-84.088-98.823.865-15.824 6.371-57.5 107.817-108.053 83.104-41.414 149.638-30.009 161.135-4.759 16.427 36.079-35.554 103.136-121.857 112.812-32.88 3.684-50.198-9.059-54.498-13.805-4.536-4.995-5.205-5.218-6.909-4.287-2.753 1.534-1.009 5.939 0 8.574 2.583 6.712 13.149 18.603 31.176 24.516 15.863 5.205 54.459 8.063 101.157-9.99 52.283-20.255 93.12-76.523 81.125-123.549zM196.584 339.995c3.92 14.5 3.487 28.016-.564 40.248a64.8 64.8 0 0 1-1.481 4.038 65.29 65.29 0 0 1-1.744 3.933c-3.12 6.476-7.315 12.533-12.441 18.131-15.653 17.069-37.508 23.532-46.881 18.092-10.121-5.873-5.047-29.943 13.084-49.11 19.521-20.635 47.602-33.902 47.602-33.902l-.039-.079 2.465-1.35z" fill="#ec407a" stroke="#ec407a" stroke-width="16.287"/></svg>