<svg xmlns="http://www.w3.org/2000/svg" width="24" height="24" xmlns:v="https://vecta.io/nano"><path d="M12.289 1.878H4.717a1.893 1.893 0 0 0-1.893 1.893v15.143a1.893 1.893 0 0 0 1.893 1.893h6.625a5.86 5.86 0 0 1-1.079-.852c-.312-.312-.577-.663-.814-1.041H4.717V3.77h6.625v4.732h4.732V9.62c.672.151 1.316.407 1.893.776V7.556l-5.679-5.679m5.972 15.995a4.28 4.28 0 0 0-1.325-5.887c-1.997-1.259-4.647-.644-5.887 1.325-1.268 1.997-.653 4.628 1.325 5.887a4.26 4.26 0 0 0 4.534.019l2.953 2.906 1.316-1.316-2.915-2.934m-3.606.095a2.366 2.366 0 0 1 0-4.732 2.366 2.366 0 0 1 0 4.732z" fill="#42a5f5"/></svg>