<svg width="19" height="19" viewBox="0 0 19 19" fill="none" xmlns="http://www.w3.org/2000/svg">
<path d="M7.49961 6.07538e-09C8.89758 -5.62529e-05 10.2678 0.390614 11.4555 1.12792C12.6432 1.86523 13.6012 2.91983 14.2214 4.1727C14.8416 5.42558 15.0993 6.82686 14.9654 8.21841C14.8315 9.60996 14.3113 10.9364 13.4636 12.048L18.2066 16.793C18.386 16.973 18.4901 17.2144 18.4978 17.4684C18.5056 17.7223 18.4164 17.9697 18.2484 18.1603C18.0803 18.3508 17.8461 18.4703 17.5931 18.4944C17.3402 18.5185 17.0876 18.4454 16.8866 18.29L16.7926 18.207L12.0476 13.464C11.1006 14.1861 9.99527 14.6723 8.82305 14.8824C7.65083 15.0925 6.44543 15.0204 5.30661 14.6721C4.16778 14.3238 3.12826 13.7094 2.27406 12.8795C1.41986 12.0497 0.775549 11.0285 0.394433 9.90019C0.0133168 8.77192 -0.0936444 7.56912 0.0823999 6.39131C0.258444 5.2135 0.712432 4.09454 1.4068 3.12703C2.10117 2.15951 3.01595 1.37126 4.07545 0.827486C5.13495 0.283715 6.30871 6.2855e-05 7.49961 6.07538e-09ZM7.49961 2C6.04091 2 4.64197 2.57946 3.61052 3.61091C2.57907 4.64236 1.99961 6.04131 1.99961 7.5C1.99961 8.95869 2.57907 10.3576 3.61052 11.3891C4.64197 12.4205 6.04091 13 7.49961 13C8.9583 13 10.3572 12.4205 11.3887 11.3891C12.4201 10.3576 12.9996 8.95869 12.9996 7.5C12.9996 6.04131 12.4201 4.64236 11.3887 3.61091C10.3572 2.57946 8.9583 2 7.49961 2Z" fill="#898989"/>
</svg>
