<svg xmlns="http://www.w3.org/2000/svg" viewBox="0 0 300 300" xmlns:v="https://vecta.io/nano"><path d="M93.656 252.93l-58.608-34.91c-2.197-2.111-2.372-7.168-2.352-68.012l1.017-67.248c.839-1.278 114.93-68.32 116.26-68.32 1.335 0 115.42 67.042 116.26 68.32 1.698 2.585 1.253 132.52-.461 134.58-1.178 1.419-50.022 30.2-110.42 65.063l-5.466 3.155zm74.879 11.529c9.928-5.689 19.12-11.554 20.425-13.033 5.167-5.855 2.22-22.428-7.921-44.553-3.434-7.491-5.89-13.974-5.457-14.406 2.165-2.165 29.999 21.345 35.714 30.166 8.795 13.576 5.941 13.273 24.626 2.611 9.088-5.186 17.723-10.521 19.191-11.855 2.44-2.219 2.668-4.271 2.668-24.017 0-24.644.382-23.74-12.846-30.433-7.332-3.709-27.076-7.452-39.621-7.51-3.126-.014-6.044-.611-6.486-1.325-1.017-1.646 3.35-3.864 20.305-10.314 10.685-4.064 16.148-5.321 25.765-5.926l12.204-.768V87.052l-16.926-9.863c-9.309-5.424-18.078-9.863-19.485-9.863-4.587 0-18.396 9.537-24.283 16.77-3.164 3.887-8.498 11.144-11.855 16.125s-6.648 9.076-7.314 9.1c-1.699.06.055-16.855 3.282-31.654 1.676-7.688 4.235-14.848 6.755-18.906 2.231-3.592 4.057-7.319 4.057-8.283 0-1.574-38.81-25.189-41.396-25.189-1.803 0-38.26 21.675-40.016 23.79-1.114 1.343-1.456 5.599-1.056 13.167.52 9.845 1.444 13.13 7.728 27.456l7.861 17.968c1.605 3.762-2.84 1.171-15.602-9.095-15.36-12.355-19.889-17.167-24.644-26.181-1.863-3.532-3.999-6.376-4.746-6.318s-9.291 4.806-18.987 10.552L42.846 87.077v47.348l7.44 4.446c9.779 5.844 13.866 6.916 33.242 8.725 8.95.835 16.8 1.982 17.445 2.548 1.506 1.321-3.334 3.761-20.158 10.16-10.685 4.064-16.148 5.321-25.765 5.926l-12.204.768-.372 21.952c-.44 25.928-2.376 22.64 21.282 36.139l16.252 9.273 7.144-3.849c9.02-4.86 15.585-11.572 25.982-26.563 4.526-6.526 8.717-11.865 9.314-11.865 1.68 0 1.312 5.155-1.614 22.579-2.03 12.092-3.88 18.401-7.475 25.496-4.046 7.985-4.492 9.712-2.918 11.287 1.926 1.926 37.461 23.046 39.11 23.245.513.062 9.056-4.542 18.985-10.231zm-28.054-89.313c-7.395-2.593-15.058-11.41-16.73-19.25-4.594-21.54 17.346-39.532 37.071-30.4 17.296 8.008 21.43 29.242 8.341 42.832-8.106 8.416-17.652 10.686-28.681 6.818zm16.04-7.965c2.435-1.017 6.077-3.81 8.093-6.206 7.074-8.407 3.726-22.934-6.392-27.735-12.968-6.154-26.556 2.647-26.556 17.201 0 7.106 4.494 13.648 11.459 16.682 5.324 2.319 7.957 2.33 13.396.058z" fill="#f5f5f5"/></svg>