<svg xmlns="http://www.w3.org/2000/svg" viewBox="0 0 200 200" xmlns:v="https://vecta.io/nano"><path d="M181.58 148.3c3.799 6.649 4.206 13.637 1.018 19.2s-9.43 8.684-17.029 8.684h-14.451c.204-2.714.271-5.428.271-8.141 0-3.053-.136-6.106-.339-9.091h9.498a4.23 4.23 0 0 0 4.206-4.206c0-.678-.204-1.425-.475-2.035L103.694 47.35c-.746-1.357-2.171-2.171-3.664-2.171s-2.849.746-3.596 2.035l-9.634 16.69c29.241 22.049 48.848 56.175 51.561 94.914.204 2.985.339 6.038.339 9.091 0 2.714-.136 5.428-.271 8.141H91.278a81.77 81.77 0 0 0 .407-8.141c0-3.053-.204-6.106-.543-9.091-2.307-21.303-12.755-40.231-28.155-53.529l-6.649 11.533c11.601 10.787 19.539 25.509 21.71 42.063a67.46 67.46 0 0 1 .611 9.091c0 2.782-.204 5.495-.475 8.141H34.425c-7.666 0-13.908-3.189-17.029-8.684-3.189-5.495-2.782-12.551 1.018-19.2l8.955-15.401a52.43 52.43 0 0 1 13.704 10.652l-5.36 9.091c-.339.611-.475 1.289-.543 2.035a4.23 4.23 0 0 0 4.206 4.206h21.235c-1.764-10.177-6.445-19.336-13.162-26.595-3.935-4.274-8.616-7.87-13.704-10.651L57.424 80.39c5.02 2.782 9.837 6.038 14.247 9.702 20.421 16.554 34.193 41.046 36.704 68.726h12.687c-2.578-32.362-18.861-60.924-43.013-79.852-4.546-3.528-9.362-6.784-14.383-9.566l20.217-35.143c3.799-6.649 9.702-10.448 16.011-10.448 6.377 0 12.212 3.799 16.011 10.448z" fill="#f06292"/></svg>