<svg xmlns="http://www.w3.org/2000/svg" viewBox="0 0 24 24" xmlns:v="https://vecta.io/nano"><path d="M12.002 15.5a3.5 3.5 0 1 1 0-7 3.5 3.5 0 1 1 0 7m7.43-2.53a7.77 7.77 0 0 0 .07-.97 8.55 8.55 0 0 0-.07-1l2.11-1.63c.19-.15.24-.42.12-.64l-2-3.46a.49.49 0 0 0-.61-.22l-2.49 1c-.52-.39-1.06-.73-1.69-.98l-.37-2.65c-.04-.24-.25-.42-.5-.42h-4c-.25 0-.46.18-.5.42l-.37 2.65c-.63.25-1.17.59-1.69.98l-2.49-1a.49.49 0 0 0-.61.22l-2 3.46c-.13.22-.07.49.12.64L4.572 11l-.07 1a7.77 7.77 0 0 0 .07.97l-2.11 1.66c-.19.15-.25.42-.12.64l2 3.46c.12.22.39.3.61.22l2.49-1.01c.52.4 1.06.74 1.69.99l.37 2.65c.04.24.25.42.5.42h4c.25 0 .46-.18.5-.42l.37-2.65a7.28 7.28 0 0 0 1.69-.99l2.49 1.01c.22.08.49 0 .61-.22l2-3.46c.12-.22.07-.49-.12-.64z" fill="#42a5f5"/></svg>