<svg xmlns="http://www.w3.org/2000/svg" viewBox="0 0 24 24" fill="#0288d1" xmlns:v="https://vecta.io/nano"><path d="M10.097 15.432c1.601-1.096 2.01-3.282.914-4.883l-2.896 1.982a1.76 1.76 0 0 1-2.441-.46 1.76 1.76 0 0 1 .46-2.441L8.78 7.818l1.698-1.164c1.601-1.096 2.01-3.282.914-4.883L8.496 3.759l-4.343 2.97-.006.006c-2.402 1.647-3.015 4.923-1.368 7.324 1.635 2.402 4.917 3.015 7.319 1.374zm3.81-6.864c-.011.006-.017.011-.023.017l.023-.017c-1.601 1.096-2.01 3.282-.914 4.883l2.896-1.982a1.75 1.75 0 0 1 2.441.46c.551.801.346 1.891-.454 2.441l-2.646 1.811-1.703 1.164c-1.601 1.096-2.01 3.282-.914 4.883l2.896-1.982 4.343-2.975c2.402-1.641 3.015-4.923 1.374-7.324a5.25 5.25 0 0 0-7.319-1.38"/></svg>