<svg xmlns="http://www.w3.org/2000/svg" viewBox="0 0 24 24" xmlns:v="https://vecta.io/nano"><path d="M9.164 21.221l-.983-.056c-3.402-.189-5.654-.714-6.125-1.427-.136-.205-.146-.515-.022-.681.115-.154.378-.279.745-.355l.312-.064.373.123c1.568.516 2.903.588 4.875.263.819-.135 1.26-.291 1.736-.614.182-.124.259-.152.413-.152.621-.001 1.581-.167 2.066-.356 1.392-.544 2.655-2.023 2.979-3.489.159-.718.072-1.831-.211-2.694l-.13-.397.028-.747c.023-.606.047-.818.126-1.123.289-1.108.991-1.878 1.957-2.145.374-.103 1.169-.093 1.589.02.634.171 1.186.496 1.596.941.505.548.707 1.025.735 1.738.021.55-.034.809-.283 1.316-.211.43-.542.833-.908 1.108l-.337.26c-.052.045-.067.191-.087.837l-.086 1.234c-.457 3.354-2.234 5.421-5.306 6.174-1.024.251-1.37.283-3.184.292-.908.005-1.748.002-1.867-.005zm-3.967-2.877l-.449-.07-.302-.322c-1.513-1.614-2.084-4.003-1.429-5.981.646-1.953 2.321-3.39 4.496-3.86.557-.12 1.913-.133 2.437-.022.592.125 1.108.302 1.631.561 1.828.903 2.982 2.495 3.205 4.42.111.955-.13 1.793-.763 2.651-.712.966-1.618 1.524-2.681 1.654l-.232.028.266-.277c.476-.496.597-.931.597-2.15 0-.684-.011-.832-.088-1.134-.182-.721-.475-1.239-.966-1.705-.643-.611-1.44-.923-2.349-.919-1.295.005-2.196.828-2.196 2.006 0 .398.069.695.239 1.033.136.269.447.621.68.769.368.234.984.35 1.195.225.228-.135.272-.413.096-.61-.091-.102-.15-.126-.364-.154-.337-.043-.438-.086-.643-.276-.259-.239-.395-.569-.397-.964-.001-.268.015-.348.11-.543.133-.271.396-.497.703-.603.328-.114.98-.096 1.386.038.854.282 1.456.919 1.699 1.797.054.197.07.401.07.903 0 .57-.011.684-.092.942-.103.326-.309.758-.488 1.019-.295.429-.853.927-1.283 1.144-.691.348-2.98.573-4.089.401zM19.199 6.578l-.243-.077.139-.4c.537-1.545 1.334-2.521 2.057-2.521.568 0 1.043.588.863 1.067a1.16 1.16 0 0 1-.371.418c-.043.025-.31.055-.596.066-.497.019-.524.024-.688.138-.222.154-.503.575-.69 1.03-.082.2-.166.361-.188.359s-.149-.038-.283-.081zm-2.185-.059c-.068-.116-.127-.838-.126-1.546.001-.639.015-.863.07-1.081.193-.764.528-1.12 1.055-1.12.588 0 .932.421.782.957-.072.259-.183.365-.591.568-.312.155-.394.216-.496.369-.176.262-.228.591-.2 1.253l.023.539-.165.026-.249.047c-.046.012-.093.006-.103-.012z" fill="#f9a825"/></svg>