<svg xmlns="http://www.w3.org/2000/svg" viewBox="0 0 200 200" xmlns:v="https://vecta.io/nano"><g transform="matrix(1.8477 0 0 1.8477 15.702963 19.150548)" fill="none" fill-rule="evenodd"><path d="M65.161 24.997c-1.656 5.974-5.255 23.587-5.255 23.587s-6.619-2.464-14.148-2.476h-.055c-.414.002-.822.012-1.229.025v41.649h6.676v.003h5.815v-.003h20.858c.111-8.176-2.036-27.066-2.036-27.066-1.089-2.278.459-7.668.459-7.668-8.868-9.092-11.085-28.051-11.085-28.051zm-3.357 43.958c5.476 0 1.382 4.64.9 5.168H52.351c.944-1.18 4.504-5.168 9.452-5.168z" fill="#607d8b"/><path d="M26.366 24.995s-2.217 18.961-11.087 28.053c0 0 1.548 5.391.46 7.669 0 0-2.15 18.895-2.038 27.066h19.273v.003h7.079v-.003h5.744V46.107h-.025c-7.532.013-14.151 2.478-14.151 2.478s-3.6-17.615-5.255-23.59zm3.264 43.96c4.95 0 8.51 3.987 9.452 5.168H28.73c-.479-.528-4.574-5.168.9-5.168z" fill="#90a4ae"/><g transform="matrix(1.5998 0 0 1.5998 23.76 77.45)"><path d="M24.883.059h-7.18v.076c0 2.505 2.168 4.535 4.711 4.535s4.712-2.03 4.712-4.535V.059z" fill="#455a64"/><path d="M19.498.059v.076c0 1.49 1.201 2.698 2.693 2.698A2.69 2.69 0 0 0 24.884.135V.059z" fill="#fff"/><path d="M23.022.059H21.76c-.012 0-.023.006-.034.008.156.033.243.387.209.623a.72.72 0 0 1-.71.617c.103.471.487.85.998.922a1.19 1.19 0 0 0 1.349-1.007c.067-.48-.164-1.164-.55-1.164z" fill="#37474f"/><path d="M7.552.059H.373v.076c0 2.505 2.169 4.535 4.711 4.535S9.796 2.64 9.796.135V.059z" fill="#455a64"/><path d="M2.168.059v.076c0 1.49 1.201 2.698 2.692 2.698A2.69 2.69 0 0 0 7.553.135V.059z" fill="#fff"/><path d="M5.692.059H4.429c-.011 0-.023.006-.033.008.156.033.242.387.209.623a.72.72 0 0 1-.711.617 1.19 1.19 0 0 0 .999.922c.652.092 1.257-.355 1.348-1.007.067-.48-.163-1.164-.549-1.164z" fill="#37474f"/></g><path d="M25.514-.27l-4.202 7.698C19.838 10.169 6.858 34.465 6.858 43.243v.516L12.8 59.573c-.8 7.258-2.203 21.643-1.781 28.209h5.731c-.355-3.786.648-17.007 1.902-28.25l.076-.676-1.076-2.892c3.694-3.868 6.285-9.193 8.073-14.261l.174 1.234 5.868 9.629 2.291-.983c.057-.025 5.935-2.523 11.643-2.523 5.672 0 11.646 2.5 11.702 2.525l2.29.976 5.86-9.626.23-1.608c1.769 5.118 4.358 10.536 8.07 14.491l-1.126 3.034.076.678c1.259 11.286 2.265 24.564 1.916 28.252h5.677c.406-6.567-1.05-20.952-1.848-28.208l5.838-15.817v-.514c0-8.778-12.876-33.074-14.347-35.816L65.923-.27l-5.897 41.229-2.723 4.478c-2.628-.882-7.1-2.111-11.603-2.111-4.498 0-8.94 1.226-11.557 2.109l-2.723-4.476-2.07-14.452a.83.83 0 0 0 .007-.071l-.017-.003zm-3.166 18.391l1.206 8.407c-.46 3.143-2.561 15.469-8.198 23.239l-2.597-6.989c.325-4.553 5.067-15.462 9.59-24.656zm46.763 0c4.523 9.193 9.267 20.103 9.592 24.656L76.167 49.6C70.076 41.047 68.166 27.141 68 25.87z" fill="#607d8b"/></g></svg>