<svg xmlns="http://www.w3.org/2000/svg" fill="#cfd8dc" viewBox="0 0 64 64" fill-rule="evenodd" xmlns:v="https://vecta.io/nano"><path d="M32 8.812C19.193 8.812 8.811 19.193 8.811 32S19.193 55.189 32 55.189 55.188 44.807 55.188 32 44.807 8.812 32 8.812zM5.271 32C5.271 17.238 17.238 5.271 32 5.271S58.729 17.238 58.729 32 46.762 58.729 32 58.729 5.271 46.762 5.271 32z"/><path d="M57.179 37.624L24.384 56.558l-.885-1.533 32.795-18.934zM40.826 9.301L8.031 28.235l-.885-1.533L39.941 7.767zm6.527 25.023c.244.423.099.965-.324 1.209L17.214 52.747c-.423.244-.965.099-1.209-.324s-.099-.965.324-1.209L46.143 34c.423-.244.965-.099 1.209.324zm.968-22.422c.244.423.099.965-.324 1.209L18.183 30.325c-.423.244-.965.099-1.209-.324s-.099-.965.324-1.209l29.814-17.213c.423-.244.965-.099 1.209.324z"/><path d="M23.944 25.844c.291-.393.846-.475 1.238-.184L41.15 37.499c.393.291.475.846.184 1.238s-.846.475-1.238.184l-15.968-11.84c-.393-.291-.475-.846-.184-1.238zm5.963-3.442c.291-.393.846-.475 1.238-.184l15.967 11.839c.393.291.475.846.184 1.238s-.846.475-1.238.184L30.09 23.64c-.393-.291-.475-.846-.184-1.238zM17.02 29.043c.284-.398.837-.49 1.235-.205l16.92 12.094c.398.284.49.837.205 1.235s-.837.49-1.235.205l-16.92-12.094c-.398-.284-.49-.837-.205-1.235z"/></svg>