<svg xmlns="http://www.w3.org/2000/svg" width="24" height="24" fill="#ef5350" xmlns:v="https://vecta.io/nano"><path d="M11.095 2.498v1.403a8.14 8.14 0 0 0-7.193 7.194H2.498v1.81h1.403a8.14 8.14 0 0 0 7.194 7.194v1.403h1.81v-1.403a8.14 8.14 0 0 0 7.194-7.193h1.403v-1.81h-1.403a8.14 8.14 0 0 0-7.193-7.193V2.498zm0 3.231v1.294h1.81V5.729c2.778.389 4.977 2.588 5.366 5.366h-1.294v1.81h1.294c-.389 2.778-2.588 4.977-5.366 5.366v-1.294h-1.81v1.294c-2.778-.389-4.977-2.588-5.366-5.366h1.294v-1.81H5.729c.389-2.778 2.588-4.977 5.366-5.366z" dominant-baseline="auto"/><path d="M10.945 2.348v1.443c-3.73.468-6.686 3.424-7.154 7.154H2.347v2.109h1.443c.468 3.73 3.424 6.686 7.154 7.154v1.443h2.109v-1.443c3.73-.468 6.686-3.424 7.154-7.154h1.443v-2.109h-1.443c-.468-3.73-3.424-6.686-7.154-7.154V2.348zm.299.301h1.512v1.389l.133.014a7.99 7.99 0 0 1 7.061 7.061l.014.133h1.389v1.512h-1.389l-.014.133a7.99 7.99 0 0 1-7.061 7.06l-.133.014v1.389h-1.512v-1.389l-.133-.014a7.99 7.99 0 0 1-7.06-7.061l-.014-.133H2.648v-1.512h1.389l.014-.133a7.99 7.99 0 0 1 7.061-7.06l.133-.014zm0 2.908l-.17.023a6.47 6.47 0 0 0-5.494 5.494l-.023.17h1.316v1.512H5.556l.023.17a6.47 6.47 0 0 0 5.494 5.494l.17.023v-1.316h1.512v1.316l.17-.023a6.47 6.47 0 0 0 5.494-5.494l.023-.17h-1.316v-1.512h1.316l-.023-.17a6.47 6.47 0 0 0-5.494-5.494l-.17-.023v1.316h-1.512zm-.299.373v1.244h2.109V5.93c2.567.437 4.578 2.449 5.016 5.016h-1.244v2.109h1.244c-.437 2.567-2.449 4.578-5.016 5.016v-1.244h-2.109v1.244c-2.567-.437-4.578-2.449-5.016-5.016h1.244v-2.109H5.929c.437-2.567 2.449-4.578 5.016-5.016z" dominant-baseline="auto"/></svg>