<svg xmlns="http://www.w3.org/2000/svg" width="412" height="395" xmlns:v="https://vecta.io/nano"><g transform="matrix(.84775 0 0 .84775 31.478 29.499)" fill="#cfd8dc" fill-rule="evenodd"><path d="M208.8 393.05l76.32-276.73 7.832 4.523c4.255 2.458 7.738.448 7.738-4.455V61.602L318.09.909h35.287l58.618 54.304-38.498 33.27 29.11 31.473-191.86 273.09c-.938 1.542-2.244 1.19-1.947 0zm20.96-347.28c1.733 0 3.148.958 3.148 2.147v28.077c0 1.186-1.415 2.15-3.147 2.15h-47.396c-1.742 0-3.153-.96-3.153-2.15V47.917c0-1.185 1.41-2.147 3.153-2.147h47.396zm58.5-31.082l-52.14 30.1c.605.92.973 1.98.973 3.136v28.078c0 1.457-.565 2.77-1.496 3.83l52.663 30.402c3.59 2.073 6.535.377 6.535-3.764V18.456c0-4.145-2.944-5.836-6.535-3.768zM175.02 76V47.923c0-1.15.368-2.21.966-3.13l-52.14-30.105c-3.588-2.068-6.53-.376-6.53 3.768v88.013c0 4.14 2.938 5.84 6.53 3.76l52.66-30.405c-.926-1.06-1.487-2.37-1.487-3.827zm26.23 317.05h1.947l-76.32-276.73-7.833 4.523c-4.253 2.458-7.737.448-7.737-4.455V61.602L93.902.909H58.619L.002 55.213l38.494 33.27-29.11 31.473z"/><circle cx="204.57" cy="122.54" r="14.231"/><circle cx="204.57" cy="207.16" r="14.231"/><circle cx="204.57" cy="291.78" r="14.23"/></g></svg>