<svg xmlns="http://www.w3.org/2000/svg" viewBox="0 0 100 100" xmlns:v="https://vecta.io/nano"><path d="M42.951 7.647l-1.581 7.519a36.344 36.344 0 0 0-10.041 3.981l-6.268-4.084-9.994 9.928 3.84 5.929a36.514 36.514 0 0 0-4.668 10.568l-6.587 1.43v14.107l6.136 1.336a36.382 36.382 0 0 0 4.527 11.5 70.054 70.054 0 0 0-3.237 5.091l9.985 9.985 4.875-3.115a36.213 36.213 0 0 0 11.792 4.912l1.233 5.618h14.173l1.261-5.75a36.485 36.485 0 0 0 11.443-4.988l5.138 3.303 9.975-9.994a82.09 82.081 0 0 0-3.548-5.487 36.533 36.533 0 0 0 4.235-11.011l6.71-1.449V42.908c-2.362-.631-4.724-1.111-7.143-1.515a36.787 36.787 0 0 0-4.357-10.069l4.141-6.343-10.013-9.966-6.531 4.282a35.987 35.987 0 0 0-9.759-4.028l-1.609-7.623zm6.7 16.544a26.689 26.689 0 0 1 .075 0 26.369 26.369 0 0 1 9.138 1.619c.668.245 1.318.508 1.967.847a26.811 26.811 0 0 1 12.855 12.545l.715 1.572a26.604 26.604 0 0 1 .499 18.925l-.32.847a26.849 26.849 0 0 1-13.947 14.653l-.179.122a26.727 26.727 0 0 1-20.986.198.113.113 0 0 0 0-.047 26.83 26.83 0 0 1-14.568-14.954l-.132-.358a26.661 26.661 0 0 1 .527-19.913l.489-1.063a26.896 26.896 0 0 1 13.457-12.846 25.964 25.964 0 0 1 1.779-.687 26.689 26.689 0 0 1 8.63-1.459zm8.686 6.475a3.68 3.68 0 0 0-3.52 4.894 3.614 3.614 0 0 0 .913 1.402l-3.388 5.872a7.444 7.444 0 0 0-3.341-.612 7.331 7.331 0 0 0-6.098 3.943l-7.265-2.852v-.075a3.388 3.388 0 1 0-.64 1.656l7.265 2.852a7.34 7.34 0 0 0 2.475 7.491l-3.388 5.289a4.433 4.433 0 0 0-1.92-.32 4.517 4.517 0 1 0 3.388 1.233l3.388-5.27a7.34 7.34 0 0 0 8.526-1.543l4.235 3.162a5.364 5.364 0 1 0 .998-1.355l-4.225-3.143a7.312 7.312 0 0 0-1.929-9.571l3.388-5.872a3.68 3.68 0 1 0 1.148-7.18z" fill="#0288d1"/></svg>