<svg xmlns="http://www.w3.org/2000/svg" viewBox="0 0 24 24" xmlns:v="https://vecta.io/nano"><path d="M6.499 9.8c.734-2.934 2.568-4.401 5.501-4.401 4.4 0 4.951 3.3 7.151 3.85 1.467.368 2.751-.183 3.85-1.65-.733 2.934-2.567 4.401-5.5 4.401-4.401 0-4.951-3.3-7.151-3.85-1.467-.368-2.751.183-3.851 1.65zm-5.5 6.601C1.732 13.467 3.566 12 6.499 12c4.401 0 4.951 3.3 7.152 3.85 1.466.368 2.75-.183 3.85-1.65-.734 2.934-2.567 4.401-5.5 4.401-4.401 0-4.951-3.3-7.152-3.85-1.466-.368-2.75.183-3.85 1.65z" fill="#4db6ac"/></svg>