<svg xmlns="http://www.w3.org/2000/svg" viewBox="0 0 24 24" xmlns:v="https://vecta.io/nano"><path d="M8.264 3.088l-.664.4-1.033.624-.906.561a.04.04 0 0 1-.034.023c-.024 0-1.36.795-1.66.988a.984.984 0 0 0-.214.185l-.068.091-.007 1.095c-.008 1.327.007 1.38.402 1.464a115.76 115.76 0 0 0 4.874-.027c.326-.136.321-.094.312-2.79l-.008-2.324-.073-.113c-.169-.26-.627-.348-.921-.177m2.279.003c-.068.043-.132.104-.142.135s-.03.057-.043.057-.024.009-.023.02a.077.077 0 0 1-.002.034c-.003.008-.013.05-.023.095-.047.211-.02 17.222.028 17.222.014 0 .017.012.009.026-.028.044.192.24.303.271.374.104 5.5.026 5.5-.085 0-.012.019-.022.042-.022s.036-.01.029-.022.01-.043.039-.068.053-.068.053-.095.006-.057.014-.065.014-2.628.013-5.822l.04-5.903c.021-.052.033-.095.025-.095-.068 0 .227-.254.316-.272a91.18 91.18 0 0 1 1.596-.017c1.866-.01 1.79 0 1.943-.268l.063-.109V5.756c0-2.604.011-2.43-.173-2.603-.16-.151.125-.143-4.866-.142l-4.617.001-.124.079" fill="#4caf50"/></svg>