<svg xmlns="http://www.w3.org/2000/svg" viewBox="0 0 50 50" xmlns:v="https://vecta.io/nano"><path d="M9.727 47.556c-.126-.223-.297-2.168-.184-2.087.035.025.172.267.304.537s.282.487.333.482c.123-.011.074-1.196-.1-2.454-.332-2.398-1.176-4.434-2.359-5.69-.2-.212-.343-.401-.318-.419.093-.067 1.326.843 1.842 1.358.293.293.735.825.981 1.182.327.474.465.618.509.533.079-.147-.21-9.903-.376-12.701-.074-1.255.063-1.023.609 1.035 1.065 4.007 1.859 7.922 2.343 11.55.085.638.173 1.173.194 1.19s.093.002.157-.033a5.45 5.45 0 0 1 2.55-.736c.727-.049.945.062.349.177-1.149.223-1.99 1.013-2.343 2.201-.315 1.061-.327 2.707-.024 3.434.152.365.037.426-1.067.561-.717.087-.977.095-1.202.037-.356-.093-1.118-.098-1.194-.009-.031.036-.243.066-.47.066-.38 0-.423-.017-.535-.215zm1.973-3.232c.152-.205.072-.411-.203-.522-.225-.091-.263-.089-.437.025-.21.137-.252.43-.08.554.18.13.607.096.72-.056zm1.249.085c.056-.027.152-.118.214-.202.241-.33-.352-.622-.744-.366-.406.265.08.785.531.568zm2.288 3.094c-.033-.038.117-.387.334-.774s.411-.666.433-.618c.07.152-.201 1.279-.331 1.372-.149.107-.354.117-.436.02zm-7.035-.411c-.291-.343-.222-.434.139-.182.177.124.322.264.322.311 0 .164-.279.086-.461-.129zm8.648-.145c0-.053.102-.179.227-.282.249-.204.312-.113.143.207-.095.18-.37.235-.37.074zm8.066-.827c-.244-.025-.481-.088-.528-.141-.11-.125-.114-3.043-.004-3.043.046 0 .132.149.193.331.127.38.228.421.31.124.094-.337.065-3.472-.039-4.297-.449-3.55-1.865-6.124-4.342-7.89-1.086-.774-2.652-1.437-4.047-1.712-.764-.151-.522-.224.598-.182 2.364.089 4.168.707 5.848 2.002.845.652 1.714 1.588 2.32 2.502.453.682.641.854.641.584 0-.07.062-.882.138-1.805.679-8.26 2.396-15.1 4.984-19.86 1.861-3.422 5.108-6.817 7.886-8.244 1.397-.718 2.538-.988 4.02-.952.933.023 1.009.036 1.77.307.485.173 1.017.431 1.363.662.611.407 1.309 1.004 1.234 1.058-.025.018-.342-.165-.705-.407-2.657-1.771-5.062-1.521-7.119.742-1.109 1.219-2.652 3.53-3.635 5.443-2.828 5.503-4.541 11.464-5.291 18.413-.163 1.509-.282 3.76-.195 3.703.033-.022.266-.52.518-1.108 1.598-3.723 3.579-6.429 5.79-7.908.672-.449 1.612-.905 1.715-.831.023.016-.171.221-.431.454-1.957 1.755-3.249 3.76-4.233 6.572-.938 2.679-1.365 5.588-1.368 9.299-.001 1.742.188 4.385.366 5.102.125.505.081.546-.584.546-.551 0-2.306.139-3.417.27-.414.049-.816.04-1.608-.036-.581-.056-1.129-.119-1.219-.139-.165-.038-.18-.015-.199.301-.011.186-.099.203-.729.139zm2.507-6.725c.294-.109.375-.221.375-.517 0-.63-1.308-.706-1.524-.088-.074.212.13.511.42.616.297.108.413.107.729-.011zm2.369-.052c.277-.222.318-.364.175-.611-.401-.691-1.755-.307-1.429.405.122.266.299.351.739.353.227.001.387-.044.515-.147zm3.011 6.682c-.027-.05.089-.268.256-.484.879-1.135 1.22-1.545 1.285-1.545.039 0 .055.037.035.083l-.422.964c-.212.485-.446.924-.519.977-.169.122-.571.125-.634.005zm2.446-.596c0-.121.853-.683.896-.591.018.04-.056.21-.165.377-.169.259-.239.305-.465.305-.164 0-.266-.035-.266-.091zm-13.04-.124c-.176-.159-.493-.656-.461-.725.018-.038.248.101.512.309s.456.405.428.438c-.075.088-.371.074-.479-.022z" fill="#9bb92f"/></svg>