<svg xmlns="http://www.w3.org/2000/svg" fill-rule="evenodd" stroke-linejoin="round" stroke-miterlimit="1.414" viewBox="0 0 500 500" fill="#0288d1" xmlns:v="https://vecta.io/nano"><path d="M454 454H46V46h408zM66 66v368h368V66zm283.8 171.85c-2.347-.007-4.503.053-6.114.205-12.593 1.095-24.356 6.595-32.407 15.153-4.034 4.288-7.687 10.436-9.472 15.939-1.967 6.065-1.953 5.949-1.943 15.451.01 12.138.627 15.145 4.757 23.218 4.152 8.118 10.479 14.749 19.608 20.55 4 2.542 14.245 7.651 22.611 11.275 18.211 7.889 23.972 11.528 26.645 16.835l1.104 2.191v4.589c0 4.427-.017 4.655-.918 6.48-2.054 4.224-6.903 7.683-13.112 9.354-2.348.631-3.423.72-8.671.722-5.136 0-6.383-.105-8.737-.692-4.11-1.039-7.573-2.478-10.28-4.271-3.314-2.195-9.832-8.775-12.483-12.603-1.17-1.69-2.345-3.075-2.608-3.075-.436 0-22.907 12.847-26.829 15.338-1.322.841-1.657 1.223-1.657 1.896 0 1.396 5.25 9.332 9.363 14.152 8.378 9.821 25.182 18.481 40.066 20.649 5.883.857 15.657 1.133 22.485.631 4.474-.328 8.996-1.177 13.855-2.602 17.58-5.157 29.575-16.112 34.02-31.074 1.813-6.103 2.546-13.61 1.947-19.943-1.228-12.994-5.222-22.18-13.106-30.137-7.321-7.388-17.372-13.341-37.209-22.039-17.199-7.541-21.688-10.47-24.167-15.768-2.14-4.573-1.732-10.867.96-14.778 3.15-4.578 9.581-6.84 16.751-5.89 6.668.881 10.98 3.524 15.205 9.313 2.194 3.007 3.717 4.572 4.447 4.572.72 0 3.822-1.914 13.451-8.307 9.802-6.507 12.884-8.714 13.095-9.38.328-1.032-1.209-3.446-5.702-8.959-9.023-11.067-19.631-16.942-33.25-18.416-3.344-.363-7.79-.564-11.702-.576zm-108.35 1.878c-8.085-.005-17.321 0-27.583.01l-65.904.483c-.324.324-.408 3.587-.408 15.766v15.357l24.201.088 24.201.088.005 68.503.205 69.212.182.711h17.588c15.747 0 17.607-.035 17.779-.497.105-.275.182-31.42.182-69.212v-68.714l24.201-.087 24.201-.088v-15.542c0-13.471-.053-15.581-.473-15.842-.222-.14-14.127-.224-38.383-.236z"/></svg>