<svg xmlns="http://www.w3.org/2000/svg" fill-rule="evenodd" stroke-linejoin="round" stroke-miterlimit="1.414" viewBox="0 0 500 500" xmlns:v="https://vecta.io/nano"><path d="M46 46v408h408V46H46zm310.02 198.17v.006c3.912.012 8.359.214 11.703.576 13.619 1.473 24.225 7.349 33.248 18.416 4.493 5.513 6.031 7.925 5.703 8.957-.211.666-3.294 2.874-13.096 9.381-9.629 6.392-12.731 8.307-13.451 8.307-.73 0-2.252-1.566-4.445-4.572-4.224-5.789-8.537-8.431-15.205-9.312-7.17-.95-13.602 1.31-16.752 5.889-2.692 3.911-3.099 10.206-.959 14.779 2.479 5.298 6.967 8.226 24.166 15.768 19.836 8.697 29.888 14.651 37.209 22.039 7.884 7.956 11.878 17.143 13.105 30.137.599 6.333-.133 13.84-1.945 19.943-4.445 14.961-16.439 25.916-34.02 31.072-4.86 1.425-9.382 2.276-13.855 2.603-6.828.503-16.603.226-22.486-.631-14.884-2.168-31.686-10.829-40.064-20.65-4.113-4.82-9.363-12.754-9.363-14.15 0-.674.334-1.056 1.656-1.897 3.921-2.491 26.394-15.338 26.83-15.338.263 0 1.437 1.384 2.607 3.074 2.651 3.828 9.17 10.407 12.484 12.602 2.707 1.793 6.169 3.233 10.279 4.272 2.354.587 3.6.691 8.736.691 5.248-.002 6.324-.09 8.672-.721 6.21-1.671 11.057-5.129 13.111-9.353.9-1.825.918-2.053.918-6.481v-4.59l-1.103-2.189c-2.673-5.307-8.434-8.947-26.645-16.836-8.365-3.624-18.611-8.733-22.611-11.275-9.128-5.801-15.455-12.433-19.607-20.551-4.13-8.073-4.746-11.078-4.756-23.217-.01-9.502-.026-9.386 1.941-15.451 1.785-5.504 5.439-11.652 9.473-15.939 8.051-8.558 19.813-14.058 32.406-15.152 1.611-.152 3.768-.212 6.115-.205zm-108.36 1.877h.004l38.379.236c.42.26.473 2.371.473 15.842v15.541l-24.201.088-24.201.088v68.713l-.182 69.213c-.171.462-2.032.498-17.779.498h-17.588l-.182-.711c-.117-.39-.203-31.536-.205-69.213l-.006-68.504-24.201-.086-24.201-.088v-15.357c0-12.18.084-15.442.408-15.766.333-.343 12.684-.432 65.902-.484l27.58-.01z" fill="#0288d1"/></svg>