<svg xmlns="http://www.w3.org/2000/svg" viewBox="0 0 100 100" fill-rule="evenodd" xmlns:v="https://vecta.io/nano"><path d="M87 76.651l-33.16 17.255-.037-41.04 13.9-7.15v29.622l19.224-9.849z" fill="#b39ddb"/><path d="M38.693 89.604l8.576 4.303V52.742l-13.027-6.29-4.125 19.644-4.16-23.69L13 36.078v41.201l8.54 4.378V56.826l4.668 26.817 7.599 3.863 4.885-22.293z" fill="#fbc02d"/><path d="M45.237 6.093l-9.775 8.755 21.39 11.105c2.317 1.173 5.615 3.43 2.05 6.771s-7.486 2.889-10.16 1.535L26.284 22.793l-10.07 8.667L38.85 43.196c3.208 1.716 15.15 5.959 26.47-2.979s9.715-12.188 9.715-12.82-.267-3.972-2.228-6.049-7.664-5.056-10.071-6.32L45.239 6.092z" fill="#f06292"/></svg>