<svg xmlns="http://www.w3.org/2000/svg" viewBox="0 0 100 100" fill-rule="evenodd" xmlns:v="https://vecta.io/nano"><path d="M67.702 45.717v29.622l19.224-9.849.074 11.162-33.16 17.255-.037-41.04z" fill="#9575cd"/><path d="M30.116 66.096l-4.16-23.69L13 36.079v41.201l8.54 4.378V56.826l4.668 26.817 7.599 3.863 4.885-22.293v24.391l8.576 4.303V52.743l-13.027-6.29z" fill="#f9a825"/><path d="M45.237 6.093l-9.775 8.755 21.39 11.105c2.317 1.173 5.615 3.43 2.05 6.771s-7.486 2.889-10.16 1.535L26.284 22.793l-10.07 8.667L38.85 43.196c3.208 1.716 15.15 5.959 26.47-2.979s9.715-12.188 9.715-12.82-.267-3.972-2.228-6.049-7.664-5.056-10.071-6.32L45.239 6.093z" fill="#ec407a"/></svg>