<svg xmlns="http://www.w3.org/2000/svg" xmlns:xlink="http://www.w3.org/1999/xlink" width="64" height="64" xmlns:v="https://vecta.io/nano"><defs><radialGradient id="A" cx="4.993" cy="43.5" r="2.5" gradientTransform="matrix(2.0038,0,0,1.4,27.988,-17.4)" xlink:href="#G"><stop stop-color="#181818" offset="0"/><stop stop-color="#181818" stop-opacity="0" offset="1"/></radialGradient><radialGradient id="B" cx="4.993" cy="43.5" r="2.5" gradientTransform="matrix(2.0038,0,0,1.4,-20.012,-104.4)" xlink:href="#G"><stop stop-color="#181818" offset="0"/><stop stop-color="#181818" stop-opacity="0" offset="1"/></radialGradient><linearGradient id="C" x1="25.058" x2="25.058" y1="47.028" y2="39.999" xlink:href="#G"><stop stop-color="#181818" stop-opacity="0" offset="0"/><stop stop-color="#181818" offset=".5"/><stop stop-color="#181818" stop-opacity="0" offset="1"/></linearGradient><linearGradient id="D" x1="168.408" x2="168.408" y1="1.322" y2="55.901" xlink:href="#G"><stop stop-color="#fff" offset="0"/><stop stop-color="#fff" stop-opacity=".235" offset=".063"/><stop stop-color="#fff" stop-opacity=".157" offset=".951"/><stop stop-color="#fff" stop-opacity=".392" offset="1"/></linearGradient><linearGradient id="E" x1="167.703" x2="167.703" y1="1.618" y2="55.939" xlink:href="#G"><stop stop-color="#ad65d6" offset="0"/><stop stop-color="#7a36b1" offset="1"/></linearGradient><path id="F" d="M163.66 47.609l-.73-30.967q-3.188 1.195-4.98 3.74-1.772 2.546-1.772 6.331 0 .863.089 1.417.11.531.221.863.111.31.2.487.11.177.11.31-1.173 0-2.08-.221-.908-.244-1.528-.753-.598-.508-.93-1.35-.31-.84-.31-2.08 0-1.505.641-2.966.664-1.46 1.793-2.767 1.151-1.305 2.679-2.412 1.55-1.107 3.298-1.904 1.77-.819 3.674-1.261 1.926-.466 3.83-.466.509 0 .93.022.442.022.884.066l.399 27.89 9.54-27.758h3.165l-12.594 33.78h-6.53z"/><linearGradient id="G" gradientUnits="userSpaceOnUse"/></defs><g transform="translate(136.41 -3.39)" opacity=".6"><path transform="matrix(1.579 0 0 .71429 -5.895 27.929)" d="m38 40h5v7h-5z" fill="url(#A)"/><path transform="matrix(-1.579 0 0 -.71429 -5.895 27.929)" d="m-10-47h5v7h-5z" fill="url(#B)"/><path transform="matrix(1.579 0 0 .71429 -5.895 27.929)" d="M10 40h28v7H10z" fill="url(#C)"/></g><rect x="140.91" y="1.11" width="55" height="55" rx="3" fill="url(#E)"/><g fill="none" stroke-linejoin="round"><rect x="141.91" y="2.039" width="53" height="53.142" rx="2" opacity=".3" stroke="url(#D)"/><rect x="140.91" y="1.11" width="55" height="55" rx="3" opacity=".5" stroke="#260063"/></g><g fill="#260063"><path d="M167.87 12.594c-1.35 0-2.705.166-4.06.493-1.335.31-2.624.752-3.866 1.326a20.767 20.767 0 0 0-3.467 2.002 1.016 1.016 0 0 0-.005.004 17.304 17.304 0 0 0-2.844 2.562 1.016 1.016 0 0 0-.006.008 12.544 12.544 0 0 0-1.95 3.012 1.016 1.016 0 0 0-.005.011 8.348 8.348 0 0 0-.729 3.373c0 .912.11 1.722.373 2.434a1.016 1.016 0 0 0 .008.021c.272.69.68 1.293 1.217 1.75a1.016 1.016 0 0 0 .014.012c.54.444 1.188.754 1.908.947a1.016 1.016 0 0 0 .023.006c.702.171 1.473.252 2.32.252a1.016 1.016 0 0 0 1.016-1.015c0-.376-.132-.636-.266-.85l.047.084a4.014 4.014 0 0 1-.148-.371 7.263 7.263 0 0 1-.18-.705 8.528 8.528 0 0 1-.072-1.236c0-2.366.542-4.247 1.588-5.75.797-1.131 1.9-1.962 3.17-2.653l.691 29.322a1.016 1.016 0 0 0 1.016.992h6.53a1.016 1.016 0 0 0 .952-.66l12.594-33.779a1.016 1.016 0 0 0-.951-1.37h-3.164a1.016 1.016 0 0 0-.961.685l-7.649 22.25-.314-22.066a1.016 1.016 0 0 0-.914-.996 18.86 18.86 0 0 0-.934-.07h-.002a18.748 18.748 0 0 0-.98-.024z" opacity=".15"/><use xlink:href="#F" opacity=".3"/></g><use xlink:href="#F" y="-1" fill="#fff"/><path d="M26.357 57.882l-1.111-47.15q-4.854 1.819-7.582 5.694-2.698 3.877-2.698 9.639 0 1.314.136 2.157.167.808.336 1.314.169.472.305.741.167.27.167.472-1.786 0-3.167-.336-1.383-.372-2.326-1.146-.911-.773-1.416-2.055-.472-1.279-.472-3.167 0-2.291.976-4.516 1.011-2.223 2.73-4.213 1.752-1.987 4.079-3.672 2.36-1.685 5.022-2.899 2.695-1.247 5.594-1.92 2.933-.71 5.832-.71.775 0 1.416.033.673.033 1.346.1l.608 42.465L50.654 6.45h4.819L36.298 57.883h-9.943z" fill="#9575cd"/></svg>