<svg xmlns="http://www.w3.org/2000/svg" viewBox="0 0 300 300" fill="#0288d1" xmlns:v="https://vecta.io/nano"><path d="M150 61.553c-23.458 0-45.955 9.318-62.542 25.905S61.553 126.542 61.553 150s9.319 45.954 25.906 62.541 39.084 25.905 62.541 25.905c48.847 0 88.446-39.599 88.446-88.446 0-23.458-9.318-45.954-25.905-62.541S173.458 61.553 150 61.553zm.011 25.082c16.802 0 32.916 6.675 44.797 18.556s18.556 27.995 18.556 44.797-6.675 32.916-18.556 44.797-27.995 18.556-44.797 18.556-32.916-6.675-44.797-18.556-18.556-27.995-18.556-44.797 6.675-32.916 18.556-44.797 27.995-18.556 44.797-18.556z" paint-order="fill markers stroke"/><path d="M45.008 193.096L12.213 225.89l32.795 32.795v-20.246h104.991v-25.098H45.008zm29.08-180.885L41.293 45.006h20.246v104.991h25.098V45.006h20.246zm180.901 29.093V61.55H149.998v25.098h104.991v20.246l32.795-32.795zM213.32 149.998v104.991h-20.246l32.795 32.795 32.795-32.795h-20.246V149.998z"/></svg>