<svg xmlns="http://www.w3.org/2000/svg" width="24" height="24" xmlns:v="https://vecta.io/nano"><defs><radialGradient id="A" cx="205.45" cy="208.29" r="225.35" gradientTransform="matrix(.045559 0 0 .045602 2.8884 2.8796)" gradientUnits="userSpaceOnUse"><stop stop-color="#ffd104" offset="0"/><stop stop-color="#faa60e" offset=".35"/><stop stop-color="#f05023" offset="1"/></radialGradient></defs><path d="M19.97 3H4.03A1.03 1.031 0 0 0 3 4.031v4.135c1.548-1.189 3.563-1.958 5.948-1.958 5.108.003 8.35 3.575 8.349 8.082 0 3.131-1.461 5.485-3.746 6.709h6.419A1.03 1.031 0 0 0 21 19.969V4.031A1.03 1.031 0 0 0 19.97 3z" fill="#f05223"/><path d="M3 17.722v2.247A1.03 1.031 0 0 0 4.03 21h1.837c-1.393-.792-2.377-2-2.867-3.278z" fill="url(#A)"/><path d="M8.948 8.231C6.362 8.142 4.35 9.091 3 10.495v3.162c.918-2.654 3.447-3.87 5.565-3.849 2.647.026 4.689 2.025 4.7 4.283.011 2.159-.892 3.748-3.331 4.14-1.33.213-3.411-.567-3.318-2.577.046-1.037.854-1.622 1.777-1.58-.904 1.213.293 2.102 1.139 1.921 1.048-.224 1.475-1.156 1.475-1.878 0-.762-.718-1.994-2.498-1.951-2.204.052-3.591 1.639-3.637 3.603-.056 2.468 2.253 4.091 4.622 4.121 3.479.046 5.543-2.241 5.538-5.586-.005-3.029-2.434-5.946-6.085-6.072z" fill="#f05223"/></svg>