<svg xmlns="http://www.w3.org/2000/svg" viewBox="0 0 500 500" xmlns:v="https://vecta.io/nano"><path d="M311.64 433.372l130.885-363.97c2.219-6.173-1.279-10.674-7.809-10.044l-102.93 9.915c-6.529.63-13.582 6.169-15.739 12.363L194.901 429.48c-2.159 6.194 1.415 11.223 7.975 11.223h100.191c3.279 0 6.843-2.505 7.953-5.592z" fill="#546e7a"/><path d="M65.278 59.359l102.93 9.915c6.529.63 13.589 6.167 15.757 12.358l123.714 353.456c1.083 3.096-.7 5.608-3.98 5.608H202.877c-6.56 0-13.688-5.011-15.907-11.184L57.472 69.398c-2.219-6.173 1.279-10.674 7.809-10.044z" fill="#039be5"/></svg>