<svg xmlns="http://www.w3.org/2000/svg" viewBox="0 0 420 419" xmlns:v="https://vecta.io/nano"><circle cx="210" cy="209.5" fill="#fff" r="188.15" paint-order="stroke fill markers"/><path d="M191.07 397.1c-35.512-4.049-66.779-16.485-95.318-37.913-22.723-17.061-44.027-43.274-56.077-68.997l-3.932-8.393 25.692-26.371 29.758-30.119 4.067-3.748 12.5 11.364c16.495 14.996 26.818 23.219 41.05 32.697 14.941 9.951 23.867 14.578 35.877 18.597 22.823 7.637 42.099 5.991 66.082-5.642 17.83-8.649 44.399-28.239 66.179-48.797l8.878-8.379 29.147 29.137c16.031 16.025 29.147 29.84 29.147 30.7s-1.599 4.912-3.553 9.005c-18.398 38.533-49.461 69.834-87.797 88.466-17.732 8.618-33.936 13.787-53.563 17.084-10.161 1.707-38.005 2.464-48.137 1.309zm6.3-123.69c-17.457-3.809-39.276-16.397-63.835-36.829-13.001-10.816-26.615-23.771-26.615-25.327 0-1.265 16.792-17.101 29.7-28.009 20.328-17.179 36.936-27.484 53.753-33.355 6.275-2.191 8.25-2.443 19.147-2.443s12.873.252 19.136 2.439c22.614 7.895 50.68 27.158 79.189 54.35 3.836 3.659 6.975 7.022 6.975 7.472 0 1.1-21.726 20.758-32.4 29.316-19.403 15.557-41.794 28.276-56.169 31.907-8.267 2.088-20.566 2.291-28.881.477zm37.472-20.429c14.201-7.184 18.451-9.747 19.779-11.925 1.556-2.552 1.692-4.934 1.692-29.774 0-24.91-.132-27.216-1.704-29.795-1.341-2.199-5.608-4.783-20.022-12.124-18.175-9.256-18.368-9.329-24.812-9.355s-6.632.044-22.95 8.376c-10.12 5.168-17.582 9.581-19.381 11.462l-2.925 3.059.004 27.238c.003 25.164.133 27.452 1.712 30.04 1.301 2.133 5.185 4.602 16.288 10.35 20.15 10.433 22.925 11.538 29.04 11.571 4.821.026 6.487-.627 23.28-9.123zm-40.872-12.388c-7.315-3.808-13.914-7.538-14.665-8.29-1.181-1.181-1.281-4.249-.736-22.667l.63-21.301 13.887-7.201c8.096-4.198 14.986-7.201 16.521-7.201 2.952 0 28.617 12.505 31.423 15.311 1.681 1.681 1.789 3.032 1.789 22.477v20.689l-3.46 2.184c-1.903 1.201-8.377 4.649-14.386 7.661-8.03 4.025-11.825 5.449-14.315 5.369-2.329-.074-7.547-2.272-16.688-7.031zM29.5 263.432c-1.475-3.866-4.192-15.727-5.967-26.05-2.405-13.986-2.19-43.337.424-58.05 2.41-13.562 4.216-20.627 5.613-21.959.772-.736 7.977 6.088 27.938 26.459l26.906 27.906c.004.251-12.122 12.581-26.948 27.4L30.51 266.082zm333.59-24.851l-25.763-27.11c0-1.574 51.776-53.76 53.1-53.521 1.493.27 3.338 6.773 5.975 21.06 2.353 12.751 2.343 48.232-.017 61.072-2.369 12.886-5.358 24.1-6.527 24.49-.553.184-12.599-11.512-26.768-25.991zM64.75 170.903c-26.893-26.902-29.95-30.252-29.354-32.175 1.335-4.308 8.33-18.529 12.565-25.546 28.808-47.732 75.832-79.809 131.42-89.647 15.231-2.696 45.201-2.944 59.361-.492 41.827 7.244 76.236 24.833 104.91 53.625 15.582 15.647 27.713 32.758 36.971 52.151 6.183 12.95 8.732 8.548-24.429 42.185l-29.782 29.768c-.396.16-5.695-4.244-11.775-9.787-32.548-29.669-61.86-48.734-85.116-55.361-7.771-2.215-9.327-2.356-22.05-2.009-12.468.341-14.427.627-21.965 3.212-23.775 8.152-49.675 26.108-80.457 55.78-4.75 4.579-9.006 8.325-9.457 8.325s-14.329-13.513-30.839-30.029z" fill="#4255e5"/></svg>