<svg xmlns="http://www.w3.org/2000/svg" viewBox="0 0 300 300" fill="#7c4dff" xmlns:v="https://vecta.io/nano"><path d="M208.281 180.368l-6.956 31.289h21.649l-7.984-31.289zM177.552 29.65a12.57 12.57 0 0 1 0 1.297 27.6 27.6 0 0 1-27.598 27.598c-7.314-.006-14.325-2.917-19.493-8.093s-8.067-12.192-8.061-19.506a12.57 12.57 0 0 1 0-1.297H29.652v240.692h240.692V29.65zm-33.033 214.928l-11.742-57.992h-.201l-12.659 57.992H103.77l-18.295-85.211h15.946l10.914 58.015h.201l13.151-58.015h14.917l11.809 58.73h.224l12.435-58.73h15.656l-20.33 85.211zm87.805 0l-5.435-18.966h-28.694l-4.182 18.966h-15.946l20.621-85.211h25.161l25.071 85.211z"/></svg>