<svg xmlns="http://www.w3.org/2000/svg" width="120" height="120" xmlns:v="https://vecta.io/nano"><path d="M115.45 23.033L97.534 33.412c-.427.284-.852.569-1.137.854-1.422 1.422-1.848 3.411-1.422 5.26.284.853.711 1.85 1.422 2.56s1.563 1.138 2.559 1.422c1.848.427 3.84 0 5.262-1.422.427-.427.709-.853.852-1.279l.143-.428 2.561-4.691zm-39.102 9.242c-27.441 0-31.99 13.08-31.99 29.289 0 3.839.569 7.962-1.99 11.943-3.839 5.972-8.957 5.828-10.236 5.828-1.706 0-7.962-.993-8.246-2.842h.994c6.683 0 11.658-5.403 11.658-12.654v-2.56h-5.686c-4.123 0-7.821 1.849-10.238 5.119-2.417-3.27-6.113-5.119-10.236-5.119h-5.83v2.56a12.74 12.74 0 0 0 12.797 12.795h1.848c0 4.123 5.687 20.332 47.631 20.332 16.351 0 40.664-2.844 40.664-33.697 0-5.829-1.848-11.231-4.691-15.781-.995.284-1.991.568-3.129.568a8.92 8.92 0 0 1-8.957-8.957c0-.995.141-1.991.426-2.986-4.265-2.701-8.531-3.838-14.787-3.838z" fill="#1e88e5"/></svg>