<svg xmlns="http://www.w3.org/2000/svg" viewBox="0 0 24 24" xmlns:v="https://vecta.io/nano"><path d="M19.376 15.988l-7.708 4.45-7.708-4.45V7.087l7.708-4.45 7.708 4.451z" fill="#fff" fill-opacity=".785"/><path d="M12.286 1.979c-.21 0-.41.06-.57.18l-7.9 4.44a.99.99 0 0 0-.529.881v9a.99.99 0 0 0 .529.881l7.9 4.439c.16.12.36.18.57.18s.41-.06.57-.18l7.9-4.439a.99.99 0 0 0 .529-.881v-9a.99.99 0 0 0-.529-.881l-7.9-4.439c-.16-.12-.36-.18-.57-.18zm0 2.15l7 3.939v2.104h-.016v5.178h.016v.539l-7 3.94-7-3.939v-7.82l7-3.939zm0 2.08l-4.9 2.83 4.9 2.83 4.9-2.83-4.9-2.83zm-5 5.08v3.58l4 2.309v-3.58l-4-2.309zm10 0l-4 2.309v3.58l4-2.309v-3.58z" fill="#8ed6fb"/><path d="M12.286 6.21l-4.9 2.83 4.9 2.83 4.9-2.83-4.9-2.83zm-5 5.08v3.58l4 2.309v-3.58l-4-2.309zm10 0l-4 2.309v3.58l4-2.309v-3.58z" fill="#1c78c0"/></svg>