<svg xmlns="http://www.w3.org/2000/svg" viewBox="0 0 24 24" xmlns:v="https://vecta.io/nano"><g transform="matrix(.12121 0 0 .12121 -.008828 -.001437)" fill-rule="evenodd"><circle cx="99.197" cy="98.946" r="83.28" fill="#212121"/><path d="M182.53 98.828c.011 28.743-14.779 55.467-39.141 70.722-.01.01-.023.016-.037.018l-28.62-35.664 23.709 2.612s11.385 1.177 13.979 0c2.373-.938 15.174-18.964 15.174-18.964s-36.749-23.231-49.312-36.032c1.435-21.575-1.655-50.269-1.655-50.03-9.252 9.233-10.429 10.668-19.681 19.202l-9.951-30.588c-12.103 9.951-21.336 26.799-27.976 46.48-1.453 1.6-2.851 3.292-4.23 5.095-.901 1.195-1.803 2.409-2.667 3.66-1.784 2.538-3.495 5.205-5.132 8.001-1.159 1.968-2.299 3.991-3.403 6.051-7.707 14.475-14.034 31.066-19.515 46.002a.86.86 0 0 1-.092-.184A83.46 83.46 0 0 1 129.514 21.093c31.988 12.53 53.029 43.382 53.017 77.735z" fill="#e53935"/><path d="M101.45 69.178s-1.416-8.295-2.373-11.367l13.519-13.041c.478 11.845.239 18.007-.478 32.482-3.55-3.568-10.668-8.074-10.668-8.074zm-27.737 40.778s-6.64-4.028-11.624-4.727c1.435-3.329 5.224-7.596 6.18-8.773-1.913.699-15.652 6.861-17.087 12.084a74.79 74.79 0 0 1 11.385 3.789c-4.955 5.64-8.023 12.689-8.774 20.159 0 0 21.814-3.329 38.184-1.196a1.72 1.72 0 0 0 .938.239l8.534.239 27.111 45.137.221.349c-.037.018-.055.037-.074.037-51.133 18.485-88.085-15.542-95.975-27.442a1.94 1.94 0 0 0 .074-.313c7.1-30.018 15.855-65.939 29.999-76.552 7.357-12.82 9.491-31.783 22.752-41.734 3.329 9.951 8.553 30.588 12.103 40.538 15.653 15.653 39.361 35.094 55.234 43.15 1.655.956 3.789 7.596 3.789 7.596l-6.401 8.056-68.275-6.879a54.46 54.46 0 0 0-4.58-.184c-4.744.067-9.475.522-14.144 1.361 3.311-8.295 10.429-14.935 10.429-14.935zm22.053-8.774c3.789-.46 7.817.956 12.323 3.568l9.013-2.612c-5.463-4.028-11.385-8.295-19.442-7.118-.771 2.008-1.404 4.067-1.895 6.162z" fill="#fff"/></g></svg>