<svg xmlns="http://www.w3.org/2000/svg" width="290" height="290" xmlns:v="https://vecta.io/nano"><path d="M249.9 217.2c-12.389 2.942-18.661 5.653-33.993 15.641-24.004 15.486-50.176 22.688-50.176 22.688s-2.168 3.252-8.44 4.723c-10.84 2.633-51.647 4.878-55.364 4.956-9.989.077-16.106-2.555-17.809-6.659-5.188-12.389 7.433-17.809 7.433-17.809s-2.787-1.703-4.414-3.252c-1.471-1.471-3.02-4.414-3.484-3.33-1.936 4.723-2.942 16.261-8.13 21.449-7.124 7.201-20.597 4.801-28.572.619-8.75-4.646.619-15.564.619-15.564s-4.723 2.788-8.517-2.942c-3.407-5.265-6.582-14.247-5.73-25.32 1.084-12.776 15.177-25.01 15.177-25.01s-2.478-18.661 5.652-37.787c7.356-17.422 27.179-31.437 27.179-31.437S64.684 99.815 70.879 83.167c4.026-10.84 5.653-10.763 6.969-11.228 4.646-1.781 9.137-3.717 12.467-7.356 16.648-17.964 37.864-14.557 37.864-14.557s9.911-30.431 19.203-24.468c2.865 1.858 13.163 24.778 13.163 24.778s10.995-6.427 12.234-4.026c6.659 12.931 7.433 37.632 4.491 52.654-4.956 24.778-17.345 38.097-22.3 46.459-1.161 1.936 13.318 8.053 22.455 33.373 8.44 23.152.929 42.588 2.245 44.756.232.387.31.542.31.542s9.679.774 29.114-11.228c10.376-6.427 22.688-13.628 36.703-13.783 13.551-.232 14.247 15.719 4.104 18.119z" fill="#0288d1"/></svg>